<?xml version="1.0" encoding="utf-8"?>
<!-- Generator: Adobe Illustrator 24.0.2, SVG Export Plug-In . SVG Version: 6.00 Build 0)  -->
<svg version="1.1"
	 id="svg10" xmlns:cc="http://creativecommons.org/ns#" xmlns:dc="http://purl.org/dc/elements/1.1/" xmlns:inkscape="http://www.inkscape.org/namespaces/inkscape" xmlns:rdf="http://www.w3.org/1999/02/22-rdf-syntax-ns#" xmlns:sodipodi="http://sodipodi.sourceforge.net/DTD/sodipodi-0.dtd" xmlns:svg="http://www.w3.org/2000/svg"
	 xmlns="http://www.w3.org/2000/svg" xmlns:xlink="http://www.w3.org/1999/xlink" x="0px" y="0px" viewBox="0 0 648 180.3"
	 style="enable-background:new 0 0 648 180.3;" xml:space="preserve">
<style type="text/css">
	.st0{fill:#161716;}
	.st1{fill:#FFCC00;}
</style>
<sodipodi:namedview  bordercolor="#666666" borderopacity="1" gridtolerance="10" guidetolerance="10" id="namedview12" inkscape:current-layer="g18" inkscape:cx="287.61497" inkscape:cy="210.17704" inkscape:pageopacity="0" inkscape:pageshadow="2" inkscape:window-height="1043" inkscape:window-maximized="0" inkscape:window-width="1747" inkscape:window-x="0" inkscape:window-y="23" inkscape:zoom="1.154321" objecttolerance="10" pagecolor="#ffffff" showgrid="false">
	</sodipodi:namedview>
<g id="Layer_1_1_">
	<g id="Layer_2_1_">
	</g>
	<path id="path836" class="st0" d="M370.4,168.6h-92.8c-16.9,0-30.6-13.7-30.6-30.6V45.2c0-16.9,13.7-30.6,30.6-30.6h92.8
		c16.9,0,30.6,13.7,30.6,30.6V138C401,154.9,387.3,168.6,370.4,168.6z"/>
</g>
<g id="g18" inkscape:groupmode="layer" inkscape:label="Image">
	<g id="text24" transform="matrix(0.92407939,0,0,1.0821581,-16,10)">
		<path id="path33" d="M353.5,118.7c-5.2,0-10.1-0.8-14.6-2.3c-4.4-1.5-8.2-3.9-11.4-6.9c-3.2-3.1-5.7-6.9-7.5-11.5
			c-1.7-4.6-2.6-9.9-2.6-15.9c0-5.6,0.8-10.7,2.5-15.2c1.7-4.6,4.1-8.5,7.3-11.7c3.1-3.1,6.9-5.5,11.4-7.3c4.6-1.7,9.5-2.6,14.9-2.6
			c3,0,5.7,0.2,8,0.5c2.4,0.3,4.6,0.7,6.6,1.3c2.1,0.6,4,1.3,5.7,2c1.7,0.7,3.3,1.4,4.6,2v17.1h-2.1c-0.9-0.8-2-1.7-3.4-2.7
			c-1.3-1-2.8-2.1-4.6-3.1c-1.7-1-3.6-1.9-5.7-2.6c-2-0.7-4.2-1-6.5-1c-2.6,0-5,0.4-7.3,1.2c-2.3,0.8-4.5,2.1-6.4,4
			c-1.9,1.8-3.4,4.2-4.6,7.2c-1.1,3-1.7,6.6-1.7,10.8c0,4.4,0.6,8.1,1.8,11.1c1.3,3,2.8,5.3,4.8,7c1.9,1.7,4.1,3,6.5,3.7
			c2.4,0.7,4.7,1.1,7,1.1c2.2,0,4.4-0.3,6.6-1c2.2-0.7,4.2-1.6,6-2.7c1.5-0.9,3-1.9,4.3-2.9c1.3-1,2.4-1.9,3.3-2.7h1.9v16.9
			c-1.8,0.8-3.5,1.5-5.1,2.2c-1.6,0.7-3.3,1.3-5.1,1.8c-2.3,0.7-4.5,1.2-6.5,1.5C359.8,118.5,357,118.7,353.5,118.7L353.5,118.7z"/>
	</g>
	<g id="text28" transform="translate(-16,10)">
		<path id="path30" d="M385.7,74.8h-28.5v-6c2.2-1.6,4.4-3.2,6.5-5c2.2-1.8,4-3.3,5.3-4.6c2-1.9,3.4-3.6,4.2-5
			c0.8-1.4,1.2-2.8,1.2-4.2c0-1.7-0.5-2.9-1.6-3.8c-1.1-0.9-2.6-1.4-4.6-1.4c-1.5,0-3.1,0.3-4.7,0.9c-1.6,0.6-3.2,1.4-4.6,2.4h-0.8
			v-8.1c1.2-0.5,2.9-1,5.1-1.5c2.3-0.5,4.5-0.8,6.8-0.8c4.6,0,8,1,10.4,2.9c2.4,1.9,3.6,4.6,3.6,8.1c0,2.3-0.6,4.5-1.7,6.5
			c-1.1,2.1-2.9,4.2-5.2,6.4c-1.5,1.4-3,2.6-4.5,3.8c-1.5,1.1-2.6,1.9-3.2,2.4h16.3L385.7,74.8z"/>
	</g>
	<g id="g50" transform="matrix(0.92407939,0,0,1.0821581,-28,-6)">
		<path id="path48" class="st1" d="M364,130.7c-5.2,0-10.1-0.8-14.6-2.3c-4.4-1.5-8.2-3.9-11.4-6.9c-3.2-3.1-5.7-6.9-7.5-11.5
			c-1.7-4.6-2.6-9.9-2.6-15.9c0-5.6,0.8-10.7,2.5-15.2c1.7-4.6,4.1-8.5,7.3-11.7c3.1-3.1,6.9-5.5,11.4-7.3c4.6-1.7,9.5-2.6,14.9-2.6
			c3,0,5.7,0.2,8,0.5c2.4,0.3,4.6,0.7,6.6,1.3c2.1,0.6,4,1.3,5.7,2c1.7,0.7,3.3,1.4,4.6,2v17.1h-2.1c-0.9-0.8-2-1.7-3.4-2.7
			c-1.3-1-2.8-2.1-4.6-3.1c-1.7-1-3.6-1.9-5.7-2.6c-2-0.7-4.2-1-6.5-1c-2.6,0-5,0.4-7.3,1.2c-2.3,0.8-4.5,2.1-6.4,4
			c-1.9,1.8-3.4,4.2-4.6,7.2c-1.1,3-1.7,6.6-1.7,10.8c0,4.4,0.6,8.1,1.8,11.1c1.3,3,2.8,5.3,4.8,7c1.9,1.7,4.1,3,6.5,3.7
			c2.4,0.7,4.7,1.1,7,1.1c2.2,0,4.4-0.3,6.6-1c2.2-0.7,4.2-1.6,6-2.7c1.5-0.9,3-1.9,4.3-2.9c1.3-1,2.4-1.9,3.3-2.7h1.9v16.9
			c-1.8,0.8-3.5,1.5-5.1,2.2c-1.6,0.7-3.3,1.3-5.1,1.8c-2.3,0.7-4.5,1.2-6.5,1.5C370.4,130.5,367.6,130.7,364,130.7L364,130.7z"/>
	</g>
	<g id="g54" transform="translate(-28,-6)">
		<path id="path52" class="st1" d="M395.5,87.8H367v-6c2.2-1.6,4.4-3.2,6.5-5c2.2-1.8,4-3.3,5.3-4.6c2-1.9,3.4-3.6,4.2-5
			c0.8-1.4,1.2-2.8,1.2-4.2c0-1.7-0.5-2.9-1.6-3.8c-1.1-0.9-2.6-1.4-4.6-1.4c-1.5,0-3.1,0.3-4.7,0.9c-1.6,0.6-3.2,1.4-4.6,2.4h-0.8
			v-8.1c1.2-0.5,2.9-1,5.1-1.5c2.3-0.5,4.5-0.8,6.8-0.8c4.6,0,8,1,10.4,2.9c2.4,1.9,3.6,4.6,3.6,8.1c0,2.3-0.6,4.5-1.7,6.5
			c-1.1,2.1-2.9,4.2-5.2,6.4c-1.5,1.4-3,2.6-4.5,3.8c-1.5,1.1-2.6,1.9-3.2,2.4h16.3L395.5,87.8z"/>
	</g>
</g>
</svg>
