<?xml version="1.0" encoding="utf-8"?>
<!-- Generator: Adobe Illustrator 24.0.2, SVG Export Plug-In . SVG Version: 6.00 Build 0)  -->
<svg version="1.1"
	 id="svg1716" xmlns:cc="http://creativecommons.org/ns#" xmlns:dc="http://purl.org/dc/elements/1.1/" xmlns:inkscape="http://www.inkscape.org/namespaces/inkscape" xmlns:rdf="http://www.w3.org/1999/02/22-rdf-syntax-ns#" xmlns:sodipodi="http://sodipodi.sourceforge.net/DTD/sodipodi-0.dtd" xmlns:svg="http://www.w3.org/2000/svg"
	 xmlns="http://www.w3.org/2000/svg" xmlns:xlink="http://www.w3.org/1999/xlink" x="0px" y="0px" viewBox="0 0 500 365"
	 style="enable-background:new 0 0 500 365;" xml:space="preserve">
<style type="text/css">
	.st0{fill:#FFCC00;}
</style>
<sodipodi:namedview  bordercolor="#666666" borderopacity="1.0" id="base" inkscape:current-layer="layer1" inkscape:cx="467.48222" inkscape:cy="533.68402" inkscape:document-rotation="0" inkscape:document-units="mm" inkscape:pageopacity="0.0" inkscape:pageshadow="2" inkscape:window-height="706" inkscape:window-maximized="0" inkscape:window-width="1280" inkscape:window-x="0" inkscape:window-y="23" inkscape:zoom="0.41" pagecolor="#ffffff" showgrid="false" units="px">
	</sodipodi:namedview>
<g id="layer4" inkscape:groupmode="layer" inkscape:label="Layer 2">
</g>
<g id="g18" inkscape:groupmode="layer" inkscape:label="Image">
	<g id="text24" transform="matrix(0.92407939,0,0,1.0821581,-16,10)">
		<path id="path33" d="M252.8,316c-14.5,0-27.8-2.2-40.1-6.2c-12.3-4.3-22.6-10.5-31.4-18.8c-8.7-8.3-15.5-18.6-20.5-31.2
			c-4.9-12.4-7.1-26.9-7.1-43c0-15.1,2.2-29,6.8-41.2c4.6-12.4,11.2-22.9,20.2-31.7c8.5-8.6,18.8-15.1,31.4-19.6
			c12.6-4.5,26.2-7,40.9-7c8.2,0,15.5,0.5,22.1,1.3c6.5,0.8,12.8,1.9,18.3,3.5c5.7,1.6,11.2,3.5,15.8,5.6c4.9,1.9,9,3.8,12.5,5.6v46
			H316c-2.5-2.2-5.5-4.6-9.3-7.3c-3.5-3-7.9-5.6-12.5-8.3c-4.9-2.7-10.1-5.1-15.5-7c-5.5-1.9-11.5-3-18-3c-7.1,0-13.6,1.1-20.2,3.2
			c-6.3,2.2-12.3,5.6-17.7,10.8c-5.2,4.8-9.3,11.3-12.5,19.4c-3,8.1-4.6,17.8-4.6,29.3c0,12.1,1.6,22.1,5.2,30.1
			c3.5,8.1,7.9,14.5,13.1,19.1c5.2,4.8,11.2,8.1,17.7,10.2c6.5,1.9,12.8,3,19.4,3c6,0,12-0.8,18-2.7c6-1.9,11.5-4.3,16.6-7.3
			c4.4-2.4,8.2-5.1,12-8.1c3.5-3,6.5-5.4,9-7.3h5.2v45.7c-4.9,2.2-9.5,4-13.9,5.9s-9,3.5-13.9,4.8c-6.3,1.9-12.3,3.2-18,4
			C270.3,314.9,262.4,316,252.8,316L252.8,316z"/>
	</g>
	<g id="text28" transform="translate(-16,10)">
		<path id="path30" d="M395.9,196.7h-78.3v-16.1c6-4.3,12-8.9,18-13.7s10.9-8.9,14.5-12.4c5.5-5.1,9.3-9.7,11.5-13.4
			c2.2-3.8,3.5-7.5,3.5-11.3c0-4.6-1.4-8.1-4.4-10.5s-7.1-3.8-12.5-3.8c-4.1,0-8.5,0.8-13.1,2.4c-4.6,1.6-8.7,3.8-12.5,6.5h-2.2
			v-22.1c3.3-1.3,7.9-2.7,13.9-4c6.3-1.3,12.5-2.2,18.5-2.2c12.5,0,22.1,2.7,28.6,7.8c6.5,5.1,9.8,12.4,9.8,22.1
			c0,6.2-1.6,12.1-4.6,17.8c-3,5.6-7.9,11.3-14.5,17.2c-4.1,3.8-8.2,7-12.3,10.2c-4.1,3-7.1,5.4-8.7,6.5h44.8V196.7z"/>
	</g>
	<g id="g50" transform="matrix(0.92407939,0,0,1.0821581,-28,-6)">
		<path id="path48" class="st0" d="M259,323.3c-14.5,0-27.8-2.2-40.1-6.2c-12.3-4.3-22.6-10.5-31.4-18.8
			c-8.7-8.3-15.5-18.6-20.5-31.2c-4.9-12.4-7.1-26.9-7.1-43c0-15.1,2.2-29,6.8-41.2c4.6-12.1,11.2-22.9,20.2-31.7
			c8.5-8.6,18.8-15.1,31.4-19.6c12.5-4.6,26.2-7,40.9-7c8.2,0,15.5,0.5,22.1,1.3c6.5,0.8,12.8,1.9,18.3,3.5
			c5.7,1.6,11.2,3.5,15.8,5.6c4.9,1.9,9,3.8,12.5,5.6v46h-5.7c-2.5-2.2-5.5-4.6-9.3-7.3c-3.5-3-7.9-5.6-12.5-8.3
			c-4.9-2.7-10.1-5.1-15.5-7c-5.5-1.9-11.5-3-18-3c-7.1,0-13.6,1.1-20.2,3.2c-6.3,2.2-12.3,5.6-17.7,10.8
			c-5.2,4.8-9.3,11.3-12.5,19.4c-3,8.1-4.6,17.8-4.6,29.3c0,12.1,1.6,22.1,5.2,30.1c3.5,8.1,7.9,14.5,13.1,19.1
			c5.2,4.8,11.2,8.1,17.7,10.2c6.5,1.9,12.8,3,19.4,3c6,0,12-0.8,18-2.7c6-1.9,11.5-4.3,16.6-7.3c4.4-2.4,8.2-5.1,12-8.1
			c3.5-3,6.5-5.4,9-7.3h5.2v45.7c-4.9,2.2-9.5,4-13.9,5.9c-4.4,1.9-9,3.5-13.9,4.8c-6.3,1.9-12.3,3.2-18,4
			C276.5,322.7,268.9,323.3,259,323.3L259,323.3z"/>
	</g>
	<g id="g54" transform="translate(-28,-6)">
		<path id="path52" class="st0" d="M401.6,204.4h-78.3v-16.1c6-4.3,12-8.9,18-13.7s10.9-8.9,14.5-12.4c5.5-5.1,9.3-9.7,11.5-13.4
			c2.2-3.8,3.5-7.5,3.5-11.3c0-4.6-1.4-8.1-4.4-10.5c-3-2.4-7.1-3.8-12.5-3.8c-4.1,0-8.5,0.8-13.1,2.4c-4.6,1.6-8.7,3.8-12.5,6.5
			h-2.2v-21.8c3.3-1.3,7.9-2.7,13.9-4c6.3-1.3,12.5-2.2,18.5-2.2c12.5,0,22.1,2.7,28.6,7.8s9.8,12.4,9.8,22.1
			c0,6.2-1.6,12.1-4.6,17.8c-3,5.6-7.9,11.3-14.5,17.2c-4.1,3.8-8.2,7-12.3,10.2c-4.1,3-7.1,5.4-8.7,6.5h45L401.6,204.4z"/>
	</g>
</g>
</svg>
