<?xml version="1.0" encoding="utf-8"?>
<!-- Generator: Adobe Illustrator 24.0.2, SVG Export Plug-In . SVG Version: 6.00 Build 0)  -->
<svg version="1.1"
	 id="Layer_1" xmlns:cc="http://creativecommons.org/ns#" xmlns:dc="http://purl.org/dc/elements/1.1/" xmlns:inkscape="http://www.inkscape.org/namespaces/inkscape" xmlns:rdf="http://www.w3.org/1999/02/22-rdf-syntax-ns#" xmlns:sodipodi="http://sodipodi.sourceforge.net/DTD/sodipodi-0.dtd" xmlns:svg="http://www.w3.org/2000/svg"
	 xmlns="http://www.w3.org/2000/svg" xmlns:xlink="http://www.w3.org/1999/xlink" x="0px" y="0px" viewBox="0 0 4314 1024"
	 style="enable-background:new 0 0 4314 1024;" xml:space="preserve">
<style type="text/css">
	.st0{fill:#003566;}
	.st1{fill-rule:evenodd;clip-rule:evenodd;fill:#FFC300;}
	.st2{fill:#001D3D;}
	.st3{fill:none;}
	.st4{fill:#FFC300;}
	.st5{font-family:'Ubuntu-Bold';}
	.st6{font-size:500px;}
</style>
<sodipodi:namedview  bordercolor="#666666" borderopacity="1" gridtolerance="10" guidetolerance="10" id="namedview850" inkscape:current-layer="Layer_1" inkscape:cx="512" inkscape:cy="512" inkscape:pageopacity="0" inkscape:pageshadow="2" inkscape:window-height="968" inkscape:window-maximized="0" inkscape:window-width="1630" inkscape:window-x="0" inkscape:window-y="23" inkscape:zoom="0.6953125" objecttolerance="10" pagecolor="#ffffff" showgrid="false">
	</sodipodi:namedview>
<g id="Layer_1_1_">
	<g id="Layer_2_1_">
	</g>
	<path id="path836" class="st0" d="M820.5,1024h-617C91.1,1024,0,932.9,0,820.5v-617C0,91.1,91.1,0,203.5,0h617
		C932.9,0,1024,91.1,1024,203.5v617C1024,932.9,932.9,1024,820.5,1024z"/>
</g>
<g id="Layer_2_2_">
</g>
<polygon class="st1" points="623.3,846.1 210.4,431.3 210.4,174.8 878.7,846.1 "/>
<polygon class="st1" points="213.5,586.7 629.3,174.8 886.4,174.8 213.5,841.5 "/>
<polygon class="st1" points="209.3,172.7 468,172.7 209.3,429.9 "/>
<polygon class="st1" points="210.4,849.2 210.4,590.5 469.1,849.2 "/>
<path class="st2" d="M219.5,440.3C270.7,406.2,321.8,372.1,373,338l-35.4-35.5C294.8,345,252,387.6,209.2,430.1l3.2,3.2
	C212.6,433.3,219.5,440.3,219.5,440.3z"/>
<path class="st2" d="M234.6,430.1"/>
<path class="st2" d="M243.4,849.2c44.6-30.6,89.2-61.3,133.8-91.9c-13.1-13.1-26.1-26.1-39.2-39.2c-42.5,43.7-85.1,87.4-127.6,131.1
	c0.6,0,1.2,0,1.8,0C222.6,849.2,233,849.2,243.4,849.2z"/>
<path class="st2" d="M104.9,654.7"/>
<path class="st2" d="M470.9,693c50.6-34.7,101.1-69.4,151.7-104.2C597.4,562.9,572.2,537,547,511c-43.2,42.8-86.4,85.6-129.5,128.3
	c5,5.1,10.1,10.1,15.1,15.2C445.4,667.4,458.1,680.2,470.9,693z"/>
<line class="st3" x1="231.8" y1="849.2" x2="302.5" y2="778.5"/>
<text transform="matrix(1 0 0 1 1219.4741 654.7)" class="st4 st5 st6">KnowledgeN</text>
</svg>
