<?xml version="1.0" encoding="utf-8"?>
<!-- Generator: Adobe Illustrator 24.0.2, SVG Export Plug-In . SVG Version: 6.00 Build 0)  -->
<svg version="1.1"
	 id="svg10" xmlns:cc="http://creativecommons.org/ns#" xmlns:dc="http://purl.org/dc/elements/1.1/" xmlns:inkscape="http://www.inkscape.org/namespaces/inkscape" xmlns:rdf="http://www.w3.org/1999/02/22-rdf-syntax-ns#" xmlns:sodipodi="http://sodipodi.sourceforge.net/DTD/sodipodi-0.dtd" xmlns:svg="http://www.w3.org/2000/svg"
	 xmlns="http://www.w3.org/2000/svg" xmlns:xlink="http://www.w3.org/1999/xlink" x="0px" y="0px" viewBox="0 0 442 431"
	 style="enable-background:new 0 0 442 431;" xml:space="preserve">
<style type="text/css">
	.st0{fill:#161716;}
	.st1{fill:#FFCC00;}
</style>
<sodipodi:namedview  bordercolor="#666666" borderopacity="1" gridtolerance="10" guidetolerance="10" id="namedview12" inkscape:current-layer="svg10" inkscape:cx="414.09625" inkscape:cy="714.36955" inkscape:document-rotation="0" inkscape:pageopacity="0" inkscape:pageshadow="2" inkscape:window-height="1043" inkscape:window-maximized="0" inkscape:window-width="1747" inkscape:window-x="0" inkscape:window-y="23" inkscape:zoom="1.154321" objecttolerance="10" pagecolor="#ffffff" showgrid="false">
	</sodipodi:namedview>
<g id="Layer_1_1_">
	<g id="Layer_2_1_">
	</g>
	<path id="path836" class="st0" d="M346.9,424.9H95.1c-45.9,0-83.1-37.2-83.1-83.1V90C12,44.1,49.2,6.9,95.1,6.9h251.9
		C392.8,6.9,430,44.1,430,90v251.9C430,387.7,392.8,424.9,346.9,424.9z"/>
</g>
<g id="g18" inkscape:groupmode="layer" inkscape:label="Image">
	<g id="text24" transform="matrix(0.92407939,0,0,1.0821581,-16,10)">
		<path id="path33" d="M217.2,307.7c-14.2,0-27.4-2.1-39.6-6.3c-12-4.2-22.4-10.5-31.1-18.8c-8.7-8.3-15.4-18.7-20.2-31.2
			c-4.7-12.5-7.1-26.9-7.1-43.2c0-15.2,2.3-29,6.8-41.4c4.6-12.4,11.2-23,19.8-31.8c8.3-8.5,18.7-15.1,30.9-19.7
			c12.4-4.7,25.8-6.9,40.5-6.9c8.1,0,15.3,0.5,21.8,1.4c6.5,0.9,12.5,2,18,3.5c5.8,1.6,10.9,3.5,15.6,5.6c4.7,2,8.9,3.8,12.4,5.6
			v46.5h-5.7c-2.4-2.1-5.5-4.5-9.1-7.3c-3.6-2.8-7.7-5.6-12.4-8.4c-4.7-2.7-9.8-5.1-15.3-6.9c-5.5-1.9-11.4-2.8-17.7-2.8
			c-6.9,0-13.6,1.1-19.8,3.3c-6.3,2.2-12.1,5.8-17.4,10.8c-5.1,4.9-9.2,11.4-12.4,19.5c-3.1,8.1-4.7,17.9-4.7,29.4
			c0,12,1.7,22.1,5,30.2c3.4,8.1,7.7,14.5,12.9,19.1c5.2,4.7,11.1,8.1,17.5,10.2c6.4,2,12.8,3,19.1,3c6,0,12-0.9,17.8-2.7
			c5.9-1.8,11.4-4.2,16.4-7.3c4.2-2.5,8.1-5.1,11.7-8c3.6-2.8,6.6-5.3,8.9-7.3h5.1v45.9c-4.8,2.2-9.4,4.2-13.8,6
			c-4.4,1.9-9,3.5-13.8,4.9c-6.3,1.8-12.2,3.2-17.7,4.1C234.4,307.3,226.8,307.7,217.2,307.7L217.2,307.7z"/>
	</g>
	<g id="text28" transform="translate(-16,10)">
		<path id="path30" d="M361.2,187.5h-77.5v-16.3c5.9-4.3,11.8-8.8,17.8-13.6c6-4.8,10.7-9,14.3-12.5c5.3-5.2,9.1-9.7,11.4-13.5
			c2.2-3.8,3.4-7.6,3.4-11.4c0-4.5-1.5-8-4.4-10.4c-2.9-2.5-7-3.7-12.5-3.7c-4.1,0-8.4,0.9-12.9,2.5c-4.4,1.7-8.6,3.8-12.5,6.4h-2.1
			V93.1c3.1-1.4,7.8-2.7,13.8-4.1c6.1-1.4,12.3-2,18.4-2c12.4,0,21.8,2.6,28.3,7.8c6.5,5.2,9.8,12.5,9.8,22c0,6.2-1.6,12.2-4.7,17.8
			c-3.1,5.6-7.8,11.4-14.2,17.3c-4,3.7-8.1,7.1-12.1,10.3c-4.1,3.1-6.9,5.3-8.7,6.5h44.3V187.5z"/>
	</g>
	<g id="g50" transform="matrix(0.92407939,0,0,1.0821581,-28,-6)">
		<path id="path48" class="st1" d="M223.6,315c-14.2,0-27.4-2.1-39.6-6.3c-12-4.2-22.4-10.5-31.1-18.8c-8.7-8.3-15.4-18.7-20.2-31.2
			c-4.7-12.5-7.1-26.9-7.1-43.2c0-15.2,2.3-29,6.8-41.4c4.6-12.4,11.2-23,19.8-31.8c8.3-8.5,18.7-15.1,30.9-19.7
			c12.4-4.7,25.8-6.9,40.5-6.9c8.1,0,15.3,0.5,21.8,1.4c6.5,0.9,12.5,2,18,3.5c5.8,1.6,10.9,3.5,15.6,5.6c4.7,2,8.9,3.8,12.4,5.6
			v46.5h-5.7c-2.4-2.1-5.5-4.5-9.1-7.3c-3.6-2.8-7.7-5.6-12.4-8.4c-4.7-2.7-9.8-5.1-15.3-6.9c-5.5-1.9-11.4-2.8-17.7-2.8
			c-6.9,0-13.6,1.1-19.8,3.3c-6.3,2.2-12.1,5.8-17.4,10.8c-5.1,4.9-9.2,11.4-12.4,19.5c-3.1,8.1-4.7,17.9-4.7,29.4
			c0,12,1.7,22.1,5,30.2c3.4,8.1,7.7,14.5,12.9,19.1c5.2,4.7,11.1,8.1,17.5,10.2c6.4,2,12.8,3,19.1,3c6,0,12-0.9,17.8-2.7
			c5.9-1.8,11.4-4.2,16.4-7.3c4.2-2.5,8.1-5.1,11.7-8c3.6-2.8,6.6-5.3,8.9-7.3h5.1v45.9c-4.8,2.2-9.4,4.2-13.8,6
			c-4.4,1.9-9,3.5-13.8,4.9c-6.3,1.8-12.2,3.2-17.7,4.1C240.8,314.5,233.2,315,223.6,315L223.6,315z"/>
	</g>
	<g id="g54" transform="translate(-28,-6)">
		<path id="path52" class="st1" d="M367.1,195.4h-77.4v-16.3c5.9-4.3,11.8-8.8,17.8-13.6c6-4.8,10.7-9,14.3-12.5
			c5.3-5.2,9.1-9.7,11.4-13.5c2.2-3.8,3.4-7.6,3.4-11.4c0-4.5-1.5-8-4.4-10.4c-2.9-2.5-7-3.7-12.5-3.7c-4.1,0-8.4,0.9-12.9,2.5
			c-4.4,1.7-8.6,3.8-12.5,6.4h-2.1V101c3.1-1.4,7.8-2.7,13.8-4.1c6.1-1.4,12.3-2,18.4-2c12.4,0,21.8,2.6,28.3,7.8
			c6.5,5.2,9.8,12.5,9.8,22c0,6.2-1.6,12.2-4.7,17.8c-3.1,5.6-7.8,11.4-14.2,17.3c-4,3.7-8.1,7.1-12.1,10.3
			c-4.1,3.1-6.9,5.3-8.7,6.5h44.3L367.1,195.4z"/>
	</g>
</g>
</svg>
