<?xml version="1.0" encoding="utf-8"?>
<!-- Generator: Adobe Illustrator 24.0.2, SVG Export Plug-In . SVG Version: 6.00 Build 0)  -->
<svg version="1.1"
	 id="svg10" xmlns:cc="http://creativecommons.org/ns#" xmlns:dc="http://purl.org/dc/elements/1.1/" xmlns:inkscape="http://www.inkscape.org/namespaces/inkscape" xmlns:rdf="http://www.w3.org/1999/02/22-rdf-syntax-ns#" xmlns:sodipodi="http://sodipodi.sourceforge.net/DTD/sodipodi-0.dtd" xmlns:svg="http://www.w3.org/2000/svg"
	 xmlns="http://www.w3.org/2000/svg" xmlns:xlink="http://www.w3.org/1999/xlink" x="0px" y="0px" viewBox="0 0 900 583"
	 style="enable-background:new 0 0 900 583;" xml:space="preserve">
<style type="text/css">
	.st0{fill:#161716;}
	.st1{fill:#FFCC00;}
</style>
<sodipodi:namedview  bordercolor="#666666" borderopacity="1" gridtolerance="10" guidetolerance="10" id="namedview12" inkscape:current-layer="svg10" inkscape:cx="414.09625" inkscape:cy="714.36955" inkscape:document-rotation="0" inkscape:pageopacity="0" inkscape:pageshadow="2" inkscape:window-height="1043" inkscape:window-maximized="0" inkscape:window-width="1747" inkscape:window-x="0" inkscape:window-y="23" inkscape:zoom="1.154321" objecttolerance="10" pagecolor="#ffffff" showgrid="false">
	</sodipodi:namedview>
<g id="Layer_1_1_">
	<g id="Layer_2_1_">
	</g>
	<path id="path836" class="st0" d="M563.2,561.9h-200c-36.4,0-66-29.5-66-66v-200c0-36.4,29.5-66,66-66h200c36.4,0,66,29.5,66,66
		v200C629.2,532.4,599.6,561.9,563.2,561.9z"/>
</g>
<g id="g18" inkscape:groupmode="layer" inkscape:label="Image">
	<g id="text24" transform="matrix(0.92407939,0,0,1.0821581,-16,10)">
		<path id="path33" d="M487.3,449.9c-11.3,0-21.8-1.7-31.4-5c-9.6-3.3-17.8-8.3-24.7-14.9c-6.9-6.6-12.3-14.9-16.1-24.8
			c-3.8-9.9-5.6-21.3-5.6-34.3c0-12.1,1.8-23,5.4-32.8c3.6-9.8,8.9-18.3,15.8-25.3c6.6-6.7,14.8-12,24.6-15.7
			c9.8-3.7,20.5-5.5,32.1-5.5c6.4,0,12.2,0.4,17.3,1.1c5.2,0.7,10,1.6,14.3,2.8c4.6,1.3,8.7,2.8,12.4,4.4c3.8,1.6,7,3,9.8,4.4v37
			h-4.5c-1.9-1.7-4.3-3.6-7.3-5.8c-2.9-2.2-6.1-4.5-9.8-6.6c-3.8-2.2-7.8-4-12.2-5.5c-4.4-1.5-9-2.2-14-2.2
			c-5.5,0-10.8,0.9-15.8,2.7c-5,1.7-9.6,4.6-13.8,8.6c-4,3.9-7.3,9-9.8,15.5c-2.5,6.4-3.7,14.2-3.7,23.3c0,9.6,1.3,17.5,4,24
			c2.7,6.4,6.1,11.5,10.2,15.1c4.1,3.8,8.8,6.5,13.9,8.1c5.1,1.6,10.2,2.4,15.1,2.4c4.8,0,9.5-0.7,14.1-2.1c4.7-1.4,9-3.4,13-5.8
			c3.3-2,6.5-4.1,9.3-6.4c2.9-2.2,5.2-4.2,7.1-5.8h4.1v36.4c-3.8,1.7-7.5,3.3-11,4.8c-3.5,1.5-7.1,2.8-11,3.9c-5,1.4-9.7,2.5-14,3.3
			C501,449.5,495,449.9,487.3,449.9L487.3,449.9z"/>
	</g>
	<g id="text28" transform="translate(-16,10)">
		<path id="path30" d="M577.8,371.3h-61.5v-12.9c4.7-3.4,9.4-7,14.1-10.8c4.7-3.8,8.5-7.1,11.4-9.9c4.2-4.1,7.3-7.7,9-10.7
			c1.8-3,2.7-6.1,2.7-9c0-3.6-1.2-6.3-3.5-8.3c-2.3-2-5.6-3-9.9-3c-3.2,0-6.6,0.7-10.2,2c-3.5,1.3-6.8,3-9.9,5.1h-1.7v-17.4
			c2.5-1.1,6.2-2.2,11-3.3c4.9-1.1,9.8-1.6,14.6-1.6c9.8,0,17.3,2.1,22.5,6.2c5.2,4.1,7.7,9.9,7.7,17.5c0,5-1.2,9.7-3.7,14.1
			c-2.5,4.4-6.2,9-11.3,13.8c-3.2,3-6.4,5.7-9.6,8.2c-3.2,2.5-5.5,4.2-6.9,5.2h35.2V371.3z"/>
	</g>
	<g id="g50" transform="matrix(0.92407939,0,0,1.0821581,-28,-6)">
		<path id="path48" class="st1" d="M495.1,458.7c-11.3,0-21.8-1.7-31.4-5c-9.6-3.3-17.8-8.3-24.7-14.9c-6.9-6.6-12.3-14.9-16.1-24.8
			c-3.8-9.9-5.6-21.3-5.6-34.3c0-12.1,1.8-23,5.4-32.8c3.6-9.8,8.9-18.3,15.8-25.3c6.6-6.7,14.8-12,24.6-15.7
			c9.8-3.7,20.5-5.5,32.1-5.5c6.4,0,12.2,0.4,17.3,1.1c5.2,0.7,10,1.6,14.3,2.8c4.6,1.3,8.7,2.8,12.4,4.4c3.8,1.6,7,3,9.8,4.4v37
			h-4.5c-1.9-1.7-4.3-3.6-7.3-5.8c-2.9-2.2-6.1-4.5-9.8-6.6c-3.8-2.2-7.8-4-12.2-5.5c-4.4-1.5-9-2.2-14-2.2
			c-5.5,0-10.8,0.9-15.8,2.7c-5,1.7-9.6,4.6-13.8,8.6c-4,3.9-7.3,9-9.8,15.5c-2.5,6.4-3.7,14.2-3.7,23.3c0,9.6,1.3,17.5,4,24
			c2.7,6.4,6.1,11.5,10.2,15.1c4.1,3.8,8.8,6.5,13.9,8.1c5.1,1.6,10.2,2.4,15.1,2.4c4.8,0,9.5-0.7,14.1-2.1c4.7-1.4,9-3.4,13-5.8
			c3.3-2,6.5-4.1,9.3-6.4c2.9-2.2,5.2-4.2,7.1-5.8h4.1v36.4c-3.8,1.7-7.5,3.3-11,4.8c-3.5,1.5-7.1,2.8-11,3.9c-5,1.4-9.7,2.5-14,3.3
			C508.7,458.3,502.7,458.7,495.1,458.7L495.1,458.7z"/>
	</g>
	<g id="g54" transform="translate(-28,-6)">
		<path id="path52" class="st1" d="M584.9,380.8h-61.5v-12.9c4.7-3.4,9.4-7,14.1-10.8c4.7-3.8,8.5-7.1,11.4-9.9
			c4.2-4.1,7.3-7.7,9-10.7c1.8-3,2.7-6.1,2.7-9c0-3.6-1.2-6.3-3.5-8.3c-2.3-2-5.6-3-9.9-3c-3.2,0-6.6,0.7-10.2,2
			c-3.5,1.3-6.8,3-9.9,5.1h-1.7v-17.4c2.5-1.1,6.2-2.2,11-3.3c4.9-1.1,9.8-1.6,14.6-1.6c9.8,0,17.3,2.1,22.5,6.2
			c5.2,4.1,7.7,9.9,7.7,17.5c0,5-1.2,9.7-3.7,14.1c-2.5,4.4-6.2,9-11.3,13.8c-3.2,3-6.4,5.7-9.6,8.2c-3.2,2.5-5.5,4.2-6.9,5.2H585
			L584.9,380.8z"/>
	</g>
</g>
</svg>
