<?xml version="1.0" encoding="utf-8"?>
<!-- Generator: Adobe Illustrator 24.0.2, SVG Export Plug-In . SVG Version: 6.00 Build 0)  -->
<svg version="1.1" id="Layer_1" xmlns="http://www.w3.org/2000/svg" xmlns:xlink="http://www.w3.org/1999/xlink" x="0px" y="0px"
	 viewBox="0 0 406 220.9" style="enable-background:new 0 0 406 220.9;" xml:space="preserve">
<style type="text/css">
	.st0{opacity:0.3;fill:#E6E6E6;enable-background:new    ;}
	.st1{fill:#FFD200;}
	.st2{fill:#D8D8D8;}
	.st3{fill:#E6E6E6;}
	.st4{opacity:8.000000e-02;enable-background:new    ;}
	.st5{fill:#24285B;}
	.st6{fill:#C9C9C9;}
	.st7{opacity:0.27;fill:#FFFFFF;enable-background:new    ;}
	.st8{opacity:0.58;fill:#F04141;enable-background:new    ;}
	.st9{opacity:0.73;fill:#F04141;enable-background:new    ;}
	.st10{fill:#F04141;}
</style>
<title>_</title>
<path class="st0" d="M290.5,20c31.7,10.8,61.4,40.5,62.7,78.7c1.4,38.6-16.6,74.7-68.5,92.7c-53,18.4-188.2,23.1-216-28.5
	S46.8,45.2,103.3,22C142.9,5.6,228.7-1.1,290.5,20z"/>
<polygon class="st1" points="315.4,108.4 277.8,108.4 288.2,91 325.8,91 "/>
<polygon class="st1" points="315.4,117.6 277.8,117.6 288.2,135 325.8,135 "/>
<rect x="214" y="194.1" class="st2" width="74.1" height="18.2"/>
<rect x="226.8" y="175.9" class="st3" width="66.7" height="18.2"/>
<polyline class="st4" points="264.3,212.7 251.7,175.9 237.9,175.9 246.1,212.3 263.8,212.7 "/>
<polygon class="st5" points="129.7,212.3 112.4,212.3 142.8,128.1 160,128.1 "/>
<polygon class="st5" points="258.2,212.3 240.9,212.3 220.2,154.8 210.6,128.1 227.8,128.1 234.9,147.7 247.6,183 "/>
<path class="st3" d="M264.9,114c0,44-35.7,79.6-79.6,79.6c-44,0-79.6-35.7-79.6-79.6s35.7-79.6,79.6-79.6
	c43.4,0,78.8,34.8,79.6,78.2C264.9,113,264.9,113.5,264.9,114z"/>
<circle class="st6" cx="185.3" cy="114" r="56.2"/>
<circle class="st3" cx="185.3" cy="114" r="34.3"/>
<circle class="st6" cx="185.3" cy="114" r="16.5"/>
<rect x="185.3" y="108.4" class="st5" width="135.9" height="9.2"/>
<rect x="185.3" y="108.4" class="st7" width="135.9" height="9.2"/>
<path class="st8" d="M268.9,164.7c0,0-8.7-2.4-10.7-10.5c0,0,13.6-2.7,13.9,11.2L268.9,164.7z"/>
<path class="st9" d="M270,163.8c0,0-6.1-9.7-0.7-18.7c0,0,10.3,6.6,5.7,18.7L270,163.8z"/>
<path class="st10" d="M271.5,163.8c0,0,3.2-10.2,13-12.2c0,0,1.8,6.6-6.3,12.2H271.5z"/>
<polygon class="st5" points="265.2,163.6 267,175.7 278.1,175.7 279.8,163.6 "/>
</svg>
