<?xml version="1.0" encoding="utf-8"?>
<!-- Generator: Adobe Illustrator 24.0.2, SVG Export Plug-In . SVG Version: 6.00 Build 0)  -->
<svg version="1.1" id="b759170a-51c3-4e2f-999d-77dec9fd6d11"
	 xmlns="http://www.w3.org/2000/svg" xmlns:xlink="http://www.w3.org/1999/xlink" x="0px" y="0px" viewBox="0 0 900 500"
	 style="enable-background:new 0 0 900 500;" xml:space="preserve">
<style type="text/css">
	.st0{fill:none;}
	.st1{fill:#FF5733;}
	.st2{fill:#F8AE9D;}
	.st3{fill-rule:evenodd;clip-rule:evenodd;fill:#E1E4E5;}
	.st4{fill-rule:evenodd;clip-rule:evenodd;fill:#733426;}
	.st5{fill:#FFD200;}
	.st6{fill:#733426;}
</style>
<title>maker launch</title>
<path class="st0" d="M6.7-63.1h900v600H6.7V-63.1z"/>
<path class="st1" d="M220.4,66.2h90.3c11,0,20,9,20,20v90.3c0,11-9,20-20,20h-90.3c-11,0-20-9-20-20V86.2
	C200.4,75.2,209.3,66.2,220.4,66.2z"/>
<path class="st1" d="M588.6,320.3h84.9c11,0,20,9,20,20v84.9c0,11-9,20-20,20h-84.9c-11,0-20-9-20-20v-84.9
	C568.6,329.3,577.5,320.3,588.6,320.3z"/>
<circle class="st2" cx="333.9" cy="384.9" r="64.6"/>
<circle class="st2" cx="753.5" cy="246.9" r="39.3"/>
<circle class="st2" cx="603.2" cy="136.5" r="60"/>
<path class="st3" d="M195.3,393.1c0.3-0.2,0.5-0.5,0.8-0.7c25.9-26,25.9-68,0-94c-26-26-68-26-94,0c-0.3,0.3-0.5,0.5-0.7,0.8
	L195.3,393.1L195.3,393.1z"/>
<path class="st4" d="M490.7,188.9c0-0.6,0-1.2,0-1.7c0-34.7-28.1-62.8-62.8-62.8c-34.7,0-62.8,28.1-62.8,62.8c0,0.6,0,1.2,0,1.7
	H490.7L490.7,188.9z M513.2,445.1c0.4-0.4,0.8-0.8,1.3-1.2c24.5-24.5,24.5-64.3,0-88.9c-24.5-24.5-64.3-24.5-88.9,0
	c-0.4,0.4-0.8,0.8-1.2,1.3L513.2,445.1L513.2,445.1z"/>
<path class="st5" d="M119.5,155.5c3.8-6.7,13.5-6.7,17.3,0l37.7,65.2c3.8,6.7-1,15-8.7,15H90.5c-7.7,0-12.5-8.3-8.7-15L119.5,155.5
	L119.5,155.5z"/>
<path class="st5" d="M530,42.9c7.7,0,12.5,8.3,8.7,15l-29.7,51.4c-3.8,6.7-13.5,6.7-17.3,0l-29.7-51.4c-3.8-6.7,1-15,8.7-15H530z
	 M799.5,318.2c7.7,0,12.5,8.3,8.7,15l-37.7,65.2c-3.8,6.7-13.5,6.7-17.3,0l-37.7-65.2c-3.8-6.7,1-15,8.7-15H799.5z"/>
<path class="st6" d="M697.6,176.7c-7.7,0-12.5-8.3-8.7-15l39.4-68.2c3.8-6.7,13.5-6.7,17.3,0l39.4,68.2c3.8,6.7-1,15-8.7,15H697.6z"
	/>
<circle class="st2" cx="279.5" cy="246.9" r="31.4"/>
<path class="st1" d="M393.3,266.9h37.1c4.8,0,8.7,3.9,8.7,8.7v37.1c0,4.8-3.9,8.7-8.7,8.7h-37.1c-4.8,0-8.7-3.9-8.7-8.7v-37.1
	C384.6,270.8,388.5,266.9,393.3,266.9z"/>
<circle class="st5" cx="518.5" cy="256.7" r="50.1"/>
<path class="st3" d="M644.9,295.6c0.3-0.2,0.5-0.5,0.8-0.7c26-26,26-68,0-94c-0.9-0.9-1.9-1.8-2.9-2.7
	c-29.5,31.8-16.4,17.6-45.9,49.4L644.9,295.6L644.9,295.6z"/>
</svg>
