<?xml version="1.0" encoding="utf-8"?>
<!-- Generator: Adobe Illustrator 24.0.2, SVG Export Plug-In . SVG Version: 6.00 Build 0)  -->
<svg version="1.1" id="_x32_71e5882-3c8d-41ed-8a0a-1cb2b4d0cbc1"
	 xmlns="http://www.w3.org/2000/svg" xmlns:xlink="http://www.w3.org/1999/xlink" x="0px" y="0px" viewBox="0 0 706.1 364.6"
	 style="enable-background:new 0 0 706.1 364.6;" xml:space="preserve">
<style type="text/css">
	.st0{opacity:0.3;fill:#E6E6E6;enable-background:new    ;}
	.st1{opacity:0.45;fill:#E6E6E6;enable-background:new    ;}
	.st2{fill:#EF5015;}
	.st3{fill:#313433;}
	.st4{fill:#F4A28C;}
	.st5{opacity:0.31;fill:#CE8172;enable-background:new    ;}
	.st6{opacity:8.000000e-02;enable-background:new    ;}
	.st7{opacity:9.000000e-02;enable-background:new    ;}
	.st8{fill:#A5A5A5;}
	.st9{fill:#C9C9C9;}
	.st10{fill:#FFFFFF;}
	.st11{opacity:0.58;fill:#F04141;enable-background:new    ;}
	.st12{opacity:0.73;fill:#F04141;enable-background:new    ;}
	.st13{fill:#F04141;}
	.st14{fill:#24285B;}
	.st15{opacity:0.64;fill:#FFFFFF;enable-background:new    ;}
	.st16{fill:#2C2E2D;}
	.st17{opacity:0.77;fill:#FFFFFF;enable-background:new    ;}
</style>
<title>team spirit</title>
<path class="st0" d="M469.2,73.1c47.1,14,82.8,51.9,90.9,98.5c6.8,39.4-8,87.5-86.7,108.6c-80.3,21.6-303.4,29.1-342.8-35.1
	S102.4,99.2,188.2,71.7C248.2,52.3,377.2,45.8,469.2,73.1z"/>
<ellipse class="st1" cx="334" cy="335.1" rx="190.1" ry="11.6"/>
<path class="st2" d="M197.5,316.9l-7.7,4.4l8.1,12.9c0.8,1.2,2.4,1.5,3.6,0.8c0.7-0.5,1.2-1.2,1.2-2
	C203.1,328.2,202.4,321.6,197.5,316.9z"/>
<path class="st3" d="M204.3,235.4l8.2,36.3c2.2,9.8-0.1,20.1-6.3,28.1l-12.6,16.3l7.7,7.5l25-25.2c5.5-5.5,8.8-12.8,9.4-20.5
	l3.8-44.7L204.3,235.4z"/>
<path class="st3" d="M198.2,201.8c0,0-9.2,29.6,8.1,36.2s54.9,94.4,54.9,94.4l12.4-4.8c0,0-23.9-76.5-22.1-107L198.2,201.8z"/>
<path class="st2" d="M264.6,331.2l4.2,7.7l13.1-7.8c1.2-0.8,1.6-2.4,0.9-3.6c-0.4-0.7-1.2-1.2-1.9-1.2
	C275.9,325.8,269.3,326.3,264.6,331.2z"/>
<path class="st4" d="M251.1,112.7c0,0,0.5,8.3-1,13.7c-0.6,2.2-2.9,3.5-5.1,2.9c-3.5-0.8-6.3-3.5-7-7l-2.3-7.3
	c-0.6-3.1,0.8-6.3,3.4-7.9C243.8,103.9,251,107.7,251.1,112.7z"/>
<polygon class="st4" points="236.1,116.3 231.2,143 246.1,144.6 243.7,124.5 "/>
<path class="st4" d="M251.2,118l2.2,3.3c0.4,0.6,0.3,1.4-0.3,1.9c-0.2,0.1-0.4,0.2-0.5,0.2l-3.2,0.5L251.2,118z"/>
<path class="st5" d="M244.4,128.9c-1.9-0.5-3.5-1.5-4.8-3c0,0,0.1,5,5.4,10L244.4,128.9z"/>
<path class="st3" d="M249.5,112.9c-0.6,0.2-1.2,0.3-1.9,0.4c-0.9,0.2-1.8,0.4-2.6,0.7l-0.7,0.2c-1,0.4-1.7,1.3-1.8,2.3
	c-0.2,2.6-1.3,7.4-7.7,7.6c0,0-5.9-10.1-0.2-17.3c2.5-3.1,6.4-5.5,10.4-5c0.7,0.1,1.4,0.2,2,0.5c1,0.6,1.8,1.4,2.4,2.3
	c0.9,1.3,1.7,2.6,2.5,4c0.3,0.5,0.5,1.2,0.6,1.9C252.6,112.2,250.6,112.6,249.5,112.9z"/>
<path class="st4" d="M242,121.2c0.5-0.5,0.6-1.3,0.4-2c-0.4-1.2-1.2-2.6-2.7-2.6c-1.5,0.2-2,2.6-1.1,4.2c0.6,1,1.9,1.3,2.9,0.7
	C241.7,121.5,241.9,121.3,242,121.2L242,121.2z"/>
<path class="st2" d="M247.8,136.6l10.7,1.2c17.1,5.8,36,1.3,48.3-11.3c17.1-17.6,11.8-41.5,11.5-43.1c2.4,0.2,4.7,0.3,7.1,0.5
	c8.4,43,0.4,59.9-8.6,67.4c-7.4,6.2-13.2,13.5-32.3,17.7c-10.6,2.3-19.2,10.1-22.7,20.3L251.4,221l-54.2-18.7l0.7-27.9
	c0.2-8.9-3.8-17.4-10.8-22.9c0,0-9.5-8.1-20.4-29.5c-2.2-4.3-10.2-22.4,7.2-58c2.4,0.2,4.7,0.3,7.1,0.5c-1,3.3-8,27.5,6.7,49
	C200.5,132.1,224.2,141.3,247.8,136.6z"/>
<path class="st6" d="M177.1,64.2c-7,43.7,2.5,66.5,13.1,79.2c6.8,8.3,17.1,11.8,24.2,27.2c3.6,7.9,17.6,43.6,17.6,43.6l-34.7-12
	l0.6-25.9c-0.4-8.3-2.2-14.7-4.1-17.8c-1.1-1.9-1.7-2.9-3-4c-1.3-1.2-2.3-1.4-3.7-3.1c-0.5-0.6-0.6-0.9-1.5-1.9
	c-1.3-1.5-2.1-2.1-4.9-5.7c-7-9.2-11.4-19.7-14.2-24.5c-0.1-0.2-0.4-0.7-0.8-1.4c0,0-1-2-1.5-4.4c-2.9-14.5,3.3-33.9,3.3-33.9
	c1.2-4,3.3-9.4,6.3-15.7C175,64,176,64.1,177.1,64.2z"/>
<polygon class="st4" points="318.3,83.4 316.8,76.8 325.8,77.3 325.3,83.9 "/>
<path class="st4" d="M427,124.2c1.3,3.9,2,8,2.2,12.1c0,2.1-1.7,3.7-3.8,3.6l0,0c-3.3,0.2-6.2-1.6-7.7-4.5l-3.6-5.8
	c-1.2-2.6-0.8-5.6,1.2-7.6C418.7,118.2,425.8,119.9,427,124.2z"/>
<polygon class="st4" points="414.8,130.7 416.7,154.8 429.9,152.9 423.2,136.1 "/>
<path class="st4" d="M420.8,132.2c0,0-0.7-2.8-2.7-2s-1,4.7,1.9,4.4L420.8,132.2z"/>
<polygon class="st3" points="441,235.8 450.1,318.6 441,318.6 418.6,247.7 "/>
<path class="st4" d="M428.2,128.7l2.6,2.3c0.5,0.5,0.5,1.2,0.1,1.7c-0.1,0.2-0.2,0.2-0.4,0.3l-2.6,1.2L428.2,128.7z"/>
<path class="st4" d="M429.9,152.9c0,0,20.5-1,21.4-27.6c0.9-26.5-29.9-40-29.9-40s-14.2-0.9-9.3-9.3c5-8.5,15.9,2.5,15.9,2.5
	s44.3,10.4,43.5,47.9c-0.9,37.5-20.8,53.3-20.8,53.3L429.9,152.9z"/>
<path class="st5" d="M424.8,139.7c-1.7,0-3.4-0.5-4.8-1.5c0,0,1.2,4.2,7,7.4L424.8,139.7z"/>
<path class="st2" d="M448.8,159.8c0,0,32.4,22.6,16,43.5S441,235.7,441,235.7l-39.3-4.1c0,0-4.5-30.4-13.9-46.4s-1.6-27.9,8.2-30.4
	C405.8,152.4,419.7,144.2,448.8,159.8z"/>
<path class="st7" d="M418.9,150.5c0,0,18.3,16.3,9.1,34.1s-8,49.1-8,49.1l-18.4-1.9c0,0-5-28.4-10.6-39.6c0,0-5.3-9.6-6.8-14.7
	s15.9-26.9,15.9-26.9L418.9,150.5z"/>
<path class="st3" d="M401.6,231.7c0,0-4.1,11.5,1.4,17.9c5.5,6.3,36.3,22.4,36.3,22.4l-36.3,6l1.9,8.5c0,0,41.1,3,48.8-8.7
	c7.7-11.8-22.4-35.8-22.4-35.8l9.7-6.2L401.6,231.7z"/>
<path class="st3" d="M420.8,127.6c0,0,5.1,25.7-11.5,28.6s-22.1-4.4-25.8-10.5c-3.7-6.1,28.1,1.5,25.7-16.9s13.4-17.6,18.5-12.2
	C432.7,121.8,420.8,127.6,420.8,127.6z"/>
<path class="st2" d="M447.3,318.6c0,0,8.2,14,2.9,14.5c-5.3,0.5-9.1-14.5-9.1-14.5H447.3z"/>
<path class="st2" d="M405.6,286.7c0,0-4.9,11.9-9,8.5s6.8-15.8,6.8-15.8L405.6,286.7z"/>
<path class="st4" d="M390.9,178.1c15.1,6.3,25.8-15.4,11.7-24c-3.9-2.4-8-4.5-12.4-6.3c-15.1-6-37-40-23.8-62.7
	c0,0,7.4-13.6-1.1-15.9c-8.5-2.2-6.3,15.3-6.3,15.3s-21.9,35.6-2.2,61.1C367.5,159.5,379.3,173.2,390.9,178.1z"/>
<path class="st2" d="M172.9,88.1"/>
<path d="M158.5,87.3"/>
<path class="st4" d="M173.9,64c-1.1-4.9-2.2-9.8-3.2-14.7c-0.2-0.5-0.3-1.7,0.3-2.6c1.1-1.5,3.9-1.2,5-0.8c3.3,1.1,5.3,6,5.3,12.1
	c-0.2,2.2-0.3,4.3-0.5,6.5L173.9,64z"/>
<path class="st4" d="M193.8,68.7"/>
<path d="M201.6,159.8"/>
<rect x="62.7" y="298.3" class="st8" width="50.3" height="42.2"/>
<rect x="80.6" y="298.3" class="st9" width="50.3" height="42.2"/>
<circle class="st10" cx="69.7" cy="270.7" r="3.6"/>
<path class="st11" d="M97.2,287.2c0,0-8.7-2.4-10.7-10.5c0,0,13.6-2.7,13.9,11.2L97.2,287.2z"/>
<path class="st12" d="M98.3,286.4c0,0-6.1-9.7-0.7-18.7c0,0,10.3,6.6,5.7,18.7H98.3z"/>
<path class="st13" d="M99.9,286.4c0,0,3.2-10.2,13-12.2c0,0,1.8,6.6-6.3,12.2H99.9z"/>
<polygon class="st14" points="93.5,286.2 95.3,298.3 106.5,298.3 108.1,286.2 "/>
<path class="st2" d="M593.9,110.5c2.1-7-1.7-14.4-8.4-16.5c-2.8-0.9-5.7-0.8-8.4,0.3c-7.8,3.2-16.6,9.7-23.8,22.6
	c-5.6,10.1-9.7,16.8-12.5,21.2c-2.5,3.9-7.6,4.9-11.3,2.3c-0.7-0.5-1.3-1.1-1.9-1.8l-23.9-31.8l-8.9,6.8c0,0,20.2,52.1,42.9,50
	C557.2,161.9,583.3,146.1,593.9,110.5z"/>
<path class="st15" d="M593.9,110.5c2.1-7-1.7-14.4-8.4-16.5c-2.8-0.9-5.7-0.8-8.4,0.3c-7.8,3.2-16.6,9.7-23.8,22.6
	c-5.6,10.1-9.7,16.8-12.5,21.2c-2.5,3.9-7.6,4.9-11.3,2.3c-0.7-0.5-1.3-1.1-1.9-1.8l-23.9-31.8l-8.9,6.8c0,0,20.2,52.1,42.9,50
	C557.2,161.9,583.3,146.1,593.9,110.5z"/>
<path class="st2" d="M579.3,261.1c0,0-1.3,3.8-4.7,4.1c-3.3,0.3-4.2,3.7-1.2,4.6s10.8-3.2,10.8-3.2l-0.2-5L579.3,261.1z"/>
<path class="st2" d="M621.4,261.1c0,0,1.3,3.8,4.7,4.1c3.3,0.3,4.2,3.7,1.2,4.6s-10.8-3.2-10.8-3.2l0.2-5L621.4,261.1z"/>
<path class="st4" d="M601.6,75c-1.4,2.8-2.4,5.9-3.1,9c-0.2,1.6,0.8,3,2.3,3.3c2.4,0.5,4.8-0.5,6.2-2.5l3.4-4c1.2-1.8,1.2-4.2,0-5.9
	C608.4,71.4,603,71.8,601.6,75z"/>
<polygon class="st4" points="608.7,79.3 609.5,98 599.6,97.7 603,84.2 "/>
<path class="st4" d="M600.2,78.3l-2.2,1.4c-0.4,0.3-0.5,0.8-0.3,1.3c0.1,0.1,0.2,0.2,0.3,0.3l1.8,1.3L600.2,78.3z"/>
<path class="st5" d="M602.2,87.3c1.3-0.2,2.5-0.7,3.4-1.6c0,0-0.5,3.4-4.5,6.4L602.2,87.3z"/>
<path class="st2" d="M585.8,92.5c16.4,0.3,32.6,3.9,47.7,10.6c9.3,4.1,13.7,15.3,9.8,25c-0.2,0.4-0.3,0.8-0.5,1.1l-25.9,53.7
	l-48.1-2.9c0,0-8.8-30.2-7-64.4C562.5,102.5,573.1,92.3,585.8,92.5z"/>
<path class="st16" d="M609.1,86.1l-3.4-1.9l-0.3-1.9c-1-1.5-1-3.5,0-5c0,0-6.6-3.3-5.1-6.2s6.4-6.7,11.2-3.1
	C616.2,71.6,618.6,78.2,609.1,86.1z"/>
<path class="st4" d="M605.2,81.9c0,0,0.8-2,2.3-1.2s0.2,3.7-1.9,3.2L605.2,81.9z"/>
<path class="st10" d="M612.5,96c-5.9-1.7-11.9-2.7-18-3c0,0-8.4,34.9-1.8,63C592.7,156,602.1,120.6,612.5,96z"/>
<path class="st7" d="M631.3,112.2c0,0-16.6,1.4-14.5,13.2s-5.1,44.4-10,47.1l-15.7,8.8l25.6,1.6l8.4-17.4l16-32.9L631.3,112.2z"/>
<path class="st2" d="M612.5,96c0,0,0.3-4.2-2.6-4.4c-1.6-0.1-3.2,0-4.7,0.4c0,0-8.5-6.9-10.8,1C594.5,93,606.6,94.4,612.5,96z"/>
<path class="st17" d="M612.5,96c0,0,0.3-4.2-2.6-4.4c-1.6-0.1-3.2,0-4.7,0.4c0,0-8.5-6.9-10.8,1C594.5,93,606.6,94.4,612.5,96z"/>
<path class="st14" d="M606.6,94.7c0,0,1-3.3-1-3.7s-3.8-1.8-4.3,2.5C600.9,97.7,604.9,98.1,606.6,94.7z"/>
<path class="st16" d="M605.3,96.3c0,0-6.4,23.4-6.4,38.4l-6.1,21.2c-1.8-7.6-2.6-15.3-2.5-23.1c0,0,6.6-30.8,11.2-38L605.3,96.3z"/>
<ellipse class="st1" cx="601.3" cy="268.6" rx="103.7" ry="15.4"/>
<path class="st16" d="M624.2,262.3l-7.4-79.3l-48.1-2.9l8.2,82.3h9.3c0,0-2.3-52.2,5-64.1v-0.1c1.3-2,3.9-2.5,5.8-1.2
	c0.6,0.4,1,0.9,1.3,1.5c10.1,19.5,16.1,63.8,16.1,63.8L624.2,262.3z"/>
<path class="st2" d="M639.4,107.3c0,0,41.2,38.9,36.4,50.4S627.9,189,627.9,189l-5.1-6.7c0,0,23.7-23.3,23.8-26.3
	c0.2-2.9-8.9-6.7-16.8-17.1C621.9,128.6,615,104,639.4,107.3z"/>
<path class="st15" d="M639.4,107.3c0,0,41.2,38.9,36.4,50.4S627.9,189,627.9,189l-5.1-6.7c0,0,23.7-23.3,23.8-26.3
	c0.2-2.9-8.9-6.7-16.8-17.1C621.9,128.6,615,104,639.4,107.3z"/>
<path class="st4" d="M622.8,182.3c0,0-5.5,4-5.8,5.8s0.4,8.8,2,9.4s5.8-0.8,4.9-1.7l-1.4-1.5c0,0,5-2.6,5.4-5.3L622.8,182.3z"/>
<path class="st4" d="M502.1,107.9c0,0-2.8-11.2-5.9-12.4c-3-1.2-0.5,5.7-0.5,5.7s-8.9,5.1,0,11.4L502.1,107.9z"/>
</svg>
