<?xml version="1.0" encoding="utf-8"?>
<!-- Generator: Adobe Illustrator 24.0.2, SVG Export Plug-In . SVG Version: 6.00 Build 0)  -->
<svg version="1.1" id="eddb6392-0870-4488-a01d-850f39286dca"
	 xmlns="http://www.w3.org/2000/svg" xmlns:xlink="http://www.w3.org/1999/xlink" x="0px" y="0px" viewBox="0 0 900 500"
	 style="enable-background:new 0 0 900 500;" xml:space="preserve">
<style type="text/css">
	.st0{opacity:0.3;fill:#E6E6E6;enable-background:new    ;}
	.st1{fill:#E6E6E6;}
	.st2{fill:#D3D3D3;}
	.st3{fill:#313433;}
	.st4{fill:#FFD200;}
	.st5{fill:#EFEFEF;}
	.st6{opacity:0.46;fill:#FFFFFF;enable-background:new    ;}
	.st7{fill:#F4A28C;}
	.st8{opacity:0.58;fill:#EF5015;enable-background:new    ;}
	.st9{opacity:0.73;fill:#EF5015;enable-background:new    ;}
	.st10{fill:#EF5015;}
	.st11{opacity:0.31;fill:#CE8172;enable-background:new    ;}
	.st12{opacity:9.000000e-02;enable-background:new    ;}
	.st13{opacity:0.68;fill:#FFFFFF;enable-background:new    ;}
	.st14{opacity:0.35;fill:#FFFFFF;enable-background:new    ;}
	.st15{fill:#FFFFFF;}
</style>
<title>winter_activities</title>
<path class="st0" d="M432.7,113c-57.5,21.1-100.1,74.8-108.5,139.5C317,307.2,348.5,395,450.7,405.5
	c151.6,15.5,377.9,27.7,427.4-63.9C911.9,279,906.8,134,773,96.1C697.4,74.7,545,71.8,432.7,113z"/>
<path class="st1" d="M820.3,232.5c12.5-17.6,6.1-36.5,6.1-36.5c-22.3,11.1-26.2,31.7-26.4,43.5c-3.5-33.5-33.1-39.2-33.1-39.2
	c-1,19,8.1,31.3,17,38.8c-22.5-7-42.3,6.7-42.3,6.7c22.3,18,41.7,12.4,51.6,7.1c-7.8,9.2-21.9,28.9-28.2,63.4
	c-4.9,27-4.9,90.6-4.9,90.6h22c0,0-13.2-98.7,20.3-154.5c17.8,30.8,48.1,22.5,48.1,22.5c-5.3-12.3-13.6-19.5-22-23.6
	c19-3.4,28.1-18.7,28.1-18.7C842.2,226.7,829.8,228.5,820.3,232.5z"/>
<path class="st1" d="M561.9,476.6c-10.1,15.7-538.8,14.4-538,0C34,460.9,562.7,462.3,561.9,476.6z"/>
<path class="st2" d="M162.4,466.6c-1.2,8.4-8.2,14.8-16.7,15.3c-8.4,0.4-16-5.4-17.9-13.6c5.7-115.7,11.5-231.4,17.1-347.1
	C150.7,236.2,156.5,351.4,162.4,466.6z"/>
<polygon class="st2" points="157.2,423.5 133,397.1 193,366.4 "/>
<path class="st3" d="M225.3,270.2c0-0.1,0-0.1,0-0.2c-0.1-2.8-0.1-5.6-0.1-8.4L195.4,281l29.9-37.1c0-2,0.1-4.1,0.1-6.1
	c0-0.1,0-0.1,0-0.2c0-0.1,0-0.1,0-0.2c-0.2-10.7-0.2-21.4,0-32.1c0-0.1,0-0.1,0-0.2c0-0.1,0-0.1,0-0.2c-0.2-10.7-0.2-21.4,0-32.1
	c0-0.1,0-0.1,0-0.2s0-0.1,0-0.2c-0.2-10.7-0.2-21.4,0-32.1c0-0.1,0-0.1,0-0.2c0-0.1,0-0.1,0-0.2c-0.2-10.7-0.2-21.4,0-32.1
	c0-0.1,0-0.1,0-0.2c0-0.1,0-0.1,0-0.2c0-1.2-0.1-2.3-0.1-3.5l-41.6,27l41.6-51.6c0-1.3,0.1-2.7,0.1-4.1c0-0.1,0-0.1,0-0.2
	c0-0.1,0-0.1,0-0.2c-0.2-10.7-0.2-21.4,0-32.1c0-0.1,0-0.1,0-0.2c-0.1-14.2-35.9-25.8-80-25.8S65.4,28.6,65.4,42.8
	c0,0.1,0,0.1,0,0.2c0.2,10.7,0.2,21.4,0,32.1c0,0.1,0,0.1,0,0.2c0,0.1,0,0.1,0,0.2c0.2,10.7,0.2,21.4,0,32.1c0,0.1,0,0.1,0,0.2
	c0,0.1,0,0.1,0,0.2c0.2,10.7,0.2,21.4,0,32.1c0,0.1,0,0.1,0,0.2s0,0.1,0,0.2c0.2,10.7,0.2,21.4,0,32.1c0,0.1,0,0.1,0,0.2
	s0,0.1,0,0.2c0,0.2,0,0.4,0,0.5l35.9,27l-35.8-12.1c0,5.6-0.1,11.1-0.2,16.7c0,0.1,0,0.1,0,0.2c0,0.1,0,0.1,0,0.2
	c0.2,10.7,0.2,21.4,0,32.1c0,0.1,0,0.1,0,0.2c0,0.1,0,0.1,0,0.2c0.2,10.7,0.2,21.4,0,32.1c0,0.1,0,0.1,0,0.2c0,0.1,0,0.1,0,0.2
	c0.2,10.7,0.2,21.4,0,32.1c0,0.1,0,0.1,0,0.2c0,14.2,35.8,25.8,79.9,25.8s79.9-11.6,79.9-25.8c0-0.1,0-0.1,0-0.2
	c-0.2-10.7-0.2-21.4,0-32.1C225.3,270.3,225.3,270.2,225.3,270.2z"/>
<circle class="st2" cx="186.2" cy="131.1" r="13.3"/>
<circle class="st2" cx="195.3" cy="280.9" r="13.3"/>
<circle class="st2" cx="101.2" cy="200.2" r="13.3"/>
<path class="st4" d="M621.8,83.4l28-7.3c1.7-0.4,3.4,0.5,3.8,2.2l0,0c0.4,1.7-0.5,3.4-2.2,3.8l-28,7.3c-1.7,0.4-3.4-0.5-3.8-2.2l0,0
	C619.2,85.5,620.2,83.8,621.8,83.4z"/>
<ellipse class="st0" cx="386.5" cy="437" rx="166.8" ry="23.9"/>
<path class="st5" d="M519.4,409.4c0,0,16.4-2.8,19.1,13.9c0.2,1.5-0.8,2.8-2.2,3c-0.1,0-0.1,0-0.1,0c-7.3,0.8-14.7,0.7-22-0.4
	C501.5,423.8,508.9,408,519.4,409.4z"/>
<path class="st1" d="M427.4,428c0,0,3.7-26.3,23.1-33.4l42.2-7.5c0,0,30.1,2.7,28.8,39.3C490.5,432.6,458.6,433.2,427.4,428z"/>
<path class="st4" d="M601.8,283.6c0,0-25.4-6.6-22.8,7.5v94.9h9c3.2,0,5.8-2.6,5.8-5.8v-22.8c2.7-0.4,5.8-1.9,6.5-7
	c1.5-9.6,0-52.8,0-52.8s19.3-4.1,30.5,2.1v-12.7L601.8,283.6z"/>
<path class="st4" d="M587.4,63.5c0,0,45.4,36.6,43,111.1c0,0,27.5-86.8,0.7-131.8L587.4,63.5z"/>
<path class="st6" d="M587.4,63.5c0,0,45.4,36.6,43,111.1c0,0,27.5-86.8,0.7-131.8L587.4,63.5z"/>
<path class="st7" d="M455.2,130.2c0,0-39.7,76.8,9.1,87.2c48.8,10.4,62.6-51.7,62.6-51.7s-7.8-29.8-20.7-29.1
	c-13,0.7-24.9,24.1-32,41.1c-1.2,3-4.6,4.3-7.6,3.1c-1.9-0.8-3.2-2.5-3.5-4.5c-1.6-12.1-5.8-28.1,2.1-42.6c0,0,11-6.7,7.3-15.9
	C468.7,108.7,455.2,116.5,455.2,130.2z"/>
<path class="st8" d="M247.1,458.9c0,0-12.2-3.3-14.9-14.8c0,0,19-3.8,19.6,15.8L247.1,458.9z"/>
<path class="st9" d="M248.6,457.8c0,0-8.5-13.6-1-26.2c0,0,14.4,9.2,8,26.2H248.6z"/>
<path class="st10" d="M250.8,457.8c0,0,4.5-14.3,18.2-17c0,0,2.5,9.3-8.8,17.1L250.8,457.8z"/>
<polygon class="st3" points="241.9,457.5 244.4,474.4 260.1,474.5 262.4,457.5 "/>
<path class="st3" d="M443.7,154.6l18.3,3.7l3.3-24.6c0,0,9.9-5.2,9.7-11.5c0.1-4.6-3.6-8.5-8.2-8.6c-0.8,0-1.7,0.1-2.5,0.3
	c-6.6,1.8-9.3,12.4-11.5,19.8C450.7,141.1,443.7,154.6,443.7,154.6z"/>
<path class="st4" d="M422.4,135.7l198.1-52c1.7-0.4,3.4,0.5,3.8,2.2l0,0c0.4,1.7-0.5,3.4-2.2,3.8l-198.1,52
	c-1.7,0.4-3.4-0.5-3.8-2.2l0,0C419.7,137.8,420.7,136.1,422.4,135.7z"/>
<path class="st10" d="M482.7,167.5c-0.5-18.1,13.6-33.2,31.7-33.7c0.1,0,0.2,0,0.4,0c22.6-0.5,57.9-11.4,71.3,8.7
	c20.5,30.9-12.7,117.8-12.7,117.8h-61.1C512.3,260.3,483.9,201.9,482.7,167.5z"/>
<polygon class="st7" points="527.4,102 536.6,134.4 517.3,142.4 518,114.3 "/>
<path class="st11" d="M517.6,120.5c2.5-1,4.7-2.6,6.2-4.8c0,0,0.5,6.9-6.2,14.5L517.6,120.5z"/>
<path class="st7" d="M506.3,103c0,0,1,11.5,4.2,18.6c1.3,2.9,4.7,4.2,7.6,2.8l0,0c3.6-1.6,7.9-5,8.1-11.2l1.6-10.5
	c0.2-4.4-2.4-8.4-6.4-10.1C514.4,89.3,505.3,96.1,506.3,103z"/>
<path class="st3" d="M509.2,103c3.5-0.5,7-1.4,10.3-2.7c-1.5,3.5-0.8,7.6,1.8,10.4c2.5,2.8,6.6,3.3,9.8,1.4l-2.8-14.5
	c-0.7-4.2-3.6-7.8-7.7-9.2c-1.7-0.6-3.5-1.2-5.3-1.5c-4.5-0.9-10.1,3-14.4,0.8c-1.4-0.7-3-0.1-3.8,1.3c-0.2,0.4-0.3,0.8-0.3,1.3
	c0.1,4.5,2.2,11.3,8.5,12.7C506.8,103.1,508,103.2,509.2,103z"/>
<path class="st7" d="M520,110.6c0,0-0.7-4.4,2.7-4.6c3.3-0.2,4.4,6.1,0,7.5L520,110.6z"/>
<path class="st7" d="M507.3,110.2l-2.4,5c-0.4,0.9-0.1,2,0.8,2.4c0.2,0.1,0.5,0.2,0.8,0.2h4.5L507.3,110.2z"/>
<path class="st7" d="M459.3,122.2c0,0-2.1,6.7,5.3,5.8s9.5-1.6,10.3-5.8C475.8,118.1,461.6,117.7,459.3,122.2z"/>
<path class="st10" d="M511,133.7c0,0-0.7-5.5,6.6-5.6c5.5,2.5,11.9,1.4,16.3-2.8c0,0,13.9-0.1,15,11c1.2,11.1-25.2,39.6-25.2,39.6
	S507.8,153,511,133.7z"/>
<path class="st12" d="M559.3,150.5c-5.6,7.1-8.1,16.3-6.6,25.3c2.7,14.7,25.1,55.9,0.8,84.4h19.9c-0.4,1.3,11.5-35.7,14.8-50.6
	C590.1,200.5,559.3,150.5,559.3,150.5z"/>
<path class="st13" d="M511,133.7c0,0-0.7-5.5,6.6-5.6c5.5,2.5,11.9,1.4,16.3-2.8c0,0,13.9-0.1,15,11c1.2,11.1-25.2,39.6-25.2,39.6
	S507.8,153,511,133.7z"/>
<path class="st7" d="M559.2,160.4c-4.1-16.8,14.2-30.5,29-21.4c12.7,7.8,24.8,22.3,28,49.7c7,62,0,93,0,93l-13.1-2.5
	c0,0-9.9-80.9-28.7-92.5C566.5,181.9,561.9,171.2,559.2,160.4z"/>
<path class="st3" d="M571.3,184.4c0,0,27.2-8.4,40.7-19.6c0,0,4.5,12.7,4.2,23.9c-10.1,5.2-20.7,9.3-31.7,11.9
	C579.7,195.6,575.3,190.1,571.3,184.4z"/>
<path class="st3" d="M603.1,279.2c0,0-8.4,23.7,3.8,23.8c18.7,0,9.3-21.3,9.3-21.3L603.1,279.2z"/>
<path class="st6" d="M590.2,293.6L590.2,293.6c3.3,0,6,2.7,6,6v46.5c0,3.3-2.7,6-6,6l0,0c-3.3,0-6-2.7-6-6v-46.5
	C584.2,296.3,586.9,293.6,590.2,293.6z"/>
<path class="st3" d="M512.3,260.3c0,0-77.7,14.2-64.8,53.8c13,39.6,23.6,58.6,23.6,58.6l15.9-7.6l-6.5-42
	c-1.3-8.7,4.6-16.8,13.3-18.2c0.3-0.1,0.5-0.1,0.8-0.1c28.3-2.9,82-12.6,78.6-44.5L512.3,260.3L512.3,260.3z"/>
<path class="st3" d="M573.4,260.3l-3.9,150.6h-17.2c0,0,0.8-94.8-29.3-132.6L573.4,260.3z"/>
<polygon class="st10" points="450.6,331.7 480.6,323 489.9,372.7 492.7,387.2 450.6,394.7 470.1,377.6 "/>
<path class="st4" d="M487.1,267.4l16.1,37.5l18.7-3.5l-16.2-39.6C499.3,262.9,493.1,264.9,487.1,267.4z"/>
<path class="st10" d="M547.4,349.8l23.5,2.3l-0.4,52.5c-0.1,3.9,1.2,7.8,3.5,10.9l10.2,14.1l-26.7-4.5l-10.1-2.4l3.6-13.4
	L547.4,349.8z"/>
<path class="st2" d="M417.4,414.2c8.7-8.9,32.9-7.9,36.1,1.8c1.2,3.7,2.2,7.3,2.9,10.5c1.2,5.1-2.1,10.3-7.2,11.5l0,0
	C437.8,440.5,391.2,440.9,417.4,414.2z"/>
<polygon class="st10" points="472.6,332.9 483.9,330.1 491.4,372.7 482,374.6 "/>
<polygon class="st14" points="472.6,332.9 483.9,330.1 491.4,372.7 482,374.6 "/>
<path class="st4" d="M501.9,236.8c0,0,4.6,15.5,10.4,23.4h61.1c3-7.6,5.6-15.5,7.8-23.4C581.2,236.8,550.9,243.7,501.9,236.8z"/>
<rect x="551.3" y="247.5" class="st4" width="28.1" height="28.1"/>
<rect x="551.3" y="247.5" class="st12" width="28.1" height="28.1"/>
<circle class="st15" cx="565.3" cy="257.3" r="3.6"/>
<path class="st2" d="M151,497.6"/>
<ellipse class="st0" cx="778.8" cy="413.1" rx="116.8" ry="23.9"/>
</svg>
