<?xml version="1.0" encoding="utf-8"?>
<!-- Generator: Adobe Illustrator 24.0.2, SVG Export Plug-In . SVG Version: 6.00 Build 0)  -->
<svg version="1.1" id="bdca66da-b24d-4c28-9ed3-7b25797e90e9"
	 xmlns="http://www.w3.org/2000/svg" xmlns:xlink="http://www.w3.org/1999/xlink" x="0px" y="0px" viewBox="0 0 900 500"
	 style="enable-background:new 0 0 900 500;" xml:space="preserve">
<style type="text/css">
	.st0{opacity:0.45;fill:#E6E6E6;enable-background:new    ;}
	.st1{fill:#F4A28C;}
	.st2{opacity:0.31;fill:#CE8172;enable-background:new    ;}
	.st3{fill:#EF5015;}
	.st4{opacity:9.000000e-02;enable-background:new    ;}
	.st5{fill:#2C2E2D;}
	.st6{opacity:9.000000e-02;fill:#2C2E2D;enable-background:new    ;}
	.st7{fill:#C1C1C1;}
	.st8{fill:#878787;}
	.st9{fill:#3F3D56;}
	.st10{fill:#E6E6E6;}
	.st11{fill:#F2F2F2;}
	.st12{opacity:0.2;fill:#FFFFFF;enable-background:new    ;}
	.st13{opacity:0.58;fill:#EF5015;enable-background:new    ;}
	.st14{opacity:0.73;fill:#EF5015;enable-background:new    ;}
	.st15{opacity:0.46;fill:#FFFFFF;enable-background:new    ;}
</style>
<ellipse class="st0" cx="373.8" cy="446" rx="306.3" ry="24.8"/>
<polygon class="st1" points="133.1,87.2 132.6,114.7 147.8,113.9 142.1,94.2 "/>
<path class="st2" d="M143.5,98.5c-1.9-0.2-3.8-1-5.3-2.2c0,0,0.9,5,7.1,9.1L143.5,98.5z"/>
<path class="st1" d="M148.2,84c0,0,1.4,8.3,0.4,13.9c-0.4,2.3-2.6,3.8-4.8,3.4l0,0c-2.8-0.5-6.5-2.1-7.8-6.4l-3.1-7.1
	c-1-3,0.1-6.4,2.7-8.3C139.9,75.8,147.6,78.9,148.2,84z"/>
<path class="st1" d="M139.9,91.9c0,0-0.3-3.2-2.7-2.8s-2,5.1,1.4,5.3L139.9,91.9z"/>
<path class="st1" d="M148.9,89.3l2.5,3c0.5,0.6,0.4,1.4-0.2,1.9c-0.2,0.1-0.3,0.2-0.5,0.3l-3.1,0.9L148.9,89.3z"/>
<path class="st3" d="M141.9,111.2c0,0,62.6,19.9,48.1,63.1c-10.5,31.2-26.9,26.5-29.6,51.1l-3,24.3L94,234.2c0,0,5.5-35.5,0.2-58.6
	S73.4,95.1,141.9,111.2z"/>
<path class="st4" d="M126.2,125.6c0,0,25.6,32.1,6.4,67.3c-3.3,6-6.1,12.2-8.8,18.4L112,238.6l-18-4.3l1.7-15L126.2,125.6z"/>
<path class="st5" d="M137.2,89.1c0,0,11.5,24.1,3.7,29.3s-22.2,5-24.7-5.4s7.6-13.6,6.9-28.4s27.6-15.3,28.4-6.9
	S137.2,89.1,137.2,89.1z"/>
<polygon class="st1" points="134.9,305.2 208.7,435 218.8,432.8 178.1,291.3 "/>
<path class="st1" d="M96.2,295.9l21.1,54.9l-44.2-21.4l-5.4,10c0,0,50.4,52.6,78.7,39.1C174.9,365.1,136,277,136,277L96.2,295.9z"/>
<path class="st5" d="M96.1,233.5l68.5,9.1l24.3,74.8l-87.8,12.8C101.2,330.3,69.6,276.2,96.1,233.5z"/>
<path class="st6" d="M196.3,194.8c-1.3,29.5-13.5,50-16.9,55.3c-19.2,30.3-47.6,42-57.4,45.5c7.8-25.8,18-54.5,31.6-84.9
	c10.9-24.4,22.4-46.4,33.7-65.9C191.3,154.4,197.3,172.1,196.3,194.8z"/>
<path class="st3" d="M218.1,433c0,0,7.1,5.9,14.2,4c7-1.9,10.3,7.9-1.4,9.4c-3.6,0.5-7.3,0.6-11,0.5c-3.4,0-6.7,0.8-9.6,2.5
	c-1.2,0.6-2.6,0.3-3.6-0.6c-4.1-3.1,2-13.7,2-13.7L218.1,433z"/>
<path class="st3" d="M68.7,339.4c0,0-9.1,1.8-12.1,8.4c-3,6.7-12.7,2.9-6.4-7.1c2-3.1,4.2-6,6.6-8.8c2.2-2.6,3.7-5.7,4.3-9
	c0.3-1.3,1.4-2.2,2.7-2.4c5-1.2,9.3,8.7,9.3,8.7L68.7,339.4z"/>
<path class="st1" d="M197.9,233.8c1.7-1.8,4.2-2.7,6.6-2.3c3.9,0.8,10.2,11.5-4.9,11.4L197.9,233.8z"/>
<path class="st1" d="M195.6,184.6c0,0,6,10.7-2.8,13.7C183.9,201.3,185.4,185.8,195.6,184.6z"/>
<path class="st7" d="M288.6,37.8l-4.4,72.1L178.1,310.5c-3,5.7-7.8,10.3-13.6,13c-7.2,3.4-15.5,3.8-23,1
	c-8.7-3.2-15.4-10.3-18.2-19.2c-0.6-1.9-1-3.8-1.2-5.8c-0.6-5.8,0.5-11.7,3.3-16.9L231.6,81.8L288.6,37.8z"/>
<path class="st8" d="M151.7,325l115.2-217.8l8.4,4.4L163.9,322.3C160.1,324.1,155.9,325,151.7,325z"/>
<path class="st8" d="M123.5,299.4L234.3,90l8.4,4.4l-115,217.3c-1.3-2.1-2.4-4.4-3.1-6.7C124.1,303.2,123.7,301.3,123.5,299.4z"/>
<path class="st8" d="M133.7,318.6L250.2,98.3l8.4,4.4L141.9,323.2c-1.2-0.4-2.3-0.9-3.5-1.5C136.8,320.8,135.2,319.8,133.7,318.6z"
	/>
<path class="st5" d="M270.2,54.5c5.6-4.5,11.2-9.1,16.8-13.6l-1.4,23.9c-0.8,0.2-5.7,1.1-10.2-2.1C271.3,59.7,270.4,55.4,270.2,54.5
	z"/>
<path class="st6" d="M139.4,155.1c1.6-26.6-38.3-30.8-42-4.5c-1,7.4,0.3,17,5.5,29.2c21,49.1,60.5,73,103.4,70.2l-2.1-11
	c0,0-66.4-15.6-66.1-76.5C138.8,160.1,139.2,157.6,139.4,155.1z"/>
<path class="st9" d="M-71.7,35.2"/>
<rect x="343.6" y="47.8" class="st10" width="498.7" height="357.8"/>
<rect x="425.8" y="109.3" class="st11" width="333" height="172.1"/>
<rect x="425.8" y="292" class="st11" width="333" height="39.5"/>
<rect x="440.5" y="233.7" class="st7" width="115.9" height="12.2"/>
<rect x="440.5" y="256.5" class="st10" width="77.5" height="12.2"/>
<rect x="657.2" y="200" class="st7" width="87.9" height="15.3"/>
<rect x="444.7" y="307.8" class="st10" width="295.1" height="7"/>
<rect x="343.6" y="39.2" class="st5" width="498.7" height="38.7"/>
<rect x="425.8" y="50.9" class="st10" width="115.8" height="15.3"/>
<circle class="st12" cx="699.4" cy="58.5" r="7.1"/>
<circle class="st12" cx="725.5" cy="58.5" r="7.1"/>
<circle class="st12" cx="751.5" cy="58.5" r="7.1"/>
<circle class="st12" cx="777.6" cy="58.5" r="7.1"/>
<path class="st13" d="M388.4,422c0,0,17.3-4.7,21.1-20.7c0,0-26.9-5.5-27.6,22.1L388.4,422z"/>
<path class="st14" d="M386.3,420.3c0,0,12.2-19,1.6-36.9c0,0-20.4,12.9-11.5,36.9H386.3z"/>
<path class="st3" d="M383.2,420.3c0,0-6.3-20.2-25.6-24.1c0,0-3.7,13.1,12.4,24.1H383.2z"/>
<polygon class="st5" points="395.7,419.9 392.1,443.9 370,443.9 366.9,419.9 "/>
<rect x="425.7" y="339.1" class="st11" width="333" height="39.5"/>
<rect x="444.6" y="354.9" class="st10" width="295.1" height="7"/>
<rect x="440.5" y="185.1" class="st7" width="115.9" height="12.2"/>
<rect x="440.5" y="207.9" class="st10" width="77.5" height="12.2"/>
<rect x="440.5" y="138.3" class="st7" width="115.9" height="12.2"/>
<rect x="440.5" y="161.1" class="st10" width="77.5" height="12.2"/>
<circle class="st7" cx="699.4" cy="154.9" r="23.3"/>
<path class="st5" d="M125,99.8"/>
<path class="st3" d="M139.4,150.8c1.6-26.6-38.3-30.8-42-4.5c-1,7.4,0.3,17,5.5,29.2c21,49.1,60.5,73,103.4,70.2l-2.1-11
	c0,0-66.4-15.6-66.1-76.5C138.8,155.8,139.2,153.3,139.4,150.8z"/>
<path class="st15" d="M139.4,150.8c1.6-26.6-38.3-30.8-42-4.5c-1,7.4,0.3,17,5.5,29.2c21,49.1,60.5,73,103.4,70.2l-2.1-11
	c0,0-66.4-15.6-66.1-76.5C138.8,155.8,139.2,153.3,139.4,150.8z"/>
<path class="st1" d="M204.2,234.7c2.5,0.2,8.1,0.9,11.9,3.9c1.2,1,1.9,1.8,2.1,2.9c0.4,2.3-1.6,4.3-1.7,4.4c-2.2,2-6.3,2-10.2-0.2
	C205.6,242,204.9,238.4,204.2,234.7z"/>
<path class="st1" d="M218.8,233.6"/>
<path class="st1" d="M227.9,240.1"/>
</svg>
