<?xml version="1.0" encoding="utf-8"?>
<!-- Generator: Adobe Illustrator 24.0.2, SVG Export Plug-In . SVG Version: 6.00 Build 0)  -->
<svg version="1.1" id="e7d24159-a105-4c62-98a5-787fb4a09ca9"
	 xmlns="http://www.w3.org/2000/svg" xmlns:xlink="http://www.w3.org/1999/xlink" x="0px" y="0px" viewBox="0 0 900 500"
	 style="enable-background:new 0 0 900 500;" xml:space="preserve">
<style type="text/css">
	.st0{opacity:0.3;fill:#E6E6E6;enable-background:new    ;}
	.st1{fill:#E6E6E6;}
	.st2{fill:#2C2E2D;}
	.st3{opacity:0.12;}
	.st4{fill:#CCCCCC;}
	.st5{fill:#A8A8A8;}
	.st6{fill:none;stroke:#FFFFFF;stroke-width:2.03;stroke-linecap:round;stroke-linejoin:round;stroke-miterlimit:4.06;}
	.st7{fill:#FFFFFF;}
	.st8{fill:#F4A28C;}
	.st9{fill:#FFD200;}
	.st10{fill:#EF5015;}
	.st11{opacity:0.46;fill:#FFFFFF;enable-background:new    ;}
	.st12{fill:#24285B;}
	.st13{opacity:0.31;fill:#CE8172;enable-background:new    ;}
	.st14{opacity:8.000000e-02;enable-background:new    ;}
	.st15{opacity:0.5;fill:#CCCCCC;enable-background:new    ;}
	.st16{opacity:0.2;fill:#CCCCCC;enable-background:new    ;}
</style>
<title>personal_info</title>
<path class="st0" d="M670.7,48.4c76.3,25.8,149,96.7,151.2,188.2c2.1,91.5-23.2,184.8-162.2,221.1c-130.7,34-440.9,46.5-523.5-67.3
	C58.2,283.2,83,109,219.3,53.2C314.9,14.2,521.6-2,670.7,48.4z"/>
<rect x="159.6" y="58.4" class="st1" width="136.5" height="105.5"/>
<rect x="159.6" y="38" class="st2" width="136.5" height="20.4"/>
<g class="st3">
	<path d="M222.6,140.7c-4.4-0.8-8.5-2.5-12.2-5.1c-1.2,1.3-2.4,2.5-3.6,3.8c-0.6,0.7-1,0.6-1.6,0c-1.9-2-3.9-4-5.9-5.9
		c-0.6-0.6-0.5-0.9,0-1.4c1.2-1.2,2.4-2.5,3.6-3.7c-1-2-2.1-4-3-6c-0.7-1.7-1.2-3.5-1.6-5.3c-0.2-0.7-0.4-0.8-1-0.8
		c-1.5,0-3,0-4.6,0c-0.7,0-1-0.3-1-1c0-2.8,0-5.6,0-8.5c0-0.7,0.3-1,1-1c1.6,0,3.1,0,4.6,0c0.3,0,0.8-0.3,0.8-0.5
		c0.9-4.1,2.5-8,5-11.4c-1.3-1.3-2.5-2.5-3.8-3.7c-0.6-0.5-0.5-0.9,0-1.4c2-2,4-4,6-6c0.5-0.5,0.9-0.5,1.5,0
		c1.2,1.3,2.3,2.5,3.6,3.8c0.9-0.6,1.7-1.1,2.5-1.5c2.8-1.6,5.9-2.8,9.1-3.4c0.7,0,0.9-0.3,0.9-1.1c0-1.5,0-2.9,0-4.4
		c0-0.7,0.2-1,1-1c2.9,0,5.7,0,8.5,0c0.8,0,1,0.3,1,1.1c0,1.7,0,3.4,0,5.2c4.4,0.8,8.6,2.5,12.2,5.1c1.2-1.3,2.4-2.5,3.6-3.8
		c0.5-0.6,1-0.6,1.5,0c1.9,2,3.9,4,5.9,5.9c0.6,0.6,0.5,1,0,1.5c-1.2,1.2-2.4,2.4-3.7,3.7c0.3,0.5,0.7,1.1,1,1.6
		c1.8,2.9,3.1,6.1,3.8,9.5c0.2,0.8,0.5,1,1.2,0.9c1.4,0,2.8,0,4.2,0c0.8,0,1.1,0.2,1.1,1.1c0,2.8,0,5.5,0,8.3c0,0.8-0.3,1.1-1.1,1.1
		c-1.5,0-3.1,0-4.6,0c-0.3,0.1-0.6,0.3-0.8,0.6c-0.8,4.1-2.5,8-4.9,11.4c1.2,1.2,2.4,2.5,3.7,3.7c0.6,0.6,0.7,1,0,1.6
		c-2,1.9-4,3.9-5.9,5.9c-0.5,0.5-0.9,0.6-1.4,0c-1.2-1.3-2.3-2.5-3.7-3.8c-3.7,2.5-7.8,4.2-12.2,5c0,1.8,0,3.5,0,5.2
		c0,0.8-0.2,1.1-1.1,1.1c-2.8,0-5.6,0-8.5,0c-0.8,0-1.1-0.3-1-1.1C222.6,144.2,222.6,142.5,222.6,140.7z M227.9,93.6
		c-9.7,0.1-17.6,8-17.5,17.7s8,17.6,17.7,17.5c9.7-0.1,17.5-7.9,17.5-17.6C245.6,101.5,237.7,93.6,227.9,93.6
		C227.9,93.6,227.9,93.6,227.9,93.6z"/>
</g>
<rect x="522.1" y="31.5" class="st1" width="207" height="207"/>
<rect x="590.4" y="53.8" class="st4" width="199.3" height="87.7"/>
<path class="st1" d="M327,401.2h163.6c17.9,0,32.4,14.5,32.4,32.4v0c0,17.9-14.5,32.4-32.4,32.4H327c-17.9,0-32.4-14.5-32.4-32.4v0
	C294.6,415.7,309.1,401.2,327,401.2z"/>
<path class="st1" d="M436.5,329.4h163.6c17.9,0,32.4,14.5,32.4,32.4l0,0c0,17.9-14.5,32.4-32.4,32.4H436.5
	c-17.9,0-32.4-14.5-32.4-32.4l0,0C404.2,343.9,418.7,329.4,436.5,329.4z"/>
<path class="st1" d="M546.1,257.6h163.6c17.9,0,32.4,14.5,32.4,32.4l0,0c0,17.9-14.5,32.4-32.4,32.4H546.1
	c-17.9,0-32.4-14.5-32.4-32.4l0,0C513.8,272,528.2,257.6,546.1,257.6z"/>
<rect x="159.2" y="331.7" class="st1" width="120.1" height="130.7"/>
<rect x="177.6" y="348" class="st5" width="20.9" height="20.9"/>
<polyline class="st6" points="183.7,358.6 186.7,363.1 192.1,355 "/>
<rect x="209.9" y="354.8" class="st7" width="48.4" height="8.3"/>
<rect x="177.6" y="385.9" class="st5" width="20.9" height="20.9"/>
<polyline class="st6" points="183.7,396.6 186.7,401.1 192.1,393 "/>
<rect x="209.9" y="392.8" class="st7" width="48.4" height="8.3"/>
<rect x="177.6" y="421.4" class="st5" width="20.9" height="20.9"/>
<polyline class="st6" points="183.7,432.1 186.7,436.6 192.1,428.5 "/>
<rect x="209.9" y="428.2" class="st7" width="48.4" height="8.3"/>
<path class="st8" d="M587.6,89.6c3-1.7,5.8-3.7,8.4-5.9c1.4-1.8,3.8-11.4,5.7-13.4c1.9-2,5.7-1.8,6.2-0.2c0.3,1.5,0.3,3,0.2,4.6
	c0,0,2.1-2.6,2.3-1.4c-0.7,5.1-2.8,9.9-5.9,13.9c-4.6,5.8-12.4,13.7-12.4,13.7L587.6,89.6z"/>
<rect x="245.3" y="219" transform="matrix(0.3287 -0.9444 0.9444 0.3287 -63.194 433.0421)" class="st9" width="55.4" height="84"/>
<path class="st10" d="M437.3,97.4c0,0,108,18.1,153.3-11.4l6.7,10.6c0,0-18.6,28.4-71.5,40.8c-52.9,12.5-83.5,6.2-83.5,6.2
	L437.3,97.4z"/>
<path class="st11" d="M437.3,97.4c0,0,108,18.1,153.3-11.4l6.7,10.6c0,0-18.6,28.4-71.5,40.8c-52.9,12.5-83.5,6.2-83.5,6.2
	L437.3,97.4z"/>
<path class="st10" d="M338.1,378.7c0,0-2.6,6,1.1,10.1s1.1,9.1-3.5,6.7c-4.6-2.4-9.6-15.8-9.6-15.8l7.3-7.1L338.1,378.7z"/>
<path class="st10" d="M502,319.8c0,0,5.6,3.2,10.2,0c4.5-3.2,9.1,0,6.2,4.3c-2.9,4.3-16.8,7.7-16.8,7.7l-6.2-8L502,319.8z"/>
<path class="st8" d="M432.6,50.4c-0.9,6.1-2.7,12.1-5.2,17.8c-1.5,2.7-4.8,3.8-7.6,2.3c0,0,0,0,0,0c-4.5-2-7.3-6.5-7.3-11.4l-1-10.3
	c0.1-4.3,2.8-8,6.9-9.4C425.5,36.7,433.9,43.7,432.6,50.4z"/>
<polygon class="st8" points="411.7,50.8 397.6,84.6 416.9,91 419.4,63.8 "/>
<path class="st12" d="M429.7,50.2c-3.4-0.7-6.7-1.7-9.8-3.2c1.3,3.5,0.3,7.4-2.4,9.9c-2.6,2.5-6.6,2.9-9.6,0.8l3.6-13.9
	c0.9-4.1,4-7.4,8-8.5c1.7-0.5,3.4-0.9,5.2-1.2c4.4-0.6,9.6,3.4,13.9,1.6c1.4-0.6,3,0,3.5,1.4c0.2,0.4,0.2,0.9,0.2,1.3
	c-0.4,4.4-2.7,10.9-9.1,11.8C432,50.4,430.8,50.4,429.7,50.2z"/>
<path class="st8" d="M418.8,56.9c0,0,0.9-4.2-2.3-4.6c-3.2-0.4-4.6,5.6-0.5,7.2L418.8,56.9z"/>
<path class="st8" d="M431.1,57.2l2,4.9c0.4,0.9,0,2-1,2.3c-0.2,0.1-0.5,0.1-0.8,0.1l-4.4-0.2L431.1,57.2z"/>
<path class="st13" d="M419.1,69.8c-2.3-1.2-4.1-3.1-5.3-5.3c0,0-1.3,6.6,4.3,14.7L419.1,69.8z"/>
<path class="st10" d="M397.7,84.6l13.1,4.3c3.2,1.1,6.4,2,9.7,2.7c10.5,2.3,41.1,11.4,46.9,45.7c7,41.6-51.1,98.1-51.1,98.1
	l-67.7-16C348.6,219.4,300.8,65,397.7,84.6z"/>
<path class="st2" d="M348.6,219.2c0,0-9.1,43,23.3,48.7c32.4,5.7,88.1-19.6,122.1,57.1l11.9-7c0,0-7.9-70-82.2-90.3L348.6,219.2z"/>
<path class="st2" d="M359.2,238c0,0,42.2,66-30.1,128.6l9,12.1c0,0,77.9-35.7,70.3-135.1L359.2,238z"/>
<path class="st14" d="M397.7,122.2c0,0,0.3,17-20.4,38.7s8.2,62.5,8.2,62.5l-36.9-4.1c0,0-14.3-50.5-11.4-83.3
	c2.9-32.8,58.7-13.7,58.7-13.7L397.7,122.2z"/>
<path class="st10" d="M360.8,83.3c-40.7,2.4-126.1,20.8-89.7,135.2l18-1.6c0,0-5.3-86.1,69.8-82.8c2.8,0.2,5.6,0.2,8.4,0
	c12.5-1.1,42.5-6.1,30-30.5C390.2,90.2,375.9,82.2,360.8,83.3z"/>
<path class="st11" d="M360.8,83.3c-40.7,2.4-126.1,20.8-89.7,135.2l18-1.6c0,0-5.3-86.1,69.8-82.8c2.8,0.2,5.6,0.2,8.4,0
	c12.5-1.1,42.5-6.1,30-30.5C390.2,90.2,375.9,82.2,360.8,83.3z"/>
<path class="st8" d="M285.9,217.1c1.6,5.7,1.6,11.8,0,17.5c-2.8,8.2-8.8,10.1-14,7.4c-5.2-2.8,5-16.5,5-16.5l-3.3-7.3L285.9,217.1z"
	/>
<rect x="615.1" y="74.7" class="st1" width="40.8" height="40.8"/>
<rect x="671.7" y="76.8" class="st1" width="97.1" height="12.5"/>
<rect x="671.7" y="101" class="st1" width="80.2" height="12.5"/>
<rect x="559.2" y="443.9" class="st1" width="189" height="10.6"/>
<rect x="604.4" y="428" class="st4" width="42.3" height="42.3"/>
<rect x="638.7" y="393.6" class="st1" width="122.1" height="6.9"/>
<rect x="712.1" y="383.4" class="st4" width="27.3" height="27.3"/>
<polygon class="st7" points="552.9,273.8 558.2,284.4 569.8,286.1 561.4,294.3 563.4,306 552.9,300.5 542.5,306 544.5,294.3 
	536,286.1 547.7,284.4 "/>
<polygon class="st7" points="590.3,273.8 595.5,284.4 607.2,286.1 598.7,294.3 600.7,306 590.3,300.5 579.8,306 581.8,294.3 
	573.3,286.1 585,284.4 "/>
<polygon class="st7" points="627.6,273.8 632.8,284.4 644.5,286.1 636,294.3 638,306 627.6,300.5 617.1,306 619.1,294.3 
	610.7,286.1 622.3,284.4 "/>
<polygon class="st7" points="664.9,273.8 670.1,284.4 681.8,286.1 673.4,294.3 675.4,306 664.9,300.5 654.5,306 656.4,294.3 
	648,286.1 659.7,284.4 "/>
<polygon class="st7" points="702.2,273.8 707.5,284.4 719.1,286.1 710.7,294.3 712.7,306 702.2,300.5 691.8,306 693.8,294.3 
	685.3,286.1 697,284.4 "/>
<polygon class="st7" points="447.4,347 452.7,357.6 464.4,359.3 455.9,367.5 457.9,379.2 447.4,373.7 437,379.2 439,367.5 
	430.5,359.3 442.2,357.6 "/>
<polygon class="st7" points="484.8,347 490,357.6 501.7,359.3 493.2,367.5 495.2,379.2 484.8,373.7 474.3,379.2 476.3,367.5 
	467.9,359.3 479.5,357.6 "/>
<polygon class="st7" points="522.1,347 527.3,357.6 539,359.3 530.6,367.5 532.6,379.2 522.1,373.7 511.6,379.2 513.6,367.5 
	505.2,359.3 516.9,357.6 "/>
<polygon class="st7" points="559.4,347 564.7,357.6 576.3,359.3 567.9,367.5 569.9,379.2 559.4,373.7 549,379.2 551,367.5 
	542.5,359.3 554.2,357.6 "/>
<polygon class="st7" points="334.1,415.8 339.3,426.4 351,428 342.5,436.3 344.5,447.9 334.1,442.4 323.6,447.9 325.6,436.3 
	317.1,428 328.8,426.4 "/>
<polygon class="st7" points="371.4,415.8 376.6,426.4 388.3,428 379.9,436.3 381.9,447.9 371.4,442.4 360.9,447.9 362.9,436.3 
	354.5,428 366.2,426.4 "/>
<polygon class="st7" points="408.7,415.8 413.9,426.4 425.6,428 417.2,436.3 419.2,447.9 408.7,442.4 398.3,447.9 400.3,436.3 
	391.8,428 403.5,426.4 "/>
<rect x="49.4" y="265.2" class="st1" width="21.8" height="55.5"/>
<rect x="81" y="239.8" class="st1" width="21.8" height="80.9"/>
<rect x="112.7" y="209.8" class="st4" width="21.8" height="111"/>
<polygon class="st9" points="123.6,181 127.1,188.3 135.1,189.4 129.3,195.1 130.7,203 123.6,199.2 116.4,203 117.8,195.1 
	112,189.4 120,188.3 "/>
<rect x="54.7" y="179.2" class="st15" width="26.3" height="5.6"/>
<rect x="54.7" y="196.3" class="st16" width="26.3" height="5.6"/>
<rect x="86.3" y="179.2" class="st15" width="6.8" height="5.6"/>
<rect x="86.3" y="196.3" class="st16" width="6.8" height="5.6"/>
</svg>
