<?xml version="1.0" encoding="utf-8"?>
<!-- Generator: Adobe Illustrator 24.0.2, SVG Export Plug-In . SVG Version: 6.00 Build 0)  -->
<svg version="1.1" id="e7d24159-a105-4c62-98a5-787fb4a09ca9"
	 xmlns="http://www.w3.org/2000/svg" xmlns:xlink="http://www.w3.org/1999/xlink" x="0px" y="0px" viewBox="0 0 900 500"
	 style="enable-background:new 0 0 900 500;" xml:space="preserve">
<style type="text/css">
	.st0{fill:#E6E6E6;}
	.st1{fill:#FFFFFF;}
	.st2{fill:#F2BF8C;}
	.st3{fill:#24285B;}
	.st4{fill:#F4A28C;}
	.st5{fill:#FFD200;}
	.st6{fill:#9B6448;}
	.st7{fill:#EF5015;}
	.st8{opacity:0.46;fill:#FFFFFF;enable-background:new    ;}
	.st9{opacity:8.000000e-02;enable-background:new    ;}
	.st10{fill:#CCCCCC;}
</style>
<title>personal_info</title>
<rect x="342.2" y="913" class="st0" width="841.4" height="34.9"/>
<circle class="st0" cx="134.5" cy="392.7" r="98.9"/>
<circle class="st1" cx="134.5" cy="392.7" r="76.8"/>
<path class="st2" d="M102.6,465L80.3,344.8c0,0-19.3-41.8,4.4-64.1s17.9,42.7,33,42.2c15.1-0.6,20.1-24.8,27.3-11.2
	s-23,33.2-23,33.2l35.9,121.7c-7.4,1.9-18.1,3.9-31.1,3C116.9,469,108.7,467,102.6,465z"/>
<rect x="78.2" y="350.7" transform="matrix(0.9883 -0.1526 0.1526 0.9883 -53.6956 20.0692)" class="st3" width="51.4" height="18.3"/>
<circle class="st1" cx="95.4" cy="360" r="12.4"/>
<path class="st2" d="M19.1,305.2"/>
<circle class="st0" cx="347.5" cy="392.7" r="98.9"/>
<circle class="st1" cx="347.5" cy="392.7" r="76.8"/>
<path class="st4" d="M325.9,462.7l-22.5-121.3c0,0-19.5-42.2,4.3-64.6c23.9-22.4,18.1,43.1,33.3,42.5c15.2-0.6,20.3-25.1,27.5-11.3
	c7.2,13.7-23.2,33.5-23.2,33.5c11.5,39,23,78,34.5,116.9C361.9,459.9,343.9,461.3,325.9,462.7z"/>
<path class="st5" d="M315.8,462.7l-14.4-89l61.5-5.6c8.7,29.7,17.3,59.5,26,89.2c-6.3,4-21.1,12-41.3,12
	C333.3,469.5,322.2,465.6,315.8,462.7z"/>
<path class="st5" d="M434.5,481.4"/>
<circle class="st0" cx="568.8" cy="392.7" r="98.9"/>
<circle class="st1" cx="568.8" cy="392.7" r="76.8"/>
<circle class="st0" cx="782" cy="392.7" r="98.9"/>
<circle class="st1" cx="782" cy="392.7" r="76.8"/>
<rect x="125.7" y="212.2" class="st0" width="658.7" height="19.7"/>
<rect x="125.7" y="212.2" class="st0" width="21.7" height="83.2"/>
<rect x="340.8" y="212.2" class="st0" width="21.7" height="83.2"/>
<rect x="564.2" y="212.2" class="st0" width="21.7" height="83.2"/>
<path class="st6" d="M551.2,464.3L534,341.7c0,0-12.5-9.5-14.2-20.8c-0.5-3.6,1.9-6.9,5.5-7.5c1.6-0.3,3.3,0.1,4.7,1.1
	c4.9,3.3,11.1,5.5,14.1-1.8c5.5-13-4.7-30.6,11.3-32.7s31.9,34.8,4.2,58.2l31.4,126L551.2,464.3L551.2,464.3z"/>
<path class="st7" d="M541.5,464.3l-7.1-53.4l50.3-2.5l13.8,55.9c-6.1,2.3-15.7,5-27.7,5.1C558,469.5,547.8,466.6,541.5,464.3z"/>
<polygon class="st7" points="538.1,410.7 534.5,386.1 570.5,382.1 577.2,408.8 "/>
<polygon class="st8" points="538.1,410.7 534.5,386.1 570.5,382.1 577.2,408.8 "/>
<rect x="771.1" y="212.2" class="st0" width="21.7" height="83.2"/>
<path class="st4" d="M760.4,464.4l-12.6-121.5c0,0-15.6-6.1-15.2-17.4s9.6-26.1,22.2-24.8c12.6,1.3,18.6,3.5,20-12.1
	c1.3-15.6,22-12.7,16.1,4c-2.2,6.3-6.8,28.2-9.3,41.2c-1.3,6.5-1.2,13.2,0.2,19.7l24.8,110.9L760.4,464.4L760.4,464.4z"/>
<path class="st9" d="M771,312.3c0,0,8.9,11.4-1.6,23.8s5.1,128.4,5.1,128.4h-14.2L747.7,343L771,312.3z"/>
<path class="st4" d="M755.9,339.5c-3.9,3.8-9.8,4.6-14.4,1.8c-5.4-3.2-11.5-8.3-11.3-15c0.4-12.2,12.3-28.8,24.6-26.1
	c12.3,2.8,19.6,8.7,15.2,20.2C767.4,327.1,760.8,334.5,755.9,339.5z"/>
<path class="st5" d="M756,464.4l-5.3-34.1l53.2-2.2l8.2,36.3c-6.3,2.3-16.5,5.2-29.4,5C771.2,469.3,762,466.7,756,464.4z"/>
<rect x="366.4" y="164.3" class="st10" width="199.3" height="35.9"/>
<rect x="366.4" y="15" class="st10" width="199.3" height="137.5"/>
<rect x="383.5" y="30.9" class="st0" width="165" height="29.7"/>
<rect x="383.5" y="71.2" class="st0" width="165" height="29.7"/>
<rect x="384.5" y="112.9" class="st0" width="165" height="29.7"/>
<rect x="384.5" y="152.3" class="st0" width="165" height="29.7"/>
<rect x="581.3" y="33.6" class="st10" width="136.6" height="99.3"/>
<rect x="565.2" y="68.4" class="st0" width="17.1" height="29.7"/>
<rect x="644.6" y="132.8" class="st0" width="10.1" height="10.1"/>
<rect x="644.6" y="147.3" class="st0" width="10.1" height="10.1"/>
<rect x="644.6" y="161.7" class="st0" width="10.1" height="10.1"/>
<rect x="644.6" y="176.2" class="st0" width="10.1" height="10.1"/>
<rect x="630.2" y="176.3" class="st0" width="10.1" height="10.1"/>
<rect x="616.3" y="177" class="st0" width="10.1" height="10.1"/>
<rect x="601.9" y="177" class="st0" width="10.1" height="10.1"/>
<rect x="587.1" y="177.2" class="st0" width="10.1" height="10.1"/>
<rect x="572.7" y="177.3" class="st0" width="10.1" height="10.1"/>
<g id="q670oE.tif">
	<g>
		<path class="st1" d="M636.2,59.7c0,3.4,0.2,6.7-0.1,10.1c-0.4,4.9-4.5,9.2-9.4,10.2c-5.1,1.1-10.6-1.3-13.1-5.7
			c-1.2-2.1-1.7-4.3-1.8-6.6c0-5.2,0-10.4,0-15.7c0.1-6.7,4.5-11.7,10.9-12.5c7.2-0.9,13.4,4.7,13.6,12.3c0.1,2.6,0,5.3,0,7.9
			C636.3,59.7,636.2,59.7,636.2,59.7z M628.2,60L628.2,60c0-1.3,0-2.6,0-3.9c0-1.3,0-2.6,0-3.9c0-2.7-1.7-4.5-4.1-4.5
			c-2.4,0-4.1,1.8-4.1,4.5c0,5.2,0,10.3,0,15.5c0,2.6,1.7,4.5,4.1,4.5c2.4,0,4.1-1.8,4.1-4.5C628.2,65.1,628.2,62.5,628.2,60z"/>
		<path class="st1" d="M685.2,59.8c0,3.3,0.2,6.6-0.1,9.9c-0.4,5-4.6,9.3-9.5,10.3c-5.2,1-10.5-1.4-13-5.8c-1.1-1.9-1.7-4-1.7-6.2
			c0-5.4-0.1-10.8,0-16.2c0.2-8.8,8.1-14.3,16.5-11.5c4.7,1.6,7.9,6.3,8,11.7c0,2.6,0,5.3,0,7.9C685.3,59.8,685.2,59.8,685.2,59.8z
			 M669,59.9L669,59.9c0,1.3,0,2.5,0,3.8s0,2.6,0,3.9c0,2.6,1.7,4.5,4.1,4.5c2.4,0,4.1-1.8,4.1-4.5c0-5.2,0-10.3,0-15.5
			c0-2.7-1.7-4.5-4.1-4.5s-4.1,1.8-4.1,4.5C669,54.7,669,57.3,669,59.9z"/>
		<path class="st1" d="M595.7,108.8c0-3.3-0.3-6.6,0.1-9.9c0.6-5.9,6-10.5,12-10.5s11.6,4.6,12,10.5c0.4,6.4,0.2,12.8,0.2,19.2
			c0,1-0.3,2.1-0.7,3c-1.8,4.9-5.4,7.6-10.6,8.1c-4.8,0.4-8.6-1.7-11.3-5.7c-1.4-2.1-1.8-4.4-1.9-6.9c0-2.6,0-5.2,0-7.8
			C595.6,108.8,595.6,108.8,595.7,108.8z M603.7,108.9c0,2.6,0,5.2,0,7.8c0,2.7,1.7,4.5,4.1,4.5c2.4,0,4.1-1.8,4.1-4.5
			c0-5.2,0-10.3,0-15.5c0-2.6-1.7-4.5-4.1-4.5c-2.4,0-4.1,1.8-4.1,4.5C603.7,103.7,603.7,106.3,603.7,108.9z"/>
		<path class="st1" d="M668.8,109c0,3.3,0.3,6.5-0.1,9.8c-0.6,5.9-6,10.5-12,10.5s-11.6-4.6-12-10.5c-0.4-6.4-0.2-12.8-0.2-19.2
			c0-1,0.3-2.1,0.7-3c1.8-4.9,5.4-7.7,10.6-8.1c4.8-0.4,8.6,1.7,11.3,5.7c1.3,2.1,1.8,4.4,1.9,6.9c0,2.6,0,5.3,0,7.9
			C669,109,668.9,109,668.8,109z M660.9,108.9c0-2.6,0-5.3,0-7.9c0-2.5-1.7-4.4-4-4.4c-2.4,0-4.1,1.8-4.1,4.4c0,5.2,0,10.4,0,15.7
			c0,2.6,1.7,4.4,4,4.4c2.4,0,4.1-1.8,4.1-4.4S660.9,111.5,660.9,108.9z"/>
		<path class="st1" d="M603.7,59.9c0,5.4,0,10.7,0,16.1c0,3.2-2.9,5.2-5.7,4c-1.8-0.8-2.5-2.3-2.5-4.2c0-7.4,0-14.7,0-22.1
			c0-3.2,0-6.4,0-9.5c0-2.9,1.6-4.7,4.1-4.7c2.4,0,4,1.9,4,4.7C603.7,49.4,603.7,54.6,603.7,59.9z"/>
		<path class="st1" d="M644.5,59.7c0-5.4,0-10.7,0-16.1c0-3.1,2.9-5.1,5.6-3.9c1.8,0.8,2.5,2.2,2.5,4.1c0,5.6,0,11.2,0,16.7
			c0,5.1,0,10.3,0,15.4c0,3.1-2.9,5.1-5.7,3.9c-1.8-0.8-2.5-2.2-2.5-4.2C644.5,70.4,644.5,65.1,644.5,59.7z"/>
		<path class="st1" d="M701.7,60c0,5.3,0,10.6,0,15.9c0,3.2-2.9,5.2-5.7,4c-1.8-0.8-2.5-2.2-2.5-4.2c0-5.8,0-11.6,0-17.4
			c0-4.9,0-9.8,0-14.7c0-3.1,2.9-5.1,5.7-3.9c1.8,0.8,2.5,2.2,2.5,4.1C701.7,49.3,701.7,54.6,701.7,60z"/>
		<path class="st1" d="M628.2,108.7c0-5.3,0-10.6,0-15.9c0-3.2,2.9-5.2,5.7-4c1.8,0.8,2.5,2.2,2.5,4.2c0,5.6,0,11.3,0,16.9
			c0,4.9,0,9.9,0,14.8c0,2.8-1.7,4.6-4.1,4.6c-2.4,0-4.1-1.8-4.1-4.6C628.2,119.4,628.2,114,628.2,108.7z"/>
		<path class="st1" d="M677.2,108.8c0-5.4,0-10.7,0-16.1c0-3.1,2.9-5.1,5.6-3.9c1.7,0.7,2.5,2.1,2.5,4c0,5,0,10,0,15
			c0,5.8,0,11.5,0,17.3c0,1.9-0.9,3.2-2.6,3.9c-1.6,0.6-3,0.3-4.3-0.8c-1-0.9-1.3-2.1-1.3-3.5C677.2,119.4,677.2,114.1,677.2,108.8z
			"/>
		<path class="st1" d="M701.7,109c0,5.4,0,10.7,0,16.1c0,3.1-2.9,5.1-5.6,3.9c-1.8-0.8-2.5-2.2-2.5-4.1c0-4.9,0-9.7,0-14.6
			c0-5.8,0-11.6,0-17.4c0-3.2,2.9-5.2,5.6-4c1.8,0.8,2.5,2.2,2.5,4.1C701.7,98.3,701.7,103.6,701.7,109z"/>
	</g>
</g>
<path class="st0" d="M129.1,41h33.8c3.7,0,6.7,3,6.7,6.7l0,0c0,3.7-3,6.7-6.7,6.7h-33.8c-3.7,0-6.7-3-6.7-6.7l0,0
	C122.4,43.9,125.4,41,129.1,41z"/>
<polygon class="st1" points="130.5,44.3 131.6,46.5 134,46.8 132.2,48.5 132.6,50.9 130.5,49.8 128.3,50.9 128.7,48.5 127,46.8 
	129.4,46.5 "/>
<polygon class="st1" points="138.2,44.3 139.3,46.5 141.7,46.8 139.9,48.5 140.3,50.9 138.2,49.8 136,50.9 136.4,48.5 134.7,46.8 
	137.1,46.5 "/>
<polygon class="st1" points="145.9,44.3 147,46.5 149.4,46.8 147.6,48.5 148,50.9 145.9,49.8 143.7,50.9 144.1,48.5 142.4,46.8 
	144.8,46.5 "/>
<polygon class="st1" points="153.6,44.3 154.7,46.5 157.1,46.8 155.3,48.5 155.8,50.9 153.6,49.8 151.4,50.9 151.8,48.5 150.1,46.8 
	152.5,46.5 "/>
<polygon class="st1" points="161.3,44.3 162.4,46.5 164.8,46.8 163,48.5 163.5,50.9 161.3,49.8 159.1,50.9 159.6,48.5 157.8,46.8 
	160.2,46.5 "/>
<path class="st0" d="M129,57h33.8c3.7,0,6.7,3,6.7,6.7l0,0c0,3.7-3,6.7-6.7,6.7H129c-3.7,0-6.7-3-6.7-6.7l0,0
	C122.3,60,125.3,57,129,57z"/>
<polygon class="st1" points="130.4,60.4 131.5,62.6 133.9,62.9 132.2,64.6 132.6,67 130.4,65.9 128.3,67 128.7,64.6 126.9,62.9 
	129.3,62.6 "/>
<polygon class="st1" points="138.1,60.4 139.2,62.6 141.6,62.9 139.9,64.6 140.3,67 138.1,65.9 136,67 136.4,64.6 134.6,62.9 
	137,62.6 "/>
<polygon class="st1" points="145.8,60.4 146.9,62.6 149.3,62.9 147.6,64.6 148,67 145.8,65.9 143.7,67 144.1,64.6 142.3,62.9 
	144.7,62.6 "/>
<polygon class="st1" points="153.5,60.4 154.6,62.6 157,62.9 155.3,64.6 155.7,67 153.5,65.9 151.4,67 151.8,64.6 150,62.9 
	152.4,62.6 "/>
<path class="st0" d="M129.1,73.3h33.8c3.7,0,6.7,3,6.7,6.7l0,0c0,3.7-3,6.7-6.7,6.7h-33.8c-3.7,0-6.7-3-6.7-6.7l0,0
	C122.4,76.2,125.4,73.3,129.1,73.3z"/>
<polygon class="st1" points="130.5,76.6 131.6,78.8 134,79.2 132.2,80.8 132.7,83.3 130.5,82.1 128.3,83.3 128.8,80.8 127,79.2 
	129.4,78.8 "/>
<path class="st0" d="M129,89.4h33.8c3.7,0,6.7,3,6.7,6.7l0,0c0,3.7-3,6.7-6.7,6.7H129c-3.7,0-6.7-3-6.7-6.7l0,0
	C122.4,92.3,125.3,89.4,129,89.4z"/>
<polygon class="st1" points="130.4,92.7 131.5,94.9 133.9,95.2 132.2,96.9 132.6,99.4 130.4,98.2 128.3,99.4 128.7,96.9 126.9,95.2 
	129.4,94.9 "/>
<polygon class="st1" points="138.2,92.7 139.2,94.9 141.6,95.2 139.9,96.9 140.3,99.4 138.2,98.2 136,99.4 136.4,96.9 134.6,95.2 
	137.1,94.9 "/>
<polygon class="st1" points="145.9,92.7 146.9,94.9 149.3,95.2 147.6,96.9 148,99.4 145.9,98.2 143.7,99.4 144.1,96.9 142.4,95.2 
	144.8,94.9 "/>
<polygon class="st1" points="153.6,92.7 154.6,94.9 157,95.2 155.3,96.9 155.7,99.4 153.6,98.2 151.4,99.4 151.8,96.9 150.1,95.2 
	152.5,94.9 "/>
<path class="st0" d="M78.4,40.9h33.8c3.7,0,6.7,3,6.7,6.7l0,0c0,3.7-3,6.7-6.7,6.7H78.4c-3.7,0-6.7-3-6.7-6.7l0,0
	C71.8,43.8,74.8,40.9,78.4,40.9z"/>
<polygon class="st1" points="79.8,44.2 80.9,46.4 83.3,46.7 81.6,48.4 82,50.8 79.8,49.7 77.7,50.8 78.1,48.4 76.4,46.7 78.8,46.4 
	"/>
<polygon class="st1" points="87.6,44.2 88.6,46.4 91.1,46.7 89.3,48.4 89.7,50.8 87.6,49.7 85.4,50.8 85.8,48.4 84.1,46.7 
	86.5,46.4 "/>
<polygon class="st1" points="95.3,44.2 96.3,46.4 98.8,46.7 97,48.4 97.4,50.8 95.3,49.7 93.1,50.8 93.5,48.4 91.8,46.7 94.2,46.4 
	"/>
<polygon class="st1" points="103,44.2 104,46.4 106.5,46.7 104.7,48.4 105.1,50.8 103,49.7 100.8,50.8 101.2,48.4 99.5,46.7 
	101.9,46.4 "/>
<path class="st0" d="M78.4,56.9h33.8c3.7,0,6.7,3,6.7,6.7l0,0c0,3.7-3,6.7-6.7,6.7H78.4c-3.7,0-6.7-3-6.7-6.7l0,0
	C71.7,59.9,74.7,56.9,78.4,56.9z"/>
<polygon class="st1" points="79.8,60.3 80.9,62.5 83.3,62.8 81.5,64.5 82,66.9 79.8,65.8 77.6,66.9 78.1,64.5 76.3,62.8 78.7,62.5 
	"/>
<polygon class="st1" points="87.5,60.3 88.6,62.5 91,62.8 89.2,64.5 89.7,66.9 87.5,65.8 85.3,66.9 85.8,64.5 84,62.8 86.4,62.5 "/>
<polygon class="st1" points="95.2,60.3 96.3,62.5 98.7,62.8 96.9,64.5 97.4,66.9 95.2,65.8 93,66.9 93.5,64.5 91.7,62.8 94.1,62.5 
	"/>
<polygon class="st1" points="102.9,60.3 104,62.5 106.4,62.8 104.7,64.5 105.1,66.9 102.9,65.8 100.8,66.9 101.2,64.5 99.4,62.8 
	101.8,62.5 "/>
<path class="st0" d="M78.5,73.2h33.8c3.7,0,6.7,3,6.7,6.7l0,0c0,3.7-3,6.7-6.7,6.7H78.5c-3.7,0-6.7-3-6.7-6.7l0,0
	C71.8,76.1,74.8,73.2,78.5,73.2z"/>
<polygon class="st1" points="79.9,76.5 81,78.7 83.4,79.1 81.6,80.7 82,83.2 79.9,82 77.7,83.2 78.1,80.7 76.4,79.1 78.8,78.7 "/>
<polygon class="st1" points="87.6,76.5 88.7,78.7 91.1,79.1 89.3,80.7 89.7,83.2 87.6,82 85.4,83.2 85.8,80.7 84.1,79.1 86.5,78.7 
	"/>
<path class="st0" d="M78.4,89.3h33.8c3.7,0,6.7,3,6.7,6.7l0,0c0,3.7-3,6.7-6.7,6.7H78.4c-3.7,0-6.7-3-6.7-6.7l0,0
	C71.7,92.2,74.7,89.3,78.4,89.3z"/>
<polygon class="st1" points="79.8,92.6 80.9,94.8 83.3,95.1 81.6,96.8 82,99.3 79.8,98.1 77.7,99.3 78.1,96.8 76.3,95.1 78.7,94.8 
	"/>
<polygon class="st1" points="87.5,92.6 88.6,94.8 91,95.1 89.3,96.8 89.7,99.3 87.5,98.1 85.4,99.3 85.8,96.8 84,95.1 86.4,94.8 "/>
<polygon class="st1" points="95.2,92.6 96.3,94.8 98.7,95.1 97,96.8 97.4,99.3 95.2,98.1 93.1,99.3 93.5,96.8 91.8,95.1 94.1,94.8 
	"/>
<polygon class="st1" points="102.9,92.6 104,94.8 106.4,95.1 104.7,96.8 105.1,99.3 102.9,98.1 100.8,99.3 101.2,96.8 99.5,95.1 
	101.9,94.8 "/>
<rect x="384.5" y="192.4" class="st0" width="165" height="29.7"/>
<rect x="292.8" y="29.6" class="st10" width="21.7" height="162.7"/>
<g id="GAyD1U_1_">
	<g>
		<path class="st10" d="M344.4,106.2c-3.4,0-6.8,0-10.2,0c-10.5,0-21,0-31.5,0c-4.2,0-6.7-2-6.7-5.3c0-3.2,2.5-5.1,6.8-5.1
			c12.7,0,25.4,0,38.2,0c1.2,0,2.4,0,4.3,0c-1.1-1.3-1.7-2.1-2.4-2.8c-4.7-4.7-9.4-9.4-14.1-14.2c-2.2-2.3-2.4-4.8-0.2-7.3
			c1.9-2.2,5-2.4,7.3-0.2c8.8,8.7,17.5,17.4,26.2,26.2c2.1,2.2,2.1,4.8-0.1,7c-8.6,8.7-17.2,17.4-25.9,26c-2.3,2.2-4.9,2.3-7.3,0.2
			c-2.3-2-2.3-5.1,0.1-7.5c5.3-5.4,10.7-10.5,16.1-15.8C344.7,106.9,344.5,106.5,344.4,106.2z"/>
	</g>
</g>
<path class="st10" d="M315.1,29.6H51.6c-4.8-1.7-7.8-6.3-7.3-11c0.4-4,3.3-7.4,7.3-8.7c87.8,0,175.7,0,263.5,0V29.6z"/>
<path class="st0" d="M62.1-20.9"/>
<path class="st10" d="M314.1,201.9H50.6c-4.8-1.7-7.8-6.3-7.3-11c0.4-4,3.3-7.4,7.3-8.7c87.8,0,175.7,0,263.5,0V201.9z"/>
<path class="st0" d="M231.7,42.3h33.8c3.7,0,6.7,3,6.7,6.7l0,0c0,3.7-3,6.7-6.7,6.7h-33.8c-3.7,0-6.7-3-6.7-6.7l0,0
	C225.1,45.3,228,42.3,231.7,42.3z"/>
<polygon class="st1" points="233.1,45.7 234.2,47.9 236.6,48.2 234.9,49.9 235.3,52.3 233.1,51.2 231,52.3 231.4,49.9 229.6,48.2 
	232.1,47.9 "/>
<polygon class="st1" points="240.9,45.7 241.9,47.9 244.3,48.2 242.6,49.9 243,52.3 240.9,51.2 238.7,52.3 239.1,49.9 237.3,48.2 
	239.8,47.9 "/>
<polygon class="st1" points="248.6,45.7 249.6,47.9 252,48.2 250.3,49.9 250.7,52.3 248.6,51.2 246.4,52.3 246.8,49.9 245.1,48.2 
	247.5,47.9 "/>
<polygon class="st1" points="256.3,45.7 257.3,47.9 259.7,48.2 258,49.9 258.4,52.3 256.3,51.2 254.1,52.3 254.5,49.9 252.8,48.2 
	255.2,47.9 "/>
<polygon class="st1" points="264,45.7 265.1,47.9 267.4,48.2 265.7,49.9 266.1,52.3 264,51.2 261.8,52.3 262.2,49.9 260.5,48.2 
	262.9,47.9 "/>
<path class="st0" d="M231.7,58.4h33.8c3.7,0,6.7,3,6.7,6.7l0,0c0,3.7-3,6.7-6.7,6.7h-33.8c-3.7,0-6.7-3-6.7-6.7l0,0
	C225,61.4,228,58.4,231.7,58.4z"/>
<polygon class="st1" points="233.1,61.8 234.2,64 236.6,64.3 234.8,66 235.2,68.4 233.1,67.3 230.9,68.4 231.3,66 229.6,64.3 
	232,64 "/>
<polygon class="st1" points="240.8,61.8 241.9,64 244.3,64.3 242.5,66 242.9,68.4 240.8,67.3 238.6,68.4 239,66 237.3,64.3 
	239.7,64 "/>
<polygon class="st1" points="248.5,61.8 249.6,64 252,64.3 250.2,66 250.6,68.4 248.5,67.3 246.3,68.4 246.7,66 245,64.3 247.4,64 
	"/>
<polygon class="st1" points="256.2,61.8 257.3,64 259.7,64.3 258,66 258.4,68.4 256.2,67.3 254,68.4 254.4,66 252.7,64.3 255.1,64 
	"/>
<path class="st0" d="M231.8,74.6h33.8c3.7,0,6.7,3,6.7,6.7l0,0c0,3.7-3,6.7-6.7,6.7h-33.8c-3.7,0-6.7-3-6.7-6.7l0,0
	C225.1,77.6,228.1,74.6,231.8,74.6z"/>
<polygon class="st1" points="233.2,78 234.3,80.2 236.7,80.5 234.9,82.2 235.3,84.6 233.2,83.5 231,84.6 231.4,82.2 229.7,80.5 
	232.1,80.2 "/>
<path class="st0" d="M231.7,90.7h33.8c3.7,0,6.7,3,6.7,6.7l0,0c0,3.7-3,6.7-6.7,6.7h-33.8c-3.7,0-6.7-3-6.7-6.7l0,0
	C225,93.7,228,90.7,231.7,90.7z"/>
<polygon class="st1" points="233.1,94.1 234.2,96.3 236.6,96.6 234.9,98.3 235.3,100.7 233.1,99.6 231,100.7 231.4,98.3 229.6,96.6 
	232,96.3 "/>
<polygon class="st1" points="240.8,94.1 241.9,96.3 244.3,96.6 242.6,98.3 243,100.7 240.8,99.6 238.7,100.7 239.1,98.3 237.3,96.6 
	239.7,96.3 "/>
<polygon class="st1" points="248.5,94.1 249.6,96.3 252,96.6 250.3,98.3 250.7,100.7 248.5,99.6 246.4,100.7 246.8,98.3 245,96.6 
	247.4,96.3 "/>
<polygon class="st1" points="256.2,94.1 257.3,96.3 259.7,96.6 258,98.3 258.4,100.7 256.2,99.6 254.1,100.7 254.5,98.3 252.7,96.6 
	255.2,96.3 "/>
<path class="st0" d="M181.1,42.2h33.8c3.7,0,6.7,3,6.7,6.7l0,0c0,3.7-3,6.7-6.7,6.7h-33.8c-3.7,0-6.7-3-6.7-6.7l0,0
	C174.4,45.2,177.4,42.2,181.1,42.2z"/>
<polygon class="st1" points="182.5,45.6 183.6,47.8 186,48.1 184.3,49.8 184.7,52.2 182.5,51.1 180.4,52.2 180.8,49.8 179,48.1 
	181.4,47.8 "/>
<polygon class="st1" points="190.2,45.6 191.3,47.8 193.7,48.1 192,49.8 192.4,52.2 190.2,51.1 188.1,52.2 188.5,49.8 186.7,48.1 
	189.1,47.8 "/>
<polygon class="st1" points="197.9,45.6 199,47.8 201.4,48.1 199.7,49.8 200.1,52.2 197.9,51.1 195.8,52.2 196.2,49.8 194.5,48.1 
	196.8,47.8 "/>
<polygon class="st1" points="205.6,45.6 206.7,47.8 209.1,48.1 207.4,49.8 207.8,52.2 205.6,51.1 203.5,52.2 203.9,49.8 202.2,48.1 
	204.6,47.8 "/>
<path class="st0" d="M181.1,58.3h33.8c3.7,0,6.7,3,6.7,6.7l0,0c0,3.7-3,6.7-6.7,6.7h-33.8c-3.7,0-6.7-3-6.7-6.7l0,0
	C174.4,61.3,177.4,58.3,181.1,58.3z"/>
<polygon class="st1" points="182.5,61.7 183.6,63.9 185.9,64.2 184.2,65.9 184.6,68.3 182.5,67.2 180.3,68.3 180.7,65.9 179,64.2 
	181.4,63.9 "/>
<polygon class="st1" points="190.2,61.7 191.3,63.9 193.7,64.2 191.9,65.9 192.3,68.3 190.2,67.2 188,68.3 188.4,65.9 186.7,64.2 
	189.1,63.9 "/>
<polygon class="st1" points="197.9,61.7 199,63.9 201.4,64.2 199.6,65.9 200,68.3 197.9,67.2 195.7,68.3 196.1,65.9 194.4,64.2 
	196.8,63.9 "/>
<polygon class="st1" points="205.6,61.7 206.7,63.9 209.1,64.2 207.3,65.9 207.7,68.3 205.6,67.2 203.4,68.3 203.8,65.9 202.1,64.2 
	204.5,63.9 "/>
<path class="st0" d="M181.1,74.5h33.8c3.7,0,6.7,3,6.7,6.7l0,0c0,3.7-3,6.7-6.7,6.7h-33.8c-3.7,0-6.7-3-6.7-6.7l0,0
	C174.5,77.5,177.5,74.5,181.1,74.5z"/>
<polygon class="st1" points="182.6,77.9 183.6,80.1 186,80.4 184.3,82.1 184.7,84.5 182.6,83.4 180.4,84.5 180.8,82.1 179.1,80.4 
	181.5,80.1 "/>
<polygon class="st1" points="190.3,77.9 191.3,80.1 193.8,80.4 192,82.1 192.4,84.5 190.3,83.4 188.1,84.5 188.5,82.1 186.8,80.4 
	189.2,80.1 "/>
<path class="st0" d="M181.1,90.6h33.8c3.7,0,6.7,3,6.7,6.7l0,0c0,3.7-3,6.7-6.7,6.7h-33.8c-3.7,0-6.7-3-6.7-6.7l0,0
	C174.4,93.6,177.4,90.6,181.1,90.6z"/>
<polygon class="st1" points="182.5,94 183.6,96.2 186,96.5 184.2,98.2 184.7,100.6 182.5,99.5 180.3,100.6 180.8,98.2 179,96.5 
	181.4,96.2 "/>
<polygon class="st1" points="190.2,94 191.3,96.2 193.7,96.5 191.9,98.2 192.4,100.6 190.2,99.5 188,100.6 188.5,98.2 186.7,96.5 
	189.1,96.2 "/>
<polygon class="st1" points="197.9,94 199,96.2 201.4,96.5 199.6,98.2 200.1,100.6 197.9,99.5 195.7,100.6 196.2,98.2 194.4,96.5 
	196.8,96.2 "/>
<polygon class="st1" points="205.6,94 206.7,96.2 209.1,96.5 207.4,98.2 207.8,100.6 205.6,99.5 203.5,100.6 203.9,98.2 202.1,96.5 
	204.5,96.2 "/>
<path class="st0" d="M179.8,109h33.8c3.7,0,6.7,3,6.7,6.7l0,0c0,3.7-3,6.7-6.7,6.7h-33.8c-3.7,0-6.7-3-6.7-6.7l0,0
	C173.1,111.9,176.1,109,179.8,109z"/>
<polygon class="st1" points="181.2,112.3 182.3,114.5 184.7,114.8 182.9,116.5 183.3,118.9 181.2,117.8 179,118.9 179.4,116.5 
	177.7,114.8 180.1,114.5 "/>
<polygon class="st1" points="188.9,112.3 190,114.5 192.4,114.8 190.6,116.5 191,118.9 188.9,117.8 186.7,118.9 187.1,116.5 
	185.4,114.8 187.8,114.5 "/>
<polygon class="st1" points="196.6,112.3 197.7,114.5 200.1,114.8 198.3,116.5 198.7,118.9 196.6,117.8 194.4,118.9 194.8,116.5 
	193.1,114.8 195.5,114.5 "/>
<polygon class="st1" points="204.3,112.3 205.4,114.5 207.8,114.8 206,116.5 206.5,118.9 204.3,117.8 202.1,118.9 202.5,116.5 
	200.8,114.8 203.2,114.5 "/>
<polygon class="st1" points="212,112.3 213.1,114.5 215.5,114.8 213.7,116.5 214.2,118.9 212,117.8 209.8,118.9 210.3,116.5 
	208.5,114.8 210.9,114.5 "/>
<path class="st0" d="M179.7,125h33.8c3.7,0,6.7,3,6.7,6.7l0,0c0,3.7-3,6.7-6.7,6.7h-33.8c-3.7,0-6.7-3-6.7-6.7l0,0
	C173,128,176,125,179.7,125z"/>
<polygon class="st1" points="181.1,128.4 182.2,130.6 184.6,130.9 182.9,132.6 183.3,135 181.1,133.9 179,135 179.4,132.6 
	177.6,130.9 180,130.6 "/>
<polygon class="st1" points="188.8,128.4 189.9,130.6 192.3,130.9 190.6,132.6 191,135 188.8,133.9 186.7,135 187.1,132.6 
	185.3,130.9 187.7,130.6 "/>
<polygon class="st1" points="196.5,128.4 197.6,130.6 200,130.9 198.3,132.6 198.7,135 196.5,133.9 194.4,135 194.8,132.6 
	193,130.9 195.4,130.6 "/>
<polygon class="st1" points="204.2,128.4 205.3,130.6 207.7,130.9 206,132.6 206.4,135 204.2,133.9 202.1,135 202.5,132.6 
	200.7,130.9 203.2,130.6 "/>
<path class="st0" d="M179.8,141.3h33.8c3.7,0,6.7,3,6.7,6.7l0,0c0,3.7-3,6.7-6.7,6.7h-33.8c-3.7,0-6.7-3-6.7-6.7l0,0
	C173.1,144.2,176.1,141.3,179.8,141.3z"/>
<polygon class="st1" points="181.2,144.6 182.3,146.8 184.7,147.2 183,148.8 183.4,151.3 181.2,150.1 179.1,151.3 179.5,148.8 
	177.7,147.2 180.1,146.8 "/>
<path class="st0" d="M179.7,157.4h33.8c3.7,0,6.7,3,6.7,6.7l0,0c0,3.7-3,6.7-6.7,6.7h-33.8c-3.7,0-6.7-3-6.7-6.7l0,0
	C173.1,160.3,176,157.4,179.7,157.4z"/>
<polygon class="st1" points="181.1,160.7 182.2,162.9 184.6,163.2 182.9,164.9 183.3,167.3 181.1,166.2 179,167.3 179.4,164.9 
	177.6,163.2 180.1,162.9 "/>
<polygon class="st1" points="188.9,160.7 189.9,162.9 192.3,163.2 190.6,164.9 191,167.3 188.9,166.2 186.7,167.3 187.1,164.9 
	185.4,163.2 187.8,162.9 "/>
<polygon class="st1" points="196.6,160.7 197.6,162.9 200,163.2 198.3,164.9 198.7,167.3 196.6,166.2 194.4,167.3 194.8,164.9 
	193.1,163.2 195.5,162.9 "/>
<polygon class="st1" points="204.3,160.7 205.3,162.9 207.7,163.2 206,164.9 206.4,167.3 204.3,166.2 202.1,167.3 202.5,164.9 
	200.8,163.2 203.2,162.9 "/>
<path class="st0" d="M129.2,108.9H163c3.7,0,6.7,3,6.7,6.7l0,0c0,3.7-3,6.7-6.7,6.7h-33.8c-3.7,0-6.7-3-6.7-6.7l0,0
	C122.5,111.8,125.5,108.9,129.2,108.9z"/>
<polygon class="st1" points="130.6,112.2 131.7,114.4 134,114.7 132.3,116.4 132.7,118.8 130.6,117.7 128.4,118.8 128.8,116.4 
	127.1,114.7 129.5,114.4 "/>
<polygon class="st1" points="138.3,112.2 139.4,114.4 141.8,114.7 140,116.4 140.4,118.8 138.3,117.7 136.1,118.8 136.5,116.4 
	134.8,114.7 137.2,114.4 "/>
<polygon class="st1" points="146,112.2 147.1,114.4 149.5,114.7 147.7,116.4 148.1,118.8 146,117.7 143.8,118.8 144.2,116.4 
	142.5,114.7 144.9,114.4 "/>
<polygon class="st1" points="153.7,112.2 154.8,114.4 157.2,114.7 155.4,116.4 155.8,118.8 153.7,117.7 151.5,118.8 151.9,116.4 
	150.2,114.7 152.6,114.4 "/>
<path class="st0" d="M129.1,124.9h33.8c3.7,0,6.7,3,6.7,6.7l0,0c0,3.7-3,6.7-6.7,6.7h-33.8c-3.7,0-6.7-3-6.7-6.7l0,0
	C122.4,127.9,125.4,124.9,129.1,124.9z"/>
<polygon class="st1" points="130.5,128.3 131.6,130.5 134,130.8 132.2,132.5 132.7,134.9 130.5,133.8 128.3,134.9 128.8,132.5 
	127,130.8 129.4,130.5 "/>
<polygon class="st1" points="138.2,128.3 139.3,130.5 141.7,130.8 139.9,132.5 140.4,134.9 138.2,133.8 136,134.9 136.5,132.5 
	134.7,130.8 137.1,130.5 "/>
<polygon class="st1" points="145.9,128.3 147,130.5 149.4,130.8 147.6,132.5 148.1,134.9 145.9,133.8 143.7,134.9 144.2,132.5 
	142.4,130.8 144.8,130.5 "/>
<polygon class="st1" points="153.6,128.3 154.7,130.5 157.1,130.8 155.4,132.5 155.8,134.9 153.6,133.8 151.5,134.9 151.9,132.5 
	150.1,130.8 152.5,130.5 "/>
<path class="st0" d="M129.2,141.2H163c3.7,0,6.7,3,6.7,6.7l0,0c0,3.7-3,6.7-6.7,6.7h-33.8c-3.7,0-6.7-3-6.7-6.7l0,0
	C122.5,144.1,125.5,141.2,129.2,141.2z"/>
<polygon class="st1" points="130.6,144.5 131.7,146.7 134.1,147.1 132.3,148.7 132.8,151.2 130.6,150 128.4,151.2 128.9,148.7 
	127.1,147.1 129.5,146.7 "/>
<polygon class="st1" points="138.3,144.5 139.4,146.7 141.8,147.1 140,148.7 140.5,151.2 138.3,150 136.1,151.2 136.6,148.7 
	134.8,147.1 137.2,146.7 "/>
<path class="st0" d="M129.1,157.3h33.8c3.7,0,6.7,3,6.7,6.7l0,0c0,3.7-3,6.7-6.7,6.7h-33.8c-3.7,0-6.7-3-6.7-6.7l0,0
	C122.5,160.2,125.4,157.3,129.1,157.3z"/>
<polygon class="st1" points="130.5,160.6 131.6,162.8 134,163.1 132.3,164.8 132.7,167.2 130.5,166.1 128.4,167.2 128.8,164.8 
	127,163.1 129.5,162.8 "/>
<polygon class="st1" points="138.2,160.6 139.3,162.8 141.7,163.1 140,164.8 140.4,167.2 138.2,166.1 136.1,167.2 136.5,164.8 
	134.7,163.1 137.2,162.8 "/>
<polygon class="st1" points="145.9,160.6 147,162.8 149.4,163.1 147.7,164.8 148.1,167.2 145.9,166.1 143.8,167.2 144.2,164.8 
	142.5,163.1 144.9,162.8 "/>
<polygon class="st1" points="153.6,160.6 154.7,162.8 157.1,163.1 155.4,164.8 155.8,167.2 153.6,166.1 151.5,167.2 151.9,164.8 
	150.2,163.1 152.6,162.8 "/>
<path class="st0" d="M78.5,109.5h33.8c3.7,0,6.7,3,6.7,6.7l0,0c0,3.7-3,6.7-6.7,6.7H78.5c-3.7,0-6.7-3-6.7-6.7l0,0
	C71.8,112.5,74.8,109.5,78.5,109.5z"/>
<polygon class="st1" points="79.9,112.9 81,115.1 83.4,115.4 81.6,117.1 82,119.5 79.9,118.4 77.7,119.5 78.1,117.1 76.4,115.4 
	78.8,115.1 "/>
<polygon class="st1" points="87.6,112.9 88.7,115.1 91.1,115.4 89.3,117.1 89.7,119.5 87.6,118.4 85.4,119.5 85.8,117.1 84.1,115.4 
	86.5,115.1 "/>
<polygon class="st1" points="95.3,112.9 96.4,115.1 98.8,115.4 97,117.1 97.4,119.5 95.3,118.4 93.1,119.5 93.5,117.1 91.8,115.4 
	94.2,115.1 "/>
<polygon class="st1" points="103,112.9 104.1,115.1 106.5,115.4 104.7,117.1 105.2,119.5 103,118.4 100.8,119.5 101.2,117.1 
	99.5,115.4 101.9,115.1 "/>
<polygon class="st1" points="110.7,112.9 111.8,115.1 114.2,115.4 112.4,117.1 112.9,119.5 110.7,118.4 108.5,119.5 109,117.1 
	107.2,115.4 109.6,115.1 "/>
<path class="st0" d="M78.4,125.6h33.8c3.7,0,6.7,3,6.7,6.7l0,0c0,3.7-3,6.7-6.7,6.7H78.4c-3.7,0-6.7-3-6.7-6.7l0,0
	C71.7,128.6,74.7,125.6,78.4,125.6z"/>
<polygon class="st1" points="79.8,129 80.9,131.2 83.3,131.5 81.6,133.2 82,135.6 79.8,134.5 77.7,135.6 78.1,133.2 76.3,131.5 
	78.7,131.2 "/>
<polygon class="st1" points="87.5,129 88.6,131.2 91,131.5 89.3,133.2 89.7,135.6 87.5,134.5 85.4,135.6 85.8,133.2 84,131.5 
	86.4,131.2 "/>
<polygon class="st1" points="95.2,129 96.3,131.2 98.7,131.5 97,133.2 97.4,135.6 95.2,134.5 93.1,135.6 93.5,133.2 91.7,131.5 
	94.1,131.2 "/>
<polygon class="st1" points="102.9,129 104,131.2 106.4,131.5 104.7,133.2 105.1,135.6 102.9,134.5 100.8,135.6 101.2,133.2 
	99.4,131.5 101.9,131.2 "/>
<path class="st0" d="M78.5,141.8h33.8c3.7,0,6.7,3,6.7,6.7l0,0c0,3.7-3,6.7-6.7,6.7H78.5c-3.7,0-6.7-3-6.7-6.7l0,0
	C71.8,144.8,74.8,141.8,78.5,141.8z"/>
<polygon class="st1" points="79.9,145.2 81,147.4 83.4,147.7 81.7,149.4 82.1,151.8 79.9,150.7 77.7,151.8 78.2,149.4 76.4,147.7 
	78.8,147.4 "/>
<path class="st0" d="M78.4,157.9h33.8c3.7,0,6.7,3,6.7,6.7l0,0c0,3.7-3,6.7-6.7,6.7H78.4c-3.7,0-6.7-3-6.7-6.7l0,0
	C71.8,160.9,74.7,157.9,78.4,157.9z"/>
<polygon class="st1" points="79.8,161.3 80.9,163.5 83.3,163.8 81.6,165.5 82,167.9 79.8,166.8 77.7,167.9 78.1,165.5 76.3,163.8 
	78.8,163.5 "/>
<polygon class="st1" points="87.6,161.3 88.6,163.5 91,163.8 89.3,165.5 89.7,167.9 87.6,166.8 85.4,167.9 85.8,165.5 84,163.8 
	86.5,163.5 "/>
<polygon class="st1" points="95.3,161.3 96.3,163.5 98.7,163.8 97,165.5 97.4,167.9 95.3,166.8 93.1,167.9 93.5,165.5 91.8,163.8 
	94.2,163.5 "/>
<polygon class="st1" points="103,161.3 104,163.5 106.4,163.8 104.7,165.5 105.1,167.9 103,166.8 100.8,167.9 101.2,165.5 
	99.5,163.8 101.9,163.5 "/>
<path class="st0" d="M232.4,109.3h33.8c3.7,0,6.7,3,6.7,6.7l0,0c0,3.7-3,6.7-6.7,6.7h-33.8c-3.7,0-6.7-3-6.7-6.7l0,0
	C225.7,112.3,228.7,109.3,232.4,109.3z"/>
<polygon class="st1" points="233.8,112.6 234.9,114.8 237.3,115.2 235.5,116.9 235.9,119.3 233.8,118.1 231.6,119.3 232,116.9 
	230.3,115.2 232.7,114.8 "/>
<polygon class="st1" points="241.5,112.6 242.6,114.8 245,115.2 243.2,116.9 243.6,119.3 241.5,118.1 239.3,119.3 239.7,116.9 
	238,115.2 240.4,114.8 "/>
<polygon class="st1" points="249.2,112.6 250.3,114.8 252.7,115.2 250.9,116.9 251.3,119.3 249.2,118.1 247,119.3 247.4,116.9 
	245.7,115.2 248.1,114.8 "/>
<polygon class="st1" points="256.9,112.6 258,114.8 260.4,115.2 258.6,116.9 259.1,119.3 256.9,118.1 254.7,119.3 255.1,116.9 
	253.4,115.2 255.8,114.8 "/>
<path class="st0" d="M232.3,125.4h33.8c3.7,0,6.7,3,6.7,6.7l0,0c0,3.7-3,6.7-6.7,6.7h-33.8c-3.7,0-6.7-3-6.7-6.7l0,0
	C225.6,128.3,228.6,125.4,232.3,125.4z"/>
<polygon class="st1" points="233.7,128.7 234.8,130.9 237.2,131.3 235.5,132.9 235.9,135.4 233.7,134.2 231.6,135.4 232,132.9 
	230.2,131.3 232.6,130.9 "/>
<polygon class="st1" points="241.4,128.7 242.5,130.9 244.9,131.3 243.2,132.9 243.6,135.4 241.4,134.2 239.3,135.4 239.7,132.9 
	237.9,131.3 240.3,130.9 "/>
<polygon class="st1" points="249.1,128.7 250.2,130.9 252.6,131.3 250.9,132.9 251.3,135.4 249.1,134.2 247,135.4 247.4,132.9 
	245.6,131.3 248,130.9 "/>
<polygon class="st1" points="256.8,128.7 257.9,130.9 260.3,131.3 258.6,132.9 259,135.4 256.8,134.2 254.7,135.4 255.1,132.9 
	253.3,131.3 255.8,130.9 "/>
<path class="st0" d="M232.4,141.6h33.8c3.7,0,6.7,3,6.7,6.7l0,0c0,3.7-3,6.7-6.7,6.7h-33.8c-3.7,0-6.7-3-6.7-6.7l0,0
	C225.7,144.6,228.7,141.6,232.4,141.6z"/>
<polygon class="st1" points="233.8,144.9 234.9,147.1 237.3,147.5 235.6,149.2 236,151.6 233.8,150.4 231.7,151.6 232.1,149.2 
	230.3,147.5 232.7,147.1 "/>
<polygon class="st1" points="241.5,144.9 242.6,147.1 245,147.5 243.3,149.2 243.7,151.6 241.5,150.4 239.4,151.6 239.8,149.2 
	238,147.5 240.4,147.1 "/>
<path class="st0" d="M232.3,157.7h33.8c3.7,0,6.7,3,6.7,6.7l0,0c0,3.7-3,6.7-6.7,6.7h-33.8c-3.7,0-6.7-3-6.7-6.7l0,0
	C225.7,160.7,228.6,157.7,232.3,157.7z"/>
<polygon class="st1" points="233.7,161 234.8,163.2 237.2,163.6 235.5,165.3 235.9,167.7 233.7,166.5 231.6,167.7 232,165.3 
	230.3,163.6 232.7,163.2 "/>
<polygon class="st1" points="241.5,161 242.5,163.2 245,163.6 243.2,165.3 243.6,167.7 241.5,166.5 239.3,167.7 239.7,165.3 
	238,163.6 240.4,163.2 "/>
<polygon class="st1" points="249.2,161 250.2,163.2 252.7,163.6 250.9,165.3 251.3,167.7 249.2,166.5 247,167.7 247.4,165.3 
	245.7,163.6 248.1,163.2 "/>
<polygon class="st1" points="256.9,161 257.9,163.2 260.4,163.6 258.6,165.3 259,167.7 256.9,166.5 254.7,167.7 255.1,165.3 
	253.4,163.6 255.8,163.2 "/>
</svg>
