<?xml version="1.0" encoding="utf-8"?>
<!-- Generator: Adobe Illustrator 24.0.2, SVG Export Plug-In . SVG Version: 6.00 Build 0)  -->
<svg version="1.1" id="b2448b99-d97f-419e-8dc3-d5510f0392fe"
	 xmlns="http://www.w3.org/2000/svg" xmlns:xlink="http://www.w3.org/1999/xlink" x="0px" y="0px" viewBox="0 0 900 500"
	 style="enable-background:new 0 0 900 500;" xml:space="preserve">
<style type="text/css">
	.st0{fill:#E6E6E6;}
	.st1{fill:#FFFFFF;}
	.st2{fill:#C1C1C1;}
	.st3{fill:#2F2E41;}
	.st4{fill:#CCCCCC;}
	.st5{opacity:0.45;fill:#E6E6E6;enable-background:new    ;}
	.st6{opacity:5.000000e-02;enable-background:new    ;}
	.st7{opacity:0.58;fill:#EF5015;enable-background:new    ;}
	.st8{opacity:0.73;fill:#EF5015;enable-background:new    ;}
	.st9{fill:#EF5015;}
	.st10{fill:#313433;}
	.st11{fill:none;}
	.st12{opacity:0.3;fill:#FFFFFF;enable-background:new    ;}
	.st13{fill:#F4A28C;}
	.st14{opacity:0.31;fill:#CE8172;enable-background:new    ;}
	.st15{opacity:8.000000e-02;enable-background:new    ;}
	.st16{fill:#24285B;}
	.st17{fill:#878787;}
	.st18{fill:#FFD200;}
	.st19{fill:#2C2E2D;}
</style>
<rect x="72.5" y="7.5" class="st0" width="800.8" height="356.3"/>
<rect x="88.3" y="52.2" class="st1" width="767.2" height="290.4"/>
<rect x="135.9" y="82.3" class="st0" width="134.8" height="230.2"/>
<rect x="293.9" y="82.3" class="st0" width="112.3" height="63.3"/>
<rect x="293.9" y="163.3" class="st2" width="112.3" height="68.2"/>
<rect x="293.9" y="249.1" class="st0" width="112.3" height="63.3"/>
<rect x="430.3" y="82.3" class="st0" width="134.8" height="100.3"/>
<rect x="430.3" y="212.2" class="st0" width="134.8" height="100.3"/>
<path class="st3" d="M519,329.2"/>
<path class="st4" d="M355.1,489.7c-0.5,0-0.9-0.3-0.9-0.9s0.3-0.9,0.9-0.9"/>
<ellipse class="st5" cx="387.1" cy="438.8" rx="294" ry="27.1"/>
<path class="st6" d="M198.6,191.1c-2.4,8.2-8.3,32.5,2.7,59.3c16.8,41.2,58.9,52.6,63.8,53.8c16.6-14.9,33.2-29.7,49.8-44.5
	c-3.8-2.2-6.4-4.6-8.1-6.8c-0.8-1-1-1.4-1.6-1.6c-2.5-1-6.3,2.8-15.5,12.6c-8.1,8.8-11.2,12.4-13.3,11.6c-1.4-0.5-1.8-2.8-2-4.8
	c-1.8-10.5-5.9-18.1-8.6-22.3c-3.3-5.1-10.3-16.1-23.3-20.1c-1.6-0.5-3.6-1.1-6.3-1.4c-12.9-1.1-20.3,7.9-25.5,4.7
	c-1.2-0.7-2.8-2.4-3.3-6.8c1-2.5,3.2-8.4,2-15.7C207.6,198.4,200.4,192.5,198.6,191.1z"/>
<path class="st7" d="M553.7,411.4c0,0-17.8-4.8-21.7-21.4c0,0,27.6-5.6,28.4,22.9L553.7,411.4z"/>
<path class="st8" d="M555.9,409.6c0,0-12.4-19.7-1.5-38.1c0,0,21,13.3,11.7,38.2L555.9,409.6z"/>
<path class="st9" d="M559.1,409.6c0,0,6.6-20.8,26.5-24.7c0,0,3.7,13.6-12.9,24.8L559.1,409.6z"/>
<polygon class="st10" points="546.2,409.1 549.8,433.8 572.5,433.9 575.9,409.2 "/>
<line class="st11" x1="486.8" y1="436.1" x2="265.7" y2="436.1"/>
<line class="st11" x1="467" y1="363.9" x2="284" y2="363.9"/>
<path class="st9" d="M196.2,429.5c0,0-3.3,4.1-1.3,7.9c1.9,3.9-1.2,7.1-4.1,4.2c-2.9-2.9-3.8-14.1-3.8-14.1l5.5-2.9L196.2,429.5z"/>
<path class="st9" d="M229.6,237.4c0,0,22.9-0.3,32,21.4s9.9,56.3,9.9,56.3l41.6-27l-46.9,45.5l-18.7-23.9L229.6,237.4z"/>
<path class="st12" d="M229.6,237.4c0,0,22.9-0.3,32,21.4s9.9,56.3,9.9,56.3l41.6-27l-46.9,45.5l-18.7-23.9L229.6,237.4z"/>
<path class="st9" d="M290.7,400.7c0,0,2,4.8,6.3,4.8c4.3,0.2,5.7,4.3,1.8,5.6c-3.9,1.3-14.1-3.2-14.1-3.2v-6.3L290.7,400.7z"/>
<path class="st13" d="M198.1,201.3c2.9,4.4,5.4,9.1,7,14.1c0.7,2.5-0.8,5.2-3.4,5.9l0,0c-3.9,1.3-8.2,0.2-11.1-2.9l-6.6-5.8
	c-2.4-2.7-2.9-6.6-1.2-9.8C185.8,196.8,195.1,196.4,198.1,201.3z"/>
<polygon class="st13" points="187.2,212.3 191.5,238.1 208.9,238.9 198.7,218.7 "/>
<path class="st13" d="M201.3,206.4l4.1,1.9c0.8,0.3,1.1,1.2,0.8,2c-0.1,0.2-0.3,0.4-0.4,0.5l-2.9,2.4L201.3,206.4z"/>
<path class="st14" d="M200.3,221.8c-2.1,0.1-4.1-0.3-6-1.3c0,0,0.5,6.7,9,7.1L200.3,221.8z"/>
<path class="st9" d="M156.8,258.1c20.1-26.2,66.7-28.9,88.6-13.9c21.6,14.9,11.2,102.5,11.2,102.5l-52,14.3
	C204.6,361.1,127.2,302.6,156.8,258.1z"/>
<path class="st10" d="M204.5,361.1l6.5,15.7c1.7,9.2-0.6,18.8-6.4,26.3l-16.2,20.9l9,6.4l23.5-18.8c9.8-7.8,15.5-19.5,15.5-32v-8
	l8.7-20.8L204.5,361.1z"/>
<path class="st15" d="M180.5,250.7c0,0,25,10.1,22.7,35.8c-2.2,25.7,5.4,41.6,45.5,40.1l-6.4,24.1l-37.8,10.5l0,0
	c-12.8-12.4-23.9-26.4-33.3-41.6l-2.4-4.1l11.8-34L180.5,250.7z"/>
<path class="st10" d="M204.5,361.1l24.2,17.6l32.1-9.9c6.4-1.9,13.1,1.6,15.1,8c0.1,0.2,0.1,0.3,0.2,0.6l6,24.4l10.9-1l-3.5-33.1
	c-1.3-12.4-11.7-21.8-24-21.9l0,0c-16.3-0.2-32.5,3-47.4,9.4L204.5,361.1z"/>
<rect x="261.3" y="272.2" transform="matrix(0.7019 -0.7123 0.7123 0.7019 -112.178 299.2332)" class="st16" width="80.2" height="22.9"/>
<rect x="261.3" y="272.2" transform="matrix(0.7019 -0.7123 0.7123 0.7019 -112.178 299.2332)" class="st17" width="80.2" height="22.9"/>
<path class="st10" d="M188.7,217.7l-2.6-1c-3.5-1.3-7.3-1.5-10.9-0.4c-2.3,1-5.1-0.2-6-2.5c-0.1-0.2-0.1-0.3-0.2-0.5
	c-2.4-6.7,4.5-7.2,4.5-7.2c-2.2-2-3-5.3-1.9-8c1.9-5,8.7-1,8.7-1s-2.6-5.8,1.4-7.9c4-2.1,7.7,3.8,7.7,3.8s0-6.5,4.9-4.8
	c4.9,1.7,6.8,3.6,5.5,8.2c-1.3,4.7-12.1,9.6-12.1,9.6S198.7,210.8,188.7,217.7z"/>
<path class="st10" d="M289.8,282.1l14.3,14.2c3.5,3.4,3.5,8.9,0.1,12.4l-50.7,51.5c-3.4,3.5-8.9,3.5-12.4,0.1L226.8,346
	c-3.5-3.4-3.5-8.9-0.1-12.4l50.7-51.5C280.8,278.7,286.3,278.7,289.8,282.1z"/>
<path class="st6" d="M433,150.4c-32.3-31.8-84.2-31.4-116,0.9c-31.8,32.3-31.4,84.2,0.9,116c32.3,31.8,84.2,31.4,116-0.9
	S465.3,182.3,433,150.4C433,150.5,433,150.5,433,150.4z M332.5,252.5c-24.1-23.8-24.4-62.5-0.6-86.6s62.5-24.4,86.6-0.6
	c24.1,23.8,24.4,62.5,0.6,86.6C395.4,275.9,356.6,276.3,332.5,252.5L332.5,252.5z"/>
<path class="st9" d="M183.9,252.7c-7.3-5.3-17.4-4.2-23.5,2.3c-13.9,14.6-31.1,56.2-10.4,83.6c26,34.3,61.5,22.4,107.9,8.2
	l-2.2-11.1c0,0-86.5,11.7-77-25.7C186.2,280.7,196.5,262.1,183.9,252.7z"/>
<path class="st12" d="M183.9,252.7c-7.3-5.3-17.4-4.2-23.5,2.3c-13.9,14.6-31.1,56.2-10.4,83.6c26,34.3,61.5,22.4,107.9,8.2
	l-2.2-11.1c0,0-86.5,11.7-77-25.7C186.2,280.7,196.5,262.1,183.9,252.7z"/>
<path class="st13" d="M256.5,339.8c0,0,14.4-7.1,14.9,0c0.3,7.1-13.5,7-13.5,7L256.5,339.8z"/>
<path class="st13" d="M297.4,315.6c0,0,12.6-4.1,9.6-9.7C303.9,300.2,296.7,303.2,297.4,315.6z"/>
<path class="st13" d="M193,210.2c0,0-3.4-2.8-5.4,0c-2,2.8,2.9,6.9,6.4,3.9L193,210.2z"/>
<circle class="st18" cx="97.2" cy="28.7" r="11.7"/>
<ellipse class="st9" cx="130" cy="28.7" rx="11.7" ry="11.7"/>
<circle class="st19" cx="161.5" cy="28.7" r="11.7"/>
<line class="st11" x1="309" y1="226.8" x2="309" y2="204.1"/>
<rect x="342.1" y="186.8" class="st17" width="17.7" height="40"/>
<rect x="374.5" y="169" class="st17" width="17.7" height="57.8"/>
<path class="st18" d="M426.4,139.5c-32.3-31.8-84.2-31.4-116,0.9s-31.4,84.2,0.9,116c32.3,31.8,84.2,31.4,116-0.9
	C459,223.2,458.7,171.3,426.4,139.5L426.4,139.5z M325.8,241.5c-24.1-23.8-24.4-62.5-0.6-86.6c23.8-24.1,62.5-24.4,86.6-0.6
	s24.4,62.5,0.6,86.6C388.7,265,349.9,265.3,325.8,241.5L325.8,241.5z"/>
<path d="M52.7,278.1"/>
<path d="M328.7,299.2"/>
<path d="M219.9,230.5"/>
<rect x="585.9" y="82.3" class="st0" width="252.5" height="33.6"/>
<rect x="585.9" y="145.7" class="st0" width="252.5" height="33.6"/>
<rect x="585.9" y="213.7" class="st0" width="252.5" height="33.6"/>
<rect x="585.9" y="278.6" class="st0" width="252.5" height="33.6"/>
</svg>
