<?xml version="1.0" encoding="utf-8"?>
<!-- Generator: Adobe Illustrator 24.0.2, SVG Export Plug-In . SVG Version: 6.00 Build 0)  -->
<svg version="1.1" id="fb8df35c-97a2-484c-ac16-3c830d03619c"
	 xmlns="http://www.w3.org/2000/svg" xmlns:xlink="http://www.w3.org/1999/xlink" x="0px" y="0px" viewBox="0 0 900 500"
	 style="enable-background:new 0 0 900 500;" xml:space="preserve">
<style type="text/css">
	.st0{fill:#FFD200;}
	.st1{opacity:0.45;fill:#E6E6E6;enable-background:new    ;}
	.st2{opacity:0.3;fill:#E6E6E6;enable-background:new    ;}
	.st3{fill:#EF5015;}
	.st4{fill:#313433;}
	.st5{fill:#F4A28C;}
	.st6{opacity:0.31;fill:#CE8172;enable-background:new    ;}
	.st7{opacity:8.000000e-02;enable-background:new    ;}
	.st8{opacity:9.000000e-02;enable-background:new    ;}
	.st9{fill:#D8D8D8;}
	.st10{fill:#E6E6E6;}
	.st11{fill:#C9C9C9;}
	.st12{opacity:0.58;fill:#EF5015;enable-background:new    ;}
	.st13{opacity:0.73;fill:#EF5015;enable-background:new    ;}
	.st14{opacity:0.46;fill:#FFFFFF;enable-background:new    ;}
	.st15{fill:#FFFFFF;}
</style>
<title>growth analytics</title>
<polygon class="st0" points="40.9,189.5 87.8,196.3 71.7,216.1 24.8,209.3 "/>
<polygon class="st0" points="42.5,178 89.5,184.8 79.7,161.3 32.8,154.5 "/>
<ellipse class="st1" cx="694.6" cy="417.5" rx="173.4" ry="11.6"/>
<path class="st2" d="M417.6,215c47.1,14,82.8,51.9,90.9,98.5c6.8,39.4-8,87.5-86.7,108.6c-80.3,21.6-303.4,29.1-342.8-35.1
	s-28.2-145.9,57.6-173.4C196.6,194.2,325.6,187.7,417.6,215z"/>
<ellipse class="st1" cx="282.4" cy="477" rx="190.1" ry="11.6"/>
<path class="st3" d="M145.9,458.8l-7.7,4.4l8.1,12.9c0.8,1.2,2.4,1.5,3.6,0.8c0.7-0.5,1.2-1.2,1.2-2
	C151.5,470.1,150.8,463.5,145.9,458.8z"/>
<path class="st4" d="M152.7,377.3l8.2,36.3c2.2,9.8-0.1,20.1-6.3,28.1l-12.6,16.3l7.7,7.5l25-25.2c5.5-5.5,8.8-12.8,9.4-20.5
	l3.8-44.7L152.7,377.3z"/>
<path class="st4" d="M146.6,343.7c0,0-9.2,29.6,8.1,36.2s54.9,94.4,54.9,94.4l12.4-4.8c0,0-23.9-76.5-22.1-107L146.6,343.7z"/>
<path class="st3" d="M213,473.1l4.2,7.7l13.1-7.8c1.2-0.8,1.6-2.4,0.9-3.6c-0.4-0.7-1.2-1.2-1.9-1.2
	C224.3,467.7,217.7,468.2,213,473.1z"/>
<path class="st5" d="M199.5,254.6c0,0,0.5,8.3-1,13.7c-0.6,2.2-2.9,3.5-5.1,2.9c-3.5-0.8-6.3-3.5-7-7l-2.3-7.3
	c-0.6-3.1,0.8-6.3,3.4-7.9C192.2,245.8,199.4,249.6,199.5,254.6z"/>
<polygon class="st5" points="184.5,258.2 179.6,284.9 194.5,286.5 192.1,266.4 "/>
<path class="st5" d="M199.6,259.9l2.2,3.3c0.4,0.6,0.3,1.4-0.3,1.9c-0.2,0.1-0.4,0.2-0.5,0.2l-3.2,0.5L199.6,259.9z"/>
<path class="st6" d="M192.8,270.8c-1.9-0.5-3.5-1.5-4.8-3c0,0,0.1,5,5.4,10L192.8,270.8z"/>
<path class="st4" d="M197.9,254.8c-0.6,0.2-1.2,0.3-1.9,0.4c-0.9,0.2-1.8,0.4-2.6,0.7l-0.7,0.2c-1,0.4-1.7,1.3-1.8,2.3
	c-0.2,2.6-1.3,7.4-7.7,7.6c0,0-5.9-10.1-0.2-17.3c2.5-3.1,6.4-5.5,10.4-5c0.7,0.1,1.4,0.2,2,0.5c1,0.6,1.8,1.4,2.4,2.3
	c0.9,1.3,1.7,2.6,2.5,4c0.3,0.5,0.5,1.2,0.6,1.9C201,254.1,199,254.5,197.9,254.8z"/>
<path class="st5" d="M190.4,263.1c0.5-0.5,0.6-1.3,0.4-2c-0.4-1.2-1.2-2.6-2.7-2.6c-1.5,0.2-2,2.6-1.1,4.2c0.6,1,1.9,1.3,2.9,0.7
	C190.1,263.4,190.3,263.2,190.4,263.1L190.4,263.1z"/>
<path class="st3" d="M196.2,278.5l10.7,1.2c17.1,5.8,36,1.3,48.3-11.3c17.1-17.6,11.8-41.5,11.5-43.1c2.4,0.2,4.7,0.3,7.1,0.5
	c8.4,43,0.4,59.9-8.6,67.4c-7.4,6.2-13.2,13.5-32.3,17.7c-10.6,2.3-19.2,10.1-22.7,20.3l-10.4,31.7l-54.2-18.7l0.7-27.9
	c0.2-8.9-3.8-17.4-10.8-22.9c0,0-9.5-8.1-20.4-29.5c-2.2-4.3-10.2-22.4,7.2-58c2.4,0.2,4.7,0.3,7.1,0.5c-1,3.3-8,27.5,6.7,49
	C148.9,274,172.6,283.2,196.2,278.5z"/>
<path class="st7" d="M125.5,206.1c-7,43.7,2.5,66.5,13.1,79.2c6.8,8.3,17.1,11.8,24.2,27.2c3.6,7.9,17.6,43.6,17.6,43.6l-34.7-12
	l0.6-25.9c-0.4-8.3-2.2-14.7-4.1-17.8c-1.1-1.9-1.7-2.9-3-4c-1.3-1.2-2.3-1.4-3.7-3.1c-0.5-0.6-0.6-0.9-1.5-1.9
	c-1.3-1.5-2.1-2.1-4.9-5.7c-7-9.2-11.4-19.7-14.2-24.5c-0.1-0.2-0.4-0.7-0.8-1.4c0,0-1-2-1.5-4.4c-2.9-14.5,3.3-33.9,3.3-33.9
	c1.2-4,3.3-9.4,6.3-15.7C123.4,205.9,124.4,206,125.5,206.1z"/>
<polygon class="st5" points="266.7,225.3 265.2,218.7 274.2,219.2 273.7,225.8 "/>
<path class="st5" d="M375.4,266.1c1.3,3.9,2,8,2.2,12.1c0,2.1-1.7,3.7-3.8,3.6l0,0c-3.3,0.2-6.2-1.6-7.7-4.5l-3.6-5.8
	c-1.2-2.6-0.8-5.6,1.2-7.6C367.1,260.1,374.2,261.8,375.4,266.1z"/>
<polygon class="st5" points="363.2,272.6 365.1,296.7 378.3,294.8 371.6,278 "/>
<path class="st5" d="M369.2,274.1c0,0-0.7-2.8-2.7-2s-1,4.7,1.9,4.4L369.2,274.1z"/>
<polygon class="st4" points="389.4,377.7 398.5,460.5 389.4,460.5 367,389.6 "/>
<path class="st5" d="M376.6,270.6l2.6,2.3c0.5,0.5,0.5,1.2,0.1,1.7c-0.1,0.2-0.2,0.2-0.4,0.3l-2.6,1.2L376.6,270.6z"/>
<path class="st5" d="M378.3,294.8c0,0,20.5-1,21.4-27.6c0.9-26.5-29.9-40-29.9-40s-14.2-0.9-9.3-9.3c5-8.5,15.9,2.5,15.9,2.5
	s44.3,10.4,43.5,47.9c-0.9,37.5-20.8,53.3-20.8,53.3L378.3,294.8z"/>
<path class="st6" d="M373.2,281.6c-1.7,0-3.4-0.5-4.8-1.5c0,0,1.2,4.2,7,7.4L373.2,281.6z"/>
<path class="st3" d="M397.2,301.7c0,0,32.4,22.6,16,43.5c-16.4,20.9-23.8,32.4-23.8,32.4l-39.3-4.1c0,0-4.5-30.4-13.9-46.4
	s-1.6-27.9,8.2-30.4C354.2,294.3,368.1,286.1,397.2,301.7z"/>
<path class="st8" d="M367.3,292.4c0,0,18.3,16.3,9.1,34.1s-8,49.1-8,49.1l-18.4-1.9c0,0-5-28.4-10.6-39.6c0,0-5.3-9.6-6.8-14.7
	c-1.5-5.1,15.9-26.9,15.9-26.9L367.3,292.4z"/>
<path class="st4" d="M350,373.6c0,0-4.1,11.5,1.4,17.9c5.5,6.3,36.3,22.4,36.3,22.4l-36.3,6l1.9,8.5c0,0,41.1,3,48.8-8.7
	c7.7-11.8-22.4-35.8-22.4-35.8l9.7-6.2L350,373.6z"/>
<path class="st4" d="M369.2,269.5c0,0,5.1,25.7-11.5,28.6c-16.6,2.9-22.1-4.4-25.8-10.5c-3.7-6.1,28.1,1.5,25.7-16.9
	s13.4-17.6,18.5-12.2C381.1,263.7,369.2,269.5,369.2,269.5z"/>
<path class="st3" d="M395.7,460.5c0,0,8.2,14,2.9,14.5c-5.3,0.5-9.1-14.5-9.1-14.5H395.7z"/>
<path class="st3" d="M354,428.6c0,0-4.9,11.9-9,8.5c-4.1-3.4,6.8-15.8,6.8-15.8L354,428.6z"/>
<path class="st4" d="M41.5,177.2l389.1,49.4c11.3,2.9,19.4,6.6,19,9.1c-0.3,2.5-9.1,3.9-20.7,3.9c-129.6-16.5-259.3-33-389-49.5
	L41.5,177.2z"/>
<path class="st5" d="M339.3,320c15.1,6.3,25.8-15.4,11.7-24c-3.9-2.4-8-4.5-12.4-6.3c-15.1-6-37-40-23.8-62.7c0,0,7.4-13.6-1.1-15.9
	c-8.5-2.2-6.3,15.3-6.3,15.3s-21.9,35.6-2.2,61.1C315.9,301.4,327.7,315.1,339.3,320z"/>
<path class="st3" d="M121.3,230"/>
<path d="M106.9,229.2"/>
<path class="st5" d="M122.3,205.9c-1.1-4.9-2.2-9.8-3.2-14.7c-0.2-0.5-0.3-1.7,0.3-2.6c1.1-1.5,3.9-1.2,5-0.8
	c3.3,1.1,5.3,6,5.3,12.1c-0.2,2.2-0.3,4.3-0.5,6.5L122.3,205.9z"/>
<path class="st5" d="M142.2,210.6"/>
<path d="M150,301.7"/>
<rect x="755.2" y="394.5" class="st9" width="93.3" height="22.9"/>
<rect x="771.3" y="371.5" class="st10" width="84.1" height="22.9"/>
<polyline class="st7" points="818.5,417.9 802.6,371.5 785.2,371.5 795.6,417.4 817.9,417.9 "/>
<polygon class="st4" points="648.8,417.4 627.1,417.4 665.3,311.3 687.1,311.3 "/>
<polygon class="st4" points="810.8,417.4 789.1,417.4 762.9,344.9 750.8,311.3 772.5,311.3 781.4,335.9 797.5,380.5 "/>
<path class="st10" d="M819.3,293.5c0,55.4-45,100.4-100.4,100.4c-55.4,0-100.4-45-100.4-100.4s45-100.4,100.4-100.4
	c54.7,0,99.4,43.9,100.4,98.6C819.3,292.3,819.3,292.9,819.3,293.5z"/>
<circle class="st11" cx="718.9" cy="293.5" r="70.9"/>
<circle class="st10" cx="718.9" cy="293.5" r="43.2"/>
<circle class="st11" cx="718.9" cy="293.5" r="20.8"/>
<path class="st12" d="M824.3,357.4c0,0-11-3-13.5-13.2c0,0,17.1-3.5,17.6,14.2L824.3,357.4z"/>
<path class="st13" d="M825.7,356.3c0,0-7.7-12.2-0.9-23.6c0,0,13,8.3,7.2,23.6H825.7z"/>
<path class="st3" d="M827.6,356.3c0,0,4.1-12.8,16.4-15.3c0,0,2.3,8.4-8,15.3H827.6z"/>
<polygon class="st4" points="819.6,356 821.9,371.3 836,371.3 838.1,356.1 "/>
<path class="st4" d="M715.7,172.4c0,0-17.4-10.7-24.8,0.2c-7.4,10.9,12.2,14.5,12.2,14.5L715.7,172.4z"/>
<path class="st3" d="M699.1,91.2L665.6,135c-1.9,2.6-5.6,3.3-8.4,1.6c-0.4-0.2-0.7-0.5-1-0.9l-22.4-22.7l-7.4,7.1
	c0,0,23.2,38.2,37,38.2c13.8,0,39.2-25.5,39.2-25.5L699.1,91.2z"/>
<path class="st14" d="M699.1,91.2L665.6,135c-1.9,2.6-5.6,3.3-8.4,1.6c-0.4-0.2-0.7-0.5-1-0.9l-22.4-22.7l-7.4,7.1
	c0,0,23.2,38.2,37,38.2c13.8,0,39.2-25.5,39.2-25.5L699.1,91.2z"/>
<polygon class="st5" points="706.7,52.6 716.3,76 703.1,87.7 701,61.4 "/>
<path class="st6" d="M701.1,65.5c1.7-0.8,3.1-2,4-3.6c0,0,0.9,4.6-3.3,10.1L701.1,65.5z"/>
<path class="st5" d="M694.8,52.2c0,0,0,7.7,1.7,12.6c0.7,2,3,3.1,5.1,2.4c0,0,0,0,0.1,0c3.4-0.9,5.9-3.6,6.4-7l1.9-6.9
	c0.5-2.9-1.1-5.7-3.8-7.1C701.4,43.6,694.6,47.6,694.8,52.2z"/>
<path class="st5" d="M695,57.1l-2,3.1c-0.4,0.6-0.1,1.4,0.5,1.7c0.2,0.1,0.3,0.1,0.4,0.2l3.1,0.3L695,57.1z"/>
<path class="st4" d="M714.8,77.6c9.7,14,25.7,16.6,33.2,10.8c9.1-7.1,5.7-27,0-30.5c-0.3-0.2-3.7-2.3-4.6-1.4
	c-0.4,0.4-0.2,1-0.2,1.5c1,1.4,5.3,7.5,3.8,15.1c-0.9,5-4.2,10.5-6.5,10.1c-3.3-0.5,0.4-12.2-7-19.9c-5.3-5.4-12.5-5-14.5-10.5
	c-1.2-3.4-2.2-4.6-4-6.8c-0.3-0.4-0.9-1-1.7-1.5c-1.1-0.7-1.9-0.7-2.6-0.9c-2.3-0.8-1.9-3.9-3.9-6.1c-2.6-2.8-8.4-3.1-10.6-0.9
	c-1.8,1.9,0.2,4.2-1.9,6.7c-1.8,2.2-4.3,1.8-5.3,3.9c-0.5,1.2-0.3,2.7,0.4,3.7c0.9,1.2,3.1,1.9,11.7,1.9c2.6,0,3.2,3.3,4.4,5.9
	C708,63.9,710.9,69.8,714.8,77.6z"/>
<path class="st5" d="M703.9,58.1c0,0-0.2-2.9,2.2-2.9c2.3,0.1,2.7,4.3-0.5,5L703.9,58.1z"/>
<path class="st7" d="M699.1,198.7c0,0-18.7-5.5-20,7.6c-1.4,13.1,11.1,34.7,11.1,34.7s-7.4,9.8,5.6,7l3.6-4.8l-2.6-22.7l3-18.4
	l11.1-10.7L699.1,198.7z"/>
<path class="st3" d="M701.5,172.1l0.5,0.2l0.2,0.1l0.1,0.1l30.9-2.1l21.1-1.5c0,0,5-32.6-1.2-60.2c-4-17.9-23.8-26.6-37.3-30.6
	c-4.1-1.2-8.4-2.2-12.8-2.9l-17.8,11.6c-9.7,7.2-25.1,20.6-22.8,34.1c0.8,4.5,4.4,8.4,11.5,16.3c10.7,11.8,18.3,14.9,24.1,26.3
	C699.9,167.1,700.9,170.2,701.5,172.1z"/>
<path class="st4" d="M753.9,167.8c0,0,5.3,30.4-13.5,28.6c-9.8-0.9-19.6-0.8-29.3,0.2c-5,0.5-8.9,4.4-9.1,9.3l-1.1,27.2l-9.1,3.7
	l-6.6-32.7c-2.2-10.6,3.6-21.3,13.9-25.8l16.1-7L753.9,167.8z"/>
<path class="st7" d="M702.1,172.4c12.8-1.2,25.7-2.3,38.5-3.5c0,0-10-12.3-19.1-25.8c-6.7-9.8-1.5-47.1,1.8-66.4
	c-4.1-1.2-8.4-2.2-12.8-2.9l-17.8,11.6c-4.3,1.5-11.5,4.6-18.3,11.3c-3.5,3.5-14.2,14.2-11.8,25.2c0.8,3.5,4.8,7.7,12.8,16.2
	c2.9,3,7.7,7.9,12.5,12.5c4.6,4.5,6,5.7,8,8.3C699.6,163.9,701.2,169,702.1,172.4z"/>
<path class="st3" d="M726.1,100.8c6.7,15.2-10.1,29.3-23.4,19.9c-3.9-2.8-7.4-6.3-10.1-10.4C682.5,94.9,631,35.8,631,35.8l8.4-8.4
	c0,0,53.4,37.2,76.7,59.7C720.3,90.9,723.7,95.6,726.1,100.8z"/>
<path class="st14" d="M726.1,100.8c6.7,15.2-10.1,29.3-23.4,19.9c-3.9-2.8-7.4-6.3-10.1-10.4C682.5,94.9,631,35.8,631,35.8l8.4-8.4
	c0,0,53.4,37.2,76.7,59.7C720.3,90.9,723.7,95.6,726.1,100.8z"/>
<path class="st5" d="M632.4,34.4c0,0-13.2-3-8.4-9.3c4.8-6.3,15.3,2.3,15.3,2.3L632.4,34.4z"/>
<path class="st5" d="M628.7,118c0,0-11.1-7.1-3.6-13.5c7.4-6.3,8.7,8.6,8.7,8.6L628.7,118z"/>
<polygon class="st0" points="625.3,109.7 638.6,109.1 637.5,89.1 624.1,89.7 "/>
<path class="st3" d="M694.6,234.8c0,0-0.4,7.8-4.6,9c0,0-0.3,5.5,5.8,4c6.1-1.5,7-9.3,7-9.3l-2.8-5.8L694.6,234.8z"/>
<path class="st4" d="M739.1,1.3"/>
<path class="st4" d="M683.8,40.6"/>
<path class="st15" d="M714.6,74.8"/>
<path class="st4" d="M760,82.1"/>
</svg>
