<?xml version="1.0" encoding="utf-8"?>
<!-- Generator: Adobe Illustrator 24.0.2, SVG Export Plug-In . SVG Version: 6.00 Build 0)  -->
<svg version="1.1" id="_x32_71e5882-3c8d-41ed-8a0a-1cb2b4d0cbc1"
	 xmlns="http://www.w3.org/2000/svg" xmlns:xlink="http://www.w3.org/1999/xlink" x="0px" y="0px" viewBox="0 0 900 500"
	 style="enable-background:new 0 0 900 500;" xml:space="preserve">
<style type="text/css">
	.st0{fill:#EF5015;}
	.st1{opacity:0.46;fill:#FFFFFF;enable-background:new    ;}
	.st2{fill:#313433;}
	.st3{fill:#F4A28C;}
	.st4{opacity:0.31;fill:#CE8172;enable-background:new    ;}
	.st5{opacity:8.000000e-02;enable-background:new    ;}
	.st6{opacity:0.45;fill:#E6E6E6;enable-background:new    ;}
	.st7{fill:#CCCCCC;}
	.st8{fill:#E6E6E6;}
	.st9{opacity:0.36;fill:#FFFFFF;enable-background:new    ;}
	.st10{opacity:9.000000e-02;enable-background:new    ;}
</style>
<title>team spirit</title>
<path class="st0" d="M469.6,76.9c0,0,88.4,85.4,153.3,93.3l-4.4,21.5c0,0-101.7-4.9-145.8-41.9L469.6,76.9z"/>
<path class="st1" d="M469.6,76.9c0,0,88.4,85.4,153.3,93.3l-4.4,21.5c0,0-101.7-4.9-145.8-41.9L469.6,76.9z"/>
<path class="st0" d="M365.1,390.4c0,0-2.7,8.3-9.5,8.9c-6.8,0.6-8.6,7.9-2.5,9.8c6.1,1.9,22-6.7,22-6.7l-0.4-10.7L365.1,390.4z"/>
<path class="st0" d="M458.7,390.4c0,0,2.7,8.3,9.5,8.9c6.8,0.6,8.6,7.9,2.5,9.8c-6.1,1.9-22-6.7-22-6.7l0.4-10.7L458.7,390.4z"/>
<path class="st2" d="M390.2,232.2l-26.6,159.7h13.3l33.3-86.7c11.3-30,31.9-55.5,59.1-72.7l9.8-6L390.2,232.2z"/>
<path class="st2" d="M479,226.5l-13.8,165.4h-17.6c0,0,4.1-124.6-27.7-151L479,226.5z"/>
<path class="st3" d="M428.7,23.9c2.5,6.5,4.2,13.4,4.9,20.4c0.2,3.5-2.6,6.4-6.1,6.5l0,0c-5.5,0.5-10.7-2.3-13.4-7l-6.8-9.5
	c-2.3-4.2-1.8-9.4,1.4-13C414.2,14.4,426.3,16.7,428.7,23.9z"/>
<polygon class="st3" points="408.6,36.1 413.9,76.9 436.2,72.4 423.4,44.5 "/>
<path class="st2" d="M425.9,25.4c-3.7,1.2-7.5,2-11.4,2.4c3.1,2.7,4.4,7,3.2,11c-1.1,3.9-4.9,6.5-8.9,6.2l-4.3-15.5
	c-1.4-4.5-0.2-9.4,3-12.8c1.4-1.4,2.9-2.8,4.4-4c3.9-3.1,11.3-2.1,14.5-6.3c1-1.4,2.9-1.6,4.3-0.6c0.4,0.3,0.7,0.7,1,1.1
	c2.1,4.5,3.4,12.2-2.2,16.7C428.3,24.3,427.2,24.9,425.9,25.4z"/>
<path class="st3" d="M419,38.1c0,0-1.4-4.7-4.8-3.2c-3.4,1.4-1.3,8,3.6,7.3L419,38.1z"/>
<path class="st3" d="M431.3,31.5l4.7,3.7c0.9,0.6,1,1.9,0.3,2.8c-0.2,0.2-0.4,0.4-0.7,0.6l-4.3,2.3V31.5z"/>
<path class="st4" d="M426.5,50.5c-2.9,0.1-5.8-0.6-8.3-2.1c0,0,2.4,7.2,12.5,12L426.5,50.5z"/>
<path class="st0" d="M479,228l-38.3,2.7l-50.5,3.8l0,0c-1-1.6-44.3-63.8-43.4-111.5c0.4-25.1,13.2-46.1,50.9-52l15.5-0.6
	c3.8-0.1,7.6-0.4,11.3-1c12-1.8,47.9-4,67.4,29.9C515.5,140.8,479,228,479,228z"/>
<path class="st5" d="M441.6,231.2l-51.3,3.3l0,0c-1-1.6-44.3-63.8-43.4-111.5c29-13.5,76-18,76-18s9.6,9.9-1.8,23.5
	c-14,16.8-19,39.8-10.6,59.9c5.5,13,13.1,33.7,30.3,42.3C441,231,441.3,231.1,441.6,231.2z"/>
<path class="st0" d="M418.8,88.6c-9.4-12.4-25.8-17.1-40.4-11.8c-26.8,9.5-72.7,32.2-77.7,77.1c-7,63.9,95.1,77.9,95.1,77.9
	l3.3-16.3c0,0-105.8-59.1-3.3-88.9C396,126.7,436.9,113.1,418.8,88.6z"/>
<path class="st1" d="M418.8,88.6c-9.4-12.4-25.8-17.1-40.4-11.8c-26.8,9.5-72.7,32.2-77.7,77.1c-7,63.9,95.1,77.9,95.1,77.9
	l3.3-16.3c0,0-105.8-59.1-3.3-88.9C396,126.7,436.9,113.1,418.8,88.6z"/>
<path class="st3" d="M399.4,218c0,0,17.5,0.3,14.4,11.3c-3.1,10.9-17.9,2.7-17.9,2.7L399.4,218z"/>
<path class="st3" d="M703.1,174.5c0,0,26.6-2.9,24.9-0.7c-1.6,2.2-10,4.9-10,4.9s2.5,3.8-4,8.6c-4.1,2.8-9.3,3.9-14.1,2.7
	L703.1,174.5z"/>
<ellipse class="st6" cx="424.5" cy="467" rx="381.5" ry="24.1"/>
<path class="st7" d="M739.2,112.3l-37.5,150.6l-55.3-13.8c-3.3-4.2-3.4-10.1-0.3-14.4c5.4-3,9.3-8,10.8-14
	c2.7-12.9-5.5-25.6-18.4-28.3c-12.2-2.6-24.4,4.7-27.9,16.7c-1.4,6-0.4,12.3,3,17.5c0.7,5.3-2.2,10.4-7,12.6l-55.3-13.8l13.9-55.9
	c-2.3-4.4-7.2-6.9-12.2-6.3c-5.2,3.4-11.4,4.4-17.5,3c-12.6-3.8-19.9-17.1-16.1-29.7c3.5-11.8,15.5-19.1,27.6-16.6
	c6,1.5,11,5.4,14,10.8c4.1,2.9,9.6,3,13.7,0.2l13.9-55.9L739.2,112.3z"/>
<path class="st2" d="M755.1,123.2c0,0-21.7,29.5,0.3,38.5c22,8.9,23.9-23.7,23.9-23.7l-9.9-22L755.1,123.2z"/>
<path class="st0" d="M762.8,144.5l27.8,0.9c0,0,83.4,21.5,36.7,118.1c-7.4,15.3-6.8,33.3-7.2,50.2l-0.1,4.4h-73.3l-3.9-15.8
	c-4.4-17.5-12.4-34-23.5-48.2C705.1,235.5,695.1,198.5,762.8,144.5z"/>
<path class="st3" d="M749.6,103.4c0.2,6.2,1.3,12.3,3.1,18.2c1.1,2.9,4.3,4.3,7.2,3.1l0,0c4.6-1.5,7.9-5.6,8.4-10.5l2.1-10.1
	c0.4-4.2-1.9-8.2-5.6-10.1C758.1,90.5,749,96.7,749.6,103.4z"/>
<polygon class="st3" points="770.1,106.1 780.2,141.1 760.6,145.3 761.1,118.1 "/>
<path class="st4" d="M760.7,124.1c2.4-1,4.4-2.6,6-4.7c0,0,0.6,6.6-5.9,14.1L760.7,124.1z"/>
<path class="st2" d="M746.9,87.1c-4.3,4-4.6,10.8-0.6,15c0.9,1,2,1.8,3.2,2.3c2.6,1.3,5.3,2.2,8.2,2.7c11.9,2.3,6,54.9,31.2,47.5
	c25.2-7.4,17.1-18.3,5.6-28.1c-11.4-9.8-16.2-28-20.5-37.2C770.9,82.8,754.6,80.4,746.9,87.1z"/>
<polygon class="st3" points="810.4,342.2 813.9,457.3 806.5,459.7 781.4,351.1 "/>
<path class="st0" d="M813.7,455.6c0,0,4.6,5.2,10.1,4.7c5.5-0.5,6.7,7.2-2.3,6.8c-2.7-0.1-5.6-0.5-8.3-1c-2.5-0.5-5.1-0.2-7.5,0.6
	c-1,0.2-2-0.1-2.6-0.9c-2.7-2.8,3.2-10,3.2-10L813.7,455.6z"/>
<polygon class="st3" points="752.6,342.4 726.1,454.5 732.8,458.2 779.2,356.9 "/>
<path class="st0" d="M726.6,452.9c0,0-5.6,4.2-10.9,2.6c-5.3-1.6-8,5.7,0.8,7.2c2.7,0.5,5.6,0.7,8.4,0.6c2.6,0.1,5.1,0.8,7.2,2.1
	c0.9,0.5,1.9,0.3,2.7-0.3c3.2-2.3-1.1-10.5-1.1-10.5L726.6,452.9z"/>
<path class="st5" d="M788.3,182.6c0,0-9.7,38.3,6.1,64.4s-13,63.2-13,63.2l38.8-1.4c0,0,2.3-35.6,11.3-66.2
	C840.7,212,788.3,182.6,788.3,182.6z"/>
<polygon class="st2" points="745,311.5 820.2,308.9 833.8,433.9 780.2,433.9 779.3,340.6 "/>
<polygon class="st2" points="745,311.5 708.9,430 760,433.9 789.4,326.9 "/>
<path class="st3" d="M798.2,149.8c11.7-1.9,22.9,6.1,24.8,17.9c0.3,2.2,0.4,4.4,0.1,6.6c-2.1,15.9-9.7,39.1-32.2,64.6
	c-41,46.3-139.3,20.6-139.3,20.6s-20,2.6-22.6-8.1c-2.7-10.7,23.8-5.2,23.8-5.2s48.1,10.2,83.6-22
	C765.3,198.1,769.1,154.8,798.2,149.8z"/>
<path class="st8" d="M535.4,304.1c-4.2-3.3-5.7-8.9-3.8-13.8c4.5-4.2,7.1-10.1,7.1-16.2c-0.6-13.2-11.7-23.4-24.9-22.9
	c-12.4,0.5-22.4,10.5-22.9,22.9c0,6.1,2.6,12,7.1,16.2c2,4.9,0.4,10.6-3.8,13.8h-56.9v57c3.2,4.2,8.9,5.8,13.8,3.8
	c4.2-4.5,10.1-7.1,16.2-7.1c13.2,0.6,23.4,11.7,22.9,24.9c-0.5,12.4-10.5,22.4-22.9,22.9c-6.1,0-12-2.6-16.2-7.1
	c-5-1.9-10.6-0.4-13.8,3.8v57h155.1V304.1H535.4z"/>
<path class="st7" d="M490.1,381.7c0.3,12.8-9.8,23.5-22.7,23.8c-6.1,0-12-2.6-16.2-7.1c-5-1.9-10.6-0.4-13.8,3.8v57H282.3V304.1
	h57.4c3.9,3.3,5.3,8.8,3.5,13.6c-4.5,4.2-7.1,10.1-7.1,16.2c0.6,13.2,11.7,23.4,24.9,22.9c12.4-0.5,22.4-10.5,22.9-22.9
	c0-6.1-2.6-12-7.1-16.2c-1.9-4.8-0.5-10.3,3.5-13.6h57.2v57c3.2,4.2,8.9,5.8,13.8,3.8c4.2-4.5,10.1-7.1,16.2-7.1
	C480.3,358.1,490.4,368.7,490.1,381.7z"/>
<path class="st0" d="M198.4,450.6c0,0,6.3,6.3,13.2,3.3s11.8,2.9,6.8,7.8c-5.1,4.9-24.1,5.2-24.1,5.2l-5.6-13L198.4,450.6z"/>
<path class="st0" d="M91.8,447.7c0,0-3.1,8.5,2.1,14.1s1.9,12.6-4.3,9.6c-6.3-3.1-13.6-21.6-13.6-21.6l9.3-10.4L91.8,447.7z"/>
<path class="st2" d="M74.8,287.4c0,0-6.7,27.8,4.9,41.5s29.5,78.5,0,111l11.6,11.5c0,0,50.9-27.4,36.5-126.2l36.4-38L74.8,287.4
	L74.8,287.4z"/>
<path class="st2" d="M164.2,287.4l37.4,164.1l-18.7,2.9c0,0-37.4-112.5-62-135.5L164.2,287.4z"/>
<path class="st0" d="M172.9,143.2c0,0,38.9,16.7,33,77.5l-38.1-3.3L172.9,143.2z"/>
<path class="st9" d="M172.9,143.2c0,0,38.9,16.7,33,77.5l-38.1-3.3L172.9,143.2z"/>
<polygon class="st3" points="132.4,91 121.6,129.1 143,133.6 142.3,104.1 "/>
<path class="st4" d="M142.7,110.5c-2.7-1-4.9-2.7-6.5-5c0,0-0.6,7.2,6.5,15.3V110.5z"/>
<path class="st0" d="M121.6,129.1l12.7,2.7c0,0,58.1,6.3,60.5,39s-30.5,116.6-30.5,116.6H76.2C76.2,287.4,5.6,120.5,121.6,129.1z"/>
<path class="st8" d="M240.3,196.8c1.8,12.7,13.6,21.6,26.3,19.8c6-1,11.4-4.5,14.8-9.7c4.3-2.6,9.8-2.2,13.7,1l9.4,56.8l-56.7,9.3
	c-3.4,3.9-3.9,9.6-1.2,14c5.2,3.4,8.6,8.8,9.7,14.8c1.6,13.1-7.6,25-20.8,26.6c-12.4,1.5-23.8-6.7-26.3-18.9
	c-1-6.1,0.6-12.3,4.4-17.1c1-5.1-1.2-10.2-5.6-12.9l-56.6,9.3l-25.1-153l153-25.1l9.3,56.9c-2.7,4.2-7.8,6.3-12.6,5.2
	c-4.8-3.8-11.1-5.4-17.1-4.4C246.3,171.9,237.9,184,240.3,196.8L240.3,196.8z"/>
<path class="st3" d="M154.6,92.1c0,0-1,12-4.5,19.6c-1.4,3.1-5,4.4-8,3.1l0,0c-4.9-1.9-8.3-6.5-8.5-11.7l-1.7-11
	c-0.2-4.6,2.5-8.9,6.8-10.5C146,77.7,155.6,84.8,154.6,92.1z"/>
<path class="st10" d="M95.5,144.4c0,0,30.1,17.5,23.1,57.1c-7,39.6-18.6,53.2,6.3,47.6s35.1-18,35.1-18s17.9,14.6,0,25.7
	s-42.2,11-46,30.7H76.2c0,0-3.1-8.6-7.1-19.4C65.1,257.2,95.5,144.4,95.5,144.4z"/>
<path class="st2" d="M151.5,92.1c-3.7-0.5-7.3-1.4-10.9-2.8c1.6,3.7,0.8,8-1.9,10.9c-2.7,2.9-7,3.5-10.3,1.5l2.9-15.3
	c0.7-4.4,3.8-8.2,8-9.7c1.9-0.6,3.7-1.2,5.6-1.6c4.8-1,11.6,0.9,14.2,5.2c2.3,3.9,1.2,8.9-2.7,11.3C155,92.3,153.2,92.5,151.5,92.1z
	"/>
<path class="st3" d="M140.1,100c0,0,0.7-4.6-2.8-4.8s-4.6,6.3,0,7.8L140.1,100z"/>
<path class="st3" d="M49.1,214.4c0,0-5,50.9,20,53.7c18.8,2.1,49.1-8.5,67.5-13.8c8-2.3,11.8-3.4,18-8.9c7.3-6.8,17.5-11.5,9.7-17.9
	c-14.1-11.3-24.1,8-24.1,8c-11.7,3.4-23.9,5.5-36.1,6c-8.1,0.2-14.9-6.2-15.1-14.4c0-1.4,0.2-2.8,0.5-4.2l4.7-17.5
	C94.1,205.4,61,174.5,49.1,214.4z"/>
<path class="st3" d="M153.5,99.7l2.5,5.2c0.5,1,0.1,2.1-0.9,2.6c-0.2,0.2-0.6,0.2-0.8,0.2h-4.7L153.5,99.7z"/>
<path class="st0" d="M75.1,140.4c-13,10-32.5,32-32.1,73.5l53.4,3.4c0,0,15.4-45.6-0.7-73.1c-3.9-6.6-12.5-8.8-19.1-4.9
	C75.9,139.7,75.5,140,75.1,140.4z"/>
<path class="st9" d="M75.1,140.4c-13,10-32.5,32-32.1,73.5l53.4,3.4c0,0,15.4-45.6-0.7-73.1c-3.9-6.6-12.5-8.8-19.1-4.9
	C75.9,139.7,75.5,140,75.1,140.4z"/>
</svg>
