<?xml version="1.0" encoding="utf-8"?>
<!-- Generator: Adobe Illustrator 24.0.2, SVG Export Plug-In . SVG Version: 6.00 Build 0)  -->
<svg version="1.1" id="b759170a-51c3-4e2f-999d-77dec9fd6d11"
	 xmlns="http://www.w3.org/2000/svg" xmlns:xlink="http://www.w3.org/1999/xlink" x="0px" y="0px" viewBox="0 0 900 500"
	 style="enable-background:new 0 0 900 500;" xml:space="preserve">
<style type="text/css">
	.st0{fill:#E6E6E6;}
	.st1{opacity:5.000000e-02;enable-background:new    ;}
	.st2{opacity:0.45;fill:#E6E6E6;enable-background:new    ;}
	.st3{opacity:0.58;fill:#EF5015;enable-background:new    ;}
	.st4{opacity:0.73;fill:#EF5015;enable-background:new    ;}
	.st5{fill:#EF5015;}
	.st6{fill:#2C2E2D;}
	.st7{fill:#F4A28C;}
	.st8{opacity:8.000000e-02;enable-background:new    ;}
	.st9{opacity:0.46;fill:#FFFFFF;enable-background:new    ;}
	.st10{opacity:0.31;fill:#CE8172;enable-background:new    ;}
	.st11{fill:#FFD200;}
	.st12{opacity:0.2;fill:#FFFFFF;enable-background:new    ;}
	.st13{opacity:0.62;fill:#FFFFFF;enable-background:new    ;}
	.st14{fill:#FFFFFF;}
	.st15{opacity:0.55;fill:#878787;enable-background:new    ;}
	.st16{opacity:0.55;fill:#FFFFFF;enable-background:new    ;}
	.st17{fill:#C1C1C1;}
	.st18{fill:#878787;}
	.st19{fill:#F4F4F4;}
	.st20{opacity:0.3;fill:#E6E6E6;enable-background:new    ;}
	.st21{opacity:9.000000e-02;enable-background:new    ;}
	.st22{fill:#24285B;}
	.st23{opacity:0.18;stroke:#000000;stroke-width:2;stroke-miterlimit:10;enable-background:new    ;}
	.st24{opacity:0.44;fill:#FFFFFF;enable-background:new    ;}
	.st25{opacity:0.64;fill:#FFFFFF;enable-background:new    ;}
	.st26{opacity:0.77;fill:#FFFFFF;enable-background:new    ;}
</style>
<title>maker launch</title>
<rect x="282" y="125.3" class="st0" width="347.2" height="252.1"/>
<path class="st1" d="M620.1,192.8c0,0-7.2-2-9.7,8.9c-2.5,10.9-1.4,13.3,4,16c5.3,2.7,2.6,20.4-7.1,20c-9.7-0.4-17.5-8.2-22.2,0
	c-4.7,8.2-9.5,68.4-29.3,55.3c-19.8-13-24.2-62.8-24.2-62.8l-35.3-0.5v39l27.5-0.6c0,0,3.6,47.9,42.2,58.6
	c7.8,2.1,12.5,10.1,10.4,18c-0.1,0.3-0.1,0.5-0.2,0.7l-10.4,31.9h59.8v-42C625.5,335.3,628.3,204.9,620.1,192.8z"/>
<ellipse class="st2" cx="622.8" cy="425.5" rx="103.7" ry="15.4"/>
<ellipse class="st2" cx="259.2" cy="425.5" rx="90.6" ry="15.4"/>
<path class="st3" d="M698.7,410c0,0,10.6-2.9,12.9-12.6c0,0-16.3-3.4-16.9,13.5L698.7,410z"/>
<path class="st4" d="M697.3,409c0,0,7.5-11.6,1-22.6c-7.4,4.9-10.3,14.3-7,22.6H697.3z"/>
<path class="st5" d="M695.5,409c0,0-3.8-12.3-15.6-14.7c0,0-2.3,8,7.6,14.7H695.5z"/>
<polygon class="st6" points="703.1,408.7 700.9,423.4 687.5,423.4 685.6,408.7 "/>
<path class="st7" d="M618.3,230.2c0,0-22.5-3-27,15.8c-4.5,18.8-5.1,44.8-23.2,50c-18.1,5.2-28-30.9-28-30.9s-4.2-10.1-8.7-11.5
	c-4.5-1.4-7.7,8.6,0,14.7c0,0,6.5,46.1,41.1,44.5C607.1,311.2,618.3,263.7,618.3,230.2z"/>
<path class="st8" d="M618.3,230.2c0,0-22.5-3-27,15.8c-4.5,18.8-5.1,44.8-23.2,50c-18.1,5.2-28-30.9-28-30.9s-4.2-10.1-8.7-11.5
	c-4.5-1.4-7.7,8.6,0,14.7c0,0,6.5,46.1,41.1,44.5C607.1,311.2,618.3,263.7,618.3,230.2z"/>
<path class="st5" d="M618.3,230.2c0,0-24.1-4.8-27.5,14.7c-1.8,11.2-5,22.1-9.3,32.6l18.4,6L618.3,230.2z"/>
<path class="st9" d="M618.3,230.2c0,0-24.1-4.8-27.5,14.7c-1.8,11.2-5,22.1-9.3,32.6l18.4,6L618.3,230.2z"/>
<path class="st7" d="M619.4,198.6c-1.7,3.6-2.9,7.5-3.6,11.5c-0.2,1.9,1.2,3.8,3.2,4c0.1,0,0.1,0,0.1,0c3.1,0.5,6.2-0.8,8-3.5
	l4.2-5.2c1.5-2.3,1.4-5.3-0.3-7.5C628.3,193.7,621.1,194.4,619.4,198.6z"/>
<polygon class="st7" points="629.7,206.6 631.4,230.2 618.3,230.2 622.2,213.4 "/>
<path class="st7" d="M617.7,202.8l-2.9,1.9c-0.5,0.3-0.7,1.1-0.3,1.6c0.1,0.1,0.2,0.3,0.3,0.3l2.4,1.4L617.7,202.8z"/>
<path class="st10" d="M622.2,213.8c1.6-0.3,3-1,4.3-2c0,0,0.8,5.1-5.4,6.9L622.2,213.8z"/>
<path class="st7" d="M625.5,206.2c0,0,1-2.6,2.9-1.7c1.9,0.9,0.5,4.7-2.3,4L625.5,206.2z"/>
<polygon class="st7" points="594.6,365.2 583.5,415.7 589.9,415.7 611.5,365.2 "/>
<polygon class="st7" points="630.7,359.1 642.6,415.7 649.1,415.7 648,358.7 "/>
<path class="st5" d="M583.5,415.7c0,0-3.6,4.5-8.2,4.3s-5.3,6.2,2.1,5.6c2.3-0.2,4.6-0.6,6.8-1.2c2.1-0.5,4.2-0.4,6.2,0.2
	c0.8,0.2,1.6-0.1,2.1-0.8c2.1-2.5-3-8.1-3-8.1H583.5z"/>
<path class="st5" d="M648.5,415.7c0,0,3.6,4.5,8.2,4.3s5.3,6.2-2.1,5.6c-2.3-0.2-4.6-0.6-6.8-1.2c-2.1-0.5-4.2-0.4-6.2,0.2
	c-0.8,0.2-1.6-0.1-2.1-0.8c-2.1-2.5,3-8.1,3-8.1H648.5z"/>
<path class="st5" d="M618.3,230.2h13.1c0,0,0.9,0,2.5,0c28.7,0.9,45.3,32.7,30,57c-8.4,13.5-18.5,31.7-19.2,42.5l-51-2.6
	c0,0,3.8-33.1-5.6-52C588.1,275.2,570.7,245.5,618.3,230.2z"/>
<path class="st8" d="M641.1,247.6c0,0-6.4,13.1-7.8,36.7c-1.5,23.6-37.3-4.3-37.3-4.3l-1.7,39l52.1,2.9l4.3-15.8
	C650.8,306,664.4,281.5,641.1,247.6z"/>
<rect x="590.2" y="259.9" transform="matrix(0.9932 -0.1163 0.1163 0.9932 -29.1868 72.5727)" class="st11" width="34.2" height="52.9"/>
<rect x="596.3" y="256.8" transform="matrix(0.9932 -0.1163 0.1163 0.9932 -26.2213 72.0525)" class="st6" width="16" height="7.8"/>
<polygon class="st6" points="594.3,319 646.4,321.7 660.3,374.5 585,371.9 "/>
<polygon class="st8" points="589.3,280.1 625.5,294.6 627.3,310.8 593.3,314.7 "/>
<path class="st7" d="M641.5,250.1c-0.3-6.2,4.5-11.3,10.7-11.5c3.4-0.1,6.8,1.4,9,4c7.4,8.9,11.3,20.2,11,31.7
	c-0.5,30.9-4.6,64.3-71.2,27.8l3.6-9.8c0,0,29.6,14.2,41.9,9.6C655.6,298.5,642.5,271.3,641.5,250.1z"/>
<path class="st7" d="M604.6,292.3c0,0-11.1-5.3-15.8,0c-4.7,5.3,2.8,10,12.3,9.8L604.6,292.3z"/>
<path class="st6" d="M618.3,195.1l-2.3,5.7l9.4,3.6c0,0,0.5,6.4-2.8,7.5c1.6-0.1,3-0.8,4-1.9c0.8-0.9,2.2-1,3.2-0.2l0.1,0.1
	c2.7-2.7,4.6-6,5.5-9.7c1.1-5.6-5.2-6.4-5.2-6.4S622,187.9,618.3,195.1z"/>
<path class="st6" d="M630.3,193.7c0,0,0.5-5.4,10.1-4.5c9.7,0.8,0,13.9,8,26.1c0,0-14.7-3.1-15-16.2L630.3,193.7z"/>
<path class="st11" d="M629.7,193.3c1.5-0.8,3.3-0.6,4.7,0.4c2.7,1.8,4,8-0.4,10.2C634,203.9,637.6,195.3,629.7,193.3z"/>
<path class="st5" d="M645.8,283.5h28.4c0,0,3.1-41.4-20.4-46.8C630.3,231.3,645.8,283.5,645.8,283.5z"/>
<path class="st12" d="M645.8,283.5h28.4c0,0,3.1-41.4-20.4-46.8C630.3,231.3,645.8,283.5,645.8,283.5z"/>
<rect x="510.2" y="226.7" class="st6" width="42.5" height="35.5"/>
<polygon class="st13" points="548.4,256.6 538.2,238.5 531.1,252 522.5,240.5 513.9,256.6 "/>
<circle class="st14" cx="529.5" cy="236.5" r="3.4"/>
<path class="st1" d="M307.7,247l-22.6,0.6l-7.5,129.8h32.4c1.8-6.2,6.5-38.3,24.1-56.9c17.3-18.3,88-65.8,62.1-97.8
	c-12.6-15.6-33.8,44-33.8,44l-33.3,4l2.3-1.2L307.7,247z"/>
<polygon class="st7" points="258,214.7 261.7,225.9 252.8,231.5 249.6,212.1 "/>
<path class="st7" d="M246.6,201.2c1.5-3.6,5.6-5.2,9.1-3.7c0.9,0.4,1.8,1,2.5,1.8c3.8,4,8.3,10.4,3.2,13.9
	c-7.8,5.4-15.1-4.6-15.1-4.6C245.7,206.2,245.7,203.6,246.6,201.2z"/>
<path class="st7" d="M252.4,208.1c0,0-2-1.7-2.9,0.7c-0.9,2.4,2.7,3.6,3.7,2.3C254.2,209.9,252.4,208.1,252.4,208.1z"/>
<path class="st5" d="M234.5,237.2c0,0-36.4,22-41.2,73.8c-0.8,8.9,4.9,17.1,13.6,19.2l42.7,10.3L234.5,237.2z"/>
<path class="st12" d="M234.5,237.2c0,0-36.4,22-41.2,73.8c-0.8,8.9,4.9,17.1,13.6,19.2l42.7,10.3L234.5,237.2z"/>
<rect x="199.4" y="311.1" transform="matrix(0.9087 -0.4175 0.4175 0.9087 -117.2747 126.3912)" class="st11" width="61.7" height="40.3"/>
<path class="st6" d="M253.5,205.2c0,0,4.1,12-3.1,11.2s-3.3-5.9-6.9-11.2c-3.6-5.3-1.8-9,3.8-13.6c2.5-2.1,4.2-3.2,5.3-4.3
	c1.4-1.6,3.9-1.9,5.5-0.5c0.5,0.4,0.8,0.8,1,1.4C261,192.9,261,199,253.5,205.2z"/>
<path class="st5" d="M226.1,248.1c3.5-7.8,10.2-13.6,18.4-16.1c15.6-4.7,45.2-14.5,54,0c12,20-6.5,98.3-6.5,98.3l-52.4,4.1
	C239.6,334.4,210.8,282.4,226.1,248.1z"/>
<polygon class="st6" points="292,330.4 285.1,420.4 274.2,420.4 264.5,350.5 240.4,334.4 "/>
<polygon class="st6" points="240.4,334.4 225.4,420.4 237.1,420.4 262.3,349 "/>
<path class="st8" d="M249.1,230.6c0,0-24.5,78.9,46.2,84.2l-3.3,15.6l-52.4,4.1c-12.1-21.2-18.2-45.3-17.7-69.7
	c0,0,0.5-20.1,14.6-29C240.3,233.2,244.6,231.4,249.1,230.6z"/>
<path class="st5" d="M227.5,420.4l-7.2,5.4c-0.7,0.5-0.8,1.6-0.3,2.3c0.3,0.4,0.8,0.6,1.2,0.6h12.1c0.9,0,1.6-0.7,1.6-1.6v-6.6
	L227.5,420.4z"/>
<path class="st5" d="M284.8,420.4l6.8,5.4c0.7,0.5,0.8,1.6,0.3,2.3c-0.3,0.4-0.8,0.6-1.3,0.6H282c-2.5,0-4.6-2.1-4.6-4.6v-3.6
	L284.8,420.4z"/>
<path class="st5" d="M392,223.9l-7.8-2.3l-34.6,30l0,0c-5.2,4.5-12.3,5.8-18.8,3.6c-9.4-3.2-17.4-9.5-22.6-18
	c-12.4-20.1-33.4-12.8-33.4-12.8S259,240,290.4,266.8c18.7,16,37.9,17,50.4,15.2c1.5-0.2,3-0.3,4.5-0.3c1.5-0.1,2.9-0.4,4.3-1
	c1.7-0.7,3.3-1.6,4.9-2.4l0,0C367.3,271,381,255.4,392,223.9z"/>
<path class="st12" d="M392,223.9l-7.8-2.3l-34.6,30l0,0c-5.2,4.5-12.3,5.8-18.8,3.6c-9.4-3.2-17.4-9.5-22.6-18
	c-12.4-20.1-33.4-12.8-33.4-12.8S259,240,290.4,266.8c18.7,16,37.9,17,50.4,15.2c1.5-0.2,3-0.3,4.5-0.3c1.5-0.1,2.9-0.4,4.3-1
	c1.7-0.7,3.3-1.6,4.9-2.4l0,0C367.3,271,381,255.4,392,223.9z"/>
<path class="st7" d="M384.2,221.6c0,0,4.3-12.6,7.8-13.5s0,6.7,0,6.7s9.5,4.7,0,9L384.2,221.6z"/>
<path class="st15" d="M425.4,126.8l-11.5,14.4c-12.3,15.4-18,34.9-16.1,54.4L400,218l33.7-30.6L425.4,126.8z"/>
<path class="st15" d="M506.2,126.8l11.5,14.4c12.3,15.4,18,34.9,16.1,54.4l-2.2,22.4l-33.7-30.6L506.2,126.8z"/>
<path class="st16" d="M436.8,198.3c6.6,12.3,15,31.8,17.8,56.7c4.7,42.1-8.4,83.8-20.7,84.7c-5.9,0.5-11.1-7.1-21.7-7.3
	c-2.7-0.1-5.6,0.8-9.1,3.4c-14.6,10.6,4.1,22.4-21.7,19.1c-25.8-3.3-35.8,9.5-29.7,22.5h190.4c0,0,9.5-12.1-1.1-20.4
	c-4.7-3.5-10.6-4.9-16.4-3.6c-2.9,0.5-5.7-1.5-6.2-4.4c-0.1-0.3-0.1-0.6-0.1-1c0.1-3.9-0.6-8.4-3.6-11c-3.6-3.3-11.2,0.1-16.9,3.6
	c-9.9,6-16.6,5.5-21.6,4.9c-2-0.3-10.1-1.8-15.2-8.4c-5.6-7.3-4.1-16.5-3.7-18.5c2.3-13.5,13.1-14.7,19.4-26
	c11.2-19.9-10-37.8-2.4-64.9c2.1-7.3,7-18.1,20.8-29.2C475.7,198.3,456.2,198.3,436.8,198.3z"/>
<path class="st17" d="M465.8-1.2c0,0-85,46.6-32.1,188.7H498C550.8,45.4,465.8-1.2,465.8-1.2z"/>
<polygon class="st18" points="498,187.4 495.1,198.3 436.8,198.3 433.7,186.1 "/>
<circle class="st0" cx="466.4" cy="82.1" r="21.9"/>
<circle class="st11" cx="306.8" cy="151" r="8.8"/>
<ellipse class="st5" cx="331.5" cy="151" rx="8.8" ry="8.8"/>
<circle class="st6" cx="355.1" cy="151" r="8.8"/>
<rect x="557" y="86.2" class="st19" width="118.1" height="81.9"/>
<rect x="584.9" y="133.4" class="st17" width="13.3" height="17"/>
<rect x="609.8" y="120.3" class="st17" width="13.3" height="30"/>
<rect x="634.1" y="107" class="st17" width="13.3" height="43.4"/>
<path class="st14" d="M472.8,387.3"/>
<path class="st17" d="M405,222.5"/>
<ellipse class="st20" cx="478.7" cy="483.4" rx="163.8" ry="18.6"/>
<path class="st11" d="M364.9,372c0,0-24.3,11.7-27.5,38.5c-3.2,26.8-12.1,78.7,53.9,75.8s97.1-6.6,81.6-57.1S364.9,372,364.9,372z"
	/>
<path class="st21" d="M362.4,386.1c-1.4,7.8,2.1,15.6,8.8,19.7c8.9,5.9,22.8,26.9,33.5,37.5c3.4,3.4,5.3,7.9,5.2,12.6
	c0,1.9,0.8,4,3.3,6.1c7.5,6.1,38.6,9.1,56-9.6s-5.6-27.9-5.6-27.9L387,383.1L362.4,386.1z"/>
<path class="st7" d="M531.7,477.5c0,0,1.6,4.1,5.7,5.1c4.1,0.9,6.3,6-2.6,5.2c-8.9-0.8-13.8,0.6-12.5-4.3c1.3-4.9,0.7-5.6,0.7-5.6
	L531.7,477.5z"/>
<path class="st7" d="M471.9,474c0,0-0.7,4.3,2.3,7.3s2.4,8.3-4.9,3.1c-7.3-5.2-12.2-6.5-8.6-10.1c3.6-3.6,3.4-4.5,3.4-4.5L471.9,474
	z"/>
<path class="st6" d="M479.7,412.1c0,0,54.5,0.6,53.9,65.5l-12.8,2.2c0,0-2.5-68.6-73.3-35.9l3.7-27L479.7,412.1z"/>
<polygon class="st11" points="484,352.3 488.7,353.6 485.3,350 "/>
<path class="st7" d="M409.7,384.5c0,0,9.4,23.8,32.4,19.6c23-4.2,31.7-52.4,31.7-52.4s9.1-5.9,4.7-12.5c-4.4-6.6-11.5,7.7-11.5,7.7
	s-9.9,40.6-31.3,27.4L409.7,384.5z"/>
<path class="st21" d="M409.7,384.5c0,0,9.4,23.8,32.4,19.6c23-4.2,31.7-52.4,31.7-52.4s9.1-5.9,4.7-12.5c-4.4-6.6-11.5,7.7-11.5,7.7
	s-9.9,40.6-31.3,27.4L409.7,384.5z"/>
<path class="st5" d="M410,336.2l5,1c0,0,38.4,20.8,31.3,41.7s8.4,40.7,8.4,40.7L421.3,443c0,0-43.6-21.7-37.1-81.2
	C384.2,361.9,387.2,334.1,410,336.2z"/>
<rect x="452.3" y="369.8" transform="matrix(0.4333 -0.9012 0.9012 0.4333 -63.2642 645.9914)" class="st0" width="59.6" height="7"/>
<polygon class="st7" points="408.2,310 401.2,334.4 414.9,337.2 414.5,318.4 "/>
<path class="st10" d="M414.7,322.4c-1.7-0.6-3.1-1.8-4.1-3.2c0,0-0.3,4.6,4.1,9.8V322.4z"/>
<path class="st7" d="M422.3,310.8c0,0-0.7,7.7-2.9,12.5c-0.8,1.9-3.2,2.9-5.1,1.9h-0.1c-2.4-1.1-5.3-3.4-5.4-7.5l-1.1-7.1
	c-0.1-2.9,1.6-5.6,4.3-6.7C416.9,301.4,423,306,422.3,310.8z"/>
<path class="st7" d="M413.1,315.8c0,0,0.5-2.9-1.8-3.1c-2.3-0.2-2.9,4.1,0,5L413.1,315.8z"/>
<path class="st7" d="M421.7,315.5l1.6,3.3c0.3,0.6,0.1,1.4-0.6,1.7c-0.2,0.1-0.3,0.1-0.5,0.1h-3L421.7,315.5z"/>
<rect x="471.5" y="330.7" transform="matrix(0.5 -0.866 0.866 0.5 -61.8131 581.6483)" class="st22" width="2.7" height="27.3"/>
<path class="st23" d="M428.9,430.1l-7.7,13c0,0-27.8-13.4-35.7-49.9c-8-36.4,18.3-22.2,18.3-22.2L428.9,430.1z"/>
<path class="st6" d="M421.3,443c0,0,25.7-52.4,63.7-52.2s-11.3,84.6-11.3,84.6l-12.5-5.1c0,0,18.6-36.2,13.9-47.9
	C470.3,410.8,463,491.2,421.3,443z"/>
<path class="st7" d="M399.3,339.1c0,0,11.4-5.8,17.2,6c5.8,11.8,1.2,62.5,24.8,65.2c23.6,2.7,35.5-21.9,35.5-21.9s1.9-10.4,5.2-12.1
	s6.1,9.1,0,15.5c0,0-10.4,39.1-43.4,39.9C405.6,432.6,366.7,365.9,399.3,339.1z"/>
<path class="st6" d="M422.4,300.7c0,0,7.5,8.8-2.2,10.7c-9.7,1.9-11.7,3.6-10.8,13.4c0.9,9.9,4.8,18.9-8.1,25.1s-1.8,16.5-4.2,28.7
	c-2.4,12.1-13.7,20.5-28.3,12.2c-14.5-8.2-23.5-29.4-7.9-42c15.6-12.6,35.1-15.7,35.1-36.1S412.3,291.2,422.4,300.7z"/>
<rect x="475.8" y="386.8" transform="matrix(0.3562 -0.9344 0.9344 0.3562 -58.0515 699.6581)" class="st5" width="5.8" height="10.3"/>
<rect x="475.8" y="386.8" transform="matrix(0.3562 -0.9344 0.9344 0.3562 -58.0515 699.6581)" class="st24" width="5.8" height="10.3"/>
<path class="st14" d="M680.6,207.9"/>
<polygon class="st7" points="72,424.1 52.2,422.4 51.9,430 72,432.3 "/>
<path class="st7" d="M136.5,355c11.7,1.9,23.7-1.2,32.9-8.7c0,0-0.2-9.1,6.7-10s9,9.8,2.5,13.5c-6.5,3.7-22.7,25.4-46.7,21.4
	C107.8,367.3,126.7,348.6,136.5,355z"/>
<path class="st8" d="M136.5,355c11.7,1.9,23.7-1.2,32.9-8.7c0,0-0.2-9.1,6.7-10s9,9.8,2.5,13.5c-6.5,3.7-22.7,25.4-46.7,21.4
	C107.8,367.3,126.7,348.6,136.5,355z"/>
<polygon class="st7" points="117.7,288.4 111.7,309.6 122.6,314.6 122.1,296.3 "/>
<path class="st10" d="M122.3,299.5c-2-0.6-4-1.5-5.8-2.6c0.2,3.9,2.4,7.5,5.9,9.3L122.3,299.5z"/>
<path class="st7" d="M126.3,286c0,0,2.1,7.2,1.9,12.3c-0.1,2.1-1.9,3.7-3.9,3.6c0,0,0,0,0,0c-2.6-0.2-6-1.1-7.6-4.8l-3.5-6
	c-1.2-2.6-0.6-5.7,1.5-7.6C118.1,279.7,125.2,281.6,126.3,286z"/>
<path class="st7" d="M127.4,290.7l2.6,2.4c0.5,0.4,0.6,1.2,0.1,1.7c-0.1,0.2-0.3,0.3-0.5,0.3l-2.7,1.1L127.4,290.7z"/>
<path class="st6" d="M125,282.6c0,0,4.8,6.6-5.2,11.3l-5.7,5.2c0,0-5.1-5.1-5.7-11C107.8,282.2,118.7,272.5,125,282.6z"/>
<path class="st7" d="M119.8,293.9c0,0-0.6-2.8-2.7-2.2c-2.1,0.6-1.2,4.7,1.8,4.5L119.8,293.9z"/>
<path class="st5" d="M149.2,354.2c-6.5,19.8-35,45.9-35,45.9L92,390.2l-17.3-7.7c0,0,0-0.1,0.1-0.1v-0.1c0-0.1,0.1-0.2,0.1-0.2
	c0.5-1,1.6-3.5,3-7l0.1-0.1c0.5-1.3,1-2.7,1.6-4.3c0-0.1,0-0.1,0.1-0.2c3.6-9.8,8.1-24.4,8.8-38.4c0.6-11.1,5.2-17,10-20.2
	c3.6-2.3,7.7-3.6,12-3.6l15.5,7.1C125.8,315.5,155.6,334.4,149.2,354.2z"/>
<path class="st8" d="M92,390.2l-17.3-7.7c0,0,0-0.1,0.1-0.1c0,0,0-0.1,0-0.1c0-0.1,0.1-0.2,0.1-0.2c0.5-1.1,1.8-4.1,3-7l0.1-0.1
	c0.7-1.6,1.3-3.2,1.6-4.3c0-0.1,0-0.1,0.1-0.2c3.6-9.8,8.1-24.4,8.8-38.4c0.6-11.1,5.2-17,10-20.2l13.4-2.4c0,0,24.1,28.9-0.4,39.4
	C91.2,357.7,93.7,383.1,92,390.2z"/>
<path class="st7" d="M129.1,437.7l0.1,26.7h-8.9c0,0-1.8-27.3-8.2-45.6l10.8-4C122.9,414.9,130.7,428.1,129.1,437.7z"/>
<ellipse class="st2" cx="119.4" cy="469.8" rx="90.6" ry="15.4"/>
<path class="st7" d="M94.2,333.7c16.8,10.6,33.7-12,19.1-25.3c-0.4-0.3-0.8-0.7-1.2-1c-9.7-7.9-20.7-18.9-42.9-14.9
	S38,312.3,38,339.5c0,0-7.3,19.1,3.9,17.9c9.1-1,2.6-13.6,2.6-13.6S57,320,66.2,312.4C71.8,307.9,81.3,325.7,94.2,333.7z"/>
<path class="st6" d="M74.6,382.6c0,0-7.6,14.3,5.4,23.3s25.1,2.4,36.1,34.9l13.3-2.3c0,0,0-30.2-15.3-38.4L74.6,382.6z"/>
<path class="st5" d="M125.6,459.6c0,0,7.1-2.9,7.4,1.8l0.1,1.4c0.1,2.4,2.1,4.4,4.5,4.5c0.8,0,1.6,0,2.5-0.1
	c1.6-0.2,3.1,0.8,3.3,2.4c0.2,1.1-0.3,2.3-1.3,2.9c-1.3,0.7-2.7,1.2-4.1,1.3c-9.3,1.3-16.5,2.4-17.9-1.3
	C118.6,468.9,116,461,125.6,459.6z"/>
<path class="st5" d="M54.7,427c0,0-0.5,7.7-4.9,5.8l-1.3-0.5c-2.3-1-4.9-0.1-6.1,2c-0.4,0.7-0.7,1.5-1,2.3c-0.4,1.6-2.1,2.4-3.6,2
	c-1.1-0.3-2-1.3-2.1-2.5c-0.1-1.5,0.1-2.9,0.6-4.3c2.9-8.9,5.1-15.8,9.1-15.5C49.4,416.7,57.7,417.9,54.7,427z"/>
<path class="st6" d="M98.7,399.7c0,0-2,34.3-17.4,34.3c-3.6,0-7.2-0.2-10.7-0.9l-0.6-11.6c0,0,12.3-0.1,7.5-26.5L98.7,399.7z"/>
<polygon class="st11" points="175.8,352.5 169,346 162.9,350 170.1,357.8 "/>
<path class="st6" d="M118.7,275c-1-3.5-3.6-6.2-7-7.5c-3.4-1.2-7.1-0.9-10.3,0.8c-0.9,0.5-1.7,1.1-2.4,1.8c-0.6,0.7-1,1.5-1.3,2.4
	c-1.6,4.5-0.1,9.6,3.8,12.5C108.4,289.8,121.3,284.2,118.7,275z"/>
<path class="st11" d="M44.5,343.8c-0.7-0.2-7.4-1.4-7.4-1.4l1-7l10,2L44.5,343.8z"/>
<path class="st7" d="M175.9,339.6c0.5,0,1.1,0.1,1.5,0.4c0.4,0.3,0.5,0.9,0.2,1.3c0,0,0,0,0,0.1c-0.2,0.1-0.4,0.2-0.6,0.3l-3.6,0.9
	c0.8,0.6,1.4,1.4,1.6,2.4c0.2,1,0,2-0.7,2.8c-0.7,0.7-1.8,0.9-2.7,0.4c-0.6-0.5-1.1-1.1-1.2-1.9c-0.3-1.5,0-3.1,0.6-4.6
	C171.8,339.8,174,339.5,175.9,339.6z"/>
<path class="st8" d="M175.9,339.6c0.5,0,1.1,0.1,1.5,0.4c0.4,0.3,0.5,0.9,0.2,1.3c0,0,0,0,0,0.1c-0.2,0.1-0.4,0.2-0.6,0.3l-3.6,0.9
	c0.8,0.6,1.4,1.4,1.6,2.4c0.2,1,0,2-0.7,2.8c-0.7,0.7-1.8,0.9-2.7,0.4c-0.6-0.5-1.1-1.1-1.2-1.9c-0.3-1.5,0-3.1,0.6-4.6
	C171.8,339.8,174,339.5,175.9,339.6z"/>
<rect x="170.4" y="326.6" transform="matrix(0.9087 -0.4175 0.4175 0.9087 -122.9662 106.6982)" class="st11" width="24.1" height="15.8"/>
<path class="st5" d="M778.4,219.1c2.1-7-1.7-14.4-8.4-16.5c-2.8-0.9-5.7-0.8-8.4,0.3c-7.8,3.2-16.6,9.7-23.8,22.6
	c-5.6,10.1-9.7,16.8-12.5,21.2c-2.5,3.9-7.6,4.9-11.3,2.3c-0.7-0.5-1.3-1.1-1.9-1.8l-23.9-31.8l-8.9,6.8c0,0,20.2,52.1,42.9,50
	C741.7,270.5,767.8,254.7,778.4,219.1z"/>
<path class="st25" d="M778.4,219.1c2.1-7-1.7-14.4-8.4-16.5c-2.8-0.9-5.7-0.8-8.4,0.3c-7.8,3.2-16.6,9.7-23.8,22.6
	c-5.6,10.1-9.7,16.8-12.5,21.2c-2.5,3.9-7.6,4.9-11.3,2.3c-0.7-0.5-1.3-1.1-1.9-1.8l-23.9-31.8l-8.9,6.8c0,0,20.2,52.1,42.9,50
	C741.7,270.5,767.8,254.7,778.4,219.1z"/>
<path class="st5" d="M763.8,369.7c0,0-1.3,3.8-4.7,4.1c-3.3,0.3-4.2,3.7-1.2,4.6c3,0.9,10.8-3.2,10.8-3.2l-0.2-5L763.8,369.7z"/>
<path class="st5" d="M805.9,369.7c0,0,1.3,3.8,4.7,4.1c3.3,0.3,4.2,3.7,1.2,4.6c-3,0.9-10.8-3.2-10.8-3.2l0.2-5L805.9,369.7z"/>
<path class="st7" d="M786.1,183.6c-1.4,2.8-2.4,5.9-3.1,9c-0.2,1.6,0.8,3,2.3,3.3c2.4,0.5,4.8-0.5,6.2-2.5l3.4-4
	c1.2-1.8,1.2-4.2,0-5.9C792.9,180,787.5,180.4,786.1,183.6z"/>
<polygon class="st7" points="793.2,187.9 794,206.6 784.1,206.3 787.5,192.8 "/>
<path class="st7" d="M784.7,186.9l-2.2,1.4c-0.4,0.3-0.5,0.8-0.3,1.3c0.1,0.1,0.2,0.2,0.3,0.3l1.8,1.3L784.7,186.9z"/>
<path class="st10" d="M786.7,195.9c1.3-0.2,2.5-0.7,3.4-1.6c0,0-0.5,3.4-4.5,6.4L786.7,195.9z"/>
<path class="st5" d="M770.3,201.1c16.4,0.3,32.6,3.9,47.7,10.6c9.3,4.1,13.7,15.3,9.8,25c-0.2,0.4-0.3,0.8-0.5,1.1l-25.9,53.7
	l-48.1-2.9c0,0-8.8-30.2-7-64.4C747,211.1,757.6,200.9,770.3,201.1z"/>
<path class="st6" d="M793.6,194.7l-3.4-1.9l-0.3-1.9c-1-1.5-1-3.5,0-5c0,0-6.6-3.3-5.1-6.2c1.5-2.9,6.4-6.7,11.2-3.1
	C800.7,180.2,803.1,186.8,793.6,194.7z"/>
<path class="st7" d="M789.7,190.5c0,0,0.8-2,2.3-1.2s0.2,3.7-1.9,3.2L789.7,190.5z"/>
<path class="st14" d="M797,204.6c-5.9-1.7-11.9-2.7-18-3c0,0-8.4,34.9-1.8,63C777.2,264.6,786.6,229.2,797,204.6z"/>
<path class="st21" d="M815.8,220.8c0,0-16.6,1.4-14.5,13.2c2.1,11.8-5.1,44.4-10,47.1l-15.7,8.8l25.6,1.6l8.4-17.4l16-32.9
	L815.8,220.8z"/>
<path class="st5" d="M797,204.6c0,0,0.3-4.2-2.6-4.4c-1.6-0.1-3.2,0-4.7,0.4c0,0-8.5-6.9-10.8,1C779,201.6,791.1,203,797,204.6z"/>
<path class="st26" d="M797,204.6c0,0,0.3-4.2-2.6-4.4c-1.6-0.1-3.2,0-4.7,0.4c0,0-8.5-6.9-10.8,1C779,201.6,791.1,203,797,204.6z"/>
<path class="st22" d="M791.1,203.3c0,0,1-3.3-1-3.7c-2-0.4-3.8-1.8-4.3,2.5C785.4,206.3,789.4,206.7,791.1,203.3z"/>
<path class="st6" d="M789.8,204.9c0,0-6.4,23.4-6.4,38.4l-6.1,21.2c-1.8-7.6-2.6-15.3-2.5-23.1c0,0,6.6-30.8,11.2-38L789.8,204.9z"
	/>
<ellipse class="st2" cx="785.8" cy="377.2" rx="103.7" ry="15.4"/>
<polygon class="st14" points="688.1,215.5 686.5,212.4 678.2,218.5 680.2,221.5 "/>
<path class="st7" d="M685.3,213.5c0,0-2.8-11.2-5.9-12.4c-3-1.2-0.5,5.7-0.5,5.7s-8.9,5.1,0,11.4L685.3,213.5z"/>
<path class="st6" d="M808.7,370.9l-7.4-79.3l-48.1-2.9l8.2,82.3h9.3c0,0-2.3-52.2,5-64.1v-0.1c1.3-2,3.9-2.5,5.8-1.2
	c0.6,0.4,1,0.9,1.3,1.5c10.1,19.5,16.1,63.8,16.1,63.8L808.7,370.9z"/>
<path class="st5" d="M823.9,215.9c0,0,41.2,38.9,36.4,50.4c-4.8,11.5-47.9,31.3-47.9,31.3l-5.1-6.7c0,0,23.7-23.3,23.8-26.3
	c0.2-2.9-8.9-6.7-16.8-17.1C806.4,237.2,799.5,212.6,823.9,215.9z"/>
<path class="st25" d="M823.9,215.9c0,0,41.2,38.9,36.4,50.4c-4.8,11.5-47.9,31.3-47.9,31.3l-5.1-6.7c0,0,23.7-23.3,23.8-26.3
	c0.2-2.9-8.9-6.7-16.8-17.1C806.4,237.2,799.5,212.6,823.9,215.9z"/>
<path class="st7" d="M807.3,290.9c0,0-5.5,4-5.8,5.8c-0.3,1.8,0.4,8.8,2,9.4c1.6,0.6,5.8-0.8,4.9-1.7l-1.4-1.5c0,0,5-2.6,5.4-5.3
	L807.3,290.9z"/>
</svg>
