<?xml version="1.0" encoding="utf-8"?>
<!-- Generator: Adobe Illustrator 24.0.2, SVG Export Plug-In . SVG Version: 6.00 Build 0)  -->
<svg version="1.1" id="b8669117-6177-4f3a-a75c-05852d999d53"
	 xmlns="http://www.w3.org/2000/svg" xmlns:xlink="http://www.w3.org/1999/xlink" x="0px" y="0px" viewBox="0 0 900 500"
	 style="enable-background:new 0 0 900 500;" xml:space="preserve">
<style type="text/css">
	.st0{opacity:0.45;fill:#E6E6E6;enable-background:new    ;}
	.st1{fill:#F2F2F2;}
	.st2{fill:#FFFFFF;}
	.st3{fill:#E6E6E6;}
	.st4{fill:#F9A826;}
	.st5{fill:#EF5015;}
	.st6{fill:#313433;}
	.st7{opacity:0.44;fill:#FFFFFF;enable-background:new    ;}
	.st8{fill:#F4A28C;}
	.st9{opacity:0.31;fill:#CE8172;enable-background:new    ;}
	.st10{opacity:9.000000e-02;enable-background:new    ;}
	.st11{opacity:8.000000e-02;enable-background:new    ;}
	.st12{fill:#FFD200;}
	.st13{opacity:8.000000e-02;}
	.st14{opacity:0.2;fill:#FFFFFF;enable-background:new    ;}
	.st15{fill:#C1C1C1;}
	.st16{fill:#2C2E2D;}
	.st17{opacity:0.58;fill:#EF5015;enable-background:new    ;}
	.st18{opacity:0.73;fill:#EF5015;enable-background:new    ;}
	.st19{fill:#24285B;}
</style>
<ellipse class="st0" cx="761.3" cy="465" rx="93.3" ry="21.3"/>
<ellipse class="st0" cx="171.8" cy="422" rx="125.2" ry="21.3"/>
<path class="st1" d="M706.5,352.6H260.1c-6.4,0-11.5-6-11.5-13.2V22.7c0-5.3,3.8-9.7,8.4-9.7h452.5c4.7,0,8.5,4.4,8.5,9.9v316.4
	C718,346.7,712.9,352.6,706.5,352.6z"/>
<path class="st2" d="M687.8,336.3H277.8c-6,0-10.9-5.2-10.9-11.6V55.2c0-4.7,3.6-8.6,8.1-8.6h415.4c4.6,0,8.2,3.9,8.2,8.8v269.3
	C698.7,331.1,693.9,336.3,687.8,336.3z"/>
<path class="st3" d="M286.6,253.2h134.1c5.4,0,9.7,3.8,9.7,8.3l0,0c0,4.6-4.3,8.3-9.7,8.3H286.6c-5.4,0-9.7-3.8-9.7-8.3l0,0
	C276.8,256.9,281.2,253.2,286.6,253.2z"/>
<path class="st3" d="M286.6,280.9h134.1c5.4,0,9.7,3.8,9.7,8.3l0,0c0,4.6-4.3,8.3-9.7,8.3H286.6c-5.4,0-9.7-3.8-9.7-8.3l0,0
	C276.8,284.6,281.2,280.9,286.6,280.9z"/>
<path class="st3" d="M286.6,308h134.1c5.4,0,9.7,3.8,9.7,8.3l0,0c0,4.6-4.3,8.3-9.7,8.3H286.6c-5.4,0-9.7-3.8-9.7-8.3l0,0
	C276.8,311.8,281.2,308,286.6,308z"/>
<path class="st4" d="M376.2,84.1c-0.4,0-1-0.2-1.3-0.4l-3.3-2.4c-0.5-0.4-1.3-0.4-1.9,0l-3.3,2.4c-1.1,0.7-2.5,0.5-3.2-0.5
	c-0.4-0.6-0.5-1.3-0.4-2.1l1.3-3.9c0.2-0.6,0-1.3-0.5-1.8l-3.3-2.4c-1.1-0.7-1.3-2.2-0.5-3.2c0.4-0.6,1.2-1,1.9-1h4
	c0.7,0,1.3-0.4,1.5-1.1l1.3-3.9c0.4-1.3,1.7-1.9,3-1.5c0.7,0.3,1.3,0.8,1.5,1.5l1.3,3.9c0.2,0.6,0.8,1.1,1.5,1.1h4
	c1.3,0,2.3,1.1,2.3,2.3c0,0.7-0.4,1.4-1,1.9l-3.3,2.4c-0.5,0.4-0.8,1.2-0.5,1.8l1.3,3.9c0.4,1,0,2-0.8,2.6
	C377.2,84,376.7,84.1,376.2,84.1z"/>
<path class="st4" d="M409.5,84.1c-0.4,0-1-0.2-1.3-0.4l-3.3-2.4c-0.5-0.4-1.3-0.4-1.9,0l-3.3,2.4c-1.1,0.7-2.5,0.5-3.2-0.5
	c-0.4-0.6-0.5-1.3-0.4-2.1l1.3-3.9c0.2-0.6,0-1.3-0.5-1.8l-3.3-2.4c-1.1-0.7-1.3-2.2-0.5-3.2c0.4-0.6,1.2-1,1.9-1h4
	c0.7,0,1.3-0.4,1.5-1.1l1.3-3.9c0.4-1.3,1.7-1.9,3-1.5c0.7,0.3,1.3,0.8,1.5,1.5l1.3,3.9c0.2,0.6,0.8,1.1,1.5,1.1h4
	c1.3,0,2.3,1.1,2.3,2.3c0,0.7-0.4,1.4-1,1.9l-3.3,2.4c-0.5,0.4-0.8,1.2-0.5,1.8l1.3,3.9c0.4,1,0,2-0.8,2.6
	C410.5,84,410.1,84.1,409.5,84.1z"/>
<path class="st4" d="M442.8,84.1c-0.4,0-1-0.2-1.3-0.4l-3.3-2.4c-0.5-0.4-1.3-0.4-1.9,0l-3.3,2.4c-1.1,0.7-2.5,0.5-3.2-0.5
	c-0.4-0.6-0.5-1.3-0.4-2.1l1.3-3.9c0.2-0.6,0-1.3-0.5-1.8l-3.3-2.4c-1.1-0.7-1.3-2.2-0.5-3.2c0.4-0.6,1.2-1,1.9-1h4
	c0.7,0,1.3-0.4,1.5-1.1l1.3-3.9c0.4-1.3,1.7-1.9,3-1.5c0.7,0.3,1.3,0.8,1.5,1.5l1.3,3.9c0.2,0.6,0.8,1.1,1.5,1.1h4
	c1.3,0,2.3,1.1,2.3,2.3c0,0.7-0.4,1.4-1,1.9l-3.3,2.4c-0.5,0.4-0.8,1.2-0.5,1.8l1.3,3.9c0.4,1,0,2-0.8,2.6
	C443.8,84,443.4,84.1,442.8,84.1z"/>
<path class="st4" d="M376.1,137.1c-0.4,0-1-0.2-1.3-0.4l-3.3-2.4c-0.5-0.4-1.3-0.4-1.9,0l-3.3,2.4c-1.1,0.7-2.5,0.5-3.2-0.5
	c-0.4-0.6-0.5-1.3-0.4-2.1l1.3-3.9c0.2-0.6,0-1.3-0.5-1.8l-3.3-2.4c-1.1-0.7-1.3-2.2-0.5-3.2c0.4-0.6,1.2-1,1.9-1h4
	c0.7,0,1.3-0.4,1.5-1.1l1.3-3.9c0.4-1.3,1.7-1.9,3-1.5c0.7,0.3,1.3,0.8,1.5,1.5l1.3,3.9c0.2,0.6,0.8,1.1,1.5,1.1h4
	c1.3,0,2.3,1.1,2.3,2.3c0,0.7-0.4,1.4-1,1.9l-3.3,2.4c-0.5,0.4-0.8,1.2-0.5,1.8l1.3,3.9c0.4,1,0,2-0.8,2.6
	C377.1,136.9,376.6,137.1,376.1,137.1z"/>
<path class="st4" d="M409.4,137.1c-0.4,0-1-0.2-1.3-0.4l-3.3-2.4c-0.5-0.4-1.3-0.4-1.9,0l-3.3,2.4c-1.1,0.7-2.5,0.5-3.2-0.5
	c-0.4-0.6-0.5-1.3-0.4-2.1l1.3-3.9c0.2-0.6,0-1.3-0.5-1.8l-3.3-2.4c-1.1-0.7-1.3-2.2-0.5-3.2c0.4-0.6,1.2-1,1.9-1h4
	c0.7,0,1.3-0.4,1.5-1.1l1.3-3.9c0.4-1.3,1.7-1.9,3-1.5c0.7,0.3,1.3,0.8,1.5,1.5l1.3,3.9c0.2,0.6,0.8,1.1,1.5,1.1h4
	c1.3,0,2.3,1.1,2.3,2.3c0,0.7-0.4,1.4-1,1.9l-3.3,2.4c-0.5,0.4-0.8,1.2-0.5,1.8l1.3,3.9c0.4,1,0,2-0.8,2.6
	C410.4,136.9,410,137.1,409.4,137.1z"/>
<path class="st4" d="M442.7,137.1c-0.4,0-1-0.2-1.3-0.4l-3.3-2.4c-0.5-0.4-1.3-0.4-1.9,0l-3.3,2.4c-1.1,0.7-2.5,0.5-3.2-0.5
	c-0.4-0.6-0.5-1.3-0.4-2.1l1.3-3.9c0.2-0.6,0-1.3-0.5-1.8l-3.3-2.4c-1.1-0.7-1.3-2.2-0.5-3.2c0.4-0.6,1.2-1,1.9-1h4
	c0.7,0,1.3-0.4,1.5-1.1l1.3-3.9c0.4-1.3,1.7-1.9,3-1.5c0.7,0.3,1.3,0.8,1.5,1.5l1.3,3.9c0.2,0.6,0.8,1.1,1.5,1.1h4
	c1.3,0,2.3,1.1,2.3,2.3c0,0.7-0.4,1.4-1,1.9l-3.3,2.4c-0.5,0.4-0.8,1.2-0.5,1.8l1.3,3.9c0.4,1,0,2-0.8,2.6
	C443.7,136.9,443.3,137.1,442.7,137.1z"/>
<path class="st4" d="M475.9,137c-0.4,0-1-0.2-1.3-0.4l-3.3-2.4c-0.5-0.4-1.3-0.4-1.9,0l-3.3,2.4c-1.1,0.7-2.5,0.5-3.2-0.5
	c-0.4-0.6-0.5-1.3-0.4-2.1l1.3-3.9c0.2-0.6,0-1.3-0.5-1.8l-3.3-2.4c-1.1-0.7-1.3-2.2-0.5-3.2c0.4-0.6,1.2-1,1.9-1h4
	c0.7,0,1.3-0.4,1.5-1.1l1.3-3.9c0.4-1.3,1.7-1.9,3-1.5c0.7,0.3,1.3,0.8,1.5,1.5l1.3,3.9c0.2,0.6,0.8,1.1,1.5,1.1h4
	c1.3,0,2.3,1.1,2.3,2.3c0,0.7-0.4,1.4-1,1.9l-3.3,2.4c-0.5,0.4-0.8,1.2-0.5,1.8l1.3,3.9c0.4,1,0,2-0.8,2.6
	C476.9,136.8,476.4,137,475.9,137z"/>
<path class="st5" d="M212,414.6c0,0,6,5.6,12.5,3c6.5-2.7,11.2,2.6,6.5,7c-4.7,4.4-22.8,4.7-22.8,4.7l-5.4-11.6L212,414.6z"/>
<path class="st5" d="M111.1,412c0,0-3,7.7,2,12.7s1.9,11.4-4,8.6c-5.8-2.8-12.9-19.4-12.9-19.4l8.7-9.4L111.1,412z"/>
<path class="st6" d="M95,267.9c0,0-6.4,25,4.7,37.4s28,70.7,0,99.9l11,10.3c0,0,48.3-24.6,34.5-113.4l34.5-34.1H95z"/>
<path class="st5" d="M179.6,125.3c0,0,34.1,8.7,34.3,36.9c0.3,28.2-15.1,77.7,6.8,81.7c21.9,4,35-57,35-57l15.7,6.3
	c0,0-16.7,104.3-74.1,87.1C139.9,263.1,179.6,125.3,179.6,125.3z"/>
<path class="st7" d="M179.6,125.3c0,0,34.1,8.7,34.3,36.9c0.3,28.2-15.1,77.7,6.8,81.7c21.9,4,35-57,35-57l15.7,6.3
	c0,0-16.7,104.3-74.1,87.1C139.9,263.1,179.6,125.3,179.6,125.3z"/>
<polygon class="st8" points="149,79 138.6,115.7 159.2,119.9 158.5,91.6 "/>
<path class="st9" d="M158.9,97.7c-2.5-0.9-4.7-2.6-6.3-4.7c0,0-0.5,7,6.3,14.7V97.7z"/>
<path class="st5" d="M138.6,115.7l12.2,2.5c0,0,55.9,6,58.1,37.5c2.2,31.5-29.3,112.2-29.3,112.2H95
	C95,267.9,27.2,107.2,138.6,115.7z"/>
<path class="st10" d="M131.3,144.9c0,0,6.8,19.7-11.1,32.5c-17.9,12.9-9.1,61.3,10.4,69.1c19.5,7.8-12.3,24.5-25.8,17.6
	s-15.5-11.5-15.5-11.5s-12.6-36.5-14-59.7S131.3,144.9,131.3,144.9z"/>
<path class="st5" d="M131.3,144.9c0-17.4-17.6-29.2-34-23.7c-14.3,4.7-31.8,13.3-42.5,29.3c-20.4,30.6-67.1,120.3,51.4,123.6
	l3.5-13.2c0,0-71.1-19.7-39.7-61.3C94.4,167.3,131.3,169.4,131.3,144.9z"/>
<path class="st7" d="M131.3,144.9c0-17.4-17.6-29.2-34-23.7c-14.3,4.7-31.8,13.3-42.5,29.3c-20.4,30.6-67.1,120.3,51.4,123.6
	l3.5-13.2c0,0-71.1-19.7-39.7-61.3C94.4,167.3,131.3,169.4,131.3,144.9z"/>
<path class="st8" d="M259.5,188.5c0,0,0.9-15.1,7-19.4c6.1-4.3,5,6.5,5,6.5s6-7.1,11.1-3.8c5.1,3.3-11.1,21.4-11.1,21.4L259.5,188.5
	z"/>
<path class="st8" d="M170.3,80.1c0,0-1.1,11.6-4.3,18.8c-1.3,3-4.7,4.2-7.7,3h-0.1c-4.7-1.8-8-6.3-8.2-11.3L148.3,80
	c-0.2-4.4,2.4-8.5,6.5-10.1C162.2,66.2,171.3,73,170.3,80.1z"/>
<path class="st8" d="M169.3,87.4l2.4,5c0.4,0.9,0.1,2.1-0.9,2.5c-0.3,0.1-0.5,0.2-0.8,0.2h-4.5L169.3,87.4z"/>
<path class="st6" d="M179.6,267.9L215,415.4l-17.6,2.6c0,0-35.4-101.1-58.8-121.8L179.6,267.9z"/>
<path class="st8" d="M109.1,262.8c0,0,12.6-2,16.8,6.7c4.2,8.7-19.9,4.7-19.9,4.7L109.1,262.8z"/>
<path class="st6" d="M145.5,91.2l7.1-1.7l4.3-2.2c0,0,3.1-0.2,2-7.7c0,0,15.2,5.3,17.2-3.8c2.2-9.9-9.1-14.2-17.2-13.3
	c-4.7,0.5-8.9,3.8-10.6,8.2C148.4,70.7,135.7,68.7,145.5,91.2z"/>
<path class="st8" d="M156.4,87.7c0,0,0.7-4.4-2.7-4.7c-3.4-0.3-4.4,6.1,0,7.5L156.4,87.7z"/>
<circle class="st11" cx="282.7" cy="126.4" r="54.6"/>
<path class="st10" d="M335.7,88.5c-9.1,0.2-2.6,56.8-41.8,85.8c-4.3,3.1-8.2,5.3-11.1,6.8c5.8,1.3,18.6,3.3,33.4-1.7
	c3.3-1.1,17.2-5.8,26.2-17.4C363.4,135,344,88.3,335.7,88.5z"/>
<circle class="st12" cx="282.7" cy="126.4" r="54.6"/>
<g class="st13">
	<circle cx="285.4" cy="110" r="54.6"/>
</g>
<circle class="st11" cx="282.7" cy="126.4" r="54.6"/>
<circle class="st12" cx="285.4" cy="110" r="54.6"/>
<path class="st2" d="M300.8,134c-1,0-2.2-0.4-3-1l-7.3-5.3c-1.2-1-3-1-4.1,0l-7.3,5.3c-2.3,1.6-5.5,1.2-7.1-1.2
	c-1-1.3-1.2-3-0.8-4.6l2.8-8.4c0.4-1.3,0-3-1.2-3.9l-7.3-5.3c-2.3-1.6-2.8-4.9-1.2-7.1c1-1.3,2.6-2.2,4.1-2.2h8.9c1.6,0,3-1,3.3-2.3
	l2.8-8.4c0.8-2.8,3.8-4.1,6.5-3.3c1.6,0.6,2.8,1.8,3.3,3.3l2.8,8.4c0.4,1.3,1.8,2.3,3.3,2.3h8.9c2.8,0,5.1,2.3,5.1,5.1
	c0,1.6-0.8,3.1-2.2,4.1l-7.3,5.3c-1.2,1-1.8,2.6-1.2,3.9l2.8,8.4c0.8,2.2,0,4.3-1.8,5.7C302.9,133.6,301.9,134,300.8,134z"/>
<path class="st6" d="M476.1,83.8c-0.4,0-1-0.2-1.3-0.4l-3.3-2.4c-0.5-0.4-1.3-0.4-1.9,0l-3.3,2.4c-1.1,0.7-2.5,0.5-3.2-0.5
	c-0.4-0.6-0.5-1.3-0.4-2.1l1.3-3.9c0.2-0.6,0-1.3-0.5-1.8l-3.3-2.4c-1.1-0.7-1.3-2.2-0.5-3.2c0.4-0.6,1.2-1,1.9-1h4
	c0.7,0,1.3-0.4,1.5-1.1l1.3-3.9c0.4-1.3,1.7-1.9,3-1.5c0.7,0.3,1.3,0.8,1.5,1.5l1.3,3.9c0.2,0.6,0.8,1.1,1.5,1.1h4
	c1.3,0,2.3,1.1,2.3,2.3c0,0.7-0.4,1.4-1,1.9l-3.3,2.4c-0.5,0.4-0.8,1.2-0.5,1.8l1.3,3.9c0.4,1,0,2-0.8,2.6
	C477.1,83.6,476.6,83.8,476.1,83.8z"/>
<path class="st6" d="M509,84.1c-0.4,0-1-0.2-1.3-0.4l-3.3-2.4c-0.5-0.4-1.3-0.4-1.9,0l-3.3,2.4c-1.1,0.7-2.5,0.5-3.2-0.5
	c-0.4-0.6-0.5-1.3-0.4-2.1l1.3-3.9c0.2-0.6,0-1.3-0.5-1.8L493,73c-1.1-0.7-1.3-2.2-0.5-3.2c0.4-0.6,1.2-1,1.9-1h4
	c0.7,0,1.3-0.4,1.5-1.1l1.3-3.9c0.4-1.3,1.7-1.9,3-1.5c0.7,0.3,1.3,0.8,1.5,1.5l1.3,3.9c0.2,0.6,0.8,1.1,1.5,1.1h4
	c1.3,0,2.3,1.1,2.3,2.3c0,0.7-0.4,1.4-1,1.9l-3.3,2.4c-0.5,0.4-0.8,1.2-0.5,1.8l1.3,3.9c0.4,1,0,2-0.8,2.6
	C510,84,509.6,84.1,509,84.1z"/>
<path class="st6" d="M509,137.1c-0.4,0-1-0.2-1.3-0.4l-3.3-2.4c-0.5-0.4-1.3-0.4-1.9,0l-3.3,2.4c-1.1,0.7-2.5,0.5-3.2-0.5
	c-0.4-0.6-0.5-1.3-0.4-2.1l1.3-3.9c0.2-0.6,0-1.3-0.5-1.8L493,126c-1.1-0.7-1.3-2.2-0.5-3.2c0.4-0.6,1.2-1,1.9-1h4
	c0.7,0,1.3-0.4,1.5-1.1l1.3-3.9c0.4-1.3,1.7-1.9,3-1.5c0.7,0.3,1.3,0.8,1.5,1.5l1.3,3.9c0.2,0.6,0.8,1.1,1.5,1.1h4
	c1.3,0,2.3,1.1,2.3,2.3c0,0.7-0.4,1.4-1,1.9l-3.3,2.4c-0.5,0.4-0.8,1.2-0.5,1.8l1.3,3.9c0.4,1,0,2-0.8,2.6
	C510,136.9,509.6,137.1,509,137.1z"/>
<path class="st5" d="M798.7,223.7c0,0,75.9,55.4,34.8,150.7h-11.2c0,0,6-69.2-23.5-101.9C769.2,239.8,798.7,223.7,798.7,223.7z"/>
<path class="st14" d="M798.7,223.7c0,0,75.9,55.4,34.8,150.7h-11.2c0,0,6-69.2-23.5-101.9C769.2,239.8,798.7,223.7,798.7,223.7z"/>
<polygon class="st8" points="778,193.8 771.6,213.7 786.9,223.7 792.4,189.3 "/>
<path class="st8" d="M797.6,170c-2.6-6.3-9.6-9.2-15.7-6.5c-1.6,0.7-3.1,1.8-4.3,3.1c-6.5,7.2-14.3,18.5-5.5,24.7
	c13.6,9.5,26.2-8.2,26.2-8.2C799.3,178.8,799.2,174.2,797.6,170z"/>
<path class="st8" d="M664.7,182.9c0,0,3.5-3,5.1,1.3c1.6,4.3-4.6,6.3-6.5,4.1C661.5,186.1,664.7,182.9,664.7,182.9z"/>
<path class="st5" d="M804.8,233.5c-4.7-10.7-13.6-18.7-24.5-22c-20.8-6.5-59.1,0.6-70.9,20.6c-15.9,27.4,7.4,114.3,7.4,114.3
	l69.9,5.6C786.6,352,825.2,280.7,804.8,233.5z"/>
<polygon class="st6" points="716.7,346.4 726,469.9 740.5,469.9 753.5,374 785.6,352 "/>
<polygon class="st6" points="785.6,352 805.8,469.9 790.2,469.9 756.4,372 "/>
<path class="st11" d="M774.2,209.6c0,0,32.8,108.2-61.9,115.5l4.4,21.4l69.9,5.6c0,0,24.8-39.8,23.7-95.6c0,0-0.6-27.6-19.5-39.8
	C785.8,213.1,780.1,210.7,774.2,209.6z"/>
<path class="st5" d="M802.1,469.7l9.4,7.3c1,0.5,1.3,1.8,0.7,2.8c-0.4,0.7-1.2,1.1-2,1h-15.8c-1.1,0-2-0.9-2-2.1v-8.8L802.1,469.7z"
	/>
<path class="st5" d="M727.8,469.7l-8.9,7.1c-1,0.5-1.3,1.8-0.8,2.8c0.4,0.7,1.3,1.2,2.1,1h11.2c3.3,0,6-2.8,6-6.2v-4.8L727.8,469.7z
	"/>
<path class="st8" d="M831.7,374.4c0,0-1.5,23.2-12.3,17.1c-10.7-6,2.8-17.1,2.8-17.1H831.7z"/>
<path class="st6" d="M797.1,188.5c0,0-4.4,8.1-11.6,5.6s-2-20-2-20s-8.7-12.8-7.4-23c0.7-5.6,8-6.5,10.6-1.4
	c1.6,3.2,4.8,5.3,8.3,5.4C807.3,156.4,818.5,176.2,797.1,188.5z"/>
<path class="st5" d="M747.6,241.7c4.2-9.4,0.3-20.5-8.9-24.8c-5.4-2.6-11.6-2.3-16.8,0.7c-11.4,6.6-22.9,18.4-27.4,39.1
	c-10.2,46.9-13,103.7-13,103.7l11.7,1.3c0,0,12.9-58.4,34.9-90.2C733.5,263.8,743,251.9,747.6,241.7z"/>
<path class="st14" d="M747.6,241.7c4.2-9.4,0.3-20.5-8.9-24.8c-5.4-2.6-11.6-2.3-16.8,0.7c-11.4,6.6-22.9,18.4-27.4,39.1
	c-10.2,46.9-13,103.7-13,103.7l11.7,1.3c0,0,12.9-58.4,34.9-90.2C733.5,263.8,743,251.9,747.6,241.7z"/>
<path class="st8" d="M690.9,361.3c0,0,6,17.1-1.6,18.1c-9.9,1.3-7.8-19.2-7.8-19.2L690.9,361.3z"/>
<path class="st2" d="M619.1,134.2h-3.7v9.2h-5.7v3h9.3L619.1,134.2z"/>
<rect x="585.1" y="104" class="st15" width="18.4" height="23.5"/>
<rect x="619.4" y="86" class="st15" width="18.4" height="41.5"/>
<rect x="653" y="67.6" class="st15" width="18.4" height="59.9"/>
<circle class="st12" cx="658.3" cy="28.9" r="6.5"/>
<ellipse class="st5" cx="676.4" cy="28.9" rx="6.5" ry="6.5"/>
<circle class="st16" cx="693.8" cy="28.9" r="6.5"/>
<path class="st17" d="M331.6,452.8c0,0-19.6-5.4-23.8-23.6c0,0,30.4-6.1,31.2,25.4L331.6,452.8z"/>
<path class="st18" d="M334,450.8c0,0-13.7-21.7-1.6-41.8c0,0,23.1,14.6,12.8,41.9L334,450.8z"/>
<path class="st5" d="M337.6,450.9c0,0,7.3-22.8,29.1-27.1c0,0,4.1,14.9-14.2,27.2L337.6,450.9z"/>
<polygon class="st19" points="323.3,450.4 327.3,477.5 352.4,477.6 356,450.4 "/>
<path d="M208.6,46.5"/>
</svg>
