<?xml version="1.0" encoding="utf-8"?>
<!-- Generator: Adobe Illustrator 24.0.2, SVG Export Plug-In . SVG Version: 6.00 Build 0)  -->
<svg version="1.1" id="a115e649-e6de-4a08-abb2-c2a69b6ac895"
	 xmlns="http://www.w3.org/2000/svg" xmlns:xlink="http://www.w3.org/1999/xlink" x="0px" y="0px" viewBox="0 0 900 500"
	 style="enable-background:new 0 0 900 500;" xml:space="preserve">
<style type="text/css">
	.st0{fill:#E6E6E6;}
	.st1{fill:#C1C1C1;}
	.st2{fill:#878787;}
	.st3{fill:#2C2E2D;}
	.st4{fill:#3F3D56;}
	.st5{fill:#CCCCCC;}
	.st6{opacity:0.58;fill:#EF5015;enable-background:new    ;}
	.st7{opacity:0.73;fill:#EF5015;enable-background:new    ;}
	.st8{fill:#EF5015;}
	.st9{opacity:8.000000e-02;enable-background:new    ;}
	.st10{fill:#A5A5A5;}
	.st11{fill:#F2F2F2;}
	.st12{fill:#FFFFFF;}
	.st13{fill:#FFD200;}
	.st14{fill:#F4A28C;}
	.st15{opacity:0.2;fill:#FFFFFF;enable-background:new    ;}
	.st16{opacity:0.32;fill:#A5A5A5;enable-background:new    ;}
</style>
<title>season_change</title>
<circle class="st0" cx="87" cy="74.1" r="40.6"/>
<ellipse class="st0" cx="459.5" cy="473" rx="406.8" ry="15.9"/>
<circle class="st1" cx="121.5" cy="173.8" r="99.8"/>
<polygon class="st2" points="131.2,474.6 110.7,474.6 120,158.8 "/>
<polygon class="st3" points="121.8,218.6 143.8,188.3 121.5,226.1 119.1,222 "/>
<polygon class="st3" points="119.4,249.3 97.5,219 119.8,256.9 122.2,252.7 "/>
<polygon class="st2" points="812.8,474.9 792.4,474.9 801.7,159.2 "/>
<polygon class="st4" points="803.5,219 825.4,188.6 803.2,226.5 800.8,222.3 "/>
<polygon class="st3" points="801,249.6 779.1,219.3 801.4,257.2 803.8,253 "/>
<path class="st0" d="M866.3,48.4c-1.2-21.8-19.9-38.4-41.6-37.2c-16.9,1-31.3,12.5-35.8,28.9c-0.4,0-1,0-1.4,0
	c-17.5,0-33,11.6-37.9,28.4c-11.7-5.1-25.3-1.7-33.1,8.2h123.2c14.8,0,26.8-11.8,26.8-26.6c0-0.4,0-0.7,0-1.1
	C866.3,48.7,866.3,48.6,866.3,48.4z"/>
<circle class="st0" cx="763.4" cy="120.8" r="10.6"/>
<circle class="st0" cx="795.4" cy="95.8" r="8.8"/>
<circle class="st0" cx="838.5" cy="143.8" r="10.6"/>
<circle class="st0" cx="758.1" cy="192.4" r="10.6"/>
<circle class="st0" cx="838.5" cy="253.4" r="10.6"/>
<path class="st0" d="M821.7,457.8c0-0.1,0-0.3,0-0.4c0-5.8-4.7-10.6-10.6-10.6c-1.5,0-3,0.4-4.4,1c-3.8-4.4-10.5-4.9-14.9-1.1
	c-2.8,2.5-4.2,6.2-3.4,9.8c-0.1,0-0.1,0-0.2,0c-5.8,0-10.6,4.8-10.6,10.6c0,5.8,4.8,10.6,10.6,10.6c2.4,0,4.7-0.8,6.5-2.2
	c2.7,5.2,9.1,7.2,14.2,4.6c1.6-0.8,2.9-2,4-3.5c4.8,3.4,11.4,2.4,14.8-2.3c3.4-4.8,2.4-11.4-2.3-14.8
	C824.3,458.7,823,458.1,821.7,457.8z"/>
<circle class="st0" cx="848.2" cy="211" r="4.4"/>
<circle class="st0" cx="819.9" cy="104.9" r="4.4"/>
<circle class="st0" cx="804.9" cy="214.5" r="4.4"/>
<circle class="st0" cx="808.5" cy="210.1" r="4.4"/>
<circle class="st0" cx="811.1" cy="205.7" r="4.4"/>
<circle class="st0" cx="800.5" cy="242.8" r="4.4"/>
<circle class="st0" cx="865.9" cy="292.2" r="4.4"/>
<circle class="st0" cx="771.3" cy="294.9" r="4.4"/>
<circle class="st0" cx="776.7" cy="158.8" r="4.4"/>
<circle class="st0" cx="797" cy="238.3" r="4.4"/>
<circle class="st0" cx="792.6" cy="231.3" r="4.4"/>
<rect x="199.5" y="461.2" class="st0" width="72.8" height="13.4"/>
<rect x="199.5" y="447.6" class="st5" width="64.1" height="13.4"/>
<path class="st6" d="M241.2,432.8c0,0-11.8-3.2-14.2-14.1c0,0,18.2-3.7,18.6,15.1L241.2,432.8z"/>
<path class="st7" d="M242.7,431.6c0,0-8.2-13-1-25c0,0,13.8,8.7,7.7,25.1L242.7,431.6z"/>
<path class="st8" d="M244.8,431.6c0,0,4.3-13.7,17.4-16.3c0,0,2.5,8.8-8.5,16.3H244.8z"/>
<polygon class="st3" points="236.3,431.3 238.6,447.5 253.6,447.6 255.8,431.4 "/>
<path class="st8" d="M334.5,225.6c0,0,30.3-15.5,64.5-3.7c34.2,11.8-32.2,31.1-32.2,31.1L334.5,225.6z"/>
<path class="st9" d="M334.5,225.6c0,0,30.3-15.5,64.5-3.7c34.2,11.8-32.2,31.1-32.2,31.1L334.5,225.6z"/>
<path class="st8" d="M297.6,236.8c0,0-20.8,11.9-26,41.5c-5.2,29.5,65.8,69.4,65.8,69.4l44.1-33.1c0,0,26.2-115.4-65.9-84.4
	L297.6,236.8z"/>
<rect x="366.7" y="170.6" class="st1" width="250.4" height="287.9"/>
<rect x="552.9" y="333.8" class="st3" width="35" height="32.3"/>
<rect x="552.9" y="381.6" class="st10" width="35" height="32.3"/>
<path class="st9" d="M562.6,356.6c-5.2,1.2-18.4,4.9-28.3,16.9c-13.2,16-13.9,38.7-5.7,55.8c9.2,19.2,29.3,31.3,51.5,31
	c5.6-0.6,11.2-1.1,16.8-1.7L562.6,356.6z"/>
<polygon class="st3" points="337.4,347.7 367.4,387.5 366.7,325.6 "/>
<rect x="362.6" y="149.7" class="st8" width="259" height="72.1"/>
<rect x="412.6" y="122.9" class="st11" width="20.8" height="62.8"/>
<rect x="433.4" y="149.2" class="st9" width="13.7" height="36.5"/>
<rect x="570.4" y="149.2" class="st9" width="13.7" height="36.5"/>
<rect x="549.7" y="122.9" class="st11" width="20.8" height="62.8"/>
<rect x="400.8" y="250.5" class="st3" width="56.8" height="17.2"/>
<rect x="402.5" y="286.3" class="st12" width="35" height="32.3"/>
<rect x="453.3" y="286.3" class="st0" width="35" height="32.3"/>
<rect x="503.6" y="286.3" class="st13" width="35" height="32.3"/>
<rect x="552.9" y="286.3" class="st3" width="35" height="32.3"/>
<path class="st12" d="M296.6,237.4c0,0-0.9,11.3,9.5,16.8s9.3-8.4,9.3-8.4s3.8,4.1,9.8-1.3c6-5.4-8.1-15.2-8.1-15.2L296.6,237.4z"/>
<rect x="402.5" y="333.8" class="st12" width="35" height="32.3"/>
<rect x="453.3" y="333.8" class="st0" width="35" height="32.3"/>
<rect x="503.6" y="333.8" class="st0" width="35" height="32.3"/>
<rect x="402.5" y="381.6" class="st12" width="35" height="32.3"/>
<rect x="453.3" y="381.6" class="st0" width="35" height="32.3"/>
<rect x="503.6" y="381.6" class="st0" width="35" height="32.3"/>
<path class="st14" d="M312.7,224.9c0.8,2.4,1.7,4.7,2.7,6.9c1.5,3.1,2.8,8.1-1.6,11.5c-6.7,5.2-14.7-5.5-14.7-5.5
	s-10.3-8.6-3.1-14.2C302.7,218.5,309.1,214,312.7,224.9z"/>
<path class="st3" d="M288.1,222.3c-1.4,1.5-2.2,3.6-2.2,5.7c-0.1,2.2,1,4.2,3,5.2c4.8,2.3,10.5,4.7,10.5,4.7s-5.5-5,0-7.1
	c5.5-2.1,11.7-0.3,13.5-5.8c1.8-5.5,3.1-8.6,0-12.1c-3.1-3.4-4.8-8.6-9.9-4c-5.1,4.6-4.7-1-9.2-2.6c-4.5-1.7-9.9,0.9-7.8,4.9
	C287.7,214.6,290.8,219,288.1,222.3z"/>
<path class="st8" d="M306.1,272.3c-3.4-14.9-23.5-18-31.7-5c-10.3,16.2-23.4,42.8-18.7,68c7.2,39.9,38.4,75.1,111.2,52.3v-11.9
	c0,0-25.6,5.5-47.9-3s-32.3-34.9-21.9-56.6C303,303.6,309.2,286.2,306.1,272.3z"/>
<path class="st15" d="M306.1,272.3c-3.4-14.9-23.5-18-31.7-5c-10.3,16.2-23.4,42.8-18.7,68c7.2,39.9,38.4,75.1,111.2,52.3v-11.9
	c0,0-25.6,5.5-47.9-3s-32.3-34.9-21.9-56.6C303,303.6,309.2,286.2,306.1,272.3z"/>
<path class="st14" d="M366.7,387.5c0,0-10.9-6.7-4.1-16.8C369.4,360.6,383.1,374.1,366.7,387.5z"/>
<rect x="366.7" y="221.8" class="st16" width="250.4" height="15"/>
<path class="st14" d="M300,238c0,0-2.2-3.3-5.3-1.6C291.7,238.2,296.3,244.1,300,238z"/>
<path class="st14" d="M314.4,232.5c0,0-2.8-2.9-0.5-5.5C316.1,224.3,321.2,230.1,314.4,232.5z"/>
<path class="st14" d="M461.2,149.7c0,0,8.3-12.4,17.6-6.2C488.2,149.7,479.9,158,461.2,149.7z"/>
<path class="st9" d="M334.5,225.6c0,0,42.3,66.4-16.3,109.9l19.3,12.2l29.3-22v-94C366.7,231.6,356,222.3,334.5,225.6z"/>
<circle class="st3" cx="627.6" cy="391.2" r="83.9"/>
<circle class="st12" cx="627.6" cy="391.2" r="77"/>
<circle class="st3" cx="627.3" cy="391.5" r="10.3"/>
<rect x="625.1" y="318.2" class="st3" width="4.5" height="8.3"/>
<rect x="625.1" y="454.5" class="st3" width="4.5" height="8.3"/>
<rect x="553.9" y="387.3" class="st3" width="8.3" height="4.5"/>
<polygon class="st3" points="624.4,394 628.1,385.3 675.7,411.6 "/>
<rect x="616.8" y="287" class="st3" width="21.7" height="25"/>
<ellipse class="st3" cx="627.6" cy="287" rx="25" ry="6.9"/>
</svg>
