<?xml version="1.0" encoding="utf-8"?>
<!-- Generator: Adobe Illustrator 24.0.2, SVG Export Plug-In . SVG Version: 6.00 Build 0)  -->
<svg version="1.1" id="e7d24159-a105-4c62-98a5-787fb4a09ca9"
	 xmlns="http://www.w3.org/2000/svg" xmlns:xlink="http://www.w3.org/1999/xlink" x="0px" y="0px" viewBox="0 0 900 500"
	 style="enable-background:new 0 0 900 500;" xml:space="preserve">
<style type="text/css">
	.st0{fill:#EF5015;}
	.st1{opacity:0.46;fill:#FFFFFF;enable-background:new    ;}
	.st2{fill:#F4A28C;}
	.st3{fill:#2C2E2D;}
	.st4{opacity:0.31;fill:#CE8172;enable-background:new    ;}
	.st5{fill:#E6E6E6;}
	.st6{fill:#C1C1C1;}
	.st7{opacity:0.46;fill:#C1C1C1;enable-background:new    ;}
	.st8{opacity:0.45;fill:#E6E6E6;enable-background:new    ;}
	.st9{opacity:0.6;fill:#BFBFBF;enable-background:new    ;}
</style>
<title>personal_info</title>
<path class="st0" d="M362.6,343.2l-48.7-77.4L292.4,276c0,0,18.1,93,48.9,94.4C372.1,371.8,362.6,343.2,362.6,343.2z"/>
<path class="st1" d="M362.6,343.2l-48.7-77.4L292.4,276c0,0,18.1,93,48.9,94.4C372.1,371.8,362.6,343.2,362.6,343.2z"/>
<path class="st0" d="M470,227.8c0,0-126.5-43.2-117.3,106.2L470,227.8z"/>
<path class="st1" d="M352.7,334L470,227.8C470,227.8,343.5,184.5,352.7,334"/>
<path class="st2" d="M505.2,166.9c0,0-10.7,13-14.6,23.8c-1.6,4.4,0.6,9.2,5,10.8c0,0,0,0,0,0c5.5,1.9,13.4,2.9,20-3.4l12.5-9.3
	c4.8-4.4,6.2-11.3,3.6-17.2C527.7,160.9,511.3,158.7,505.2,166.9z"/>
<polygon class="st2" points="524,184.7 514.2,239 484.6,231.4 503.6,195 "/>
<path class="st3" d="M508.3,169.9c4.2,3.1,8.7,5.7,13.5,7.8c-5.2,2.1-8.6,7.1-8.7,12.7c-0.2,5.5,3.5,10.3,8.8,11.6l12-18
	c3.7-5.1,4.2-11.9,1.5-17.5c-1.2-2.4-2.5-4.7-4-7c-3.7-5.6-13.6-7.3-15.8-13.9c-0.7-2.1-3-3.2-5.2-2.5c-0.6,0.2-1.2,0.6-1.6,1.1
	c-4.5,4.9-9.4,14.1-4.1,22.1C505.6,167.6,506.9,168.9,508.3,169.9z"/>
<path class="st2" d="M511.9,188.9c0,0,3.8-5.3,7.5-2.1c3.7,3.1-1.7,10.7-7.6,7.8L511.9,188.9z"/>
<path class="st2" d="M498.9,175.5l-7.5,2.7c-1.4,0.5-2.1,2.1-1.6,3.5c0.1,0.4,0.3,0.7,0.6,1l4.6,4.6L498.9,175.5z"/>
<path class="st4" d="M499.1,202.8c3.9,0.3,7.8-0.4,11.2-2.3c0,0-3.8,9.4-17.5,15L499.1,202.8z"/>
<path class="st0" d="M591.5,311.6c-2.3-36.1-57.7-68.4-92.7-77.3l-13.1-3.3c0,0-90.9-26.9-122.1,54s-12.7,157.5-12.7,157.5l150,17.3
	C500.9,459.6,596.6,392.4,591.5,311.6z"/>
<path class="st0" d="M526.8,245c0,0,5.2-14.7-12.5-21.8s-35.6-14-44.2,4.6C470,227.8,484.6,242.7,526.8,245z"/>
<path class="st1" d="M526.8,245c0,0,5.2-14.7-12.5-21.8s-35.6-14-44.2,4.6C470,227.8,484.6,242.7,526.8,245z"/>
<path class="st0" d="M642.6,156.3c0,0,105.8,191.1,9.6,230.2c-76.3,31-135-24.5-130.7-86.5c1.1-17.7,16.3-31.3,34-30.2
	c9.5,0.6,18.2,5.3,23.9,12.9c8.8,11.7,14.9,25.3,17.6,39.7c11.1,55.1,47.3,12.6,42.6-29.6C635,250.6,642.6,156.3,642.6,156.3z"/>
<path class="st1" d="M642.6,156.3c0,0,105.8,191.1,9.6,230.2c-76.3,31-135-24.5-130.7-86.5c1.1-17.7,16.3-31.3,34-30.2
	c9.5,0.6,18.2,5.3,23.9,12.9c8.8,11.7,14.9,25.3,17.6,39.7c11.1,55.1,47.3,12.6,42.6-29.6C635,250.6,642.6,156.3,642.6,156.3z"/>
<path class="st5" d="M194,39l18.1,433L668,452.9l-18.1-433L194,39z M636.8,306l-406.5,17l-7.6-181.6l406.5-17L636.8,306z"/>
<circle class="st6" cx="242.2" cy="89" r="26.5"/>
<path class="st6" d="M294.1,69.1l47.6-1.9c3.6-0.1,6.5,2.6,6.7,6.2l0,0c0.1,3.6-2.6,6.5-6.2,6.7L294.6,82c-3.6,0.1-6.5-2.6-6.7-6.2
	l0,0C287.8,72.3,290.6,69.3,294.1,69.1z"/>
<path class="st7" d="M295,90.7l77.7-3.2c3.6-0.1,6.5,2.6,6.7,6.2l0,0c0.1,3.6-2.6,6.5-6.2,6.7l-77.7,3.2c-3.6,0.1-6.5-2.6-6.7-6.2
	l0,0C288.7,93.8,291.4,90.8,295,90.7z"/>
<path class="st2" d="M657.9,211.1c0,0,13.6-35.9-6.7-40.8C630.9,165.6,646.5,202.7,657.9,211.1z"/>
<path class="st2" d="M313.9,265.8c-8.3-8.6-14.8-18.8-19.3-29.9c-6.1-16.8-14.3-2.7-9,6.4c5.3,9.1-18.6,1.9-14.6,18.1
	s21.3,15.5,21.3,15.5L313.9,265.8z"/>
<rect x="245.7" y="165.1" transform="matrix(0.9991 -4.170128e-02 4.170128e-02 0.9991 -6.9238 13.6498)" class="st8" width="155.9" height="15.3"/>
<rect x="230.2" y="403.2" transform="matrix(0.9991 -4.170128e-02 4.170128e-02 0.9991 -17.6784 18.1516)" class="st7" width="392.1" height="59.3"/>
<ellipse transform="matrix(0.1602 -0.9871 0.9871 0.1602 113.1046 848.0334)" class="st9" cx="554.9" cy="357.5" rx="7.9" ry="7.9"/>
<circle class="st9" cx="579.4" cy="356.5" r="7.9"/>
<circle class="st9" cx="604.5" cy="355.4" r="7.9"/>
<path class="st6" d="M171.9,368.6"/>
<path class="st6" d="M244.2,343.5l122.6-5.5c9.1-0.4,16.9,3.3,17.4,8.2l0,0c0.5,4.9-6.5,9.3-15.7,9.7L246,361.4
	c-9.1,0.4-16.9-3.3-17.4-8.2l0,0C228.1,348.2,235.1,343.9,244.2,343.5z"/>
<path class="st7" d="M247.2,373.4l199.9-9.1c9.1-0.4,16.9,3.3,17.4,8.2l0,0c0.5,4.9-6.5,9.3-15.6,9.7L249,391.3
	c-9.1,0.4-16.9-3.3-17.4-8.2l0,0C231.1,378.2,238.1,373.9,247.2,373.4z"/>
</svg>
