<?xml version="1.0" encoding="utf-8"?>
<!-- Generator: Adobe Illustrator 24.0.2, SVG Export Plug-In . SVG Version: 6.00 Build 0)  -->
<svg version="1.1" id="Layer_1" xmlns="http://www.w3.org/2000/svg" xmlns:xlink="http://www.w3.org/1999/xlink" x="0px" y="0px"
	 viewBox="0 0 1200 370" style="enable-background:new 0 0 1200 370;" xml:space="preserve">
<style type="text/css">
	.st0{fill:#D6D7D8;}
	.st1{fill:#003566;}
	.st2{opacity:0.14;fill-rule:evenodd;clip-rule:evenodd;fill:#FFFFFF;enable-background:new    ;}
	.st3{fill-rule:evenodd;clip-rule:evenodd;fill:#FFFFFF;}
	.st4{opacity:0.39;}
	.st5{fill:#31A9F4;}
</style>
<path class="st0" d="M0,0h1200c-53.9,150.3-115.7,195-165.3,205.4c-102.3,21.5-181.4-97-267.6-59.3
	c-63.1,27.5-50.4,103.9-124.5,147.8c-59.1,35-130.6,23.9-181.5,9.3c-41.9-15.3-118.3-36.8-214.1-27.9C123.5,286.8,37.2,342.5,0,370
	C0,246.7,0,123.3,0,0z"/>
<path class="st1" d="M0,0h1200c-59.9,82.9-134.2,151.4-220,151.9c-101,0.6-153.9-93.5-223.4-67.5c-70.8,26.5-53.3,138-138.4,183.8
	c-49.3,26.5-106.9,17-150.1,3.5c-35-15.2-121.6-47.1-231.5-29.1C104.9,264.2,24.6,343.6,0,370C0,246.7,0,123.3,0,0z"/>
<path class="st2" d="M1200,0H875.4L734.1,219.1l175.4,149.1l290.5-1V0z"/>
<path class="st2" d="M934.7,0.9h-273c-13-0.2-102.6,0.1-164.5,72.8c-11,12.9-68.6,83.7-45.4,166.4c20.9,74.6,99.4,129.4,192.4,129
	c96.8-0.3,193.7-0.7,290.5-1c94.6-8.1,168.2-86.9,169.8-180.4C1106.2,91.9,1031.7,9.2,934.7,0.9z"/>
<path class="st3" d="M473.5,151.7"/>
<path class="st0" d="M911.8-17.7"/>
<g id="sPzv1l.tif" class="st4">
	<g>
		<path class="st5" d="M1158.6,254.8c0-12,0-23.4,0-34.8c0-57.7,0-115.4,0-173.1c0-5.4,2-8,6.3-8.2c4.5-0.2,7.2,2.4,7.2,7.1
			c0.1,11.9,0,23.7,0,35.6c0,61,0,122,0,183c0,1.2,0,2.3,0,3.8c-22.1,0-43.9,0-66.1,0c-0.1,1.6-0.2,2.9-0.2,4.3
			c0,23.1-0.1,46.1,0.1,69.2c0,3.3-0.9,4.1-4.1,4c-55.1-0.1-110.2-0.2-165.3,0c-21,0.1-34.6-18.5-31-35.7c0.3-1.2,0.1-2.6,0.1-3.8
			c0-56,0-111.9,0-167.9c0-17.7,10.4-31.5,27-35.5c3.3-0.8,6.8-1,10.1-1c9.6-0.1,19.2,0,29.2,0c0-1.5,0-2.8,0-4
			c0-12.2-0.4-24.4,0.2-36.5c0.9-21.2,16.5-36.6,37.6-36.7c46.9-0.3,93.8-0.1,140.7-0.1c0.5,0,1,0.1,1.9,0.2c0,1.4,0,2.6,0,3.8
			c0,62.1,0,124.1,0,186.2c0,6.1-2.9,8.6-8.9,7.7c-1.5-0.2-3-0.3-4.5-0.3c-45.4,0-90.8,0-136.2,0c-5.3,0-9.9,1.4-13.5,5.4
			c-4.8,5.1-5.1,11.3-3,17.3c2.4,6.9,8.1,10.3,15.5,10.3c15.9,0.1,31.8,0,47.7,0c7.2,0,14.3,0,21.5,0c28,0,56.1,0,84.1,0
			C1156,254.8,1157.1,254.8,1158.6,254.8z M1138.5,208.2c0-57,0-113.5,0-170.3c-1.4,0-2.5,0-3.7,0c-41.2,0-82.5,0.3-123.7-0.1
			c-14.8-0.1-25.9,11.9-25.8,25.8c0.4,48.5,0.1,97,0.1,145.5c0,1,0.1,2,0.2,3.6c7.4-4.7,15.3-4.6,23.2-4.6c41.2,0.1,82.5,0,123.7,0
			C1134.5,208.2,1136.4,208.2,1138.5,208.2z M919.1,290.2c7.3-4.7,14.7-4.7,22.2-4.7c42.1,0.1,84.1,0,126.2,0c1.5,0,2.9,0,4.6,0
			c0-5.9,0-11.5,0-17.3c-1.5,0-2.8,0-4.1,0c-22.3,0-44.6,0-66.9,0c-15.2,0-28.3-11.8-29.6-26.9c-0.4-4.3,0.4-8.7,0.4-13.1
			c0-36.4,0-72.8,0-109.2c0-1.2-0.1-2.5-0.2-3.9c-9.8,0-19.3,0-28.8,0c-14.7,0-23.8,9-23.8,23.8c0,43,0,86.1,0,129.1
			C919.1,275.1,919.1,282.3,919.1,290.2z M1086.1,268.5c0,7.9-0.1,15.3,0,22.8c0.1,6.2-3.6,9.3-9.6,8.1c-1.3-0.3-2.7-0.3-4.1-0.3
			c-18.4,0-36.7,0-55.1,0c-27.3,0-54.7,0-82,0c-7.2,0-13.9,4.7-15.8,11c-2.3,7.7,0,14.7,6.1,19c3.2,2.2,6.8,2.9,10.6,2.9
			c50.7,0,101.5,0,152.2,0c1.1,0,2.3-0.1,3.4-0.2c0-21.3,0-42.3,0-63.3C1090,268.5,1088.2,268.5,1086.1,268.5z"/>
		<path class="st5" d="M1009.6,231.8c45.3,0,90.3,0,135.5,0c0,4.4,0,8.7,0,13.1c-45.1,0-90.3,0-135.5,0
			C1009.6,240.6,1009.6,236.4,1009.6,231.8z"/>
		<path class="st5" d="M1017.2,75.2c0-4.5,0-8.7,0-13.1c30.2,0,60.3,0,90.5,0c0,4.4,0,8.6,0,13.1
			C1077.5,75.2,1047.5,75.2,1017.2,75.2z"/>
		<path class="st5" d="M1107.6,118.4c-30.1,0-60.1,0-90.3,0c0-4.3,0-8.6,0-13.2c30,0,60,0,90.3,0
			C1107.6,109.5,1107.6,113.8,1107.6,118.4z"/>
		<path class="st5" d="M1079,309c0,4.5,0,8.7,0,13.1c-45.2,0-90.2,0-135.4,0c0-4.3,0-8.6,0-13.1C988.6,309,1033.6,309,1079,309z"/>
	</g>
</g>
</svg>
