<?xml version="1.0" encoding="utf-8"?>
<!-- Generator: Adobe Illustrator 24.0.2, SVG Export Plug-In . SVG Version: 6.00 Build 0)  -->
<svg version="1.1" id="Layer_1" xmlns="http://www.w3.org/2000/svg" xmlns:xlink="http://www.w3.org/1999/xlink" x="0px" y="0px"
	 viewBox="0 0 406 306" style="enable-background:new 0 0 406 306;" xml:space="preserve">
<style type="text/css">
	.st0{fill:#E6E6E6;}
	.st1{fill:#FFFFFF;}
	.st2{fill:#24285B;}
	.st3{opacity:0.4;fill:#A5A5A5;enable-background:new    ;}
	.st4{fill:#F4A28C;}
	.st5{fill:#EF4F15;}
	.st6{opacity:0.2;fill:#FFFFFF;enable-background:new    ;}
	.st7{opacity:8.000000e-02;enable-background:new    ;}
	.st8{opacity:0.45;fill:#E6E6E6;enable-background:new    ;}
	.st9{opacity:0.31;fill:#CE8172;enable-background:new    ;}
	.st10{fill:#FFD200;}
	.st11{fill:#A5A5A5;}
	.st12{opacity:0.13;fill:#FFFFFF;enable-background:new    ;}
	.st13{opacity:0.58;fill:#EF4F15;enable-background:new    ;}
	.st14{opacity:0.73;fill:#EF4F15;enable-background:new    ;}
	.st15{opacity:0.2;enable-background:new    ;}
</style>
<title>#13 authentication</title>
<rect x="95.4" y="36.2" class="st0" width="235.4" height="167.8"/>
<rect x="173.3" y="142.6" class="st1" width="78.2" height="18.8"/>
<circle class="st2" cx="187.3" cy="152.2" r="2.3"/>
<circle class="st2" cx="199.6" cy="152.2" r="2.3"/>
<circle class="st2" cx="212.7" cy="152.2" r="2.3"/>
<circle class="st2" cx="225" cy="152.2" r="2.3"/>
<circle class="st2" cx="237.3" cy="152.2" r="2.3"/>
<rect x="182.1" y="82.9" class="st3" width="59.7" height="41.5"/>
<path class="st4" d="M129.9,182.2c0,0,4.3,20.1,15.8,19c11.4-1,15.2-33.7,15.2-33.7l-4.2-3.9L129.9,182.2z"/>
<path class="st5" d="M118.8,136.9c0,0,24.6,3.7,27,30.7l-16.2,6.9L118.8,136.9z"/>
<path class="st6" d="M129.6,174.4l-10.8-37.6c0,0,24.6,3.7,27,30.7"/>
<path class="st7" d="M213.1,140.7l7.2,12l-9.7,5.5l-7.9-14.2l-10.9,5.5l8.1,15.2l-10.3,6l-7.3-12.5l-5.1,3.8c-3,2.3-4.7,5.9-4.5,9.7
	c0.5,8.3,0.5,23.1-4.6,31.9l-34,0.3l3.9-31.1l-36.6-33.8L97,124.2l-2.9-13.7l6.5-3.5c2.1-1.1,4.6-0.9,6.4,0.5c2.4,1.8,4.8,5,3.4,9.9
	c-2.5,8.7-1.1,18.3,4.6,19.6c5.7,1.3,29-5.7,34.2,7.3c5.2,13,7.9,14.1,20.4,3.8c12.5-10.3,33.3-20.5,33.3-20.5L213.1,140.7z"/>
<ellipse class="st8" cx="211.9" cy="266.8" rx="157.6" ry="11.5"/>
<path class="st5" d="M95.3,258.4c0,0-2,2.5-0.8,5c1.2,2.5-0.7,4.5-2.6,2.7s-2.4-8.9-2.4-8.9l3.5-1.9L95.3,258.4z"/>
<path class="st5" d="M155.4,240c0,0,1.3,3,4.1,3s3.6,2.7,1.2,3.6s-9-2-9-2v-4L155.4,240z"/>
<path class="st4" d="M96.5,113.4c0,0,3.4,5,4.5,8.9c0.4,1.6-0.5,3.3-2.1,3.7c-2.5,0.8-5.2,0.1-7-1.8l-4.1-3.7
	c-1.5-1.7-1.8-4.2-0.8-6.2C88.7,110.5,94.6,110.3,96.5,113.4z"/>
<polygon class="st4" points="89.5,120.4 92.3,136.8 103.4,137.3 96.9,124.5 "/>
<path class="st2" d="M95.3,114.3c-1.6,1-3.3,1.8-5.1,2.3c1.8,0.9,2.9,2.8,2.7,4.8c0,1-0.4,1.9-1.1,2.6c-0.9,0.8-2.2,0.8-3-0.1
	c-0.1-0.1-0.3-0.3-0.4-0.5l-2.7-5c-1.2-1.9-1.2-4.3,0-6.3c0.5-0.8,1-1.6,1.6-2.4c1.5-1.9,5.1-2.2,6.1-4.5c0.3-0.7,1.2-1.1,1.9-0.7
	c0.2,0.1,0.4,0.2,0.5,0.4c1.5,1.9,2.9,5.3,0.8,8C96.3,113.6,95.8,114,95.3,114.3z"/>
<path class="st4" d="M93.5,121c0,0-1.2-2-2.6-1s0.3,3.9,2.5,3L93.5,121z"/>
<path class="st4" d="M98.5,116.6l2.6,1.2c0.5,0.3,0.7,0.9,0.4,1.4c0,0.1-0.1,0.2-0.2,0.2l-1.8,1.5L98.5,116.6z"/>
<path class="st9" d="M97.9,126.4c-1.3,0.1-2.7-0.2-3.8-0.8c0,0,0.3,4.3,5.7,4.5L97.9,126.4z"/>
<path class="st5" d="M73.5,142.7c14.6-9.6,39.1-11.6,53-2c13.7,9.4,7.1,65.1,7.1,65.1l-28.5,8.6C105.1,214.4,50.1,173.4,73.5,142.7z
	"/>
<path class="st2" d="M100.6,214.9l4.1,10c1.1,5.9-0.4,12-4.1,16.7l-10.3,13.3L96,259l15-11.9c6.2-4.9,9.8-12.4,9.9-20.3v-5.1
	l-1.9-6.5L100.6,214.9z"/>
<path class="st7" d="M90.3,146c0,0,10.8,5.1,9.4,21.5s-1.4,35.6,24.1,34.7v8.6l-16.7,2.5L87.1,194l-1.7-29.6L90.3,146z"/>
<polygon class="st7" points="136.8,197 139.5,199.5 155.6,166.1 135.2,179.7 "/>
<path class="st2" d="M110.5,222.5l5.5,3.6l20.4-6.3c4-1.2,8.3,1,9.5,5c0,0.1,0.1,0.3,0.1,0.4l3.8,15.5l6.9-0.6l-2.2-21
	c-0.8-7.8-7.4-13.8-15.2-13.9l-15.7-0.2L110.5,222.5z"/>
<path class="st10" d="M211.2,147.8l10-6l-14.6-24.4l-77.8,52.4c-11.2-11.2-29.4-11.2-40.6,0.1c-11.2,11.2-11.2,29.4,0.1,40.6
	s29.4,11.2,40.6-0.1c8.1-8.1,10.6-20.2,6.4-30.9l48.4-32.6l9.5,14.7l9.8-6.3l-9.6-14.9l9.6-6.4L211.2,147.8z M108.6,207.2
	c-9.4,0-17.1-7.6-17.1-17.1s7.6-17.1,17.1-17.1c9.4,0,17.1,7.6,17.1,17.1C125.6,199.5,118,207.2,108.6,207.2z"/>
<path class="st4" d="M90.6,153.6c1-10.8-12.2-16.8-19.5-8.8c-5.9,6.4-11.5,17.2-10.9,34.9c1.1,36.5,12,45.1,39.6,43.4
	c3.3,0.6,6.7,0.2,9.7-1.1c1.2-0.6,1.7-2.1,1-3.3c-0.3-0.6-0.9-1.1-1.7-1.3c-3.1-0.6-7-1-9.1,0.2c0,0-25.2-8-17.8-37.8
	C81.9,179.7,89.4,166.1,90.6,153.6z"/>
<path class="st5" d="M70.8,144.4c-5.2,4.3-11.6,12.9-11.5,28.7l26.1,2.9c0,0,15.2-25.3,1.3-33.3C81.6,140,75.3,140.6,70.8,144.4z"/>
<path class="st6" d="M70.8,144.4c-5.2,4.3-11.6,12.9-11.5,28.7l26.1,2.9c0,0,15.2-25.3,1.3-33.3C81.6,140,75.3,140.6,70.8,144.4z"/>
<path class="st4" d="M155.6,166.1c0,0,6.2-7.6,9.8-4.5S162.4,174.1,155.6,166.1z"/>
<polygon class="st7" points="60.2,173.2 60.2,180.9 81.9,179.7 83.8,176 "/>
<circle class="st2" cx="112.4" cy="48.8" r="4.9"/>
<circle class="st5" cx="127" cy="48.8" r="4.9"/>
<circle class="st10" cx="140.8" cy="48.8" r="4.9"/>
<path class="st1" d="M234.5,83h-7v-3.6c0-8.6-7-15.6-15.6-15.6c-8.6,0-15.6,7-15.6,15.6c0,0,0,0,0,0V83h-7v-3.6
	c0-12.5,10.1-22.6,22.6-22.6c12.5,0,22.6,10.1,22.6,22.6V83z"/>
<circle class="st11" cx="212.7" cy="96.5" r="5.8"/>
<rect x="209.8" y="99.5" class="st11" width="6.4" height="15.6"/>
<rect x="195.9" y="171.7" class="st2" width="32" height="15.9"/>
<rect x="213.3" y="174.4" class="st12" width="11.2" height="5.3"/>
<path class="st13" d="M324,249.2c0,0-11.8-3.2-14.4-14.1c0,0,18.2-3.8,18.8,15L324,249.2z"/>
<path class="st14" d="M325.4,248c0,0-8.3-12.9-1.1-25.1c0,0,13.9,8.7,7.8,25.1H325.4z"/>
<path class="st5" d="M327.5,248c0,0,4.3-13.7,17.4-16.4c0,0,2.5,8.9-8.4,16.4H327.5z"/>
<polygon class="st2" points="319,247.7 321.5,264 336.5,264 338.6,247.7 "/>
<path class="st3" d="M382,92.4H271.7c-5.4,0-9.8-4.4-9.8-9.8V24.2c0-5.4,4.4-9.8,9.8-9.8H382c5.4,0,9.8,4.4,9.8,9.8v58.4
	C391.8,88,387.4,92.4,382,92.4z"/>
<path class="st4" d="M378,89H267.7c-5.4,0-9.8-4.4-9.8-9.8V20.8c0-5.4,4.4-9.8,9.8-9.8H378c5.4,0,9.8,4.4,9.8,9.8v58.4
	C387.8,84.6,383.4,89,378,89z"/>
<path class="st15" d="M353.2,41.4l5,0.3l0.7-12.1l-40.1-0.3c-1.3-6.7-7.7-11.1-14.4-9.8s-11.1,7.7-9.8,14.4
	c1.3,6.7,7.7,11.1,14.4,9.8c4.8-0.9,8.6-4.6,9.7-9.4l25,0.2l-0.2,7.5l5,0.1l0.2-7.6l4.9,0L353.2,41.4z M302.6,37.6
	c-3.3-2.3-4.2-6.8-1.9-10.1c2.3-3.3,6.8-4.2,10.1-1.9c3.3,2.3,4.2,6.8,1.9,10.1C310.5,39,305.9,39.9,302.6,37.6z"/>
<path d="M288.7,79.6h-19c-2.1,0-3.7-1.7-3.7-3.7V63.9c0-2.1,1.7-3.7,3.7-3.7h19c2.1,0,3.7,1.7,3.7,3.7v11.9
	C292.4,77.9,290.8,79.6,288.7,79.6z"/>
<path d="M318.5,79.6h-19c-2.1,0-3.7-1.7-3.7-3.7V63.9c0-2.1,1.7-3.7,3.7-3.7h19c2.1,0,3.7,1.7,3.7,3.7v11.9
	C322.2,77.9,320.5,79.6,318.5,79.6z"/>
<path d="M348.7,79.6h-19c-2.1,0-3.7-1.7-3.7-3.7V63.9c0-2.1,1.7-3.7,3.7-3.7h19c2.1,0,3.7,1.7,3.7,3.7v11.9
	C352.5,77.9,350.8,79.6,348.7,79.6z"/>
<path d="M378.5,79.6h-19c-2.1,0-3.7-1.7-3.7-3.7V63.9c0-2.1,1.7-3.7,3.7-3.7h19c2.1,0,3.7,1.7,3.7,3.7v11.9
	C382.2,77.9,380.6,79.6,378.5,79.6z"/>
<g>
	<path class="st1" d="M276,73.1c0.3,0.2,1.2,0.6,2,0.6c1.6,0,2.1-1,2.1-1.8c0-1.3-1.2-1.8-2.4-1.8H277v-0.9h0.7c0.9,0,2-0.5,2-1.5
		c0-0.7-0.5-1.4-1.6-1.4c-0.7,0-1.4,0.3-1.8,0.6L276,66c0.5-0.4,1.4-0.7,2.4-0.7c1.8,0,2.6,1.1,2.6,2.2c0,0.9-0.6,1.7-1.7,2.1v0
		c1.1,0.2,2,1.1,2,2.3c0,1.5-1.1,2.7-3.3,2.7c-1,0-1.9-0.3-2.4-0.6L276,73.1z"/>
</g>
<g>
	<path class="st1" d="M308.6,66.6L308.6,66.6l-1.6,0.9l-0.2-0.9l2-1.1h1v9.1h-1.2V66.6z"/>
</g>
<g>
	<path class="st1" d="M337.2,74.5v-0.8l1-0.9c2.3-2.2,3.4-3.4,3.4-4.8c0-0.9-0.4-1.8-1.8-1.8c-0.8,0-1.5,0.4-1.9,0.8l-0.4-0.9
		c0.6-0.5,1.5-0.9,2.6-0.9c2,0,2.8,1.3,2.8,2.6c0,1.7-1.2,3-3.1,4.9l-0.7,0.7v0h4.1v1H337.2z"/>
</g>
<g>
	<path class="st1" d="M366.2,73.7c0.3,0,0.6,0,1,0c0.7-0.1,1.4-0.4,1.9-0.9c0.6-0.5,1-1.3,1.2-2.4h0c-0.5,0.6-1.2,1-2.1,1
		c-1.6,0-2.7-1.2-2.7-2.8c0-1.7,1.2-3.2,3.1-3.2c1.9,0,3,1.5,3,3.8c0,2-0.7,3.4-1.6,4.3c-0.7,0.7-1.7,1.1-2.6,1.2
		c-0.4,0.1-0.8,0.1-1.1,0.1V73.7z M366.6,68.4c0,1.1,0.7,1.9,1.8,1.9c0.8,0,1.5-0.4,1.8-1c0.1-0.1,0.1-0.3,0.1-0.4
		c0-1.6-0.6-2.7-1.9-2.7C367.4,66.2,366.6,67.1,366.6,68.4z"/>
</g>
<g id="SvTNk2.tif">
	<g>
		<path class="st2" d="M382.3,1.9c5.4,0,10.9,0,16.3,0c1.3,0,2.3,0.4,3,1.6c0.3,0.5,0.3,0.8-0.3,1.2c-6.2,4-12.3,8-18.4,12
			c-0.5,0.3-0.8,0.3-1.2,0c-6.1-4-12.2-8-18.3-11.9c-0.6-0.4-0.7-0.8-0.3-1.3c0.7-1.1,1.7-1.5,2.9-1.5
			C371.4,1.9,376.8,1.9,382.3,1.9z"/>
		<path class="st2" d="M388.1,15.5c4.5,2.9,8.9,5.7,13.3,8.6c0.2,0.1,0.3,0.7,0.2,0.9c-0.3,0.9-1,1.5-2,1.7c-0.3,0.1-0.7,0.1-1,0.1
			c-10.9,0-21.8,0-32.7,0c-1.3,0-2.3-0.4-3-1.6c-0.3-0.5-0.3-0.8,0.3-1.2c4.2-2.7,8.4-5.4,12.6-8.2c0.5-0.3,0.8-0.2,1.2,0
			c1.4,0.9,2.8,1.8,4.2,2.8c0.7,0.5,1.4,0.5,2.1,0C384.9,17.6,386.5,16.6,388.1,15.5z"/>
		<path class="st2" d="M362.6,6.6c4,2.6,7.9,5.1,12,7.8c-4,2.6-7.9,5.2-12,7.8C362.6,16.9,362.6,11.8,362.6,6.6z"/>
		<path class="st2" d="M401.8,22.1c-4-2.6-7.9-5.1-12-7.8c4-2.6,7.9-5.2,12-7.8C401.8,11.8,401.8,16.9,401.8,22.1z"/>
	</g>
</g>
</svg>
