<?xml version="1.0" encoding="utf-8"?>
<!-- Generator: Adobe Illustrator 24.0.2, SVG Export Plug-In . SVG Version: 6.00 Build 0)  -->
<svg version="1.1" id="Layer_1" xmlns="http://www.w3.org/2000/svg" xmlns:xlink="http://www.w3.org/1999/xlink" x="0px" y="0px"
	 viewBox="0 0 1200 370" style="enable-background:new 0 0 1200 370;" xml:space="preserve">
<style type="text/css">
	.st0{fill:#D6D7D8;}
	.st1{fill:#003566;}
	.st2{opacity:0.14;fill-rule:evenodd;clip-rule:evenodd;fill:#FFFFFF;enable-background:new    ;}
	.st3{fill-rule:evenodd;clip-rule:evenodd;fill:#FFFFFF;}
	.st4{opacity:0.38;}
	.st5{fill:#42A7F4;}
</style>
<path class="st0" d="M0,0h1200c-53.9,150.3-115.7,195-165.3,205.4c-102.3,21.5-181.4-97-267.6-59.3
	c-69.3,30.3-53.6,125.9-124.5,147.8c-50.2,15.5-74.1-27.3-163.6-45c-71.3-14.1-125.1-0.5-232,26.4C184.3,291.1,97.6,318.8,0,370
	C0,246.7,0,123.3,0,0z"/>
<path class="st1" d="M0,0h1200c23.2,303.6,13.1,365.1,0,367.2c-22.2,3.5-32-168.4-160-247.3c-5.8-3.6-109.3-65.4-213-30
	c-94,32.1-91.3,110.9-166,120c-75.3,9.2-100.2-59.5-220-77c-71.7-10.4-129.2,5.4-157.8,13.5c-20.4,5.8-176,52.6-257.4,189
	C13.8,355.7,7.3,371.2,0,370C-25.2,365.9-14.2,171.6,0,0z"/>
<path class="st2" d="M1200,0H875.4L734.1,219.1l175.4,149.1l290.5-1V0z"/>
<path class="st3" d="M473.5,151.7"/>
<path class="st0" d="M911.8-17.7"/>
<path class="st1" d="M426,282.9"/>
<g class="st4">
	<path class="st5" d="M129.6,322.8c-16.1,0-29.2-13.1-29.2-29.3V165.8H308v68.1c7.7,1.9,14.8,4.9,21.4,9l-0.3-141.4
		c0-9.7-7.9-17.5-17.6-17.5l0,0v-7.2c0-17-13.8-30.8-31.2-30.8c-17,0-30.8,13.8-30.8,30.8V84h-14.3v-7.2c0-17-13.8-30.8-31.2-30.8
		c-17,0-30.8,13.8-30.8,30.8V84h-14.3v-7.2c0-17-13.8-30.8-31.2-30.8c-17,0-30.8,13.8-30.8,30.8V84c-9.7,0-17.6,7.8-17.6,17.5
		l-0.3,192c0,27.9,22.7,50.6,50.6,50.6h98.3c-4-6.5-7.1-13.7-8.9-21.4L129.6,322.8L129.6,322.8z M270.9,76.7c0-5.2,4.2-9.5,9.9-9.5
		c5.2,0,9.4,4.2,9.4,9.5V113c0,5.2-4.2,9.4-9.4,9.4h-0.4c-5.2,0-9.5-4.2-9.5-9.4V76.7z M194.5,76.7c0-5.2,4.2-9.5,9.9-9.5
		c5.2,0,9.5,4.2,9.5,9.5V113c0,5.2-4.2,9.4-9.5,9.4H204c-5.2,0-9.4-4.2-9.4-9.4L194.5,76.7L194.5,76.7z M118.2,76.7
		c0-5.2,4.2-9.5,9.8-9.5c5.2,0,9.4,4.2,9.4,9.5V113c0,5.2-4.2,9.4-9.4,9.4h-0.4c-5.2,0-9.4-4.2-9.4-9.4
		C118.2,113,118.2,76.7,118.2,76.7z"/>
	<path class="st5" d="M290.6,253.1c-28.9,0-52.4,23.5-52.4,52.4s23.4,52.4,52.4,52.4c28.9,0,52.4-23.5,52.4-52.4
		C343,276.5,319.6,253.1,290.6,253.1z M311,318.1c-1,1.6-2.8,2.5-4.5,2.5c-1,0-1.9-0.3-2.8-0.8l-15.8-9.8c-1.6-1-2.5-2.7-2.5-4.5
		v-31c0-3,2.4-5.3,5.3-5.3c3,0,5.3,2.4,5.3,5.3v28l13.3,8.2C311.8,312.3,312.6,315.6,311,318.1z"/>
	<path class="st5" d="M218.6,240.9v-0.3C231.7,236,238,227.2,238,216c0-14.5-12.6-26.4-35.2-26.4c-11.1,0-21.5,2.6-28.4,5.7
		c-2.6,1.2-3.9,4-3.1,6.7l2,7.1c0.4,1.6,1.5,2.8,3,3.6c1.5,0.7,3.1,0.8,4.6,0.2c4.7-1.9,10.6-3.6,16.4-3.6
		c10.5,0,15.7,4.7,15.7,11.1c0,9-10.6,12.1-18.9,12.2h-4c-3.1,0-5.7,2.5-5.7,5.7v6.4c0,3.1,2.5,5.7,5.7,5.7h4.4
		c10.9,0,21.4,4.7,21.4,15.2c0,8-6.5,14.2-19.4,14.2c-6.9,0-13.8-2-18.8-3.9c-1.5-0.6-3.2-0.5-4.6,0.2c-1.4,0.7-2.5,2-2.9,3.6
		l-2.1,7.8c-0.7,2.7,0.6,5.5,3.2,6.7c6.6,2.9,16.2,5.2,27.1,5.2c7.3,0,13.7-1.1,19.3-2.9c2.1-16.4,9.5-31.2,20.6-42.5
		C234.1,247,226.9,242.3,218.6,240.9z"/>
</g>
<path class="st1" d="M26.4,413.7"/>
</svg>
