<?xml version="1.0" encoding="utf-8"?>
<!-- Generator: Adobe Illustrator 24.0.2, SVG Export Plug-In . SVG Version: 6.00 Build 0)  -->
<svg version="1.1" id="b759170a-51c3-4e2f-999d-77dec9fd6d11"
	 xmlns="http://www.w3.org/2000/svg" xmlns:xlink="http://www.w3.org/1999/xlink" x="0px" y="0px" viewBox="0 0 400 100"
	 style="enable-background:new 0 0 400 100;" xml:space="preserve">
<style type="text/css">
	.st0{fill:#FFFFFF;}
	.st1{fill:#FFD200;}
	.st2{opacity:0.55;fill:url(#SVGID_1_);enable-background:new    ;}
	.st3{fill:#EF5015;}
	.st4{fill:#2C2E2D;}
	.st5{fill:#E6E6E6;}
	.st6{fill:#C1C1C1;}
	.st7{fill:url(#SVGID_2_);}
</style>
<title>maker launch</title>
<circle class="st0" cx="168.9" cy="93.7" r="2.3"/>
<path class="st1" d="M243.1,23.3l-9.7-7.8c-10.4-8.3-23.6-12.2-36.8-10.9l-15.1,1.5l20.7,22.8L243.1,23.3z"/>
<path class="st1" d="M243.1,77.9l-9.7,7.8c-10.4,8.3-23.6,12.2-36.8,10.9l-15.1-1.5l20.7-22.8L243.1,77.9z"/>
<linearGradient id="SVGID_1_" gradientUnits="userSpaceOnUse" x1="206.5824" y1="63.6841" x2="206.5824" y2="182.6854" gradientTransform="matrix(2.220446e-16 1 -1 2.220446e-16 258.4105 -164.227)">
	<stop  offset="0" style="stop-color:#000000"/>
	<stop  offset="1" style="stop-color:#FFFFFF"/>
</linearGradient>
<path class="st2" d="M194.7,31c-17.7,12.6-30.4,13.3-38.3,12c-23-3.7-28.2-27.5-52.3-28.7c-10.3-0.5-24.2,3.1-27.5,11.7
	c-1.3,3.5-1.2,8.7,1.6,10.9c5.9,4.8,19.8-5.1,21.6-2.4c2.1,2.9-13.9,17.2-12.6,18.7c0.7,0.8,5.2-3,13.8-5.9
	c4.6-1.6,8.5-3.2,12.5-2.5c9.1,1.6,9.9,8.9,17.6,13.1c13.5,7.6,25.6-6.8,43.9-1.6c4.9,1.4,12.2,4.7,19.7,14.1
	C194.7,57.3,194.7,44.1,194.7,31z"/>
<path class="st3" d="M329.6,50.6c0,0-31.5-57.5-127.6-21.7v43.5C298.1,108.1,329.6,50.6,329.6,50.6z"/>
<polygon class="st4" points="202.1,72.4 194.7,70.4 194.7,31 203,28.9 "/>
<circle class="st5" cx="273.3" cy="51" r="14.8"/>
<path class="st0" d="M66.9,55.3"/>
<path class="st6" d="M178.4,9.5"/>
<polygon class="st1" points="90.6,62.9 89.7,66.1 92.2,63.8 "/>
<linearGradient id="SVGID_2_" gradientUnits="userSpaceOnUse" x1="90.747" y1="94.2654" x2="90.747" y2="94.2654">
	<stop  offset="0" style="stop-color:#000000"/>
	<stop  offset="1" style="stop-color:#FFFFFF"/>
</linearGradient>
<path class="st7" d="M90.7,94.3"/>
</svg>
