<?xml version="1.0" encoding="utf-8"?>
<!-- Generator: Adobe Illustrator 24.0.2, SVG Export Plug-In . SVG Version: 6.00 Build 0)  -->
<svg version="1.1" id="_x32_71e5882-3c8d-41ed-8a0a-1cb2b4d0cbc1"
	 xmlns="http://www.w3.org/2000/svg" xmlns:xlink="http://www.w3.org/1999/xlink" x="0px" y="0px" viewBox="0 0 523 271"
	 style="enable-background:new 0 0 523 271;" xml:space="preserve">
<style type="text/css">
	.st0{fill:#A5A5A5;}
	.st1{fill:#C9C9C9;}
	.st2{fill:#FFFFFF;}
	.st3{opacity:0.58;fill:#F04141;enable-background:new    ;}
	.st4{opacity:0.73;fill:#F04141;enable-background:new    ;}
	.st5{fill:#F04141;}
	.st6{fill:#24285B;}
	.st7{fill:#EF5015;}
	.st8{opacity:0.64;fill:#FFFFFF;enable-background:new    ;}
	.st9{fill:#F4A28C;}
	.st10{opacity:0.31;fill:#CE8172;enable-background:new    ;}
	.st11{fill:#2C2E2D;}
	.st12{opacity:9.000000e-02;enable-background:new    ;}
	.st13{opacity:0.77;fill:#FFFFFF;enable-background:new    ;}
	.st14{opacity:0.45;fill:#E6E6E6;enable-background:new    ;}
	.st15{fill:#313433;}
	.st16{opacity:0.44;fill:#FFFFFF;enable-background:new    ;}
	.st17{opacity:8.000000e-02;enable-background:new    ;}
	.st18{fill:#FFD200;}
</style>
<title>team spirit</title>
<rect x="431.2" y="212.7" class="st0" width="50.3" height="42.2"/>
<rect x="449.1" y="212.7" class="st1" width="50.3" height="42.2"/>
<circle class="st2" cx="438.2" cy="185.1" r="3.6"/>
<path class="st3" d="M465.7,201.6c0,0-8.7-2.4-10.7-10.5c0,0,13.6-2.7,13.9,11.2L465.7,201.6z"/>
<path class="st4" d="M466.8,200.8c0,0-6.1-9.7-0.7-18.7c0,0,10.3,6.6,5.7,18.7H466.8z"/>
<path class="st5" d="M468.4,200.8c0,0,3.2-10.2,13-12.2c0,0,1.8,6.6-6.3,12.2H468.4z"/>
<polygon class="st6" points="462,200.6 463.8,212.7 475,212.7 476.6,200.6 "/>
<path class="st7" d="M125.8,67.6c-2.1-7,1.7-14.4,8.4-16.5c2.8-0.9,5.7-0.8,8.4,0.3c7.8,3.2,16.6,9.7,23.8,22.6
	c5.6,10.1,9.7,16.8,12.5,21.2c2.5,3.9,7.6,4.9,11.3,2.3c0.7-0.5,1.3-1.1,1.9-1.8L216,63.9l8.9,6.8c0,0-20.2,52.1-42.9,50
	C162.5,119,136.4,103.2,125.8,67.6z"/>
<path class="st8" d="M125.8,67.6c-2.1-7,1.7-14.4,8.4-16.5c2.8-0.9,5.7-0.8,8.4,0.3c7.8,3.2,16.6,9.7,23.8,22.6
	c5.6,10.1,9.7,16.8,12.5,21.2c2.5,3.9,7.6,4.9,11.3,2.3c0.7-0.5,1.3-1.1,1.9-1.8L216,63.9l8.9,6.8c0,0-20.2,52.1-42.9,50
	C162.5,119,136.4,103.2,125.8,67.6z"/>
<path class="st7" d="M140.4,218.2c0,0,1.3,3.8,4.7,4.1c3.3,0.3,4.2,3.7,1.2,4.6s-10.8-3.2-10.8-3.2l0.2-5L140.4,218.2z"/>
<path class="st7" d="M98.4,218.2c0,0-1.3,3.8-4.7,4.1c-3.3,0.3-4.2,3.7-1.2,4.6c3,0.9,10.8-3.2,10.8-3.2l-0.2-5L98.4,218.2z"/>
<path class="st9" d="M118.2,32.1c1.4,2.8,2.4,5.9,3.1,9c0.2,1.6-0.8,3-2.3,3.3c-2.4,0.5-4.8-0.5-6.2-2.5l-3.4-4
	c-1.2-1.8-1.2-4.2,0-5.9C111.4,28.5,116.8,28.9,118.2,32.1z"/>
<polygon class="st9" points="111.1,36.4 110.3,55.1 120.2,54.8 116.8,41.3 "/>
<path class="st9" d="M119.6,35.4l2.2,1.4c0.4,0.3,0.5,0.8,0.3,1.3c-0.1,0.1-0.2,0.2-0.3,0.3l-1.8,1.3L119.6,35.4z"/>
<path class="st10" d="M117.6,44.4c-1.3-0.2-2.5-0.7-3.4-1.6c0,0,0.5,3.4,4.5,6.4L117.6,44.4z"/>
<path class="st7" d="M133.9,49.6c-16.4,0.3-32.6,3.9-47.7,10.6c-9.3,4.1-13.7,15.3-9.8,25c0.2,0.4,0.3,0.8,0.5,1.1l25.9,53.7
	l48.1-2.9c0,0,8.8-30.2,7-64.4C157.2,59.6,146.6,49.4,133.9,49.6z"/>
<path class="st11" d="M110.7,43.2l3.4-1.9l0.3-1.9c1-1.5,1-3.5,0-5c0,0,6.6-3.3,5.1-6.2s-6.4-6.7-11.2-3.1
	C103.6,28.7,101.2,35.3,110.7,43.2z"/>
<path class="st9" d="M114.6,39c0,0-0.8-2-2.3-1.2s-0.2,3.7,1.9,3.2L114.6,39z"/>
<path class="st2" d="M107.3,53.1c5.9-1.7,11.9-2.7,18-3c0,0,8.4,34.9,1.8,63C127,113.1,117.7,77.7,107.3,53.1z"/>
<path class="st12" d="M88.5,69.3c0,0,16.6,1.4,14.5,13.2c-2.1,11.8,5.1,44.4,10,47.1l15.7,8.8l-25.6,1.6l-8.4-17.4l-16-32.9
	L88.5,69.3z"/>
<path class="st7" d="M107.3,53.1c0,0-0.3-4.2,2.6-4.4c1.6-0.1,3.2,0,4.7,0.4c0,0,8.5-6.9,10.8,1C125.2,50.1,113.2,51.5,107.3,53.1z"
	/>
<path class="st13" d="M107.3,53.1c0,0-0.3-4.2,2.6-4.4c1.6-0.1,3.2,0,4.7,0.4c0,0,8.5-6.9,10.8,1C125.2,50.1,113.2,51.5,107.3,53.1z
	"/>
<path class="st6" d="M113.2,51.8c0,0-1-3.3,1-3.7c2-0.4,3.8-1.8,4.3,2.5C118.9,54.8,114.9,55.2,113.2,51.8z"/>
<path class="st11" d="M114.5,53.4c0,0,6.4,23.4,6.4,38.4l6.1,21.2c1.8-7.6,2.6-15.3,2.5-23.1c0,0-6.6-30.8-11.2-38L114.5,53.4z"/>
<ellipse class="st14" cx="118.5" cy="225.7" rx="103.6" ry="15.4"/>
<path class="st11" d="M95.6,219.4l7.4-79.3l48.1-2.9l-8.2,82.3h-9.3c0,0,2.3-52.2-5-64.1v-0.1c-1.3-2-3.9-2.5-5.8-1.2
	c-0.6,0.4-1,0.9-1.3,1.5c-10.1,19.5-16.1,63.8-16.1,63.8H95.6z"/>
<path class="st7" d="M80.4,64.4c0,0-41.2,38.9-36.4,50.4s47.9,31.3,47.9,31.3l5.1-6.7c0,0-23.7-23.3-23.8-26.3
	C73,110.2,82.1,106.4,90,96C97.9,85.7,104.8,61.1,80.4,64.4z"/>
<path class="st8" d="M80.4,64.4c0,0-41.2,38.9-36.4,50.4s47.9,31.3,47.9,31.3l5.1-6.7c0,0-23.7-23.3-23.8-26.3
	C73,110.2,82.1,106.4,90,96C97.9,85.7,104.8,61.1,80.4,64.4z"/>
<path class="st9" d="M97,139.4c0,0,5.5,4,5.8,5.8s-0.4,8.8-2,9.4c-1.6,0.6-5.8-0.8-4.9-1.7l1.4-1.5c0,0-5-2.6-5.4-5.3L97,139.4z"/>
<path class="st9" d="M217.6,65c0,0,2.8-11.2,5.9-12.4c3-1.2,0.5,5.7,0.5,5.7s8.9,5.1,0,11.4L217.6,65z"/>
<ellipse class="st14" cx="353.8" cy="232.4" rx="70.2" ry="11.4"/>
<path class="st7" d="M331.2,228.4c0,0-3.4,3-7,1.6c-3.6-1.5-6.3,1.4-3.6,3.8c2.6,2.4,12.8,2.5,12.8,2.5l3-6.2L331.2,228.4z"/>
<path class="st7" d="M387.8,227c0,0,1.7,4.1-1.1,6.8c-2.8,2.7-1.1,6.1,2.2,4.6c3.3-1.5,7.2-10.4,7.2-10.4l-4.9-5.1L387.8,227z"/>
<path class="st15" d="M396.8,149.6c0,0,3.6,13.4-2.6,20.1c-6.2,6.7-15.7,38,0,53.7l-6.2,5.5c0,0-27.1-13.2-19.3-60.9l-19.3-18.3
	L396.8,149.6L396.8,149.6z"/>
<path class="st7" d="M349.4,73c0,0-19.1,4.7-19.2,19.8c-0.2,15.2,8.5,41.8-3.8,43.9s-19.6-30.6-19.6-30.6l-8.8,3.4
	c0,0,9.4,56.1,41.6,46.8C371.7,147,349.4,73,349.4,73z"/>
<path class="st16" d="M349.4,73c0,0-19.1,4.7-19.2,19.8c-0.2,15.2,8.5,41.8-3.8,43.9s-19.6-30.6-19.6-30.6l-8.8,3.4
	c0,0,9.4,56.1,41.6,46.8C371.7,147,349.4,73,349.4,73z"/>
<polygon class="st9" points="366.6,48.1 372.4,67.8 360.8,70.1 361.2,54.9 "/>
<path class="st10" d="M361,58.1c1.4-0.5,2.6-1.4,3.5-2.5c0,0,0.3,3.8-3.5,7.9V58.1z"/>
<path class="st7" d="M372.4,67.8l-6.8,1.3c0,0-31.3,3.2-32.6,20.2s16.4,60.3,16.4,60.3h47.4C396.8,149.6,434.9,63.2,372.4,67.8z"/>
<path class="st12" d="M376.5,83.5c0,0-3.8,10.6,6.2,17.5c10,6.9,5.1,32.9-5.8,37.1c-10.9,4.2,6.9,13.2,14.5,9.5
	c7.6-3.7,8.7-6.2,8.7-6.2s7.1-19.6,7.9-32.1C408.7,96.8,376.5,83.5,376.5,83.5z"/>
<path class="st7" d="M376.5,83.5c0-9.4,9.9-15.7,19.1-12.7c8,2.5,17.8,7.1,23.8,15.7c11.4,16.4,37.6,64.6-28.8,66.4l-2-7.1
	c0,0,39.9-10.6,22.3-32.9C397.2,95.5,376.5,96.7,376.5,83.5z"/>
<path class="st16" d="M376.5,83.5c0-9.4,9.9-15.7,19.1-12.7c8,2.5,17.8,7.1,23.8,15.7c11.4,16.4,37.6,64.6-28.8,66.4l-2-7.1
	c0,0,39.9-10.6,22.3-32.9C397.2,95.5,376.5,96.7,376.5,83.5z"/>
<path class="st9" d="M354.6,48.7c0,0,0.6,6.2,2.4,10.1c0.7,1.6,2.6,2.3,4.3,1.6h0.1c2.6-1,4.5-3.4,4.6-6.1l1-5.7
	c0.1-2.4-1.3-4.6-3.6-5.4C359.2,41.2,354.1,44.9,354.6,48.7z"/>
<path class="st9" d="M355.2,52.6l-1.3,2.7c-0.2,0.5-0.1,1.1,0.5,1.3c0.2,0.1,0.3,0.1,0.4,0.1h2.5L355.2,52.6z"/>
<path class="st15" d="M349.4,149.6l-19.9,79.3l9.9,1.4c0,0,19.9-54.3,33-65.5L349.4,149.6z"/>
<path class="st9" d="M388.9,146.9c0,0-7.1-1.1-9.4,3.6c-2.4,4.7,11.2,2.5,11.2,2.5L388.9,146.9z"/>
<path class="st15" d="M368.5,54.7l-4-0.9l-2.4-1.2c0,0-1.7-0.1-1.1-4.1c0,0-8.5,2.8-9.6-2c-1.2-5.3,5.1-7.6,9.6-7.1
	c2.6,0.3,5,2,5.9,4.4C366.9,43.6,374,42.6,368.5,54.7z"/>
<path class="st9" d="M362.4,52.8c0,0-0.4-2.4,1.5-2.5c1.9-0.2,2.5,3.3,0,4L362.4,52.8z"/>
<ellipse class="st17" cx="292.3" cy="80.8" rx="30.6" ry="29.3"/>
<ellipse class="st18" cx="290.8" cy="72" rx="30.6" ry="29.3"/>
<path d="M333.1,30.6"/>
<path class="st2" d="M278.3,90c0.8,0,1.8-0.3,2.5-0.8l6.1-4.3c1-0.8,2.5-0.8,3.4,0l6.1,4.3c1.9,1.3,4.6,1,5.9-1c0.8-1,1-2.4,0.7-3.7
	l-2.3-6.7c-0.3-1,0-2.4,1-3.1l6.1-4.3c1.9-1.3,2.3-3.9,1-5.7c-0.8-1-2.2-1.8-3.4-1.8H298c-1.3,0-2.5-0.8-2.8-1.8l-2.3-6.7
	c-0.7-2.2-3.2-3.3-5.4-2.6c-1.3,0.5-2.3,1.4-2.8,2.6l-2.3,6.7c-0.3,1-1.5,1.8-2.8,1.8h-7.5c-2.3,0-4.3,1.8-4.3,4.1
	c0,1.3,0.7,2.5,1.8,3.3l6.1,4.3c1,0.8,1.5,2.1,1,3.1l-2.3,6.7c-0.7,1.8,0,3.5,1.5,4.6C276.5,89.7,277.4,90,278.3,90z"/>
</svg>
