<?xml version="1.0" encoding="utf-8"?>
<!-- Generator: Adobe Illustrator 24.0.2, SVG Export Plug-In . SVG Version: 6.00 Build 0)  -->
<svg version="1.1" id="Layer_1" xmlns="http://www.w3.org/2000/svg" xmlns:xlink="http://www.w3.org/1999/xlink" x="0px" y="0px"
	 viewBox="0 0 406 267.8" style="enable-background:new 0 0 406 267.8;" xml:space="preserve">
<style type="text/css">
	.st0{opacity:0.45;fill:#E6E6E6;enable-background:new    ;}
	.st1{fill:#A5A5A5;}
	.st2{fill:#E6E6E6;}
	.st3{fill:#C9C9C9;}
	.st4{fill:#FFFFFF;}
	.st5{opacity:0.58;fill:#F04141;enable-background:new    ;}
	.st6{opacity:0.73;fill:#F04141;enable-background:new    ;}
	.st7{fill:#F04141;}
	.st8{fill:#24285B;}
</style>
<title>#43 time</title>
<ellipse class="st0" cx="212.9" cy="225.5" rx="150.6" ry="21.2"/>
<rect x="186" y="10.1" class="st1" width="141" height="24.7"/>
<rect x="186.5" y="198.2" class="st1" width="141" height="24.7"/>
<rect x="126.4" y="180.8" class="st1" width="50.3" height="42.2"/>
<path class="st2" d="M276.1,114.5c46.1-13.1,41-79.6,41-79.6H194.6c0,0-3.2,62.9,42.4,78.5c1.4,0.5,2.2,2.1,1.7,3.6
	c-0.3,0.8-1,1.5-1.8,1.7c-46.1,13.1-41,79.6-41,79.6h122.5c0,0,3.2-62.9-42.4-78.5c-1.4-0.5-2.2-2.1-1.7-3.5
	C274.5,115.4,275.2,114.7,276.1,114.5z"/>
<rect x="144.3" y="180.8" class="st3" width="50.3" height="42.2"/>
<path class="st3" d="M235.3,61.4c-8.4-1.8-16.8,3.5-18.6,12c-0.8,3.7-0.2,7.6,1.6,11c4.5,8.1,12.6,17,26.7,19.2
	c25.4,3.9,43.5-2.4,54-30c2-5.2-0.6-11-5.8-12.9c-1.5-0.6-3.2-0.8-4.8-0.6h-0.3c-10.4,1.5-11.6,15-26.6,10.8
	C253.8,68.6,244.3,63.3,235.3,61.4z"/>
<path class="st3" d="M204.6,193.3c0-8,4.5-15.3,11.7-18.8c9.7-4.6,19.9-8,30.4-10.1c30.5-6.5,35,15.4,47,17.3
	c11.9,1.9,15,11.6,15,11.6H204.6z"/>
<polygon class="st3" points="248.4,104 251.6,171.4 258.9,171.4 257,104 "/>
<polygon class="st3" points="262.8,101.3 262.8,171.4 264.8,171.4 266.8,99.8 "/>
<circle class="st4" cx="133.4" cy="153.2" r="3.6"/>
<path class="st5" d="M160.9,169.7c0,0-8.7-2.4-10.7-10.5c0,0,13.6-2.7,13.9,11.2L160.9,169.7z"/>
<path class="st6" d="M162,168.9c0,0-6.1-9.7-0.7-18.7c0,0,10.3,6.6,5.7,18.7L162,168.9z"/>
<path class="st7" d="M163.6,168.9c0,0,3.2-10.2,13-12.2c0,0,1.8,6.6-6.3,12.2H163.6z"/>
<polygon class="st8" points="157.2,168.7 159,180.8 170.2,180.8 171.8,168.7 "/>
</svg>
