<?xml version="1.0" encoding="utf-8"?>
<!-- Generator: Adobe Illustrator 24.0.2, SVG Export Plug-In . SVG Version: 6.00 Build 0)  -->
<svg version="1.1" id="Layer_1" xmlns="http://www.w3.org/2000/svg" xmlns:xlink="http://www.w3.org/1999/xlink" x="0px" y="0px"
	 viewBox="0 0 512 512" style="enable-background:new 0 0 512 512;" xml:space="preserve">
<g>
	<path d="M220.6,7.8c4.8,1.7,7.3,5.2,8,10.3c0.5,3.4,1.5,6.7,2.3,10.3c1,0,2,0,3,0c22.3,0,44.7-0.1,67,0c22.1,0.1,40.5,13.9,46,34.7
		c1,3.8,1.6,7.9,1.6,11.8c0.1,50.4,0.1,100.7,0.1,151.1c0,0.5,0,1.1-0.1,1.3c-10.2,3-20.3,6-30.6,9c0-0.7,0-1.7,0-2.6
		c0-52.2,0-104.4,0-156.7c0-6-1.7-11.1-6.6-14.8c-2.6-2-5.5-3.2-8.7-3.2c-21.3-0.1-42.7,0-64,0c-0.2,0-0.4,0.1-0.9,0.2
		c0.5,2.4,1.1,4.8,1.5,7.2c1.2,5.8-2.6,11-8.5,11.8c-0.8,0.1-1.7,0.1-2.5,0.1c-33.2,0-66.4,0-99.6,0c-5.9,0-9.8-2.7-10.9-7.6
		c-0.3-1.4-0.2-2.9,0-4.3c0.4-2.3,1-4.7,1.6-7.3c-1,0-1.8,0-2.6,0c-20,0-40.1,0-60.1,0c-10.8,0-17.6,6.7-17.6,17.6
		c0,112.1,0,224.1,0,336.2c0,11,6.8,17.7,17.7,17.7c58.3,0,116.6,0,174.9,0c2.2,0,3.2,0.6,4,2.6c3.5,9.1,8.1,17.8,13.5,26
		c0.4,0.6,0.7,1.1,1.2,2c-1.1,0-1.8,0-2.5,0c-63.9,0-127.9,0-191.8,0c-23.7,0-42.6-15.7-47-39c-0.5-2.7-0.7-5.5-0.7-8.3
		c0-112.8,0-225.5,0-338.3c0-24.2,17.6-44,41.5-46.9c2.4-0.3,4.9-0.3,7.4-0.3c22,0,43.9,0,65.9,0c0.9,0,1.8,0,3,0
		c0.8-3.5,1.8-6.9,2.3-10.4c0.7-5,3.2-8.5,8-10.3C164.6,7.8,192.6,7.8,220.6,7.8z"/>
	<path d="M376.4,250.5c70.2,0,127.1,56.8,127.1,126.8c0,70.1-57,127-127.2,126.9c-70.2-0.1-127-56.9-127-126.9
		C249.3,307.2,306.2,250.5,376.4,250.5z M432.7,461.2c-0.2-1.6-0.4-2.7-0.5-3.7c-3-17.3-6-34.6-9.1-51.8c-1.2-6.3,0.6-11.2,5.2-15.6
		c11.4-10.8,22.6-21.8,33.9-32.8c1.9-1.9,3.7-3.9,5.9-6.1c-1.7-0.4-2.9-0.8-4.2-0.9c-15.9-2.3-31.8-5-47.8-6.8
		c-8.7-1-14.3-4.6-17.9-12.8c-6.1-13.8-13.1-27.3-19.8-40.9c-1.1-2.2-2.4-4.2-3.7-6.6c-0.6,1.2-1,2-1.4,2.7
		c-5.7,11.7-11.4,23.4-17.1,35c-2.5,5-5,10.1-7.7,14.9c-2.9,5-7.5,7.3-13.2,7.5c-1.9,0.1-3.9,0-5.8,0.3c-11.7,1.8-23.4,3.6-35.1,5.4
		c-3.1,0.5-6.1,1-9.6,1.6c1,1.1,1.7,2,2.4,2.7c12.2,13,24.3,26,36.5,38.9c2.9,3.1,4.2,6.6,3.5,10.7c-2.5,14.6-5.1,29.3-7.6,43.9
		c-0.8,4.5-1.5,9.1-2.3,14c1.6-0.8,2.8-1.3,3.9-1.9c15.5-8.2,31.1-16.3,46.5-24.6c5-2.7,9.6-2.7,14.6,0
		c15.8,8.5,31.6,16.8,47.5,25.2C430.4,460.2,431.3,460.6,432.7,461.2z"/>
	<path d="M102.6,359.1c0-8.6,0-17.2,0-25.9c0-9.6,5.6-15.2,15.2-15.2c17.1,0,34.2,0,51.3,0c9.6,0,15.3,5.5,15.3,15.1
		c0,17.2,0,34.3,0,51.5c0,9.5-5.6,15-15.1,15c-17.2,0-34.5,0-51.7,0c-9.2,0-14.8-5.6-14.9-14.8c0-0.2,0-0.3,0-0.5
		C102.6,376,102.6,367.5,102.6,359.1z"/>
	<path d="M196,159.5c7.1-6.7,14.2-13.4,21.2-20.1c8.9-8.4,17.7-16.9,26.7-25.2c8.6-8,22.2-4.4,25.4,6.7c1.7,6.1,0,11.4-4.6,15.7
		c-8.7,8.3-17.5,16.5-26.2,24.8c-9.9,9.3-19.7,18.6-29.6,27.9c-6.5,6.2-13.7,6.8-21.1,1.7c-10.4-7.1-20.8-14-31.1-21.2
		c-8.9-6.2-9-18.8-0.4-25c5.3-3.8,12-4,17.7-0.2c6.5,4.3,12.9,8.7,19.3,13.1C194.2,158.3,195,158.8,196,159.5z"/>
	<path d="M196,264.7c8.3-7.8,16.4-15.5,24.5-23.1c7.9-7.5,15.7-15,23.7-22.3c8.6-7.9,22.1-4.1,25.2,7c1.7,6.1-0.1,11.4-4.6,15.7
		c-11,10.4-21.9,20.7-32.9,31.1c-7.6,7.1-15.1,14.3-22.7,21.4c-6.7,6.3-13.8,6.9-21.3,1.8c-10.4-7.1-20.8-14.1-31.1-21.2
		c-5.5-3.9-7.7-9.4-6.2-16c1.4-6.3,5.5-10.2,11.8-11.6c4.4-1,8.5,0.1,12.3,2.7C181.6,255,188.7,259.8,196,264.7z"/>
	<path d="M184.4,133c-6.2-4.4-12.5-6.5-19.5-6.4c-12.8,0.2-24.3,8.6-28.5,20.9c-4.1,12.2-0.2,25.8,9.9,33.6c3,2.3,6.2,4.3,9.3,6.5
		c0.6,0.4,1.2,0.9,2.3,1.7c-1.4,0-2.1,0-2.8,0c-12.4,0-24.8,0-37.2,0c-9.7,0-15.3-5.6-15.3-15.4c0-17,0-34,0-51
		c0-9.8,5.5-15.3,15.4-15.3c17.2,0,34.3,0,51.5,0c9.2,0,14.9,5.6,14.9,14.7C184.4,125.8,184.4,129.1,184.4,133z"/>
	<path d="M157,294.5c-9.2,0-18.3,0-27.5,0c-4.2,0-8.3,0-12.5,0c-8.8-0.1-14.4-5.7-14.5-14.5c-0.1-13,0-26,0-39c0-4.5,0-9.1,0-13.6
		c0.1-8.8,5.7-14.4,14.5-14.4c17.6,0,35.1,0,52.7,0c8.9,0,14.5,5.6,14.6,14.6c0,3.4,0,6.9,0,9.8c-4.5-1.7-8.8-3.9-13.4-4.8
		c-14-2.9-28,4.7-33.7,17.9c-5.7,13.1-1.5,28.4,10.2,36.8c3.2,2.3,6.5,4.5,9.8,6.8C157.1,294.1,157.1,294.3,157,294.5z"/>
</g>
</svg>
