<?xml version="1.0" encoding="utf-8"?>
<!-- Generator: Adobe Illustrator 24.0.2, SVG Export Plug-In . SVG Version: 6.00 Build 0)  -->
<svg version="1.1" id="Layer_1" xmlns="http://www.w3.org/2000/svg" xmlns:xlink="http://www.w3.org/1999/xlink" x="0px" y="0px"
	 viewBox="0 0 512 512" style="enable-background:new 0 0 512 512;" xml:space="preserve">
<g id="_x37_g9F6u.tif">
	<g>
		<g>
			<path d="M0,475.9c0-111.3,0-222.7,0-334c1.8-0.1,3.6-0.3,5.5-0.3c109.2,0,218.3,0,327.5,0c7.4,0,7.4,0,7.4,7.6c0,106,0,212,0,318
				c0,3-0.1,6-0.7,8.9c-4.3,19.4-16.8,30.7-35.6,35.9c-89.3,0-178.7,0-268,0C17,506.9,5,494.9,0,475.9z M170.5,192.2
				c-30.3,0-60.7,0-91,0c-11.8,0-19,5.7-18.9,14.8c0.1,8.9,7.2,14.5,18.6,14.5c60.5,0,121,0,181.5,0c2.6,0,5.3-0.3,7.9-1
				c6.4-1.7,10.6-7.2,10.7-13.5c0.1-6.4-4.3-12.2-10.9-13.8c-2.9-0.7-5.9-0.9-8.9-0.9C229.8,192.2,200.2,192.2,170.5,192.2z
				 M170.5,252.2c-30.3,0-60.7,0-91,0c-11.8,0-19,5.7-18.9,14.7c0.1,8.9,7.2,14.5,18.6,14.5c60.5,0,121,0,181.5,0
				c2.8,0,5.7-0.4,8.4-1.1c6.1-1.7,10.2-7.3,10.2-13.3c0.1-6.2-4.2-12-10.5-13.7c-3-0.8-6.2-1.1-9.4-1.1
				C229.8,252.2,200.2,252.2,170.5,252.2z M170,341.5c30.2,0,60.3,0,90.5,0c11.8,0,19-5.7,18.8-14.8c-0.1-8.9-7.1-14.5-18.6-14.5
				c-60.5,0-121,0-181.5,0c-2.8,0-5.7,0.4-8.4,1.1c-6,1.7-10.2,7.3-10.2,13.4c-0.1,6,4,11.8,10,13.5c3,0.8,6.2,1.2,9.4,1.2
				C110,341.6,140,341.5,170,341.5z M170,401.5c30.2,0,60.3,0,90.5,0c11.8,0,19-5.7,18.9-14.7c-0.1-8.9-7.1-14.5-18.6-14.5
				c-60.5,0-121,0-181.5,0c-2.8,0-5.7,0.4-8.4,1.1c-6.1,1.7-10.2,7.3-10.3,13.3c-0.1,6.2,4.2,12,10.5,13.7c3,0.8,6.2,1.1,9.4,1.1
				C110.3,401.6,140.1,401.5,170,401.5z M152.5,432.2c-24.3,0-48.7,0-73,0c-11.8,0-19,5.7-18.8,14.8c0.1,8.9,7.2,14.5,18.6,14.5
				c48.8,0,97.6,0,146.5,0c2.5,0,5-0.3,7.4-0.9c6.7-1.7,11.1-7.2,11.2-13.6c0.1-6.4-4.3-12.1-10.9-13.8c-2.7-0.7-5.6-0.9-8.4-0.9
				C200.8,432.2,176.7,432.2,152.5,432.2z"/>
			<path d="M512,311.9c-3.1,6.2-7.6,10.4-15.1,10.3c-8.4-0.1-15-6.2-15.2-14.7c-0.2-9.8-0.2-19.7,0-29.5c0.1-4.2-1.1-6.2-5.7-5.9
				c-4.3,0.3-8.7,0.3-13,0c-4.3-0.3-5.9,1.3-5.8,5.7c0.2,17.7,0.1,35.3,0.1,53c0,15-0.1,30,0.1,45c0.1,4.6-1.2,6.5-6.2,6.5
				c-19.5-0.2-39-0.2-58.5,0c-4.9,0.1-6.2-1.8-6.2-6.4c0.1-79.3,0.1-158.6,0-237.9c0-5,1.6-6.6,6.6-6.6c27.1,0.2,54.3,0,81.5,0.2
				c4.8,0,7.4-0.7,7.3-6.4c-0.1-6.1,4.7-11.3,10.6-13.1c6.2-1.9,12.9,0.2,17,5.5c1,1.3,1.7,2.8,2.6,4.3
				C512,185.2,512,248.6,512,311.9z M481.6,202.6c0-11.6-0.1-23.3,0.1-34.9c0.1-4.2-1.5-5.6-5.6-5.4c-4.6,0.2-9.3,0.2-14,0
				c-3.3-0.1-4.9,1-4.9,4.6c0.1,23.5,0.1,46.9,0,70.4c0,3.2,1.4,4.5,4.5,4.4c4.7-0.1,9.3-0.3,14,0.1c4.7,0.3,6-1.7,5.9-6.1
				C481.5,224.5,481.6,213.5,481.6,202.6z"/>
			<path d="M296.5,31.7c21.5-1.1,42.9,17.9,43.7,39.5c0.5,12,0,24,0.2,36c0,3.6-1.4,5.2-5,5c-1.5-0.1-3,0-4.5,0
				c-107.8,0-215.6,0-323.4,0c-2.5,0-5-0.2-7.5-0.3c0-15,0-30,0-45c0.6-1.9,1.2-3.8,1.9-5.7c6.4-18.1,23.9-30.4,41.7-29.5
				c0.3,0.2,0.6,0.4,0.9,0.6c0,10.6-0.1,21.3,0,31.9c0,2.3,0.5,4.6,1.1,6.9c1.8,5.9,7.4,10.1,13.4,10.1c5.8,0,11.7-4.3,13.4-10.1
				c0.7-2.5,1.2-5.2,1.2-7.8c0.1-10.3,0-20.6,0-30.9c0.3-0.2,0.6-0.4,0.9-0.6c14.4,0,28.7,0,43.1,0c0.3,0.2,0.6,0.4,0.9,0.6
				c0,10.6-0.1,21.3,0,31.9c0,2.3,0.5,4.6,1.1,6.9c1.8,5.9,7.4,10.1,13.4,10.1c5.8,0,11.7-4.3,13.4-10.1c0.7-2.5,1.2-5.2,1.2-7.8
				c0.1-10.3,0-20.6,0-30.9c0.3-0.2,0.6-0.4,0.9-0.6c14.4,0,28.7,0,43.1,0c0.3,0.2,0.6,0.4,0.9,0.6c0,10.6-0.1,21.3,0,31.9
				c0,2.3,0.5,4.6,1.1,6.9c1.8,5.9,7.4,10.1,13.4,10.1c5.8,0,11.7-4.3,13.4-10.1c0.7-2.5,1.2-5.2,1.2-7.8c0.1-10.3,0-20.6,0-30.9
				c0.3-0.2,0.6-0.4,0.9-0.6c14.4,0,28.7,0,43.1,0c0.3,0.2,0.6,0.4,0.9,0.6c0,10.6-0.1,21.3,0,31.9c0,2.3,0.5,4.6,1.1,6.9
				c1.8,5.9,7.4,10.1,13.4,10.1c5.8,0,11.7-4.3,13.4-10.1c0.7-2.5,1.2-5.2,1.2-7.8c0.1-10.3,0-20.6,0-30.9
				C295.9,32.1,296.2,31.9,296.5,31.7z"/>
			<path d="M417,511.9c-7.7-3.6-11.2-9.7-10.3-18.1c0.7-7.5-1.3-14.1-5-20.9c-9.2-16.9-14.2-35.2-14.9-54.5
				c-0.3-6.6,0.1-6.9,6.5-6.9c19.2,0,38.3,0,57.5,0c6.4,0,6.8,0.3,6.5,6.9c-0.7,19.3-5.7,37.6-14.9,54.5c-3.7,6.7-5.7,13.3-5,20.9
				c0.8,8.5-2.7,14.5-10.3,18.1C423.7,511.9,420.3,511.9,417,511.9z"/>
			<path d="M64-0.1c7.6,3.6,11,9.5,10.4,18c-0.3,4.6,0,9.3,0,13.9c-0.3,0.2-0.6,0.4-0.9,0.6c-9.7,0-19.4,0-29.1,0
				c-0.3-0.2-0.6-0.4-0.9-0.6c0-4.6,0.4-9.3,0-13.9C43,9.4,46.4,3.5,54-0.1C57.3-0.1,60.7-0.1,64-0.1z"/>
			<path d="M138-0.1c7.6,3.6,11,9.5,10.4,18c-0.3,4.6,0,9.3,0,13.9c-0.3,0.2-0.6,0.4-0.9,0.6c-9.7,0-19.4,0-29.1,0
				c-0.3-0.2-0.6-0.4-0.9-0.6c0-4.6,0.4-9.3,0-13.9c-0.6-8.4,2.8-14.4,10.4-18C131.3-0.1,134.7-0.1,138-0.1z"/>
			<path d="M212-0.1c7.6,3.6,11,9.5,10.4,18c-0.3,4.6,0,9.3,0,13.9c-0.3,0.2-0.6,0.4-0.9,0.6c-9.7,0-19.4,0-29.1,0
				c-0.3-0.2-0.6-0.4-0.9-0.6c0-4.6,0.4-9.3,0-13.9c-0.6-8.4,2.8-14.4,10.4-18C205.3-0.1,208.7-0.1,212-0.1z"/>
			<path d="M265.5,31.7c0-4.6,0.4-9.3,0-13.9c-0.6-8.4,2.8-14.4,10.4-18c3.3,0,6.7,0,10,0c7.6,3.6,11,9.5,10.4,18
				c-0.3,4.6,0,9.3,0,13.9c-0.3,0.2-0.6,0.4-0.9,0.6c-9.7,0-19.4,0-29.1,0C266.2,32.1,265.8,31.9,265.5,31.7z"/>
			<path d="M421.5,102.2c-9.7,0-19.3-0.1-29,0.1c-4.2,0.1-6.1-1.2-5.9-5.7c0.3-7.5-0.1-15,0.1-22.5c0.4-18.1,16.3-32.6,35.6-32.6
				c18.8,0,34.6,14.6,35,32.6c0.2,7.5-0.1,15,0.1,22.5c0.2,4.5-1.8,5.7-6,5.6C441.5,102.1,431.5,102.2,421.5,102.2z"/>
		</g>
	</g>
</g>
</svg>
