<?xml version="1.0" encoding="utf-8"?>
<!-- Generator: Adobe Illustrator 24.0.2, SVG Export Plug-In . SVG Version: 6.00 Build 0)  -->
<svg version="1.1" id="Capa_1" xmlns="http://www.w3.org/2000/svg" xmlns:xlink="http://www.w3.org/1999/xlink" x="0px" y="0px"
	 viewBox="0 0 350 350" style="enable-background:new 0 0 350 350;" xml:space="preserve">
<g id="vhd7Fa_1_">
	<g>
		<path d="M174.5,2.9c32.3,0,64.5,0.1,96.8,0c45.3-0.2,76.4,30.8,76.4,76.3c0,63.5,0.1,127,0,190.5c-0.1,46.6-32.1,77.7-78.9,77.5
			c-64.2-0.2-128.4,0.1-192.5-0.1C35.4,346.8,2.9,315,2.5,273.9C2.1,208,2.1,142.1,2.6,76.2C2.9,33.5,34.1,3.2,76.7,3
			C109.3,2.9,141.9,3,174.5,2.9C174.5,3,174.5,2.9,174.5,2.9z M155.2,150.3c-5,0-8.4,0-11.8,0c-23.6,0-47.2,0-70.8,0.1
			c-12.7,0.1-15.7,3.3-15.9,16.2c-0.1,5.5-0.2,11.1-0.1,16.7c0.2,12.7,3.5,16.2,16,16.2c24.3,0.2,48.6,0.1,72.9,0.1
			c3,0,5.9,0.4,8.7,0.6c0.5,2,0.9,3,0.9,4c0.1,20.1,0.3,40.2,0.1,60.4c-0.3,34.8,0.9,36,35.3,33.8c9.8-0.6,14.4-5.2,14.3-15.1
			c-0.2-19.8,0-39.5,0-59.3c0-7.8,0-15.7,0-24.4c23.2,0,44.9-0.1,66.7,0c33.2,0.2,33.3,0.1,32.2-33.6c-0.4-11.9-3.7-15.5-15.7-15.6
			c-23.9-0.2-47.9-0.1-71.8-0.1c-3.7,0-7.3-0.3-11.4-0.5c0-23.8,0-46.3,0-68.8c-0.1-29.8-0.1-29.8-30-29.5
			c-16.6,0.2-19.5,2.9-19.5,19.3C155.1,96.8,155.2,122.8,155.2,150.3z"/>
	</g>
</g>
</svg>
