<?xml version="1.0" encoding="utf-8"?>
<!-- Generator: Adobe Illustrator 24.0.2, SVG Export Plug-In . SVG Version: 6.00 Build 0)  -->
<svg version="1.1" id="Layer_1" xmlns="http://www.w3.org/2000/svg" xmlns:xlink="http://www.w3.org/1999/xlink" x="0px" y="0px"
	 viewBox="0 0 1000 1000" style="enable-background:new 0 0 1000 1000;" xml:space="preserve">
<g>
	<path d="M19,792.2c3-25.8,5.8-51.6,8.9-77.4c10.5-86.1,52.5-147.8,137-176.1c24.8-8.3,50.1-14.9,75.3-22.2c3.3-1,6.8-1.4,10.1-2.3
		c21.7-6,39.6-5.7,60.7,9.9c53.2,39.2,141.1,31.9,191-10.5c4.1-3.4,11.4-5.3,16.7-4.5c15.5,2.2,30.8,6.1,43,8.7
		c-7.9,18.4-22.1,36.2-21.2,53.2c0.9,17.5,16.6,34.2,26.2,51.9c-10.8,1.8-23.3,3.6-35.7,5.8c-20.8,3.8-34.1,17-35.1,38.1
		c-1.2,25.7-1.1,51.4,0.1,77.1c1,20.5,13.3,33.2,33.9,37.4c12.9,2.6,26,4.2,41.4,6.6c-6,8-10.8,14.7-15.8,21.2
		c-21.3,27.7-21.4,44.7,2.1,70.9c14.8,16.5,31.2,31.8,47.6,46.7c16,14.5,35,15.1,53,2.6c9.6-6.6,18.8-13.8,28.2-20.8
		c1.4,1.9,2.3,2.6,2.4,3.4c5.3,46.7,16.2,35.2-30.4,51.6c-68.7,24.1-140.5,31.8-212.9,34.1c-4.7,0.2-9.4,1.6-14.1,2.4
		c-22.8,0-45.5,0-68.3,0c-2.7-0.8-5.3-2.1-8-2.4c-37.9-3.3-76.1-4.3-113.6-10C159.2,974.9,78.9,955.4,19,890.2
		C19,857.5,19,824.9,19,792.2z"/>
	<path d="M601.2,231.3c0.2,73.1-18.5,139.1-67.8,194.5c-75.5,84.9-197.3,83.9-271.8-1.8c-39.8-45.8-59.8-99.8-63.6-159.5
		c-2.9-45,0-89.9,10.8-134c17.5-71.3,62-113.7,134.9-125.8c40-6.6,79.8-6.5,119.4,1.8C538.8,22.4,578.4,72.7,591.5,146
		C596.5,174.1,598.1,202.9,601.2,231.3z"/>
	<path d="M554.8,685.4c29.5-6,59-2.7,73.8-39.6c14.6-36.3-8.2-54.2-24.4-77.8c9.7-9.6,19.1-18.9,29.2-29
		c23.8,15.3,41.3,40.3,78.4,24.8c36.6-15.3,31.4-44.7,38.3-72.5c13,0,26.1,0,39.9,0c7.6,26.5,1.6,57.4,39,72.3
		c36.3,14.5,54.1-8.3,77.5-23.7c9.5,10.1,18.6,19.6,28.7,30.3c-15.5,21.7-37.4,40.1-22.3,76.7c15.2,36.9,44.3,33.6,72.7,39.8
		c0,12.9,0,25.6,0,39.3c-26.3,7.6-56.9,1.5-72.4,38.3c-15.5,36.8,7.5,55.1,24,79.2c-10.2,9.5-19.9,18.4-30.9,28.7
		c-8.9-6.9-18.9-14.6-28.9-22.4c-11.1-8.7-23.1-10.4-36.1-5c-7.7,3.2-15.4,6.6-23.2,9.8c-12.6,5.2-19.4,14.8-21.3,28
		c-1.2,8.3-3,16.6-3.3,24.9c-0.5,11.6-5.9,14.5-16.9,14.2c-26.5-0.6-26.5-0.1-30.2-26.2c-4.6-32.6-23.4-51-56.5-52.7
		c-8.6-0.4-18.2,3.4-26,7.8c-10.2,5.8-19,14-28.3,21.1c-1.3-0.4-2.4-0.3-3.1-0.9c-28.5-25.3-28.6-25.4-5.7-56.3
		c9.1-12.3,10.9-25,3.9-38.8c-0.4-0.9-1-1.8-1.2-2.7c-6.9-34.2-30.3-46.1-62.4-45.9c-10.5,0.1-13.6-5.2-12.7-14.9
		C555.3,703.8,554.8,695.4,554.8,685.4z M882.7,706.2c0.1-61.7-50.4-112.6-111.6-112.8c-61.5-0.1-111.9,50.2-112.1,112.1
		c-0.2,62,50.1,112.9,111.4,112.9C831.9,818.4,882.6,767.8,882.7,706.2z"/>
</g>
</svg>
