<?xml version="1.0" encoding="utf-8"?>
<!-- Generator: Adobe Illustrator 24.0.2, SVG Export Plug-In . SVG Version: 6.00 Build 0)  -->
<svg version="1.1" id="Layer_1" xmlns="http://www.w3.org/2000/svg" xmlns:xlink="http://www.w3.org/1999/xlink" x="0px" y="0px"
	 viewBox="0 0 496.2 496.2" style="enable-background:new 0 0 496.2 496.2;" xml:space="preserve">
<style type="text/css">
	.st0{fill:#FFCA02;}
	.st1{fill:#FF5023;}
	.st2{fill:#BF3C1A;}
	.st3{fill:#FF9811;}
	.st4{fill:#FFFFFF;}
	.st5{fill:#2A2718;}
</style>
<path class="st0" d="M248.1,0C111.1,0,0,111.1,0,248.1s111.1,248.1,248.1,248.1s248.1-111.1,248.1-248.1S385.1,0,248.1,0z"/>
<path class="st1" d="M332.3,371.5c0,19.9-11.6,33.7-28.1,33.7c-15.5,0-28.1-12.6-28.1-28.1v-78.7h-22.5h-11.2h-22.5v78.7
	c0,15.5-12.6,28.1-28.1,28.1s-28.1-12.6-28.1-28.1H130c0,34.1,27.7,61.8,61.8,61.8c24.9,0,46.4-14.8,56.2-36.1
	c9.8,21.3,31.3,36.1,56.2,36.1c35.2,0,61.8-29,61.8-67.4H332.3z"/>
<path class="st2" d="M332.3,371.5c0,19.9-11.6,33.7-28.1,33.7c-15.5,0-28.1-12.6-28.1-28.1v-78.7h-22.5H248v104.4
	c9.8,21.3,31.3,36.1,56.2,36.1c35.2,0,61.8-29,61.8-67.4H332.3z"/>
<path class="st1" d="M281.7,90.6c0-18.6-15.1-33.7-33.7-33.7s-33.7,15.1-33.7,33.7c0,12.5,6.8,23.4,16.9,29.2v27h33.7v-27
	C274.9,113.9,281.7,103,281.7,90.6z"/>
<path class="st2" d="M248,56.8v89.9h16.9v-27c10.1-5.8,16.9-16.7,16.9-29.2C281.7,71.9,266.6,56.8,248,56.8z"/>
<circle class="st3" cx="248" cy="253.5" r="118"/>
<path class="st1" d="M248,135.5c65.2,0,118,52.8,118,118s-52.8,118-118,118"/>
<path class="st4" d="M248,191.7c-27.9,0-50.6,22.7-50.6,50.6s22.7,50.6,50.6,50.6c27.9,0,50.6-22.7,50.6-50.6S275.9,191.7,248,191.7
	z"/>
<g>
	
		<ellipse transform="matrix(0.1602 -0.9871 0.9871 0.1602 -30.8675 448.2609)" class="st5" cx="248" cy="242.3" rx="16.9" ry="16.9"/>
	<path class="st5" d="M225.5,315.3c0,12.4,10.1,22.5,22.5,22.5l0,0c12.4,0,22.5-10.1,22.5-22.5H225.5z"/>
</g>
</svg>
