<?xml version="1.0" encoding="utf-8"?>
<!-- Generator: Adobe Illustrator 24.0.2, SVG Export Plug-In . SVG Version: 6.00 Build 0)  -->
<svg version="1.1" id="Layer_1" xmlns="http://www.w3.org/2000/svg" xmlns:xlink="http://www.w3.org/1999/xlink" x="0px" y="0px"
	 viewBox="0 0 496.2 496.2" style="enable-background:new 0 0 496.2 496.2;" xml:space="preserve">
<style type="text/css">
	.st0{fill:#FFCA02;}
	.st1{fill:#323433;}
	.st2{fill:#606060;}
	.st3{fill:#EE4F15;}
	.st4{fill:#D33A00;}
	.st5{fill:#FFFFFF;}
	.st6{fill:#ECEAB0;}
</style>
<path class="st0" d="M247-1.1C110-1.1-1.1,110-1.1,247C-1.1,384,110,495.1,247,495.1c137,0,248.1-111.1,248.1-248.1
	C495.1,110,384-1.1,247-1.1z"/>
<g>
	<polygon class="st1" points="253.1,51 240.1,51 234.6,112 258.6,112 	"/>
	<circle class="st1" cx="246.6" cy="52" r="18"/>
</g>
<path class="st2" d="M257.1,40.5c-6.1-6.1-15.9-6.1-21.9,0s-6.1,15.9,0,21.9C241.2,68.5,263.1,46.6,257.1,40.5z"/>
<g>
	<path class="st3" d="M353.7,215c0.4-56.1-47.8-106.7-106.7-106.7c-58.9,0-110.2,51.7-106.7,106.7c3.5,55,15.9,134.4,15.9,170.3
		c0,28.9-10.3,71.1-14.3,86.5c31.9,15,67.5,23.3,105.1,23.3c37.6,0,73.2-8.4,105.1-23.3c-4-15.3-14.3-57.5-14.3-86.5
		C337.8,349.2,353.3,271.1,353.7,215z"/>
	<circle class="st3" cx="247.6" cy="211.7" r="56.8"/>
</g>
<circle class="st4" cx="247.6" cy="370.7" r="52.8"/>
<circle class="st5" cx="247.6" cy="211.7" r="52.8"/>
<g>
	<circle class="st1" cx="247.6" cy="211.7" r="27.3"/>
	<ellipse class="st1" cx="249" cy="211.8" rx="3.8" ry="16.3"/>
</g>
<g>
	<path class="st2" d="M263.8,194.1c-9.4-9.4-24.5-9.4-33.9,0c-9.4,9.4-9.4,24.5,0,33.9S273.2,203.4,263.8,194.1z"/>
</g>
<g>
	<path class="st6" d="M294,345.5c-9-16.4-26.4-27.6-46.4-27.6s-37.4,11.1-46.4,27.6h0l9.1,15.4l9.7-15.1l8.9,15.1l9.7-15.1l8.9,15.1
		l9.7-15.1l8.9,15.1l9.7-15.1l8.9,15.1l9.9-15.4H294z"/>
	<path class="st6" d="M294.2,395.5h-0.7l-8.6-14.7l-9.4,14.7H275l-8.6-14.7l-9.4,14.7h-0.4l-8.6-14.7l-9.4,14.7h-0.4l-8.6-14.7
		l-9.4,14.7h-0.4l-8.6-14.7l-9.4,14.7h-0.6c0.1,0.2,0.2,0.4,0.3,0.5l-0.1,0.1h0.2c9,16.3,26.3,27.4,46.3,27.4s37.3-11.1,46.3-27.4
		h0.1l0-0.1C294,395.9,294.1,395.7,294.2,395.5z"/>
</g>
</svg>
