<?xml version="1.0" encoding="utf-8"?>
<!-- Generator: Adobe Illustrator 24.0.2, SVG Export Plug-In . SVG Version: 6.00 Build 0)  -->
<svg version="1.1" id="Layer_1" xmlns="http://www.w3.org/2000/svg" xmlns:xlink="http://www.w3.org/1999/xlink" x="0px" y="0px"
	 viewBox="0 0 496.2 496.2" style="enable-background:new 0 0 496.2 496.2;" xml:space="preserve">
<style type="text/css">
	.st0{fill:#FFCA02;}
	.st1{fill:#EE4F15;}
	.st2{fill:#22343D;}
</style>
<g id="WSYNtL.tif">
	<g>
		<path class="st0" d="M0,260.9c0-8.4,0-16.8,0-25.1c0.8-6.7,1.4-13.4,2.3-20c6.9-49.5,26.1-93.6,59.8-130.6
			C122.8,18.6,198.4-8.5,287.5,4.3c52.3,7.5,97.3,31.2,134.8,68.4c39.1,38.8,62.8,85.6,70.8,140.2c1.1,7.6,1.9,15.3,2.9,22.9
			c0,8.4,0,16.8,0,25.1c-0.3,1.9-0.7,3.7-1,5.6c-1.2,9.1-1.8,18.3-3.5,27.2c-11.1,57.7-39.2,105.7-84.1,143.7
			c-35.7,30.2-77,48.8-123.4,55.5c-7.8,1.1-15.6,2-23.4,2.9c-8.4,0-16.8,0-25.2,0c-5.1-0.6-10.2-1.3-15.3-1.9
			c-54.6-6.3-102.1-28.2-142-65.9c-41.7-39.4-66.9-87.6-75.2-144.4C1.7,276.2,0.9,268.6,0,260.9z M245.5,98.8
			c-3.7,0.3-10,0.7-16.2,1.5c-74.9,10-127.3,82.1-113.5,156.2c7.2,38.8,23.8,73.3,47.5,104.7c13.1,17.4,28.3,32.6,47.1,43.9
			c24.8,14.9,49.7,15.3,74.6,0.3c6.6-4,13-8.4,18.8-13.5c33.9-29.7,56-67,70-109.4c7.8-23.7,11.1-48,6.4-72.9
			C367.9,144.6,314.9,100.3,245.5,98.8z"/>
		<path class="st1" d="M245.5,98.8c69.3,1.4,122.4,45.8,134.7,110.8c4.7,24.8,1.3,49.1-6.4,72.9c-13.9,42.4-36,79.8-70,109.4
			c-5.8,5.1-12.2,9.5-18.8,13.5c-24.8,15-49.7,14.7-74.6-0.3c-18.8-11.3-34-26.6-47.1-43.9c-23.6-31.3-40.3-65.9-47.5-104.7
			c-13.8-74.1,38.6-146.2,113.5-156.2C235.5,99.5,241.8,99.2,245.5,98.8z M352.9,241.8c0-1.6,0.1-3.2,0-4.8
			c-0.9-15.3-7.1-20.6-22.4-19.4c-0.2,0-0.3,0-0.5,0c-19.5,2.5-36.1,10.3-47.9,26.6c-9.5,13.1-14.2,27.7-13.6,43.9
			c0.6,16.3,6.6,21.6,22.8,20.5C325.5,306.4,352.7,277,352.9,241.8z M142.6,241.1c0.7,5.1,1,9.6,1.8,14c6.2,31.2,36,55.3,66,53.6
			c10.6-0.6,15.1-4.2,16.3-14.7c3.1-27.2-6.4-49.4-29-65.1c-12.5-8.6-26.6-13-42.1-10.6c-5.7,0.9-9.5,4-10.8,9.6
			C143.7,232.4,143.2,237,142.6,241.1z"/>
		<path class="st2" d="M352.9,241.8c-0.1,35.2-27.4,64.6-61.6,66.8c-16.2,1-22.2-4.2-22.8-20.5c-0.6-16.1,4.1-30.8,13.6-43.9
			c11.8-16.3,28.4-24.1,47.9-26.6c0.2,0,0.3,0,0.5,0c15.3-1.2,21.5,4.1,22.4,19.4C352.9,238.6,352.9,240.2,352.9,241.8z"/>
		<path class="st2" d="M142.6,241.1c0.7-4.1,1.1-8.7,2.2-13.2c1.3-5.6,5.1-8.7,10.8-9.6c15.5-2.4,29.6,2,42.1,10.6
			c22.7,15.7,32.1,37.8,29,65.1c-1.2,10.5-5.7,14.1-16.3,14.7c-30,1.8-59.8-22.3-66-53.6C143.5,250.7,143.2,246.2,142.6,241.1z"/>
	</g>
</g>
</svg>
