<?xml version="1.0" encoding="utf-8"?>
<!-- Generator: Adobe Illustrator 24.0.2, SVG Export Plug-In . SVG Version: 6.00 Build 0)  -->
<svg version="1.1" id="Layer_1" xmlns="http://www.w3.org/2000/svg" xmlns:xlink="http://www.w3.org/1999/xlink" x="0px" y="0px"
	 viewBox="0 0 496.2 496.2" style="enable-background:new 0 0 496.2 496.2;" xml:space="preserve">
<style type="text/css">
	.st0{fill:#FFCA02;}
	.st1{fill:#606060;}
	.st2{fill:#EE4F15;}
	.st3{fill:#22343D;}
	.st4{fill:#CBEFE1;}
</style>
<path class="st0" d="M248-0.2C111-0.2-0.1,110.9-0.1,247.9C-0.1,384.9,111,496,248,496c137,0,248.1-111.1,248.1-248.1
	C496.1,110.9,385-0.2,248-0.2z"/>
<path class="st1" d="M284.9,444.2c-3.4-23.7,10.7-74.3,10.7-74.3h-91.3c0,0,15,50,10.7,74.3c-2.1,11.7-30.6,26-49.5,37.7
	C191.3,491,219.1,496,248,496c30,0,58.7-5.3,85.3-15.1C314.4,469.3,286.5,455.4,284.9,444.2z"/>
<path class="st2" d="M248,59.9c-84.2,0-185.1,83.6-152.2,180.7c29,85.3,106.1,156.6,152.2,156.6s124.2-72,152.2-156.6
	C432.3,143.2,332.2,59.9,248,59.9z"/>
<path d="M233,248.5c-0.2-0.6-5-15.1-15-29.9c-13.4-19.8-29.9-30.3-47.6-30.3c-17.5,0-36.4,10-56.2,29.8c-0.7,0.7-0.8,1.7-0.3,2.5
	c0.3,0.4,25.8,38.8,75.6,38.8c0,0,0,0,0,0c13.5,0,27.7-2.8,42.3-8.4C232.9,250.6,233.4,249.5,233,248.5z"/>
<path class="st3" d="M125.2,220.3c0,0,32.1,49.4,96.4,24.7C221.6,245,191.9,153.5,125.2,220.3z"/>
<path class="st4" d="M163,206.3c-1,6.4,20.3,9.6,21.3,3.3C185.3,203.2,164,200,163,206.3z"/>
<path d="M381.7,218.1c-19.8-19.8-38.7-29.8-56.2-29.8c-17.7,0-34.2,10.5-47.6,30.3c-10,14.8-14.8,29.3-15,29.9
	c-0.3,1,0.2,2.1,1.2,2.5c14.5,5.6,28.8,8.4,42.3,8.4c49.8,0,75.3-38.4,75.6-38.8C382.5,219.8,382.4,218.8,381.7,218.1z"/>
<path class="st3" d="M274.4,245c64.2,24.7,96.4-24.7,96.4-24.7C304.1,153.5,274.4,245,274.4,245z"/>
<path class="st4" d="M333,206.3c-1-6.4-22.3-3.1-21.3,3.3C312.7,216,334,212.7,333,206.3z"/>
<g>
	<path class="st3" d="M239.3,298.8c-3.9,0-7,2.9-7,6.5s14,3.6,14,0S243.2,298.8,239.3,298.8z"/>
	<path class="st3" d="M256.7,298.8c-3.9,0-7,2.9-7,6.5s14,3.6,14,0S260.5,298.8,256.7,298.8z"/>
	<path class="st3" d="M280.3,347.4c0,3-15,3.5-33.5,3.5s-33.5-0.5-33.5-3.5s15-3.5,33.5-3.5S280.3,344.4,280.3,347.4z"/>
</g>
</svg>
