<?xml version="1.0" encoding="utf-8"?>
<!-- Generator: Adobe Illustrator 24.0.2, SVG Export Plug-In . SVG Version: 6.00 Build 0)  -->
<svg version="1.1" id="Layer_1" xmlns="http://www.w3.org/2000/svg" xmlns:xlink="http://www.w3.org/1999/xlink" x="0px" y="0px"
	 viewBox="0 0 496.2 496.2" style="enable-background:new 0 0 496.2 496.2;" xml:space="preserve">
<style type="text/css">
	.st0{fill:#FFCA02;}
	.st1{fill:#FF9811;}
	.st2{fill:#FF5023;}
	.st3{fill:#2A2718;}
	.st4{fill:#FFFFFF;}
</style>
<path class="st0" d="M248.1,0C111.1,0,0,111.1,0,248.1s111.1,248.1,248.1,248.1s248.1-111.1,248.1-248.1S385.1,0,248.1,0z"/>
<g>
	<path class="st1" d="M163.5,169.1c-3.3,0-6-2.7-6-6c0-33.2-21.6-60.2-48.2-60.2c-3.3,0-6-2.7-6-6s2.7-6,6-6
		c33.2,0,60.2,32.4,60.2,72.3C169.5,166.4,166.8,169.1,163.5,169.1z"/>
	<path class="st1" d="M332.1,157.9c-3.3,0-6-2.7-6-6c0-33.4,20.8-54.2,54.2-54.2c3.3,0,6,2.7,6,6s-2.7,6-6,6
		c-26.8,0-42.2,15.4-42.2,42.2C338.2,155.2,335.5,157.9,332.1,157.9z"/>
	<path class="st2" d="M250.2,416.9c67.7,0.9,105.5-26.4,126.5-55.3c21.7-29.9,28.7-68,22-104.3c-24.4-131.6-148.5-130.5-148.5-130.5
		S126,125.6,101.7,257.2c-6.7,36.4,0.3,74.4,22,104.3C144.6,390.5,182.4,417.8,250.2,416.9z"/>
	<path class="st3" d="M100.2,267c-2.7-2.6-5.9-4.1-9.4-4.1c-9.8,0-17.7,11.9-17.7,26.6s7.9,26.6,17.7,26.6c4.1,0,7.9-2.2,10.9-5.8
		C99,296.2,98.5,281.6,100.2,267z"/>
	<path class="st3" d="M421.4,244c-3.4-14.3-13.9-24.1-23.4-21.8c-3,0.7-5.4,2.6-7.4,5.1c3.2,9.1,6,19,8,29.9c0.9,5,1.6,10.1,2,15.2
		c3.1,1.7,6.5,2.4,9.7,1.7C419.8,271.8,424.8,258.3,421.4,244z"/>
	<ellipse class="st4" cx="250.8" cy="212.1" rx="45.2" ry="36.1"/>
	<ellipse class="st3" cx="250.8" cy="212.1" rx="27.1" ry="18.1"/>
	<ellipse class="st4" cx="172.5" cy="248.2" rx="45.2" ry="36.1"/>
	<ellipse class="st3" cx="172.5" cy="248.2" rx="27.1" ry="18.1"/>
	<ellipse class="st4" cx="329.1" cy="248.2" rx="45.2" ry="36.1"/>
	<ellipse class="st3" cx="329.1" cy="248.2" rx="27.1" ry="18.1"/>
	<path class="st1" d="M347.8,321.7l-24.1-18.1c-2.7-2-6.4-1.5-8.4,1.2c-2,2.7-1.5,6.4,1.2,8.4l8.5,6.4c-7.7,9.6-32.2,37.2-65.6,42.2
		c-21.1,3.2-42.4-3.3-63.2-19.2l7.1-5.3c2.7-2,3.2-5.8,1.2-8.4c-2-2.7-5.8-3.2-8.4-1.2l-24.1,18.1c-2.7,2-3.2,5.8-1.2,8.4
		c1.2,1.6,3,2.4,4.8,2.4c1.3,0,2.5-0.4,3.6-1.2l7.1-5.3c0.2,0.2,0.3,0.5,0.6,0.7c20.1,15.9,40.9,23.9,61.9,23.9
		c4.1,0,8.3-0.3,12.5-0.9c38.3-5.8,65-36.1,73.4-46.9l5.9,4.5c1.1,0.8,2.4,1.2,3.6,1.2c1.8,0,3.6-0.8,4.8-2.4
		C351,327.5,350.5,323.7,347.8,321.7z"/>
	<circle class="st3" cx="91.2" cy="96.8" r="18.1"/>
	<circle class="st3" cx="398.4" cy="103.7" r="18.1"/>
</g>
</svg>
