<?xml version="1.0" encoding="utf-8"?>
<!-- Generator: Adobe Illustrator 24.0.2, SVG Export Plug-In . SVG Version: 6.00 Build 0)  -->
<svg version="1.1" id="Layer_1" xmlns="http://www.w3.org/2000/svg" xmlns:xlink="http://www.w3.org/1999/xlink" x="0px" y="0px"
	 viewBox="0 0 512 512" style="enable-background:new 0 0 512 512;" xml:space="preserve">
<path d="M1.1,256.4c0-64.4-0.1-128.9,0-193.3C1.2,39,5.1,35.1,29,35c28.9-0.1,57.8,0.3,86.7-0.1c13.6-0.2,23.9,4.9,32.2,15.5
	c49.1,62,98.4,123.9,147.4,186c12,15.2,12.1,22.9,0.1,38C245.3,337.3,194.9,400,144.7,462.9c-8.1,10.1-18,15.3-31.1,14.8
	c-31.5-1.1-63-1.6-94.5-2.8c-13.5-0.5-17.6-5.3-17.8-21.1c-0.3-38.7-0.2-77.3-0.2-116C1.1,310.6,1.1,283.5,1.1,256.4z"/>
<path d="M333.4,34.9c6,4.4,12.6,7.5,16.8,12.6c51.6,63.5,102.9,127.2,154,191c10.2,12.7,10.4,22.3,0.3,35.1
	C454.2,336.9,403.7,400.2,352.8,463c-14.2,17.5-22.3,17.4-40.4,3.4c-6.3-4.9-12.7-9.8-18.6-15.1c-14-12.6-15-22-3.2-36.9
	c26-32.7,52.3-65.2,78.6-97.7c12.6-15.6,24.8-31.4,38-46.4c8.7-9.9,8.4-17.7,0-27.8c-38.7-47-77-94.4-115.2-141.8
	c-14.2-17.6-13.5-24,3.6-38.9c7-6.1,14-12.3,21.5-17.9C321.5,40.5,326.9,38.4,333.4,34.9z"/>
</svg>
