<?xml version="1.0" encoding="utf-8"?>
<!-- Generator: Adobe Illustrator 24.0.2, SVG Export Plug-In . SVG Version: 6.00 Build 0)  -->
<svg version="1.1" id="Layer_1" xmlns="http://www.w3.org/2000/svg" xmlns:xlink="http://www.w3.org/1999/xlink" x="0px" y="0px"
	 viewBox="0 0 300 300" style="enable-background:new 0 0 300 300;" xml:space="preserve">
<g id="GdFjPy.tif">
	<g>
		<path d="M289,77.7c-0.1,3-1.5,6-4.1,8.6c-40.5,40.5-81,81.1-121.6,121.6c-3.5,3.5-7.1,7-10.6,10.6c-2.7,2.8-5.9,4.6-9.9,4.7
			c-3.4,0-6.6-1-9.2-3.5c-4-3.9-8-7.9-12-11.8c-9.1-9.1-18.1-18.1-27.2-27.2c-10.4-10.4-20.8-20.8-31.2-31.2
			c-4.9-4.9-5.8-11.2-2.2-17.1c0.6-1,1.5-1.8,2.3-2.6c5.7-5.7,11.4-11.4,17.1-17.1c3.5-3.6,7.7-4.9,12.5-4c2.5,0.5,4.7,1.8,6.6,3.6
			c13.1,13.1,26.2,26.2,39.3,39.3c0.8,0.8,1.6,1.6,2.3,2.4c1.4,1.4,1.4,1.4,2.7,0c6.3-6.3,12.6-12.6,18.9-18.8
			c8-8,16.1-16.1,24.1-24.1c11-11,21.9-22,32.9-32.9c9.4-9.4,18.9-18.8,28.2-28.2c2.5-2.6,5.5-4.2,9.1-4.4c3-0.2,6,0.5,8.4,2.6
			c2.9,2.6,5.7,5.3,8.5,8.1c3.6,3.5,7.1,7.1,10.6,10.6C287.6,69.7,289.2,73.4,289,77.7z"/>
		<path d="M17,149.7c0-13.5,0-26.9,0-40.4c0-8.5,0-16.9,0-25.4c0-4.3,0.3-8.5,1.2-12.6c1.3-5.9,3.6-11.5,7.4-16.3
			c2.6-3.2,5.3-6.4,8.4-9.2c4.3-3.9,9.4-6.8,15-8.6c5.8-1.9,11.7-2.5,17.7-2.5c10.9,0,21.8,0,32.7,0c15.9,0,31.9,0,47.8,0
			c17.1,0,34.2,0,51.2,0.1c3.9,0,7.9,0.3,11.7,1.1c3.1,0.6,6.2,1.8,9.2,3.1c3.6,1.5,4.3,5.8,1.6,8.5c-2.4,2.5-4.8,4.9-7.3,7.3
			c-1.8,1.8-3.7,2.6-6.4,1.8c-2.4-0.7-5-0.7-7.5-0.7c-45,0-90,0-135-0.1c-5.2,0-10,1.1-14.3,3.9c-3.9,2.6-7.1,5.8-9.4,10.1
			c-2.4,4.6-3,9.6-3.1,14.7c-0.1,5.4,0,10.8,0,16.2c0,8.1,0.1,16.2,0.1,24.3c0,8-0.1,16-0.1,24c0,7.9,0.1,15.8,0.1,23.7
			c0,8-0.1,16-0.1,24c0,6.7,0.1,13.4,0.1,20.1c0,5.5,1.1,10.8,4.2,15.4c2.4,3.6,5.5,6.5,9.3,8.7c4.3,2.5,8.9,3.3,13.8,3.3
			c44.7,0,89.4,0,134.2,0c5.4,0,10.4-1.2,15-4.1c1.6-1,3.2-2.3,4.5-3.7c3.1-3.3,5.7-6.9,6.5-11.5c0.4-2.4,1-4.8,1-7.2
			c0.1-13.1,0.1-26.3,0-39.5c0-2.8,1-5,3-6.9c2.9-2.8,5.8-5.6,8.7-8.4c1-1,2-1.8,3.5-2c2.3-0.2,5.3,1.1,5.7,3.7
			c0.1,0.9,0.2,1.8,0.2,2.8c0,16.6,0.1,33.1,0,49.7c0,3.5-0.2,7-0.8,10.4c-1.1,5.8-3.2,11.2-6.6,16.1c-2.9,4.2-6.2,7.9-10.1,11.1
			c-4.3,3.5-9,6.2-14.3,8c-6,2-12.2,2.5-18.5,2.5c-10.9,0-21.8,0-32.7,0c-15.9,0-31.9,0-47.8,0c-15.9,0-31.9,0-47.8,0
			c-4,0-8-0.1-11.9-0.6c-4.4-0.6-8.7-1.9-12.8-3.9c-8.3-4-14.8-10.1-19.9-17.7c-2.4-3.7-4.2-7.7-5.4-11.9c-1.2-4.2-1.7-8.6-1.7-13
			c0-15.1,0-30.3,0-45.4C17,165.1,17,157.4,17,149.7C17,149.7,17,149.7,17,149.7z"/>
	</g>
</g>
</svg>
