<?xml version="1.0" encoding="utf-8"?>
<!-- Generator: Adobe Illustrator 24.0.2, SVG Export Plug-In . SVG Version: 6.00 Build 0)  -->
<svg version="1.1" id="Capa_1" xmlns="http://www.w3.org/2000/svg" xmlns:xlink="http://www.w3.org/1999/xlink" x="0px" y="0px"
	 viewBox="0 0 350 350" style="enable-background:new 0 0 350 350;" xml:space="preserve">
<g id="BkF49P.tif">
	<g>
		<path d="M347.7,350c-1.5-0.1-2.9-0.3-4.4-0.3c-30.9,0-61.7,0-92.6,0c-1.7,0-3.3,0-5.2,0c0-57.7,0-115,0-172.8c34,0,68.1,0,102.2,0
			C347.7,234.6,347.7,292.3,347.7,350z"/>
		<path d="M1.5,212.1c32.7,0,65.4,0.1,98,0.1c1.3,0,2.6,0,4.1,0c0,46,0,91.6,0,137.6c-1.6,0-3.1,0-4.5,0c-31.4,0-62.9,0-94.3,0
			c-1.1,0-2.2,0.2-3.3,0.3C1.5,304,1.5,258,1.5,212.1z"/>
		<path d="M123.5,125.7c34.1,0,67.9,0,102.1,0c0,74.5,0,149,0,223.7c-34,0-68,0-102.1,0C123.5,274.8,123.5,200.4,123.5,125.7z"/>
	</g>
</g>
</svg>
