<?xml version="1.0" encoding="utf-8"?>
<!-- Generator: Adobe Illustrator 24.0.2, SVG Export Plug-In . SVG Version: 6.00 Build 0)  -->
<svg version="1.1" id="Capa_1" xmlns="http://www.w3.org/2000/svg" xmlns:xlink="http://www.w3.org/1999/xlink" x="0px" y="0px"
	 viewBox="0 0 350 350" style="enable-background:new 0 0 350 350;" xml:space="preserve">
<g id="fsyoeg.tif">
	<g>
		<path d="M174.8,347c-7.8,0-15.7,0-23.5,0c-5.5,0-8.7-2.6-9.4-8.3c-1.4-10.6-3.3-21.1-4.7-31.7c-0.7-5.3-3-7.9-8-10.7
			c-10.3-5.6-17.9-4.3-26,3.7c-5.5,5.5-12.3,9.6-18.6,14.3c-4.1,3.1-8.3,3.3-12-0.4c-11.5-11.4-22.9-22.8-34.3-34.3
			c-5.1-5.2-4.8-10.4-0.2-15.9c6.1-7.4,11.8-15.3,17.8-22.8c2.8-3.4,2.5-6.2,1.5-10.5c-3.6-14.9-12.9-20.1-27.3-20
			c-6.2,0.1-12.3-1.9-18.6-2.6c-5.6-0.7-8.5-3.9-8.5-9.3c-0.1-15.9-0.1-31.8,0-47.7c0-5.4,2.8-8.6,8.5-9.4c11.4-1.6,22.7-3.2,34-5.4
			c2.6-0.5,5.2-3.2,7-5.5c8.5-11.6,5.5-21.7-4.3-31.1c-4.3-4.1-7.5-9.4-11.4-13.9c-3.9-4.5-4.4-9.1-0.3-13.3
			c11.6-11.9,23.4-23.7,35.3-35.3c4.7-4.6,9.6-3.8,14.7,0.3c7.9,6.5,16.2,12.3,24,18.8c3.5,2.9,6.3,2.3,10.5,1.2
			c12-3.2,17.1-10,17-22.5c-0.1-7.7,2.6-15.4,3.8-23.1c0.9-5.9,4.3-8.5,10.2-8.5c15.4,0.1,30.8,0,46.2,0c6.2,0,9.4,2.8,10.2,9.3
			c1.4,11.1,3.6,22.1,5,33.2c0.5,4.2,2.9,5.6,6.2,7.6c11,6.9,19.9,4.7,28.7-4c5.2-5.1,11.5-8.9,17.4-13.3c4.1-3.1,8.4-3.2,12.1,0.4
			c11.7,11.6,23.1,23.3,34.6,35.1c4.6,4.8,4.1,9.6,0.1,14.6c-6.2,7.7-12,15.8-18.3,23.4c-2.8,3.4-2.5,6.2-1.4,10.4
			c3.6,13.9,11.8,19.9,26,19.6c6.4-0.1,12.9,1.9,19.3,2.8c6.2,0.8,9.2,4.2,9.1,10.5c-0.1,15.1-0.1,30.3,0,45.4
			c0.1,6.6-3,10.1-9.5,11.1c-10.8,1.5-21.7,2.9-32.4,5.1c-2.9,0.6-5.9,3.2-7.7,5.8c-7.8,10.9-5.9,20.7,3.8,29.8
			c4.7,4.4,8.2,10.1,12.3,15.1c3.7,4.5,4.2,9,0,13.3c-11.1,11.4-22.2,22.7-33.5,33.9c-5.7,5.7-11.5,5.8-17.9,0.2
			c-7.3-6.3-15.3-11.8-22.6-18c-3.5-2.9-6.2-2.2-10.4-1.2c-12.5,3.2-17.3,10.6-17.2,23.2c0,7.7-2.5,15.4-3.9,23.1
			c-1,5.6-4.4,7.9-9.9,7.8C190.5,346.9,182.7,347,174.8,347z M117.8,174c-0.6,31.6,24.3,57.5,56.1,58.3c31.6,0.8,58.1-25,58.5-56.8
			c0.4-31.5-24.9-57.3-56.6-57.8C144.1,117.1,118.5,142.1,117.8,174z"/>
	</g>
</g>
</svg>
