<?xml version="1.0" encoding="utf-8"?>
<!-- Generator: Adobe Illustrator 24.0.2, SVG Export Plug-In . SVG Version: 6.00 Build 0)  -->
<svg version="1.1" id="Capa_1" xmlns="http://www.w3.org/2000/svg" xmlns:xlink="http://www.w3.org/1999/xlink" x="0px" y="0px"
	 viewBox="0 0 512 512" style="enable-background:new 0 0 512 512;" xml:space="preserve">
<style type="text/css">
	.st0{fill:#FFFFFF;}
</style>
<g id="_x31_lugDx.tif">
	<g>
		<path d="M102.6,402.9c-16.7,0-32.6,0-48.5,0c-31.6-0.1-53.4-21.9-53.4-53.4c0-89,0-178.1,0-267.1C0.7,50.9,22.6,29,54.1,29
			c134.3,0,268.7,0,403,0c31.6,0,53.4,21.8,53.4,53.4c0,89,0,178.1,0,267.1c0,31.5-21.9,53.3-53.5,53.3c-66,0-132,0-198.1-0.1
			c-4.2,0-7.3,1.1-10.5,3.7c-37.6,30.3-75.4,60.4-113.1,90.6c-1.7,1.3-3.3,2.7-5,3.9c-5.6,4.1-11.6,5.2-18,2.1
			c-6.5-3.2-9.7-8.6-9.7-15.8c0-25.5,0-51,0-76.5C102.6,408.5,102.6,406,102.6,402.9z M255.5,199c44.8,0,89.6,0,134.3,0
			c10.9,0,18.5-7,18.6-16.8c0.1-10-7.6-17.2-18.8-17.2c-89.4,0-178.8,0-268.1,0c-11.3,0-18.9,7-18.9,17.1c0,10,7.8,16.9,19.1,16.9
			C166.3,199,210.9,199,255.5,199z M187.3,267C187.3,267,187.3,266.9,187.3,267c22.1,0,44.2,0,66.4,0c11.2,0,18.9-7.1,18.8-17.1
			c-0.1-9.8-7.7-16.8-18.6-16.8c-8,0-15.9,0-23.9,0c-36.3,0-72.5,0-108.8,0c-7.9,0-13.8,3-17.1,10.2c-5.2,11.4,3.2,23.7,16.3,23.8
			C142.8,267,165.1,267,187.3,267z"/>
		<path class="st0" d="M102.7,182.1"/>
		<path class="st0" d="M121.7,199"/>
	</g>
</g>
</svg>
