<?xml version="1.0" encoding="utf-8"?>
<!-- Generator: Adobe Illustrator 24.0.2, SVG Export Plug-In . SVG Version: 6.00 Build 0)  -->
<svg version="1.1" id="Capa_1" xmlns="http://www.w3.org/2000/svg" xmlns:xlink="http://www.w3.org/1999/xlink" x="0px" y="0px"
	 viewBox="0 0 512 512" style="enable-background:new 0 0 512 512;" xml:space="preserve">
<g id="fvKAK3.tif">
	<g>
		<path d="M153,512c-7.2-2.3-14.1-4.9-19.4-10.6c-5.8-6.2-9.2-13.4-9.7-21.9c-3.3-50.5-6.7-101-10.1-151.6
			c-3.8-57.2-7.7-114.3-11.5-171.5c-0.1-1.3,0-2.6,0-4.2c105.9,0,211.4,0,317.4,0c-0.3,6.6-0.6,12.8-1,19.1
			c-2.9,44.4-5.8,88.7-8.8,133.1c-3.5,52.3-7.1,104.7-10.6,157c-0.4,5.5-0.7,11-1.1,16.5c-1.2,17.1-10.8,28.8-27.4,33.2
			c-0.6,0.2-1.2,0.6-1.8,0.8C297,512,225,512,153,512z M309.1,431.2c-0.3,8.8,6.1,16.2,14.9,16.8c8.9,0.5,16.2-6,17-15.4
			c1.1-11.6,2-23.2,3-34.8c2.9-32.7,5.7-65.4,8.6-98.1c1.5-16.9,3.1-33.8,4.3-50.8c0.6-9-6.2-16.3-14.9-16.9
			c-8.7-0.5-16.1,5.9-17,14.8c-0.4,4-0.7,8-1,11.9c-2.9,32.7-5.7,65.4-8.5,98.1C313.3,381.5,311.2,406,309.1,431.2z M213,431.2
			c-1.1-13.2-2.2-25.6-3.3-38.1c-4.2-48.1-8.5-96.2-12.6-144.4c-0.9-10.5-7.9-17.4-17.3-16.7c-9.4,0.7-15.5,8.6-14.7,19
			c0.7,8.1,1.4,16.3,2.1,24.4c4.6,52.3,9.2,104.5,13.7,156.8c0.8,9.6,8.1,16.4,17.1,15.7C207,447.3,213.3,439.9,213,431.2z M277,340
			c0-30.2,0-60.3,0-90.5c0-10.3-6.6-17.4-15.9-17.5c-9.3-0.1-16.1,7.1-16.1,17.3c0,60.5,0,121,0,181.4c0,10.1,6.9,17.3,16.1,17.3
			c9.2,0,15.8-7.3,15.8-17.5C277,400.3,277,370.1,277,340z"/>
		<path d="M320,0c1.7,0.6,3.4,1.2,5.1,1.8C339,6.4,348.6,19.1,349,33.7c0.2,7.2,0,14.3,0,22.3c1.9,0,3.6,0,5.4,0c23.3,0,46.7,0,70,0
			c21.9,0,36.6,14.8,36.6,36.7c0,8.8,0,17.6,0,26.9c-133.3,0-266.4,0-399.5,0c0-11.6-1.2-23.4,0.3-34.8C64.1,67.6,78.6,56.1,96.2,56
			c23.7-0.1,47.3,0,71,0c1.8,0,3.6,0,5.9,0c0-6.6,0-12.7,0-18.8c0-19.1,9.4-31.4,27.8-36.5c0.5-0.1,0.8-0.5,1.2-0.8
			C241.4,0,280.7,0,320,0z M261,56c17,0,34-0.1,51,0c3.5,0,5.3-1.1,5.1-4.9c-0.2-5-0.1-10,0-15c0-3-1.3-4.3-4.2-4.2
			c-1.2,0.1-2.3,0-3.5,0c-32.2,0-64.3,0-96.5,0c-7.8,0-7.8,0-7.8,8.1c0,3.3,0.2,6.7-0.1,10c-0.4,4.7,1.4,6.1,6,6
			C227.7,55.9,244.3,56,261,56z"/>
	</g>
</g>
</svg>
