<?xml version="1.0" encoding="utf-8"?>
<!-- Generator: Adobe Illustrator 24.0.2, SVG Export Plug-In . SVG Version: 6.00 Build 0)  -->
<svg version="1.1" id="Capa_1" xmlns="http://www.w3.org/2000/svg" xmlns:xlink="http://www.w3.org/1999/xlink" x="0px" y="0px"
	 viewBox="0 0 512 512" style="enable-background:new 0 0 512 512;" xml:space="preserve">
<g id="uVNfgc.tif">
	<g>
		<path d="M379,506c-108.7,0-217.5,0-326.2,0c-0.9-0.3-1.8-0.8-2.6-0.9c-15.5-3-27.9-10.9-35.8-24.5c-3.8-6.5-5.7-14.3-8.4-21.5
			C6,350.4,6,241.6,6,133c0.2-0.4,0.6-0.8,0.7-1.3c2.9-23.5,24.7-45.9,55.9-45.8c84.6,0.4,169.2,0.1,253.9,0.1c1.6,0,3.1,0,5.7,0
			c-2.1,2.2-3.4,3.6-4.7,4.9c-42.5,42.5-84.9,85-127.4,127.3c-5.7,5.6-10.1,11.8-12.6,19.4c-6.7,20.3-13.7,40.6-20.2,61
			c-1.4,4.3-2.4,8.9-2.5,13.4c-1,30.7,28.4,52.3,58.1,42.9c19.6-6.3,39.1-13.2,58.7-19.5c8.9-2.8,16.3-7.6,22.9-14.3
			c42.3-42.4,84.7-84.8,127-127.1c1.3-1.3,2.6-2.4,4.6-4.3c0,3.1,0,4.9,0,6.6c0,51.1,0,102.1,0,153.3c0,34,0.1,68.1-0.1,102.1
			c-0.1,24.1-15.1,44.5-37.5,51.6C385.3,504.4,382.2,505.1,379,506z"/>
		<path d="M506,62.6c-2.1,7.2-6.8,12.7-12.2,17.8c-6.3,6.1-12.4,12.4-18.3,18.4c-20.7-20.8-41.2-41.4-60.6-60.9
			c8.1-8.8,16.7-18.5,25.8-27.7c2.1-2.1,5.8-2.7,8.7-4.1c3.2,0,6.5,0,9.8,0c7.4,2.5,13,7.6,18.3,13.2c4.9,5.2,10,10.3,15.1,15.1
			c5.7,5.4,10.8,11,13.5,18.6C506,56.1,506,59.4,506,62.6z"/>
		<path d="M391.4,58.5c20.7,20.7,41.2,41.2,62,62c-1,1-2.1,2.2-3.4,3.5C391.2,183,332.3,241.9,273.3,300.6c-3.1,3-7.2,5.6-11.3,7
			c-18.8,6.6-37.9,12.7-56.8,19.1c-6.4,2.1-12.2,1.9-17.1-3.1c-4.7-4.8-5-10.5-2.8-16.7c6.5-19.3,12.9-38.9,19.5-58.2
			c1.1-3.1,2.8-6.3,5.2-8.6c59.8-60.1,119.7-119.9,179.7-179.9C390.2,59.7,390.8,59.2,391.4,58.5z"/>
	</g>
</g>
</svg>
