<?xml version="1.0" encoding="utf-8"?>
<!-- Generator: Adobe Illustrator 24.0.2, SVG Export Plug-In . SVG Version: 6.00 Build 0)  -->
<svg version="1.1" id="Capa_1" xmlns="http://www.w3.org/2000/svg" xmlns:xlink="http://www.w3.org/1999/xlink" x="0px" y="0px"
	 viewBox="0 0 350 350" style="enable-background:new 0 0 350 350;" xml:space="preserve">
<g id="WZuH57.tif">
	<g>
		<path d="M341.5,144.8c0,2.9,0,5.8,0,8.7c0,0.4-0.1,0.8-0.1,1.2c-0.4,5.2-0.6,10.3-1.1,15.5c-0.8,8.1-2.4,16-4.7,23.8
			c-4.8,16.2-12.5,30.7-24,43.1c-8.7,9.4-18.7,17-30.6,22c-10.8,4.5-22.2,6.5-33.9,6.3c-8.3-0.1-16.3-1.6-23.6-5.8
			c-11-6.2-17.7-15.5-19.7-28.1c-0.3-1.6-0.4-3.2-0.6-4.8c-0.9-0.3-1.2,0-1.5,0.8c-2.9,8-6.8,15.5-12.5,22
			c-6.7,7.6-15,12.5-24.9,14.6c-7.1,1.5-14.3,1.6-21.5,0.6c-8.4-1.1-16.2-4-23.1-8.9c-10.8-7.6-18.1-18-22.6-30.3
			c-3.5-9.6-5.1-19.6-5.5-29.7c-0.6-13.5,0.3-26.8,3.2-40c4-18.3,11.9-34.6,24.7-48.4c11.4-12.3,25-20.6,41.9-22.7
			c7.4-0.9,14.8-0.8,22,0.9c7.3,1.8,13.5,5.3,18.1,11.4c2.3,3.1,4,6.4,5.2,10.1c0.2,0.5,0.3,1,1.1,0.6c0.6-6.6,1.3-13.2,1.9-19.9
			c14.8,0,29.5,0,44.3,0c0,0.4,0,0.6,0,0.9c-0.7,6.7-1.4,13.3-2,20c-1,10.2-1.9,20.3-2.8,30.5c-0.8,8.9-1.6,17.9-2.3,26.8
			c-0.7,9.8-1.2,19.6-1.6,29.4c-0.3,6.2-0.2,12.4,1,18.5c0.7,3.6,1.7,7,3.8,10.1c2.4,3.5,5.7,5.2,9.9,5.3c6.2,0.1,11.4-2.3,15.8-6.4
			c5.6-5.2,9.2-11.8,12.1-18.8c4.8-11.5,7-23.6,8-36c0.8-9.8,1-19.6,0.1-29.4c-0.7-7.9-2.1-15.7-4.4-23.3
			c-4.1-13.7-10.8-26.1-20.1-37c-9.6-11.2-21.1-19.8-34.7-25.6c-12.4-5.3-25.5-8.1-38.9-9.1c-9.4-0.7-18.9-0.7-28.3,0.3
			c-7.6,0.8-15,2.2-22.3,4.3C132,52.7,118.3,59.9,106,69.8C97.7,76.5,90.4,84,83.8,92.4c-9.5,12-16.8,25.2-21.9,39.7
			c-4.7,13.5-7.2,27.4-7.9,41.7c-0.6,12.4,0,24.8,2.1,37c2.2,12.3,5.9,24.1,11.7,35.1c5.5,10.4,12.6,19.7,21.3,27.7
			c11.4,10.5,24.6,18.1,39.3,23c13,4.3,26.5,6.5,40.2,7.1c14.4,0.7,28.7-0.1,42.9-2.4c14.2-2.3,28-6.2,41.2-11.8
			c2.2-0.9,4.3-1.9,6.6-2.9c0,0.6,0,1,0,1.4c0,12,0,24,0,36c0,1.1-0.4,1.5-1.3,1.9c-6.2,2.6-12.5,4.7-18.9,6.5
			c-11.8,3.2-23.9,5.3-36.1,6.3c-7.2,0.6-14.3,0.9-21.5,1.3c-0.9,0.1-1.9,0.1-2.8,0.2c-3.7,0-7.5,0-11.2,0c-0.3,0-0.6-0.1-0.9-0.1
			c-2.7-0.1-5.5-0.2-8.2-0.3c-8.5-0.5-16.9-1.5-25.3-3.1c-12.9-2.4-25.3-6.2-37.2-11.5c-20.7-9.3-38.4-22.6-53.1-39.9
			c-14.3-16.8-23.7-36.1-29-57.5c-3.1-12.3-4.6-24.7-5.1-37.4c-0.5-12,0-23.9,1.6-35.7c1.3-9.7,3.3-19.3,6.2-28.7
			c6-19.4,15.2-37.2,27.7-53.2c10.8-13.9,23.3-26.1,37.8-36.2c15.3-10.6,31.9-18.2,49.9-23c13.7-3.7,27.6-5.6,41.8-6.1
			C185,6.7,196.4,7,207.8,8.4c7.2,0.9,14.5,2.1,21.6,3.6c12.4,2.6,24.3,6.7,35.7,12.3c15.5,7.6,29.2,17.6,41.1,30.2
			c7.2,7.6,13.5,16.1,18.6,25.3c6.4,11.5,10.8,23.7,13.4,36.5c1.5,7.3,2.5,14.6,2.9,22C341.2,140.5,341.4,142.6,341.5,144.8z
			 M203.9,160.6c0.2-8.3,0-14.3-1.6-20.2c-1.6-5.9-4.3-11.1-8.9-15.1c-8.1-6.9-17.4-7.6-27-3.8c-6.2,2.4-10.8,7.1-14.5,12.5
			c-7.7,11.4-11.9,24.2-13.8,37.8c-1.2,8.5-1.5,17.1-0.6,25.7c0.7,6.4,2.2,12.6,5.3,18.3c2.6,4.7,6,8.7,10.8,11.3
			c6.4,3.3,13,3.2,19.7,1.2c6.9-2.1,12-6.7,16.1-12.4c5.8-8.2,9.1-17.5,11.3-27.3C202.8,178.5,203.7,168.5,203.9,160.6z"/>
	</g>
</g>
</svg>
