<?xml version="1.0" encoding="utf-8"?>
<!-- Generator: Adobe Illustrator 24.0.2, SVG Export Plug-In . SVG Version: 6.00 Build 0)  -->
<svg version="1.1" id="Capa_1" xmlns="http://www.w3.org/2000/svg" xmlns:xlink="http://www.w3.org/1999/xlink" x="0px" y="0px"
	 viewBox="0 0 512 512" style="enable-background:new 0 0 512 512;" xml:space="preserve">
<path d="M490.2,0.5c7.2,2.7,13.4,6.7,16.4,14.1c4.1,10.1,2.1,19.1-5.4,27.1c-16.1,17.3-32,34.7-48,52.1
	c-44.7,48.5-89.4,97.1-134.3,145.6c-7.3,7.9-10.7,16.7-10.7,27.5c0.2,44.6-0.1,89.1,0.2,133.7c0.1,10.9-3.1,20-10.3,28.2
	c-22.3,25.3-44.3,50.9-66.5,76.3c-4.8,5.5-10.6,7.9-17.8,5.5c-6.9-2.4-10.1-7.7-10.7-14.7c-0.1-1.8-0.1-3.7-0.1-5.5
	c0-74.5-0.1-149,0.1-223.5c0-10.6-3.2-19.3-10.3-27.1c-60-65-119.6-130.4-180.2-194.8C-2.3,29,0.7,7.3,21.2,0.5
	C177.5,0.5,333.9,0.5,490.2,0.5z"/>
</svg>
