<?xml version="1.0" encoding="utf-8"?>
<!-- Generator: Adobe Illustrator 24.0.2, SVG Export Plug-In . SVG Version: 6.00 Build 0)  -->
<svg version="1.1" id="Layer_1" xmlns="http://www.w3.org/2000/svg" xmlns:xlink="http://www.w3.org/1999/xlink" x="0px" y="0px"
	 viewBox="0 0 512 512" style="enable-background:new 0 0 512 512;" xml:space="preserve">
<g>
	<g>
		<path d="M272-0.1c9.7,1.3,19.4,2.4,29.1,4.1c20.7,3.5,40.7,9.8,60.4,18.7c-13.9,14.3-27.3,28.1-41.2,42.4
			C212.1,29.5,116.6,89.5,78.9,160.7c-41.6,78.6-27.6,175.1,35.2,237.4c63.4,62.9,159.3,76.5,237.5,34.7
			c72.8-39,130.3-135,95.2-241.2c14.2-13.8,28-27.2,42.3-41.1c0.8,1.6,1.5,3,2.1,4.5c11.1,25.8,17.8,52.6,19.9,80.5
			c0.1,1.5,0.6,2.9,0.9,4.4c0,10.7,0,21.3,0,32c-0.7,6.1-1.4,12.2-2.3,18.3c-7.3,51.5-27.9,96.9-62.6,135.7
			c-39.4,44-88.3,71.5-146.5,82.1c-9.5,1.7-19,2.7-28.6,4c-10.7,0-21.3,0-32,0c-6.2-0.8-12.5-1.4-18.7-2.3
			c-50.8-7.3-95.6-27.6-134.1-61.6C42.5,408.5,14.7,359.3,4,300.5c-1.7-9.5-2.7-19.1-4-28.6c0-10.7,0-21.3,0-32
			c0.3-1.5,0.7-2.9,0.8-4.4C3.6,200,13,166.4,30.4,135.3C70.4,63.4,130.9,19.3,211.9,3.8c9.3-1.8,18.7-2.6,28.1-3.9
			C250.7-0.1,261.3-0.1,272-0.1z"/>
		<path d="M255.9,84.1c19.2,0.8,37.9,4,56,10.1c3.4,1.1,5.4,2.5,5.6,6.8c0.2,8.3,1.4,16.6,1.9,24.9c0.1,1.7-1,3.8-2.2,5.1
			c-5.9,6.1-12.1,11.9-17.9,18.1c-2.4,2.6-4.5,2.8-7.8,1.7c-52.8-17.8-109.9,5.9-134.9,55.7c-34.3,68.4,10.6,151,86.7,159.5
			c68.5,7.7,127.4-47.6,123.4-116.4c-0.6-10.2-3.6-20.2-6-30.2c-0.6-2.6-0.5-4.2,1.4-6.1c6.4-6.1,12.5-12.5,18.8-18.6
			c1.3-1.2,3.4-2.2,5.1-2.1c8.5,0.5,16.9,1.5,25.4,1.9c3.4,0.2,4.8,1.5,5.8,4.6c21.4,68,7.9,128.3-42.2,178.9
			c-34.7,35.1-78.1,50.6-127.3,48.7c-78.7-3.1-146.2-62.5-160-140.4c-16.3-91.9,43-179.5,134.5-198
			C233.3,86.1,244.7,85.5,255.9,84.1z"/>
		<path d="M443.8,68c15,1.3,29.4,2.7,43.8,3.7c6.9,0.5,12.3,3.1,14.9,9.8c2.7,6.9,0.2,12.5-4.8,17.6c-20.2,20.1-40.4,40.2-60.4,60.4
			c-4.6,4.6-9.7,6.4-16.2,5.8c-15.4-1.6-30.8-2.8-46.3-3.8c-2-0.1-4.6,1.6-6.1,3.1c-32.4,32.2-64.6,64.5-96.9,96.8
			c-1.4,1.4-2.8,2.8-4.3,4.2c-7,6.7-16.2,7-22.2,0.7c-6-6.2-5.7-15.2,1-21.9c10.1-10.2,20.2-20.3,30.4-30.4
			c23.4-23.4,46.8-46.9,70.4-70.3c2.7-2.7,3.9-5.1,3.4-9.1c-1.6-15.4-3.1-30.8-3.7-46.3c-0.2-4,1.7-9.2,4.4-12.1
			c20.8-21.4,42-42.3,63.1-63.4c4.6-4.5,10.1-5.9,16.1-3.6c6.2,2.4,9.2,7.2,9.8,13.8C441.2,37.9,442.5,52.6,443.8,68z"/>
		<path d="M333.8,240.1c9.2,32.9-8,69.6-38.5,86.6c-31.5,17.6-71.1,11.9-96.7-13.8c-25.6-25.7-30.9-65.3-13.1-96.8
			c17.1-30.3,53.9-47.4,85.8-39.4c-1.4,1.5-2.5,2.8-3.8,4c-14.7,14.7-29.7,29.2-44.1,44.3c-23.6,24.8-12.1,65.2,20.9,74.2
			c16.7,4.5,31.4,0.2,43.6-11.7c14.4-14.1,28.6-28.5,42.8-42.8C332,243.4,332.8,241.7,333.8,240.1z"/>
	</g>
</g>
</svg>
