<?xml version="1.0" encoding="utf-8"?>
<!-- Generator: Adobe Illustrator 24.0.2, SVG Export Plug-In . SVG Version: 6.00 Build 0)  -->
<svg version="1.1" id="Layer_1" xmlns="http://www.w3.org/2000/svg" xmlns:xlink="http://www.w3.org/1999/xlink" x="0px" y="0px"
	 viewBox="0 0 512 512" style="enable-background:new 0 0 512 512;" xml:space="preserve">
<g id="xlJOO3.tif">
	<g>
		<path d="M153.9,290.1c0.3-20.8-9.4-35.5-26-45.8c-19.4-12.1-43.9-9.3-60.3,6.7c-5.4,5.2-10.3,10.9-15.8,16.8
			C15.3,232-0.9,190.1,8.6,140.9c10.6-54.8,43.6-91.8,97.8-106.4c49.8-13.4,93.3,1.7,131.4,36.4c-18.7,18.7-36.9,36.9-55.1,55.1
			c-18.2,18.2-36.4,36.4-56.1,56c2.5,1.8,4.8,3.2,6.7,5c9.1,8.9,18,17.9,27.1,26.8c23.4,22.8,59.3,22.8,82.6-0.1
			c15.6-15.3,30.9-30.9,46.3-46.3c13.5-13.4,31.4-13.8,44.9-0.6c37.9,37,75.8,74,113.5,111.2c13.6,13.4,9.2,35.2-8.2,42.7
			c-9.8,4.2-20.1,2-28.5-6.4C384,287.2,357,260.1,330,232.9c-2.4-2.4-4.4-5.2-6.3-7.5c-7,7.1-13.1,13.2-20.7,20.9
			c4,3.5,8.9,7.1,13.2,11.4c23.8,24,47.5,48.2,71.3,72.2c8.1,8.2,13.3,17.2,10.2,29.3c-5.2,20.4-28.9,27.4-43.8,12.6
			c-28.3-28.1-56.4-56.5-84.6-84.8c-1.4-1.4-2.4-3.1-3.3-4.2c-7,6.9-13.1,13.1-20.5,20.4c4.2,3.8,9.2,7.9,13.7,12.5
			c23.9,24.2,47.6,48.5,71.5,72.8c6.8,6.9,8.2,15,5.3,23.7c-2.9,9-9,15.3-18.6,17.5c-0.5,0.1-1.1,0-2.2-0.1
			c0.2-15.3-4.2-29.1-15.4-40.1c-11.3-11.1-25.2-15.1-40.7-14.5c-6.4-30.7-24.9-46.2-56.4-45.7C197.4,303,180.3,291.1,153.9,290.1z"
			/>
		<path d="M166.4,180.3c0.6-0.6,1.5-1.6,2.5-2.6c35.1-35.5,70.1-71.1,105.4-106.4c27.4-27.4,60.8-41.2,99.3-41.4
			c58.2-0.3,110.4,38.7,126.8,95.3c14.2,49.1,3.7,93.3-30.2,131.8c-1.3,1.5-2.4,3.1-3.6,4.7c-17.3-17.2-33.8-33.5-50.2-50
			c-21.4-21.4-42.6-42.9-64.1-64.2c-22.4-22.3-58-22.5-80.7-0.3c-15.5,15.2-30.6,30.7-45.9,46c-14.6,14.6-32.6,14.8-47.4,0.3
			C174.4,189.4,170.7,185,166.4,180.3z"/>
		<path d="M64.3,346.2c-9.2-0.3-16.1-4.6-20.2-12.8c-4.1-8.2-3.3-16.4,2.1-23.8c3-4,6.6-7.5,10.1-11.1c10-10.2,20.1-20.3,30.3-30.5
			c9.9-9.9,23.3-10.2,33-0.8c9.8,9.5,9.7,23.3-0.3,33.4c-12.8,13-25.8,25.8-38.7,38.7C76.1,344,70.8,346.6,64.3,346.2z"/>
		<path d="M228,486.9c-16.4-0.3-27.8-14.6-23.3-28.9c0.8-2.6,2.6-5.1,4.5-7.1c11.7-11.6,23.5-23.1,35.2-34.6
			c1.9-1.9,3.8-3.8,5.5-5.9c8.7-10.8,21.9-12.2,32.3-3.2c10,8.7,10.9,23.1,1.9,33c-3.4,3.7-7,7.1-10.6,10.7
			c-9.7,9.7-19.5,19.5-29.2,29.2C239.6,484.7,234.2,487.2,228,486.9z"/>
		<path d="M114.8,397.9c-16-1.4-27.3-15.8-22.9-30c0.6-2.1,2.1-4.1,3.7-5.6c15.4-15.5,31-30.7,46.2-46.3c2.9-3,5.8-4.5,9.6-4.9
			c9.2-0.9,18.5,3.9,22.7,12.2c4.4,8.7,4.3,17.9-2.4,25.1c-13.9,14.9-28.4,29.2-43.2,43.2C125,394.8,119.4,395.8,114.8,397.9z"/>
		<path d="M171.5,443c-14.4-1.2-25.3-12.7-23.8-26.3c0.4-3.8,2.4-8,5-10.7c11.2-11.8,22.9-23.1,34.4-34.5c1.9-1.9,3.8-3.8,5.4-5.9
			c8.3-10.4,21.2-12,31.5-3.9c10,7.9,12.2,23.1,3.4,32.4c-13.7,14.6-28,28.6-42.6,42.3C181.5,439.7,176,440.9,171.5,443z"/>
	</g>
</g>
</svg>
