<?xml version="1.0" encoding="utf-8"?>
<!-- Generator: Adobe Illustrator 24.0.2, SVG Export Plug-In . SVG Version: 6.00 Build 0)  -->
<svg version="1.1" id="Capa_1" xmlns="http://www.w3.org/2000/svg" xmlns:xlink="http://www.w3.org/1999/xlink" x="0px" y="0px"
	 viewBox="0 0 350 350" style="enable-background:new 0 0 350 350;" xml:space="preserve">
<g id="IA7Dp4_1_">
	<g>
		<path d="M311.3,263.3c0,11.6,0.2,22.2-0.1,32.8c-0.1,3-1.5,5.9-2.3,8.8c-2.5-1.5-5.3-2.6-7.4-4.5c-11.2-10.9-21.9-22.1-33.3-32.8
			c-2.5-2.3-6.6-4-10-4.1c-21.4-0.4-42.8-0.2-64.3-0.2c-16.8,0-24.8-8-24.8-24.5c0-33.1,0-66.2,0-99.3c0-15,8.3-23.3,23.3-23.3
			c42.2,0,84.4,0,126.6,0c15.1,0,23.4,7.9,23.5,23.1c0.2,33.3,0.1,66.7,0,100c-0.1,16.2-8.1,23.9-24.6,24.1
			C316,263.3,314.1,263.3,311.3,263.3z M301,235.5c-0.6-1.9-1.2-3.8-1.9-5.5c-11-27.5-22.3-54.8-32.9-82.5
			c-2.5-6.4-6.7-5.2-11.3-5.5c-4.5-0.3-7.4,0.6-9.3,5.6c-10.9,27.8-22.2,55.3-33.3,83c-0.7,1.7-1.1,3.5-1.6,5.3
			c14.4,1.8,14.4,1.8,19.4-10.8c0.6-1.4,1.3-2.8,1.6-4.2c1-4.1,3.6-5.1,7.6-5c9.7,0.3,19.5,0.7,29.2-0.1c7.6-0.6,11,2.1,13.4,9.2
			c4.2,12.5,4.7,12.3,17.8,11.4C299.9,236.3,300,236.1,301,235.5z"/>
		<path d="M158.7,189.6c-23,0-45,0.1-67.1-0.1c-4.9-0.1-8.5,1.3-11.9,4.9c-10.8,11.2-21.9,22.2-33.1,33.1c-1.8,1.8-4.6,2.5-7,3.8
			c-0.7-2.6-2.1-5.1-2.1-7.7c-0.2-11-0.1-22-0.1-33.9c-3.3,0-6,0-8.7,0c-14.1-0.2-22.4-8.5-22.4-22.9c-0.1-26.4,0-52.8,0-79.2
			c0-7.6-0.1-15.2,0-22.7c0.3-13.8,8.7-22.2,22.5-22.2c42.6,0,85.3,0,127.9,0c14.6,0,22.9,8.4,23,23c0.1,12.1-0.1,24.2,0.1,36.4
			c0,3.5-0.7,5.7-4.2,7.6c-11.2,6-16.8,15.8-16.8,28.6C158.7,154.9,158.7,171.8,158.7,189.6z M86,79.6c-14.3,0-27.6,0-41.2,0
			c0,4.4,0,7.9,0,12.3c4.7,0,8.9-0.2,13.2,0.1c1.6,0.1,3.8,1.2,4.4,2.5c6.5,13.5,12.8,27.1,19.9,42.4c-12.1,6.6-25.4,13.8-39,21.2
			c2.1,3.4,4.3,7,7.3,12c14.7-8.4,28.9-16.4,41.9-23.9c13,6.8,26,13.6,39.1,20.1c1.5,0.7,4.9,0.2,5.9-1c2.2-2.7,3.4-6.3,5.4-10.1
			c-14.9-4.9-28.4-10.8-38.7-19.4c5.9-11.9,11.8-22.6,16.7-33.9c4.2-9.7,3.7-10.1,14-10c4.4,0.1,6.7-0.6,6.7-5.9
			c0-5.1-1.5-7-6.7-6.6c-5.2,0.4-10.4,0.1-15.6,0.1c-6.6,0-13.2,0-20.6,0c0-5.9,0-10.8,0-15.7c-4.6,0-8.4,0-12.8,0
			C86,69,86,73.6,86,79.6z"/>
		<path d="M273.7,203.3c-12.2,0-23.5,0-35.5,0c5.8-14.9,11.5-29.3,17.7-45.2C262.1,173.9,267.8,188.4,273.7,203.3z"/>
		<path d="M91.9,124.9c-5.6-10.4-11.2-20.9-17.4-32.5c12.9,0,23.7,0,36.4,0c-5.6,11.4-10.9,21.9-16.1,32.5
			C93.8,124.9,92.9,124.9,91.9,124.9z"/>
	</g>
</g>
</svg>
