<?xml version="1.0" encoding="utf-8"?>
<!-- Generator: Adobe Illustrator 24.0.2, SVG Export Plug-In . SVG Version: 6.00 Build 0)  -->
<svg version="1.1" id="Layer_1" xmlns="http://www.w3.org/2000/svg" xmlns:xlink="http://www.w3.org/1999/xlink" x="0px" y="0px"
	 viewBox="0 0 512 512" style="enable-background:new 0 0 512 512;" xml:space="preserve">
<path d="M19.5,497.2L19.5,497.2C8.7,497.2,0,488.5,0,477.7L0,19.5C0,8.7,8.7,0,19.5,0h0C30.3,0,39,8.7,39,19.5v458.2
	C39,488.5,30.3,497.2,19.5,497.2z"/>
<path d="M0,486.7L0,486.7c0-10.8,8.7-19.5,19.5-19.5h473c10.8,0,19.5,8.7,19.5,19.5v0c0,10.8-8.7,19.5-19.5,19.5h-473
	C8.7,506.2,0,497.5,0,486.7z"/>
<path d="M55.2,434.8L55.2,434.8c-7.6-7.6-10.8-16.8-7.2-20.4l155.6-155.6c3.7-3.7,12.8-0.4,20.4,7.2l0,0c7.6,7.6,10.8,16.8,7.2,20.4
	L75.6,442C72,445.6,62.8,442.4,55.2,434.8z"/>
<path d="M194.7,270.7L194.7,270.7c5.1-9.5,12.9-15.2,17.4-12.8l194.1,103.5c4.6,2.4,4.2,12.1-0.9,21.6l0,0
	c-5.1,9.5-12.9,15.2-17.4,12.8L193.8,292.3C189.2,289.9,189.6,280.2,194.7,270.7z"/>
<path d="M377.8,392.3L377.8,392.3c-9.5-5.1-15.2-12.9-12.8-17.4l103.5-194.1c2.4-4.6,12.1-4.2,21.6,0.9l0,0
	c9.5,5.1,15.2,12.9,12.8,17.4L399.4,393.2C397,397.8,387.3,397.3,377.8,392.3z"/>
<path d="M472.4,153.5c-9.3-4.9-17.9-9.4-26.4-13.9c-1.9-1-3.3-1.1-5.2,0c-7.6,4.2-15.3,8.1-23,12.1c-1,0.5-2,1-3.4,1.6
	c1.7-10,3.2-19.7,5-29.3c0.4-2.3-0.2-3.5-1.7-5c-6.7-7-13.2-14.1-19.7-20.9c4.7-0.7,10.4-1.6,16.2-2.4c2.8-0.4,5.6-1.2,8.3-1.1
	c5.1,0.2,7.4-2.6,9.3-6.9c3.4-7.7,7.4-15.2,11.3-23.2c0.7,1.1,1.2,1.9,1.6,2.7c3.8,7.7,7.8,15.2,11.3,23c1.3,2.8,3,3.7,5.8,4.1
	c8.4,1.1,16.7,2.4,25.1,3.6c0.9,0.1,1.7,0.4,3,0.7c-0.8,0.9-1.4,1.7-2.1,2.3c-6.1,6-12.2,12-18.4,17.9c-1.9,1.8-2.5,3.5-2,6.2
	C469.2,134,470.7,143.4,472.4,153.5z"/>
</svg>
