<?xml version="1.0" encoding="utf-8"?>
<!-- Generator: Adobe Illustrator 24.0.2, SVG Export Plug-In . SVG Version: 6.00 Build 0)  -->
<svg version="1.1" id="Capa_1" xmlns="http://www.w3.org/2000/svg" xmlns:xlink="http://www.w3.org/1999/xlink" x="0px" y="0px"
	 viewBox="0 0 350 350" style="enable-background:new 0 0 350 350;" xml:space="preserve">
<g id="fccm0e.tif">
	<g>
		<path d="M175,344.6c-29.7,0-59.5-0.1-89.2,0c-10.4,0-19.2-3.2-25.8-11.6c-4.6-5.9-6.4-12.7-6.4-20c0-47.4-0.1-94.8,0-142.2
			c0-15.6,8.6-27.1,22.8-30.7c3.1-0.8,6.4-1.1,9.6-1.1c59.4-0.1,118.8-0.1,178.2,0c16.1,0,27.6,8.4,31.3,23c0.8,3.1,1,6.4,1,9.6
			c0.1,46.9,0.1,93.9,0,140.8c0,16.1-8.2,27.4-23,31.3c-3.2,0.8-6.6,0.9-9.9,0.9C234,344.6,204.5,344.6,175,344.6z M156.3,292.8
			c12.7,0,24.9,0,37.4,0c0-1.5,0-2.8,0-4c0-13.6-0.1-27.2,0.1-40.8c0-1.5,0.8-3.4,1.9-4.3c10.8-9.1,14.8-23,10.4-36.2
			c-4.4-12.9-16.2-21.5-30.1-22c-13.8-0.5-26.5,8-31.4,20.7c-5,13.2-1.3,28.4,9.2,36.7c2.1,1.6,2.7,3.3,2.7,5.8
			C156.3,263.3,156.3,277.9,156.3,292.8z"/>
		<path d="M133.8,128.7c-17.2,0-33.9,0-51.1,0c-0.1-1.3-0.2-2.5-0.2-3.7c0-9.6-0.2-19.1,0-28.7c0.6-27.3,11.4-49.9,31.7-68.1
			c10.8-9.6,23.3-16.1,37.2-19.7c14-3.6,28.2-4.2,42.4-1c32.5,7.3,54.7,26.6,67.3,57.3c4.7,11.6,6.2,23.8,6.5,36.2
			c0.2,8.2,0,16.4,0.1,24.6c0,2.5-0.5,3.4-3.2,3.4c-15.1-0.1-30.2-0.1-45.3,0c-2.5,0-3.1-0.8-3.1-3.1c0.1-9.9,0.2-19.8-0.1-29.8
			c-0.6-16.8-11.7-31.5-27.6-37c-26.2-9.1-54,10.5-54.3,38.2c-0.1,9.2,0,18.5,0,27.7C134,126.1,133.8,127.3,133.8,128.7z"/>
	</g>
</g>
</svg>
