<?xml version="1.0" encoding="utf-8"?>
<!-- Generator: Adobe Illustrator 24.0.2, SVG Export Plug-In . SVG Version: 6.00 Build 0)  -->
<svg version="1.1" id="Layer_1" xmlns="http://www.w3.org/2000/svg" xmlns:xlink="http://www.w3.org/1999/xlink" x="0px" y="0px"
	 viewBox="0 0 512 512" style="enable-background:new 0 0 512 512;" xml:space="preserve">
<g id="bdkMYY.tif">
	<g>
		<path d="M5.6,255.4c0.8-95.2,57.7-178.7,147.8-210C241.7,14.8,321,33.3,389,97.8c13.1,12.4,13,32.2,0.8,44.9
			c-12.4,12.9-32,13.6-45.3,0.8c-17.1-16.6-36.3-29.5-58.7-38C193,70.3,88,130.7,71.9,228.7c-13,79.5,32.1,155.6,108.9,179.7
			c59.8,18.8,113.8,5.8,160.2-36.8c8.6-8,17.7-13.6,29.8-11.9c13.1,1.9,22,9.2,26.3,21.6c4.2,12.5,1.1,23.8-8.1,33
			c-30.5,30.5-66.8,51.1-109,60.5C160.8,501.5,43.9,430.3,12.7,312.3C7.8,293.6,5.5,274.7,5.6,255.4z"/>
		<path d="M396.5,222.9c-2.6-2.5-5.3-4.9-7.8-7.5c-12.1-12.7-11.9-32.3,0.2-44.6c12.3-12.5,32.2-13,44.9-0.5
			c21.4,21,42.6,42.2,63.6,63.6c12.2,12.4,12.3,31.8,0.2,44.2c-21.1,21.5-42.4,42.9-64,63.9c-12.6,12.3-32.3,11.7-44.6-0.6
			c-12.2-12.2-12.5-31.9-0.5-44.6c2.5-2.6,5.3-5,7.5-8.8c-1.9,0-3.8,0-5.6,0c-53.1,0-106.3,0-159.4,0c-18.4,0-32.6-13.6-33-31.2
			c-0.3-18.3,13.8-32.7,32.3-32.8c31.3-0.1,62.6,0,93.9,0c23.8,0,47.6,0,71.4,0C396,223.6,396.2,223.3,396.5,222.9z"/>
	</g>
</g>
</svg>
