<?xml version="1.0" encoding="utf-8"?>
<!-- Generator: Adobe Illustrator 24.0.2, SVG Export Plug-In . SVG Version: 6.00 Build 0)  -->
<svg version="1.1" id="Capa_1" xmlns="http://www.w3.org/2000/svg" xmlns:xlink="http://www.w3.org/1999/xlink" x="0px" y="0px"
	 viewBox="0 0 350 350" style="enable-background:new 0 0 350 350;" xml:space="preserve">
<g id="Vnd9nL.tif">
	<g>
		<path d="M3,204c0.5-2.1,1-4.3,1.6-6.4c5.2-19,22.3-32.8,42-33.2c9.8-0.2,19.6,0.4,29.4,1.5c6.4,0.7,11.9,4.2,17,8.6
			c-0.8,0.9-1.5,1.8-2.2,2.5c-14.4,15.3-22.5,33.6-25.3,54.4c-2.2,16.9-1.7,33.9-1.5,50.9c0.1,6.5,0,12.9,0,19.8
			c-1.5,0.1-3,0.4-4.5,0.4c-11.9,0-23.7,0.1-35.6-0.1c-10.5-0.1-17-5.1-20.4-15.1c-0.1-0.3-0.4-0.5-0.6-0.8C3,259.1,3,231.5,3,204z"
			/>
		<path d="M171.3,324c-20.5,0-41,0.1-61.4,0c-12.3,0-21.2-6.1-24.4-16.6c-0.6-1.9-1-3.9-1.1-5.9c-0.1-19.1-0.6-38.3,0.1-57.4
			c1.1-30.6,14.6-54.4,41.7-69.7c11.1-6.3,23.2-9.4,35.8-10.2c14.7-1,29.4-1.2,43.7,2.4c30.6,7.6,57,37.8,59.1,69.2
			c1.5,22.2,0.7,44.5,0.6,66.7c0,2.9-1.3,5.8-2.4,8.6c-2.5,6.4-7.2,10.4-14,11.1c-11.2,1.1-22.5,1.8-33.8,2.1
			c-14.7,0.4-29.3,0.1-44,0.1C171.3,324.3,171.3,324.1,171.3,324z"/>
		<path d="M175,24.6c32.4,0,58.5,26.1,58.4,58.4c0,32.2-26.4,58.5-58.6,58.3c-32.1-0.1-58.2-26.3-58.3-58.4
			C116.5,50.7,142.6,24.6,175,24.6z"/>
		<path d="M285.9,302c0-4.1,0-8.1,0-12.1c-0.2-17.2,0.1-34.5-0.7-51.6c-1.2-24-10.1-44.9-27-62.3c-0.4-0.4-0.7-0.8-1.2-1.4
			c4.7-4.2,9.9-7.2,15.9-8.5c13.4-2.8,27-3.3,40.3-0.2c19.8,4.7,33.7,22.9,33.8,43.2c0.1,24.2,0.1,48.3,0,72.5
			c0,11.2-7.5,20.1-18.7,20.7c-13.3,0.7-26.6,0.3-39.9,0.3C287.5,302.5,286.8,302.2,285.9,302z"/>
		<path d="M56.7,67.6c20.4-0.1,37,16.3,37,36.7c0.1,20.3-16.4,36.9-36.8,37.1c-20.2,0.1-37-16.5-37.1-36.8
			C19.8,84.1,36.2,67.6,56.7,67.6z"/>
		<path d="M293,67.6c20.4-0.1,37,16.3,37.1,36.7c0.1,20.4-16.3,36.9-36.8,37.1c-20.2,0.2-37-16.5-37.1-36.8
			C256.2,84.2,272.6,67.7,293,67.6z"/>
	</g>
</g>
</svg>
