<?xml version="1.0" encoding="utf-8"?>
<!-- Generator: Adobe Illustrator 24.0.2, SVG Export Plug-In . SVG Version: 6.00 Build 0)  -->
<svg version="1.1" id="Layer_1" xmlns="http://www.w3.org/2000/svg" xmlns:xlink="http://www.w3.org/1999/xlink" x="0px" y="0px"
	 viewBox="0 0 512 512" style="enable-background:new 0 0 512 512;" xml:space="preserve">
<g id="_x33_PrSyj_1_">
	<g>
		<path d="M85.5,168.1c0.5-7.3,1-14.7,1.6-22c0.3-4.6,0.8-5.1,5.2-5c10.9,0.2,9.7-1.5,10.6,9.9c0.4,4.9,0.7,9.9,1.8,15
			c2-6.7,4.1-13.4,6.1-20.1c2.4-7.9,4.8-15.8,7.2-23.8c1.2-4,3.4-5.8,7.6-6.1c1.1-0.1,2.2,0,3.3,0c66,0,132,0,197.9,0
			c8.7,0,13,4.2,13.1,12.9c0,3.7,0.1,7.3,0,11c-0.2,6.6-4.2,10.9-10.7,11.6c-51.1,6-102.3,12-153.4,17.9c-7.6,0.9-15.3,1.5-22.9,2.1
			c-2.5,0.2-3.5,1-3.6,3.7c-2.9,56.2-5.9,112.3-8.9,168.5c-2.4,45.2-4.8,90.4-7.2,135.7c-0.4,7.6-5.6,12.7-13.1,12.8
			c-17,0.1-34.1,0.1-51.1,0c-7.6,0-12.8-4.7-13.2-12.2c-1-18.6-1.8-37.2-2.8-55.8c-0.9-17.9-2-35.7-3-53.5
			c-0.9-16.4-1.8-32.8-2.7-49.2c-0.1-1-0.2-1.9-0.3-3.2c-1.3-0.1-2.5-0.2-3.6-0.2c-5.2,0-10.5,0-15.7,0c-8.4-0.1-13.5-4.9-14-13.2
			c-1.8-31.8-3.6-63.7-5.1-95.5C7.6,191.8,7,174.4,6.7,157c-0.3-13.8,5.8-22.3,18.8-27.3c11.3-4.4,22.7-8.7,34-12.9
			c5.7-2.2,9.6,0,11.4,5.9c4.2,14,8.4,28,12.7,41.9c0.4,1.2,0.8,2.4,1.2,3.6C85,168.2,85.2,168.2,85.5,168.1z"/>
		<path d="M339.1,475.1c-43.5-0.8-79.2-15.5-108.6-45.2c-11.4-11.6-20.7-24.8-27.7-39.4c-32.8-68.5-9.9-150.5,54.9-190.5
			c51-31.5,103.5-31.2,155.9-2.2c1.2,0.6,2.3,1.4,3.4,2.2c6.6,4.7,8.4,13.7,4,20.4c-4.4,6.7-13.3,8.9-20.3,4.6
			c-17.9-11-37.2-17-58.3-18.2c-59.8-3.5-115.5,42.5-123.3,101.9c-3.5,26.3,1,51.1,13.5,74.5c9.4,17.5,22.5,31.6,39.2,42.2
			c61.6,39.5,141.5,17,173-48.7c9.6-20,13.1-41.2,10.7-63.2c-0.9-8.5,4.8-16.1,12.9-17.1c8.6-1,15.9,4.7,16.9,13.4
			c2.7,24.9-0.5,49.1-10.1,72.3c-5.4,13.2-12.4,25.5-21.5,36.6C423.7,455.4,384.7,473.9,339.1,475.1z"/>
		<path d="M339.4,346c9.3-9.3,17.8-17.9,26.3-26.4c13.9-13.8,27.9-27.5,41.7-41.4c23.3-23.3,46.5-46.7,69.7-70
			c3.3-3.3,6.7-6.4,11.7-6.8c6.1-0.6,12.1,2.7,14.8,8.1c3,5.9,2,12.6-2.8,17.5c-8.1,8.3-16.3,16.4-24.5,24.6
			c-41.4,41.4-82.8,82.8-124.2,124.2c-6.4,6.4-13.1,7.9-19.7,4.1c-1.2-0.7-2.4-1.6-3.4-2.7c-20.1-20-40.2-40.1-60.2-60.1
			c-5-5-6.1-11.6-3.2-17.4c2.9-5.9,8.8-9.5,15.3-8.1c3.5,0.7,7.2,2.7,9.7,5.2c15.3,14.9,30.4,30.2,45.5,45.4
			C337.3,343,338.1,344.4,339.4,346z"/>
		<path d="M130.2,57.9c-0.6,10.2-2.8,20-6.6,29.5c-4.7,11.7-16.4,20-28.8,20.2c-12.3,0.2-24.4-7.8-29.3-19.5
			c-5.5-13.3-8.7-27-5.8-41.3c2.7-13.4,10.3-23.4,24.3-26.1c6.7-1.3,13.9-1.2,20.7-0.1c12.9,2,22.9,13.8,24.9,28.2
			C129.9,51.8,129.9,54.8,130.2,57.9z"/>
		<path d="M94.5,116c2.6,0,5.1-0.1,7.7,0c3.8,0.1,5.4,2.1,4.3,5.7c-1.3,4.3-2.8,8.5-4.3,12.8c-0.2,0.5-0.3,1-0.6,1.3
			c-3.2,3.5-7.3,1.4-11,1.6c-1.3,0.1-3.4-1.5-3.9-2.9c-1.8-4.1-3.1-8.4-4.4-12.8c-1.1-3.8,0.5-5.8,4.5-5.9
			C89.4,115.9,91.9,116,94.5,116z"/>
	</g>
</g>
</svg>
