<?xml version="1.0" encoding="utf-8"?>
<!-- Generator: Adobe Illustrator 24.0.2, SVG Export Plug-In . SVG Version: 6.00 Build 0)  -->
<svg version="1.1" id="Capa_1" xmlns="http://www.w3.org/2000/svg" xmlns:xlink="http://www.w3.org/1999/xlink" x="0px" y="0px"
	 viewBox="0 0 486.9 486.9" style="enable-background:new 0 0 486.9 486.9;" xml:space="preserve">
<g id="GpzteJ.tif">
	<g>
		<path d="M314.3,486.9H32.6c-2.1,0-4.2-0.4-6.2-1.3c-12.1-5.3-20.8-14-26.1-26.1c-0.8-1.9-1.2-4-1.2-6.1V171.7c0-2,0.4-4,1.1-5.9
			c8.7-21.2,25.7-27.2,48.4-27c84.3,0.8,168.7,0.3,253,0.3c32.6,0,45.2,12.6,45.2,45.2c0,84.3-0.5,168.7,0.3,253
			c0.2,22.8-5.9,39.7-27,48.4C318.4,486.6,316.4,486.9,314.3,486.9z"/>
		<path d="M471.6,347c-1.4,0.1-2.7,0.2-4.1,0.3c-9.1,0.7-16.9-6.5-16.9-15.6V52.1c0-8.6-7-15.7-15.7-15.7H154.4
			c-9.1,0-16.3-7.7-15.6-16.8c0.1-1.7,0.2-3.4,0.4-5.1C139.8,6.3,146.6,0,154.8,0c99.3,0,198.5,0,297.8,0c2.1,0,4.2,0.4,6.1,1.2
			c12.1,5.3,20.8,14,26.1,26.1c0.8,1.9,1.3,4,1.3,6.2v297.9C486,339.5,479.8,346.3,471.6,347z"/>
		<path d="M381.3,401.3V121.6c0-8.7-7.1-15.8-15.8-15.8H84.8C76,105.8,69,98.7,69,90c0-4.8,0.1-9.3,0.8-13.8c0.4-2.6,7.1-5.9,11-6
			c24.4-0.5,48.9-0.3,73.3-0.3c72.4,0,144.7,0,217.1,0c32.3,0,44.9,12.7,44.9,45.5c0,94,0,188.1,0,282.1c0,19.4,0,19.4-19.2,19.4
			l0,0C388.3,417,381.3,410,381.3,401.3z"/>
	</g>
</g>
</svg>
