<?xml version="1.0" encoding="utf-8"?>
<!-- Generator: Adobe Illustrator 24.0.2, SVG Export Plug-In . SVG Version: 6.00 Build 0)  -->
<svg version="1.1" id="Capa_1" xmlns="http://www.w3.org/2000/svg" xmlns:xlink="http://www.w3.org/1999/xlink" x="0px" y="0px"
	 viewBox="0 0 350 350" style="enable-background:new 0 0 350 350;" xml:space="preserve">
<style type="text/css">
	.st0{fill:#FFFFFF;}
</style>
<g>
	<path d="M344.8,277.6c-0.8,2.2-1.4,4.5-2.4,6.6c-4.1,8.5-10.7,13.4-20.3,13.6c-8.1,0.1-16.3-0.1-24.4,0.1c-3.7,0.1-4.7-1.3-4.7-4.7
		c0-6.9-0.4-13.9-0.5-20.8c0-1.6,0.9-3.2,1.1-4.8c0.3-1.9,0.8-4,0.3-5.8c-1.7-6.7-3.7-13.4-5.9-21c5,0,8.7,0.1,12.4,0
		c2.2-0.1,4.4-0.3,6.5-0.8c3.5-0.8,5.7-3.1,5.6-6.8c-0.1-3.7-2.2-6.3-5.8-6.7c-5.4-0.5-10.8-0.8-16.2-0.5c-4.1,0.2-6.1-1.1-7.2-5
		c-1.1-3.7-3.1-7-5.1-11.4c7.4,0,14.3,0,21.1,0c2,0,4.1,0.1,6.1-0.1c3.9-0.5,6.8-2.4,6.9-6.7c0.1-4.5-2.6-7-6.7-7.4
		c-4-0.4-8.1-0.2-12.2-0.3c-2.2,0-4.4-0.2-6.6,0c-12.5,1-24.4,0.1-34.6-8.8c-3.6-3.1-8.7-4.4-14.1-7c2.2-0.2,3.5-0.3,4.8-0.3
		c19.3,0,38.7,0,58,0c7.8,0,11.7-2.7,11.5-7.6c-0.2-4.8-3.8-7.1-11.5-7.1c-27.6,0-55.3,0-82.9,0c-1.8,0-3.6,0-6.1,0
		c2.8-5.4,4.9-10.1,7.7-14.4c0.8-1.2,3.4-1.8,5.2-1.8c25.3-0.1,50.5-0.1,75.8-0.1c2.2,0,4.9,0.4,6.5-0.6c2.2-1.5,5-4.2,5.1-6.5
		c0.1-2.2-2.6-5.1-4.8-6.7c-1.7-1.2-4.6-0.9-6.9-0.9c-22.9-0.1-45.8,0-68.7,0c-1.9,0-3.7,0-5.8,0c1.3-8.8,2.5-17.2,3.8-26
		c1.6-0.1,3.3-0.3,4.9-0.3c34.8,0,69.5,0,104.3,0.1c2,0,3.9,1.2,5.9,1.8C344.8,164.9,344.8,221.2,344.8,277.6z"/>
	<path d="M344.8,90.2c-1.7,0.5-3.4,1.5-5.2,1.5c-35.6,0.1-71.2,0.1-106.9,0c-1.1,0-2.3-0.3-2.9-0.3c-2-13.9-4-27.3-6.1-41.1
		c1.3-0.2,3-0.5,5.4-0.8c0-2.8-0.2-5.5,0-8.2c0.4-5.1,3.3-7.7,8.3-7.6c4.7,0.1,7.6,3,7.9,8.1c0.4,8.5,0.4,8.5,9.1,8.5
		c4,0,8.1,0,12.9,0c0-3.1-0.1-5.9,0-8.7c0.2-5,3.2-7.9,8-7.9c4.8,0,7.8,2.7,8.2,7.8c0.2,2.7,0,5.4,0,8.5c7.3,0,14.3,0,21.4,0
		c1.9-6.2-2.9-16.7,9.3-16.1c10.4,0.6,6.1,9.8,7.7,15.8c12.4,1.1,19.7,8.2,22.8,20.2C344.8,76.6,344.8,83.4,344.8,90.2z M320.7,50.8
		c-4.9,0-9.5,0-14.5,0c0,5.9-0.2,11.5,0.1,17c0.2,4.5,3.5,8,7.2,7.8c4.3-0.3,6.9-3,7.2-7.2C321,62.7,320.7,57,320.7,50.8z
		 M229.6,50.9c0.3,6.7,0,12.9,1.1,18.7c0.5,2.3,4.2,5.5,6.5,5.5c2.3,0,6.1-3.1,6.6-5.4c1.2-6.1,0.9-12.5,1.2-18.9
		C239.4,50.9,235,50.9,229.6,50.9z M268.3,50.9c0,6.1-0.2,12,0.1,17.9c0.2,4.1,3,6.7,7,6.7c4,0,6.8-2.6,7.1-6.6
		c0.3-5.9,0.1-11.8,0.1-18C277.8,50.9,273.3,50.9,268.3,50.9z"/>
	<path d="M141,347c-29.8,0.3-59.3-1.8-87.8-11.4c-11.8-4-22.9-9.4-32.5-17.5c-5.6-4.7-8.1-10-7.4-17.7c1.7-16.7,1.7-33.5,3.6-50.2
		c3.3-29.5,19.4-49.4,48-58.2c11.5-3.6,23.2-6.3,34.9-9c2-0.5,5.1,0.4,6.7,1.8c18.6,15.5,50.2,15.5,68.9-0.2
		c1.3-1.1,3.3-2.1,4.8-1.8c17.4,3,34.5,7,50.5,15c19.9,10,30.6,26.8,33.3,48.2c2.6,20.3,3.1,40.9,4.2,61.3c0.1,2-1.3,4.5-2.8,6.2
		c-9.1,10.4-21.1,16.4-33.8,21c-23.2,8.4-47.4,11.5-71.8,12.4C153.6,347.2,147.3,347,141,347z"/>
	<path d="M72.5,89.9c1.5-11.1,2.2-22.3,4.6-33.1c5.7-26.2,23.6-41.9,50.5-43.7c11.9-0.8,24.1-0.3,35.8,1.7
		c20.9,3.7,34.6,16.9,40,37.3c7,26.5,8.3,53.2-2.3,79.3c-7,17.2-18.3,30.9-35.3,39.1c-25.6,12.3-55,4.5-73.5-19.2
		C78.2,133.3,72.8,112.5,72.5,89.9z"/>
	<path class="st0" d="M313.5,75.6"/>
	<path class="st0" d="M306.3,50.8c5,0,9.6,0,14.5,0"/>
	<path class="st0" d="M282.6,50.9"/>
</g>
</svg>
