<?xml version="1.0" encoding="utf-8"?>
<!-- Generator: Adobe Illustrator 24.0.2, SVG Export Plug-In . SVG Version: 6.00 Build 0)  -->
<svg version="1.1" id="Capa_1" xmlns="http://www.w3.org/2000/svg" xmlns:xlink="http://www.w3.org/1999/xlink" x="0px" y="0px"
	 viewBox="0 0 350 350" style="enable-background:new 0 0 350 350;" xml:space="preserve">
<g>
	<path d="M135.1,0.1c6.1,0.7,12.3,1.4,18.4,2.1c23.3,2.7,39,15.8,45.3,38.4c8.5,30.3,9.5,60.3-4.4,89.4
		c-9.8,20.5-25.1,34.9-47.7,39.9c-22.8,5.1-42.5-2-58.2-18.6c-20.7-21.9-28-48.6-24.9-78.2c1-10.2,2.4-20.4,4.9-30.3
		C74.9,17.4,94,2.4,120.3,1.1c2.5-0.1,5-0.6,7.6-1C130.3,0.1,132.7,0.1,135.1,0.1z"/>
	<path d="M346.7,278.4c-0.4,0.7-0.9,1.4-1.2,2.2c-5,12.7-12.1,17.6-25.7,17.6c-2.2,0-4.5,0-7.3,0c14.7-32.5,11.9-63-9.2-92.1
		c1.4-0.3,2.3-0.5,3.3-0.7c3.9-0.8,6.1-3.1,6-7.3c-0.1-4.2-2.7-6.5-6.4-6.9c-4.6-0.5-9.4,0-14-0.6c-3.1-0.3-6.5-1-9.1-2.6
		c-13.4-8.1-27.7-12.7-43.3-12.9c-1,0-2-0.2-3-1.2c1.8,0,3.7,0,5.5,0c18.6,0,37.2,0.1,55.7-0.1c3.3,0,6.9,0,9.7-1.4
		c2.2-1,4.6-4.2,4.6-6.3c0-2.2-2.5-5-4.6-6.4c-2-1.2-5-1.1-7.6-1.1c-28.5-0.1-57,0-85.4,0c-1.9,0-3.8,0-6.8,0
		c2.9-5.4,5.3-10.4,8.2-14.9c0.8-1.3,3.3-2,5-2c26.9-0.2,53.8-0.3,80.7-0.3c5,0,10.3-3.3,10.7-7.1c0.3-3.6-4.9-8-10-8.1
		c-24.5-0.1-49,0-73.5,0c-1.9,0-3.8,0-6.3,0c1.2-8.8,2.4-17.1,3.7-25.4c0.1-0.8,1.6-1.7,2.6-1.9c1.9-0.4,3.8-0.3,5.7-0.3
		c32.1,0,64.3-0.1,96.4,0.1c5.3,0,10.6,1,15.9,1.5C346.7,159.6,346.7,219,346.7,278.4z"/>
	<path d="M346.7,81.4c-2.6,0.6-5.3,1.8-7.9,1.8c-35.6,0.1-71.2,0-106.8,0.2c-4.1,0-5.8-1.1-6.3-5.4c-1.5-12.5-3.5-25-5.4-37.7
		c1.9-0.6,3.4-1.1,5.6-1.8c0-2.7-0.2-5.5,0-8.2c0.5-5.3,3.5-7.8,8.6-7.8c4.8,0,7.5,2.5,8.4,7.5c1.6,9.8,1.6,9.8,11.8,9.8
		c3.4,0,6.9,0,10.5,0c1.4-7-2.6-17.3,9.3-17.1c10.9,0.2,7.6,9.9,8.9,16.5c7,0,13.9,0,21.6,0c0.2-2.9,0.5-5.9,0.6-8.9
		c0.3-4.7,2.2-7.4,7.3-7.5c6.4-0.1,9.4,1.4,9.2,7.1c-0.3,7.2,2.3,10.1,9.2,11.5c6.4,1.3,10.3,6.7,13.1,12.6c0.7,1.5,1.5,3,2.2,4.5
		C346.7,66.1,346.7,73.8,346.7,81.4z M306.9,40.9c0,6.7-0.3,12.9,0.1,19.1c0.2,3.6,2.7,6.1,6.6,6.2c3.7,0.1,6.9-1.7,7.1-5.5
		c0.5-6.5,0.1-13,0.1-19.8C316.3,40.9,311.8,40.9,306.9,40.9z M242.6,41c-5.8,0-10.5,0-16.2,0c0.5,6.4,0.3,12.7,1.7,18.7
		c0.6,2.4,4.5,5.7,6.7,5.6c2.3-0.2,5.7-3.7,6.3-6.2C242.4,53.4,242.1,47.4,242.6,41z M267.2,41c0,6.5-0.2,12.6,0.1,18.8
		c0.2,4.1,3,6.2,6.9,6.2c3.9,0,6.8-2,7-6.1c0.3-6.3,0.1-12.6,0.1-18.9C276.3,41,271.9,41,267.2,41z"/>
	<path d="M200.5,183.2c-33.9,20-50.4,48.1-46.2,85.7c4.1,36.3,25.8,59.5,60.9,71.8c-4.3,1.1-7.7,2.1-11.2,2.8
		c-3.6,0.8-7.1,1.5-10.7,2c-45.4,6.1-90.7,6.5-135.6-3.6c-16.5-3.7-32.1-9.8-46-20c-8.6-6.3-11.8-14-10.6-24.7
		c1.8-16.4,2-32.9,3.8-49.3C8,217.9,24.2,197.7,53,188.3c12-3.9,24.4-6.8,36.7-9.5c2.8-0.6,6.7,0.4,9.1,2.1
		c21.9,15.3,48.8,15.3,70.4-0.4c1.6-1.2,3.9-2.4,5.6-2.2C183,179.6,191.1,181.4,200.5,183.2z"/>
	<path d="M237.6,325.5c-36.8,0-66.2-29.3-66.1-66c0-36.7,29.4-65.7,66.4-65.7c36.5,0,65.9,29.3,66,65.7
		C303.9,296,274.3,325.5,237.6,325.5z M284.3,245.9c-8.9-1.3-17.1-2.7-25.3-3.6c-5.5-0.6-8.7-3.3-10.9-8.2
		c-3.4-7.6-7.2-14.9-11.2-23.1c-4.3,8.7-8.3,16.6-12.1,24.5c-2.1,4.4-5.1,6.3-10.1,6.7c-7.8,0.7-15.5,2.2-24.3,3.6
		c6.7,7.2,12.4,13.5,18.3,19.5c3.1,3.2,4,6.4,3,10.8c-1.8,8.5-3,17.1-4.6,26.5c8.4-4.4,15.9-8,23-12.2c4.8-2.9,8.8-2.7,13.5,0.1
		c7.2,4.2,14.8,7.9,22.9,12.2c-1.6-9.5-2.8-18.1-4.6-26.5c-1-4.7,0.2-7.9,3.5-11.1C271.7,259.1,277.6,252.8,284.3,245.9z"/>
</g>
</svg>
