<?xml version="1.0" encoding="utf-8"?>
<!-- Generator: Adobe Illustrator 24.0.2, SVG Export Plug-In . SVG Version: 6.00 Build 0)  -->
<svg version="1.1" id="Layer_1" xmlns="http://www.w3.org/2000/svg" xmlns:xlink="http://www.w3.org/1999/xlink" x="0px" y="0px"
	 viewBox="0 0 300 300" style="enable-background:new 0 0 300 300;" xml:space="preserve">
<g id="YaZeK7.tif">
	<g>
		<path d="M125.7,291.6c-2.2-0.2-4.4-0.4-6.6-0.5c-11.6-0.6-23.1-2.2-34.5-4.7c-15.3-3.4-30-8.2-43.3-16.7
			c-6.6-4.2-12.4-9.2-16.5-16.1c-2.4-4.1-3.7-8.6-3.7-13.4c0-10.6,0-21.3,0-31.9c0-0.5,0-1,0-1.9c0.5,0.4,0.8,0.6,0.8,0.8
			c2.7,9.4,9.2,15.7,16.8,21.1c9.4,6.6,19.8,11.1,30.7,14.5c11.2,3.5,22.6,5.8,34.2,7.3c14.3,1.8,28.6,2.2,42.9,1.6
			c1,0,1.7,0.3,2.4,1c12.8,13.3,28.1,21.8,46.2,25.4c3.8,0.7,7.6,1.1,11.4,1.7c-0.2,0.1-0.5,0.3-0.8,0.4
			c-11.1,4.1-22.5,6.8-34.1,8.6c-9.1,1.4-18.2,2.3-27.4,2.7c-0.4,0-0.8,0.1-1.3,0.2C137.2,291.6,131.5,291.6,125.7,291.6z"/>
		<path d="M134.7,8.4c21.3,0.4,42.3,2.7,62.7,8.9c10.8,3.3,21.2,7.5,30.6,13.7c5.4,3.5,10.3,7.6,14,12.9c7.5,10.5,7.2,22.1-0.7,32.2
			c-5.7,7.4-13.2,12.5-21.4,16.7c-12.2,6.3-25.2,10.3-38.6,13c-17,3.5-34.3,4.9-51.6,4.6c-10.8-0.2-21.6-1.1-32.3-2.8
			c-14.7-2.3-29-5.9-42.7-11.9c-9.3-4.1-18.1-9.2-25.1-16.8c-3.8-4.1-6.7-8.7-8-14.2C20,57.3,22,50.5,26.3,44.3
			c4.7-6.7,11-11.5,18-15.6c12.1-7.1,25.3-11.5,38.9-14.6c10.4-2.4,20.8-4,31.5-4.7C121.3,9,128,8.7,134.7,8.4z"/>
		<path d="M21.6,86.2c0.2,0.2,0.4,0.5,0.4,0.7c2.3,8,7.6,13.8,13.9,18.8c8.5,6.7,18.1,11.2,28.2,14.8c12.2,4.3,24.8,7.1,37.6,8.8
			c13.9,1.9,27.9,2.4,41.9,2c2-0.1,4.1-0.2,6.4-0.3c-2.2,2.5-4.2,4.7-6,7c-7.6,9.4-13,20-16.2,31.7c-0.3,1.1-0.7,1.3-1.8,1.3
			c-9.3-0.3-18.6-1.2-27.8-2.6c-12.6-1.9-24.9-4.8-36.8-9.3c-9.8-3.7-19.2-8.4-27.3-15.2c-5.7-4.9-10.3-10.5-12.3-17.9
			c-0.4-1.7-0.7-3.4-0.7-5.1c-0.1-11.1,0-22.2,0-33.4c0-0.4,0-0.7,0.1-1.1C21.3,86.3,21.5,86.2,21.6,86.2z"/>
		<path d="M21.6,146.8c0.2,0.3,0.5,0.6,0.6,0.9c2.3,7.6,7.3,13.2,13.3,18c8.2,6.6,17.5,11.4,27.4,14.8c11.8,4,23.8,7.2,36.2,8.6
			c8.2,1,16.5,1.6,24.8,2.4c0.2,0,0.5,0,0.9,0.1c-0.1,6.9,0.6,13.6,2.1,20.3c1.5,6.7,3.8,13.1,6.9,19.5c-2.1,0-3.9,0.1-5.8,0
			c-6-0.3-12-0.6-18-1.1c-9.6-0.8-19-2.4-28.4-4.6c-13.6-3.2-26.6-7.8-38.6-15c-6.9-4.1-13-9.2-17.4-15.9c-3-4.5-4.5-9.5-4.5-14.9
			c0.1-10.4,0-20.8,0-31.2c0-0.5,0-1,0-1.6C21.3,146.9,21.5,146.8,21.6,146.8z"/>
		<path d="M230.9,107.1c7.3-5.5,13.5-11.9,16.1-21.1c0.1,0.1,0.3,0.1,0.4,0.2c0,8.8,0,17.7,0,26.4C242,110.8,236.5,109,230.9,107.1z
			"/>
	</g>
</g>
<g id="hfgH3i.tif">
	<g>
		<path d="M139.3,203c0-6.4,0-12.7,0-19.1c0.4-1,0.9-1.9,1.1-3c7.2-37.9,43-62.9,81.2-56.6c29.1,4.8,52.7,27.5,58,55.8
			c5.6,30.1-7.3,59.8-33.5,74.5c-8.3,4.7-17.9,6.8-27,10.1c-6,0-12,0-18,0c-0.9-0.3-1.7-0.8-2.6-1c-28.2-5.4-46.8-21.9-56.1-48.9
			C141.2,211,140.4,206.9,139.3,203z M183.5,151.5c23.1,23.1,46.1,46.1,69,68.9c12.8-16.3,10.3-44.2-5.9-61.2
			C229.9,141.7,202,138.3,183.5,151.5z M167.9,167.2c-13.9,18.4-9.9,47.6,8.5,64.3c18.2,16.5,46.4,16.3,60.3,4.4
			C213.9,213.1,191,190.3,167.9,167.2z"/>
	</g>
</g>
</svg>
