<?xml version="1.0" encoding="utf-8"?>
<!-- Generator: Adobe Illustrator 24.0.2, SVG Export Plug-In . SVG Version: 6.00 Build 0)  -->
<svg version="1.1" id="Capa_1" xmlns="http://www.w3.org/2000/svg" xmlns:xlink="http://www.w3.org/1999/xlink" x="0px" y="0px"
	 viewBox="0 0 350 350" style="enable-background:new 0 0 350 350;" xml:space="preserve">
<g id="gK3Gap.tif">
	<g>
		<path d="M8,185.6c0-6.9,0-13.9,0-20.8c0.4-3,0.8-6,1.2-9c6-47.4,28.1-85.8,66.3-114.3C129.3,1.2,200.6-2.9,258.7,31.1
			c44.4,25.9,71.2,64.8,80.7,115.3c1.1,6.1,1.7,12.2,2.6,18.3c0,6.9,0,13.9,0,20.8c-0.2,0.8-0.5,1.7-0.5,2.5
			c-2.2,28.6-11,55-27.1,78.7c-26.6,39.4-63.4,63.7-110.3,72.4c-6.2,1.1-12.4,1.7-18.6,2.6c-7,0-13.9,0-20.9,0
			c-0.8-0.2-1.7-0.5-2.5-0.5c-33.3-2.6-63.2-14-89.4-34.6c-33.7-26.5-54.6-60.9-62.1-103.1C9.4,197.6,8.8,191.6,8,185.6z
			 M130.5,117.2c-18.7,0-37.4,0-56.1,0c-6.6,0-8.4,1.7-8.4,8.2c0,24.6,0,49.2,0,73.9c0,20.3,13.6,33.9,33.9,33.9
			c36.8,0,73.7,0,110.5,0c6.3,0,8.1-1.8,8.1-8.2c0-24.6,0-49.2,0-73.9c0-20.2-13.7-33.8-34-33.9
			C166.6,117.1,148.6,117.2,130.5,117.2z M280.2,175.3c0-17.4,0.1-34.7-0.1-52.1c0-2-1.3-3.9-1.9-5.9c-1.9,0.7-4,0.9-5.5,2
			c-14.9,10.7-29.7,21.6-44.6,32.3c-1.7,1.2-2.4,2.4-2.3,4.5c0.1,12.6,0.1,25.2,0,37.7c0,2.2,0.8,3.5,2.5,4.7
			c14.5,10.5,28.9,21.1,43.5,31.5c1.8,1.3,4.4,1.6,6.6,2.4c0.6-2.2,1.7-4.4,1.7-6.6C280.3,209.2,280.2,192.3,280.2,175.3z"/>
	</g>
</g>
</svg>
