<?xml version="1.0" encoding="utf-8"?>
<!-- Generator: Adobe Illustrator 24.0.2, SVG Export Plug-In . SVG Version: 6.00 Build 0)  -->
<svg version="1.1" id="Capa_1" xmlns="http://www.w3.org/2000/svg" xmlns:xlink="http://www.w3.org/1999/xlink" x="0px" y="0px"
	 viewBox="0 0 350 350" style="enable-background:new 0 0 350 350;" xml:space="preserve">
<g id="gkyDQx.tif">
	<g>
		<path d="M235.8,344.2c-1.4,0-2.7,0-4.1,0c-4.1-1.6-7.2-4-8.6-8.5c-10.7-34.2-21.5-68.4-32.2-102.7c-2-6.3-0.3-10.4,5-14.2
			c2.7-1.9,5.5-3.7,8-5.8c14.8-12.6,18.9-34.4,10-52.2c-8.8-17.6-29.2-27.3-48.1-22.9c-17.5,4-30.9,17.7-33.8,34.5
			c-3.2,18.1,4.4,35.2,20,45.2c7.9,5.1,9.2,8.6,6.4,17.4c-10.3,32.7-20.6,65.4-30.7,98.2c-1.6,5.2-4.1,9.2-9.5,11.1
			c-1.4,0-2.7,0-4.1,0c-5.4-2.4-10.9-4.5-16.2-7.1c-26.8-13.2-48.8-32-66-56.4c-13.7-19.4-23.2-40.6-27.9-63.8
			c-1.8-9.1-2.8-18.4-4.1-27.6c0-6.4,0-12.7,0-19.1c0.2-1,0.5-2,0.6-3c1.2-8.1,1.8-16.3,3.6-24.2C21.2,65.6,88.7,9.1,167.8,6
			c31.5-1.3,61.4,5.2,89.1,20.3c49.4,27.2,79.7,68.5,90.3,124c1.3,6.6,1.8,13.2,2.7,19.9c0,6.4,0,12.7,0,19.1
			c-0.2,0.9-0.4,1.8-0.5,2.6c-1.5,22.1-7,43.2-16.6,63.2c-12.1,25.3-29.2,46.4-51.4,63.6C267.6,329.6,252.2,337.7,235.8,344.2z"/>
	</g>
</g>
</svg>
