<?xml version="1.0" encoding="utf-8"?>
<!-- Generator: Adobe Illustrator 24.0.2, SVG Export Plug-In . SVG Version: 6.00 Build 0)  -->
<svg version="1.1" id="Capa_1" xmlns="http://www.w3.org/2000/svg" xmlns:xlink="http://www.w3.org/1999/xlink" x="0px" y="0px"
	 viewBox="0 0 350 350" style="enable-background:new 0 0 350 350;" xml:space="preserve">
<g id="rPHS91.tif">
	<g>
		<path d="M102.9,302.6c-9.7-28.7-29.1-48.3-57.6-57.9c60.2-60.2,120.3-120.4,180.2-180.2c18.8,18.9,38.5,38.6,57.7,57.9
			C223.6,181.9,163.3,242.2,102.9,302.6z"/>
		<path d="M242.8,45.3c8.5-8.5,17.3-17.3,26-26c3.9-3.9,7.7-8,11.9-11.7c8.2-7.1,17-6.7,24.7,0.8c11.1,11,22.1,22,33.1,33.1
			c8.6,8.6,8.8,18,0.3,26.8c-8.7,9-17.7,17.8-26.6,26.7c-3.3,3.4-6.6,6.8-9.7,10C282.3,84.9,262.7,65.2,242.8,45.3z"/>
		<path d="M86.6,314.5c-26.8,9.2-53.5,18.3-81.6,27.9c9.5-27.6,18.5-54.2,27.6-80.7C53.4,259.1,82.7,287.5,86.6,314.5z"/>
	</g>
</g>
</svg>
