<?xml version="1.0" encoding="utf-8"?>
<!-- Generator: Adobe Illustrator 24.0.2, SVG Export Plug-In . SVG Version: 6.00 Build 0)  -->
<svg version="1.1" id="Capa_1" xmlns="http://www.w3.org/2000/svg" xmlns:xlink="http://www.w3.org/1999/xlink" x="0px" y="0px"
	 viewBox="0 0 512 512" style="enable-background:new 0 0 512 512;" xml:space="preserve">
<g id="_x33_zDMpE.tif">
	<g>
		<g>
			<path d="M512,61.9c-1.9,12.6-3.7,25.3-5.8,37.9c-1.1,6.4-3,12.6-4.3,19c-0.9,4.7-3.5,5.7-7.9,5c-21.7-3.6-40.9-12.7-57.9-26.5
				c-24.7-20.1-41.5-45.2-47.8-76.8c-1.5-7.5-1.5-8,6-9.5c18.6-3.7,37.2-7,55.8-10.4c1-0.2,1.9-0.5,2.9-0.7c15,0,30,0,45,0
				c7.4,2,12.1,6.6,14,14C512,29.9,512,45.9,512,61.9z"/>
			<path d="M0,247.9c2.5-3.3,4.6-7,7.5-9.9c15.2-15.2,30.3-30.5,46-45.1c16.3-15.2,35.7-25.1,57.8-28.6c7.2-1.1,14.8-0.1,22.2,0.6
				c3.8,0.3,4.9,2.6,2.2,6.2c-20.9,27.7-39.8,56.7-56.9,86.8c-1.9,3.4-4.2,4.2-8.1,3.7c-14.6-1.9-28.8,1-43,4.1
				c-1.6,0.4-3.2,0.8-4.8,1.2c-11.5,2.8-16.2,0.9-22.7-9C0,254.6,0,251.2,0,247.9z"/>
			<path d="M256,511.9c-9.2-4.9-11.4-9.5-10.4-19.8c1.6-16.9,2.7-33.8,4.4-50.7c0.2-2.3,2.2-5.2,4.2-6.5c12.3-7.7,25-14.7,37.1-22.6
				c15.5-10.1,30.6-20.8,45.8-31.2c2.4-1.7,4.9-3.3,7.8-5.2c4.1,7.4,3.8,14.8,2.9,21.9c-3.2,25.1-13.9,46.8-31.4,65
				c-14.2,14.8-28.9,29.1-43.4,43.5c-2.1,2.1-4.7,3.7-7.1,5.5C262.7,511.9,259.3,511.9,256,511.9z"/>
			<path d="M181.2,280.9c-9.4,2.2-18.8,4.1-28,6.7c-3.8,1.1-6.4,0.9-9.3-2.1c-8.7-9-17.5-17.9-26.5-26.5c-3.2-3.1-3.1-5.5-0.9-9
				c23.3-37.6,49.1-73.4,78.8-106.2c30.3-33.3,63.1-63.8,101.4-87.6c18.5-11.5,38.3-20.8,57.5-31.1c3.7-2,5.1-0.7,6.1,3.2
				c14.4,58.2,50.8,96.9,106.2,118.3c5.9,2.3,12.2,3.4,18.3,4.8c5.5,1.3,5.7,1.6,3.4,7c-15,36.5-36,69.4-61.1,99.8
				c-34.7,42-75.4,77.6-119.9,108.8c-14.5,10.1-29.5,19.4-44.2,29.2c-3.7,2.5-6.2,2.4-9.4-0.9c-9-9.4-18.2-18.6-27.6-27.6
				c-3-2.9-3.3-5.5-2-9.3c4.1-11.5,6.4-23.3,5.1-35.7C226.5,297.1,207.1,281.8,181.2,280.9z M403.8,182.1c0-41-33-74-74-74.1
				c-41.3-0.1-74.6,32.9-74.7,74c0,40.7,33.8,74.7,74.4,74.6C370.6,256.6,403.8,223.1,403.8,182.1z"/>
			<path d="M201.2,332.9c-1.2,14.7-7.5,29.1-19.3,40.4c-15.6,14.9-31.7,29.5-48.2,43.4c-15.6,13.2-32.4,25-51,34
				c-10.5,5.1-21.6,0.3-23.1-10.5c-0.6-3.9,0.7-8.7,2.5-12.3c9.7-19.5,22.4-37.1,36.3-53.6c12.3-14.6,25.4-28.6,38.4-42.6
				c10.4-11.2,23.5-18,38.6-20.3c4.9-0.8,10.3-0.3,15.3,0.8C197.6,313.6,201.3,320.9,201.2,332.9z"/>
			<path d="M232.4,414.2c-9,4.9-16.6,9.2-24.4,13.3c-7.1,3.7-14.2,7.3-21.4,10.8c-7.7,3.7-14.4,2.3-20.6-3.6c-3-2.8-3.1-4.8,0-7.6
				c11.3-10.3,22.5-20.8,33.6-31.3c7.1-6.8,7-6.9,14.2,0.2C219.7,401.8,225.6,407.5,232.4,414.2z"/>
			<path d="M98.2,280.5c5.9,5.8,10.8,10.7,15.7,15.6c2.8,2.8,7.1,5.5,7.6,8.8c0.4,2.3-4.2,5.6-6.7,8.4c-10.1,11-20.4,22-30.4,33.1
				c-2.6,2.9-4.5,2.5-6.9-0.1c-4.1-4.6-6.5-10.2-4-15.6C81.1,314,89.6,297.8,98.2,280.5z"/>
			<path d="M330.1,136.7c24.6,0.1,45.2,20.9,45.1,45.4c-0.1,25-20.3,45.8-45.5,45.5c-25.8-0.3-45.5-19.5-45.5-45.4
				C284.2,154.8,305.4,137,330.1,136.7z"/>
		</g>
	</g>
</g>
</svg>
