<?xml version="1.0" encoding="utf-8"?>
<!-- Generator: Adobe Illustrator 24.0.2, SVG Export Plug-In . SVG Version: 6.00 Build 0)  -->
<svg version="1.1" id="Capa_1" xmlns="http://www.w3.org/2000/svg" xmlns:xlink="http://www.w3.org/1999/xlink" x="0px" y="0px"
	 viewBox="0 0 350 350" style="enable-background:new 0 0 350 350;" xml:space="preserve">
<g id="QlXlTs_1_">
	<g>
		<path d="M30.4,87.5c-0.2-2.8-0.8-5.6-0.5-8.4c0.6-6.9,3.5-12.9,10.9-13.7c23.9-2.5,43.4-15.1,63.5-26.5
			c19.4-11.1,39.2-21.6,58.9-32c7.7-4.1,15.9-4,23.5,0c19.6,10.3,39.2,20.5,58.3,31.6c20.3,11.7,40,24.4,64.1,27.1
			c6.9,0.8,11.5,7.3,11.1,14.3c-2.9,55.6-12.1,109.7-37.7,159.9c-22.4,44.1-55.2,78.4-97.8,103.4c-6.9,4-13.3,3.6-20.1-0.4
			c-49.3-29-84.8-70.1-106.6-122.9C40.7,177.4,32.7,133,30.4,87.5z M174.8,243.1c45.1,0,81.1-35.9,81-81c0-45.7-36.5-80.8-83.7-80.7
			c-42.2,0.1-77.9,37.3-77.9,81.1C94.2,207.2,130.1,243,174.8,243.1z"/>
		<path d="M221.7,130.8c15.8,22.5,12,54.8-7.9,73.2c-19.1,17.6-51.7,20-69.9,4.8C169.7,183,195.4,157.1,221.7,130.8z"/>
		<path d="M126.9,191.9c-14.2-19.6-11-50.9,8.4-70.2c19-18.9,49.6-21.7,70.3-6.8C179.4,140.5,153.2,166.2,126.9,191.9z"/>
	</g>
</g>
</svg>
