<?xml version="1.0" encoding="utf-8"?>
<!-- Generator: Adobe Illustrator 24.0.2, SVG Export Plug-In . SVG Version: 6.00 Build 0)  -->
<svg version="1.1" id="Capa_1" xmlns="http://www.w3.org/2000/svg" xmlns:xlink="http://www.w3.org/1999/xlink" x="0px" y="0px"
	 viewBox="0 0 512 512" style="enable-background:new 0 0 512 512;" xml:space="preserve">
<g id="EGZfzp.tif">
	<g>
		<path d="M425.8,323.1c-12.3-9.5-22.5-17.6-33-25.5c-4.5-3.4-2.1-6.5-0.5-10c15.4-33.2,15.8-66.6,0.1-99.8
			c-24-50.9-82.3-77-135.8-61c-53.7,16-88.1,68.4-81.5,124.1c10,84.5,103.5,129.1,175.5,83.5c6.9-4.3,10.4-3.5,15.7,1.9
			c17.5,17.7,35.3,34.9,53.3,52.1c4.4,4.3,7,8.6,6.3,15c-0.6,6-0.1,12-0.2,18c-0.1,22.6-10.4,33-33.1,33c-63.8,0.1-127.6,0-191.4,0
			c-16.1,0-32.2,0-48.3,0c-21.3-0.1-32.1-10.9-32.1-32.5c-0.1-34.5,0-68.9,0-103.4c0-78,0-155.9,0-233.9c0-23.2,10.8-34.2,33.9-34.2
			c78.8,0,157.6,0,236.4,0c24.4,0,34.7,10.5,34.7,35c0,75.8,0,151.5,0,227.3C425.8,315.4,425.8,318.1,425.8,323.1z"/>
		<path d="M392.1,237.7c0.2,18.5-4.2,36-13.9,51.6c-4.4,7.1-2.3,10,3.3,14.3c40.4,31.1,80.5,62.6,120.9,93.9
			c7.6,5.9,11.9,12.9,9.5,22.6c-3.9,15.7-21.8,20.5-34.2,9c-12.4-11.5-24.4-23.5-36.5-35.3c-25.6-25-51.2-49.9-76.6-75.1
			c-4.5-4.5-7.2-3.6-11.5-0.2c-44.5,34.8-104.8,29.1-142.1-13c-28.5-32.2-33.3-82.1-11.6-119.4c22.6-38.8,67.4-59.1,110.3-49.7
			C358.7,146.8,392.3,188.3,392.1,237.7z M289.8,152.2c-46.6-0.3-85.4,37.9-85.7,84.3c-0.4,47.2,37.7,86.1,84.5,86.3
			c46.4,0.2,85.1-38.2,85.4-84.7C374.3,191.4,336.1,152.4,289.8,152.2z"/>
		<path d="M101.1,89.7c0,108.3,0,216.7,0,325.6c-8,0-15.9,1-23.5-0.3c-9.5-1.6-15.7-10.6-16.3-21.1c-0.4-6.5-0.2-13.1-0.2-19.7
			c0-83.9,0.5-167.9-0.3-251.8C60.5,92.2,75.1,86.1,101.1,89.7z"/>
		<path d="M42.1,252.9c0,38.8-0.1,77.6,0.1,116.4c0,6.6-1.6,9.6-8.6,8.9c-4.9-0.5-9.8,0.1-14.7-0.2C8.4,377.2,1.6,370.5,1.5,360
			c-0.1-71.6-0.1-143.2,0-214.7c0-10.9,7.2-17.6,18.1-18.2c22.4-1.2,22.4-1.2,22.4,20.9C42.1,182.9,42.1,217.9,42.1,252.9z"/>
		<path d="M279.5,226.4c0-13.9,0.4-27.8-0.2-41.7c-0.3-8.4,4.7-7.6,10-7.7c5.3-0.1,9.4-0.2,9.3,7.4c-0.4,28.1-0.5,56.2,0,84.3
			c0.2,9.5-5.7,7.6-11.2,8.1c-6.7,0.6-8.3-2.5-8.1-8.7C279.7,254.3,279.5,240.3,279.5,226.4z"/>
		<path d="M258.3,245.7c0,8.5-0.2,16.9,0,25.4c0.2,7.5-5.3,5.5-9.2,5.5c-4,0.1-9.2,1.8-9.1-5.6c0.2-17.2,0-34.4,0-51.6
			c0-7.9,5.9-5.4,10-5.7c4.1-0.3,8.4-0.6,8.3,5.8C258.2,228.2,258.4,237,258.3,245.7z"/>
		<path d="M319.8,245.3c0-8.5,0.2-16.9,0-25.4c-0.2-8.4,6-5.9,10.4-6.3c4.3-0.4,8-0.2,7.9,6.1c-0.3,16.9-0.3,33.9,0,50.8
			c0.1,7.1-4.3,6.4-8.7,6.1c-4.2-0.3-9.9,2-9.7-6C319.9,262.3,319.7,253.8,319.8,245.3z"/>
	</g>
</g>
</svg>
