<?xml version="1.0" encoding="utf-8"?>
<!-- Generator: Adobe Illustrator 24.0.2, SVG Export Plug-In . SVG Version: 6.00 Build 0)  -->
<svg version="1.1" id="Capa_1" xmlns="http://www.w3.org/2000/svg" xmlns:xlink="http://www.w3.org/1999/xlink" x="0px" y="0px"
	 viewBox="0 0 350 350" style="enable-background:new 0 0 350 350;" xml:space="preserve">
<g>
	<path d="M1,299.2C1,296.4,1,298.4,1,299.2L1,299.2z"/>
	<path d="M256.6,301.4C256.7,300.6,256.6,296.1,256.6,301.4L256.6,301.4z"/>
</g>
<g>
	<path d="M2.1,273.9c0.7-6.3,1.1-12.7,2.2-19c1.7-9.8,3.3-19.6,6.1-29.1c4.8-16.2,15.5-27.8,30.4-35.7c17.1-9,35.7-12.9,54.5-16.5
		c1.3-0.3,3.3,0.9,4.5,1.9c20.5,17,53.2,16.9,73.7-0.3c1.2-1,3.1-1.8,4.5-1.5c18.1,3.4,36.1,7.1,52.5,15.7
		c6.3,3.3,11.9,7.9,17.4,12.4c1.4,1.1,2.1,4.4,1.6,6.2c-4.3,15.4-4.4,15.4-20.3,15.4c-4.7,0-9.5,0-14.2,0
		c-11.3,0.1-21.1,7.1-24.7,17.7c-3.6,10.6-0.4,22.6,8.3,29.4c7,5.5,14.3,10.6,21.6,15.7c2.4,1.7,3.1,3.2,2,6.1
		c-2.3,6.4-4.1,13-6.4,19.3c-3.2,8.7-3.9,17.3,1,26.6c-7.8,1.6-15,3.4-22.3,4.4c-45.2,6.2-90.4,6.4-135.1-3.9
		c-18.5-4.3-36.2-10.8-50.7-23.8c-2.3-2.1-4.4-4.3-6.6-6.5C2.1,296.9,2.1,285.4,2.1,273.9z"/>
	<path d="M208.3,76.2c0,25.3-6.5,48.1-23.3,67.4c-27.2,31.2-71.3,30.8-98-0.9C73.7,127,66.9,108.5,65.5,88.2
		c-1.1-16.2-0.1-32.5,3.9-48.3c6.3-24.9,22-39.7,47.6-44c14.2-2.4,28.3-2.3,42.3,0.6c25.4,5.3,40.7,21.7,45.6,49.2
		C206.6,55.7,207.2,66,208.3,76.2z"/>
	<path d="M230.2,244c5.4,0,10.9,0.4,16.3-0.1c9.3-0.9,15.4-6.1,18.4-14.9c2.8-8.2,5.5-16.5,8.1-24.8c1-3.2,2.5-6.5,6.2-5.6
		c2.3,0.6,4.8,3.2,5.7,5.5c3,7.6,5.3,15.5,7.9,23.3c3.8,11.5,10.9,16.7,23,16.9c8.6,0.2,17.2-0.2,25.7,0.2c2.2,0.1,5.4,2.1,6.2,4
		c0.7,1.6-0.9,5.1-2.6,6.4c-6.5,5.3-13.5,10-20.3,14.9c-10.2,7.4-13,15.8-9.1,27.9c2.4,7.5,4.8,15,7.3,22.4c1.1,3.3,2,6.5-1.4,8.9
		c-3.5,2.5-6.2,0.2-8.9-1.8c-6.6-4.8-13.3-9.7-20-14.5c-9-6.4-18.3-6.3-27.3,0.1c-6.8,4.9-13.6,9.8-20.4,14.8c-2.7,2-5.9,3.9-8.4,1
		c-1.5-1.8-2.1-5.5-1.4-7.9c2.2-8.4,5.3-16.6,7.8-25c3.1-10.1,0.2-18.7-8.2-25c-6.9-5.1-13.9-10.1-20.9-15c-2.8-2-4.9-4.2-3.7-7.8
		c1.2-3.5,4.1-3.8,7.3-3.7c4.2,0.1,8.4,0,12.6,0C230.2,244.2,230.2,244.1,230.2,244z"/>
</g>
<path d="M423.8-13.6"/>
</svg>
