<?xml version="1.0" encoding="utf-8"?>
<!-- Generator: Adobe Illustrator 24.0.2, SVG Export Plug-In . SVG Version: 6.00 Build 0)  -->
<svg version="1.1" id="Capa_1" xmlns="http://www.w3.org/2000/svg" xmlns:xlink="http://www.w3.org/1999/xlink" x="0px" y="0px"
	 viewBox="0 0 512 512" style="enable-background:new 0 0 512 512;" xml:space="preserve">
<g id="mJH9eE.tif">
	<g>
		<path d="M510.2,131.6c-1.5,1.2-3.1,2.4-4.5,3.7C381.6,259.4,257.5,383.4,133.4,507.5c-1.3,1.3-2.4,2.8-3.2,3.6
			C86.7,467.6,43.4,424.4-0.1,380.9c32.4-31.8,65.5-64.3,99.2-97.4c3.7,3.9,8,8.7,12.5,13.3c10.1,10.2,20.1,20.3,30.4,30.3
			c4.3,4.2,10.3,4.4,13.9,0.8c3.7-3.7,3.7-9.4-0.2-14c-0.9-1-1.8-1.9-2.8-2.8c-12.7-12.5-25.4-25-38-37.5c-1.2-1.2-2.4-2.3-3.1-2.9
			c11.7-11.8,23.3-23.3,35.1-35.2c0.5,0.4,1.7,1.5,2.8,2.6c21.3,21.1,42.5,42.1,63.8,63.3c3.1,3.1,6.3,5.4,11,4.2
			c6.7-1.6,9.4-8.3,5.4-13.9c-1.1-1.6-2.6-3-4-4.4c-20.7-20.9-41.5-41.8-62.2-62.7c-1.2-1.2-2.7-2-3.8-2.8
			c12.3-12.2,24-23.8,34.6-34.3c13.8,13.2,28.1,26.9,42.4,40.6c1.4,1.4,2.8,2.8,4.5,3.9c3.9,2.6,8.6,2,11.8-1.3
			c3.1-3.2,3.6-8.1,0.9-11.9c-1-1.5-2.4-2.8-3.7-4.1c-12.8-12.8-25.6-25.6-38.5-38.5c-1.2-1.2-2.3-2.4-3-3.2
			c11.6-11.6,23.1-23.1,35-35c0.6,0.5,1.8,1.7,3.1,2.9c20.8,21,41.7,42.1,62.5,63.1c5.8,5.9,12,6.9,16.2,2.8
			c4.3-4.1,3.2-11-2.5-16.7c-20.9-20.7-41.8-41.4-62.8-62.1c-1.3-1.3-2.8-2.3-4-3.4c12.1-12,23.6-23.5,35.4-35.2
			c0.9,0.8,2.1,1.8,3.3,3c13,12.9,25.9,25.9,38.8,38.8c1.5,1.5,3.1,3.1,5,4.1c3.9,2.1,7.9,1.6,11-1.6c3-3.2,3.5-7.2,1.4-11.1
			c-1-1.9-2.5-3.5-4.1-5c-12.9-12.8-25.8-25.5-38.7-38.2c-1.2-1.1-2.3-2.4-3-3.2c11.7-11.7,23.2-23.2,36-36c0.5,0.8,1,2.8,2.3,4
			c21.1,21,42.3,41.9,63.4,62.9c2.9,2.9,6,5.2,10.5,4.5c6.8-1,10.1-8.4,6.2-13.9c-1.1-1.6-2.6-3-4-4.4
			c-20.6-20.8-41.2-41.6-61.8-62.4c-1.3-1.3-2.8-2.3-4.5-3.8c9-9.2,17.3-17.8,25.7-26.4c0.3,0,0.7,0,1,0
			c17.6,17.7,35.2,35.4,52.8,53c25.6,25.6,51.3,51.2,77,76.8C510.2,130.9,510.2,131.2,510.2,131.6z M111.4,365.1
			c-19.8,0-36.2,16.3-36.4,36.1c-0.2,19.7,16.7,36.7,36.5,36.6c19.7-0.1,36.2-16.5,36.3-36.2C147.9,381.5,131.5,365.1,111.4,365.1z"
			/>
		<path d="M127.9,402.1c-0.1,9.5-7.4,17-16.5,17c-9.1,0-16.5-7.6-16.5-17.1c0-9.4,8-17.7,16.8-17.5
			C120.5,384.7,128,392.8,127.9,402.1z"/>
	</g>
</g>
</svg>
