<?xml version="1.0" encoding="utf-8"?>
<!-- Generator: Adobe Illustrator 24.0.2, SVG Export Plug-In . SVG Version: 6.00 Build 0)  -->
<svg version="1.1" id="Capa_1" xmlns="http://www.w3.org/2000/svg" xmlns:xlink="http://www.w3.org/1999/xlink" x="0px" y="0px"
	 viewBox="0 0 512 512" style="enable-background:new 0 0 512 512;" xml:space="preserve">
<g id="YtfSoe.tif">
	<g>
		<path d="M511.3,411.8c-16.8,0-33.5,0-51,0c0,1.9,0,3.6,0,5.4c0,14.3,0,28.6,0,42.9c-0.1,17.3-10.4,27.8-27.6,27.9
			c-32.8,0.1-65.5,0.1-98.3,0c-17.2-0.1-27.5-10.5-27.6-27.8c-0.1-15.9,0-31.9,0-48.5c-102.2,0-204,0-306.2,0c0-17.3,0-34,0-51.3
			c101.9,0,203.7,0,306.2,0c0-2.4,0-4.1,0-5.9c0-14.3-0.1-28.6,0-42.9c0.1-17.2,10.4-27.7,27.6-27.8c32.6-0.1,65.2-0.1,97.8,0
			c17.6,0,27.9,10.4,28,28c0.1,14.1,0,28.3,0,42.4c0,1.8,0,3.6,0,5.8c17.3,0,34.1,0,51,0C511.3,377.2,511.3,394.5,511.3,411.8z"/>
		<path d="M511.3,156.3c-11.3-0.1-22.6-0.3-33.9-0.3c-45.9,0-91.8,0-137.7,0c-2.1,0-4.3,0-7.2,0c0,2.1,0,3.9,0,5.6
			c0,14.1,0,28.3,0,42.4c0,18.1-10.3,28.4-28.5,28.5c-32.1,0.1-64.2,0.1-96.3,0c-18.5,0-28.6-10.2-28.7-28.8c0-15.6,0-31.2,0-47.5
			c-59.6,0-118.8,0-178.4,0c0-17.4,0-34.1,0-51.4c59.3,0,118.5,0,178.4,0c0-2.4,0-4.1,0-5.9c0-14.5-0.1-28.9,0-43.4
			c0.2-16.5,10.3-27.1,26.7-27.2c33.4-0.3,66.9-0.3,100.3,0c16,0.1,26.3,10.9,26.5,26.9c0.2,14.6,0.1,29.3,0.1,43.9
			c0,1.6,0,3.3,0,5.2c1.8,0.1,3.2,0.4,4.6,0.4c56.9,0,113.8,0,170.7,0c1.2,0,2.3-0.2,3.5-0.3C511.3,121.7,511.3,139,511.3,156.3z"/>
	</g>
</g>
</svg>
