<?xml version="1.0" encoding="utf-8"?>
<!-- Generator: Adobe Illustrator 24.0.2, SVG Export Plug-In . SVG Version: 6.00 Build 0)  -->
<svg version="1.1" id="Capa_1" xmlns="http://www.w3.org/2000/svg" xmlns:xlink="http://www.w3.org/1999/xlink" x="0px" y="0px"
	 viewBox="0 0 486.9 486.9" style="enable-background:new 0 0 486.9 486.9;" xml:space="preserve">
<g id="_x31_nT50R.tif">
	<g>
		<path d="M0,389c0-82.4,0-164.8,0-247.3c1.4,0,2.8-0.1,4.3-0.1c159.5,0,318.9,0,478.4,0c1.4,0,2.8,0.1,4.3,0.1
			c0,82.4,0,164.8,0,247.3c-29.9,0-59.7,0-89.8,0c17.4-95.3-51.9-178.1-139.9-185.3c-45-3.7-85.1,9.3-118.4,39.9
			C96.3,282.6,81.1,331.7,89.8,389C59.5,389,29.8,389,0,389z"/>
		<path d="M255.8,486.9c-8.2,0-16.5,0-24.7,0c-4-0.7-8-1.4-12-2.2c-69-13.7-113.7-79.4-101.2-148.9
			c12.2-67.5,77.6-115.4,148.5-102.3c67.9,12.5,112.3,74.4,103.6,143c-6.2,49.6-43.5,92.6-91.6,105.7
			C271,484.1,263.4,485.3,255.8,486.9z M229.4,286.4c0,29.2,0,57.8,0,86.6c20.6,0,41,0,61.3,0c0-9.4,0-18.5,0-28
			c-11,0-21.8,0-33.1,0c0-19.8,0-39.1,0-58.6C248,286.4,238.8,286.4,229.4,286.4z"/>
		<path d="M419.4,0c9.5,0,19,0,28.5,0c0,12.3,0,24.5,0,37.1c13.4,0,26.2,0,39,0c0,25.4,0,50.7,0,76.1c-1.9,0-3.8-0.1-5.7-0.1
			c-115.8,0-231.5,0-347.3,0c-44.7,0-89.3,0-134,0.1c0-25.4,0-50.7,0-76.1c12.9,0,25.8,0,39,0c0-12.8,0-24.9,0-37.1
			c9.5,0,19,0,28.5,0c0,12.3,0,24.5,0,36.8c22.5,0,44.4,0,66.6,0c0-12.5,0-24.6,0-36.8c9.5,0,19,0,28.5,0c0,12.3,0,24.5,0,36.8
			c22.5,0,44.4,0,66.6,0c0-12.5,0-24.6,0-36.8c9.5,0,19,0,28.5,0c0,12.3,0,24.5,0,36.8c22.5,0,44.4,0,66.6,0c0-12.5,0-24.6,0-36.8
			c9.5,0,19,0,28.5,0c0,12.3,0,24.5,0,36.8c22.5,0,44.4,0,66.6,0C419.4,24.3,419.4,12.2,419.4,0z"/>
	</g>
</g>
</svg>
