<?xml version="1.0" encoding="utf-8"?>
<!-- Generator: Adobe Illustrator 24.0.2, SVG Export Plug-In . SVG Version: 6.00 Build 0)  -->
<svg version="1.1" id="Capa_1" xmlns="http://www.w3.org/2000/svg" xmlns:xlink="http://www.w3.org/1999/xlink" x="0px" y="0px"
	 viewBox="0 0 350 350" style="enable-background:new 0 0 350 350;" xml:space="preserve">
<path d="M282.4,343c-35.1-18.5-67.6-35.5-99.7-52.5c-7.2-3.8-12.5-4.2-19.6,0c-28.7,15.9-57.8,30.6-86.8,45.7
	c-3.8,1.9-7.6,3.8-12.8,6c6.4-37.8,12.1-74.4,18.9-110.6c1.5-8.7-0.8-13.2-6.4-18.9c-25.3-26.4-49.8-53.2-74.4-78.9
	c17.7-2.6,39.3-6,61.2-9.1c10.6-1.5,21.1-4.5,31.3-4.2c19.3,0.8,27.9-9.8,35.1-26C142,65.5,157.1,37.2,171.8,7
	c2.6,4.2,4.5,7.2,6,10.2c14.3,29.1,29.4,57.4,42.7,86.8c4.9,10.6,11.3,14,21.9,15.5c31.7,4.2,63,9.1,94.8,13.6
	c3.4,0.4,6.4,1.5,11.3,2.6c-3,3.4-5.3,6.4-7.9,8.7c-23,22.7-46.1,45.3-69.5,67.6c-7.2,6.8-9.4,13.2-7.6,23.4
	C270.3,269.4,276,304.9,282.4,343z"/>
</svg>
