<?xml version="1.0" encoding="utf-8"?>
<!-- Generator: Adobe Illustrator 24.0.2, SVG Export Plug-In . SVG Version: 6.00 Build 0)  -->
<svg version="1.1" id="Capa_1" xmlns="http://www.w3.org/2000/svg" xmlns:xlink="http://www.w3.org/1999/xlink" x="0px" y="0px"
	 viewBox="0 0 350 350" style="enable-background:new 0 0 350 350;" xml:space="preserve">
<g id="deNPJr.tif">
	<g>
		<path d="M345,175c0,94.1-76.2,170.2-170.2,170C80.7,344.8,5,269,5,175C5,80.8,81.2,4.8,175.2,5C269.3,5.2,345,81,345,175z
			 M109.1,174.3c-0.2,0-0.3,0-0.5,0c0,15.4,0,30.8,0,46.1c0,13,7.9,20.9,20.9,20.9c30.4,0,60.8,0,91.3,0c13,0,20.9-7.7,20.9-20.8
			c0.1-30.3,0.1-60.6,0-90.9c0-13.3-7.9-20.9-21.1-21c-30.1,0-60.2,0.2-90.3-0.1c-12.9-0.1-21.6,8.8-21.3,21.3
			C109.4,144.7,109.1,159.5,109.1,174.3z"/>
	</g>
</g>
</svg>
