<?xml version="1.0" encoding="UTF-8" standalone="no"?>
<svg
   xmlns:dc="http://purl.org/dc/elements/1.1/"
   xmlns:cc="http://creativecommons.org/ns#"
   xmlns:rdf="http://www.w3.org/1999/02/22-rdf-syntax-ns#"
   xmlns:svg="http://www.w3.org/2000/svg"
   xmlns="http://www.w3.org/2000/svg"
   xmlns:sodipodi="http://sodipodi.sourceforge.net/DTD/sodipodi-0.dtd"
   xmlns:inkscape="http://www.inkscape.org/namespaces/inkscape"
   class="ionicon"
   viewBox="0 0 512 512"
   version="1.1"
   id="svg857"
   sodipodi:docname="newspaper.svg"
   inkscape:version="1.0.1 (c497b03c, 2020-09-10)">
  <metadata
     id="metadata863">
    <rdf:RDF>
      <cc:Work
         rdf:about="">
        <dc:format>image/svg+xml</dc:format>
        <dc:type
           rdf:resource="http://purl.org/dc/dcmitype/StillImage" />
      </cc:Work>
    </rdf:RDF>
  </metadata>
  <defs
     id="defs861" />
  <sodipodi:namedview
     pagecolor="#ffffff"
     bordercolor="#666666"
     borderopacity="1"
     objecttolerance="10"
     gridtolerance="10"
     guidetolerance="10"
     inkscape:pageopacity="0"
     inkscape:pageshadow="2"
     inkscape:window-width="1740"
     inkscape:window-height="1049"
     id="namedview859"
     showgrid="false"
     inkscape:zoom="1.4355469"
     inkscape:cx="152.5551"
     inkscape:cy="260.17959"
     inkscape:window-x="0"
     inkscape:window-y="23"
     inkscape:window-maximized="1"
     inkscape:current-layer="svg857" />
  <title
     id="title851">Newspaper</title>
  <path
     d="m 463.9309,93.191836 h -26.93119 a 0.1017551,0.1017551 0 0 0 -0.10175,0.101755 V 436.89795 a 36.179591,36.179591 0 0 0 36.17959,36.1796 36.179591,36.179591 0 0 0 36.17959,-36.1796 V 138.51808 A 45.326244,45.326244 0 0 0 463.9309,93.191836 Z"
     id="path853"
     style="stroke-width:1.13061" />
  <path
     d="M 400.71837,436.89795 V 47.967346 A 45.224489,45.224489 0 0 0 355.49388,2.7428571 H 47.967349 A 45.224489,45.224489 0 0 0 2.74286,47.967346 V 445.94285 a 63.314285,63.314285 0 0 0 63.314285,63.31429 H 453.68755 a 1.2888979,1.2888979 0 0 0 1.3002,-1.30021 1.2888979,1.2888979 0 0 0 -0.96102,-1.24367 72.48355,72.48355 0 0 1 -53.30836,-69.81531 z M 75.102043,111.28163 A 18.089796,18.089796 0 0 1 93.191839,93.191836 h 72.359181 a 18.089796,18.089796 0 0 1 18.0898,18.089794 v 72.35918 a 18.089796,18.089796 0 0 1 -18.0898,18.0898 H 93.191839 A 18.089796,18.089796 0 0 1 75.102043,183.64081 Z M 310.26939,418.80816 H 93.700614 c -9.734571,0 -18.089796,-7.48465 -18.575959,-17.21923 A 18.089796,18.089796 0 0 1 93.191839,382.62857 H 309.76061 c 9.73457,0 18.0898,7.48465 18.57596,17.21922 a 18.089796,18.089796 0 0 1 -18.06718,18.96037 z m 0,-72.35918 H 93.700614 c -9.734571,0 -18.089796,-7.48466 -18.575959,-17.21923 A 18.089796,18.089796 0 0 1 93.191839,310.26938 H 309.76061 c 9.73457,0 18.0898,7.48466 18.57596,17.21923 a 18.089796,18.089796 0 0 1 -18.06718,18.96037 z m 0,-72.35919 H 93.700614 c -9.734571,0 -18.089796,-7.48465 -18.575959,-17.21922 A 18.089796,18.089796 0 0 1 93.191839,237.9102 H 309.76061 c 9.73457,0 18.0898,7.48465 18.57596,17.21923 a 18.089796,18.089796 0 0 1 -18.06718,18.96036 z m 0,-72.35918 h -71.85041 c -9.73457,0 -18.0898,-7.48465 -18.57596,-17.21922 a 18.089796,18.089796 0 0 1 18.06718,-18.96037 h 71.85041 c 9.73457,0 18.0898,7.48465 18.57596,17.21922 a 18.089796,18.089796 0 0 1 -18.06718,18.96037 z m 0,-72.35918 h -71.85041 c -9.73457,0 -18.0898,-7.48466 -18.57596,-17.21923 A 18.089796,18.089796 0 0 1 237.9102,93.191836 h 71.85041 c 9.73457,0 18.0898,7.484654 18.57596,17.219224 a 18.089796,18.089796 0 0 1 -18.06718,18.96037 z"
     id="path855"
     style="stroke-width:1.13061" />
</svg>
