<?xml version="1.0" encoding="utf-8"?>
<!-- Generator: Adobe Illustrator 24.0.2, SVG Export Plug-In . SVG Version: 6.00 Build 0)  -->
<svg version="1.1" id="Layer_1" xmlns="http://www.w3.org/2000/svg" xmlns:xlink="http://www.w3.org/1999/xlink" x="0px" y="0px"
	 viewBox="0 0 1000 1000" style="enable-background:new 0 0 1000 1000;" xml:space="preserve">
<g id="fw6DE5.tif">
	<g>
		<path d="M895.4,539.8c-25.3,0-49.1,0-74.3,0c0-26.8,0-51.8,0-79.3c25.1,0,49.5,0,79.8,0c-10.1-36.8-18.3-70.2-28.7-102.8
			c-3.5-11.1-3-17.8,5.6-25.8c15.9-14.8,30.7-30.8,46.4-46.7c86,145.8,86.1,410.4-117,581.7c-189.4,159.7-474.4,145.3-647.6-32.9
			C-16.2,653.1-22.9,370.4,144.4,182.8C317.1-11,591.7-18.6,764,102.5c-18.6,17.7-37.3,35.5-57.5,54.8c-22-9.7-48.3-23.4-76-33
			c-27.7-9.5-56.9-14.9-88.9-23c0,28.9,0,53.2,0,78.8c-27.6,0-52.6,0-79.5,0c0-24.6,0-48.4,0-71.8c-140-29-362.5,191.6-354.5,351.8
			c24.2,0,48.5,0,73.9,0c0,27,0,51.4,0,78.5c-24.4,0-48.7,0-73,0c2.9,169.2,166.1,346.8,352.6,354.8c0-23.9,0-47.9,0-73.3
			c26.6,0,51.7,0,79.2,0c0,24.4,0,48.8,0,73.2C705.7,888,882.4,735.3,895.4,539.8z"/>
		<path d="M499,591.1c-59.9-59.8-121.4-121.3-182.4-182.4c17-17.4,34.7-35.4,52.7-53.8c42.8,43.2,85.4,86.2,128.1,129.2
			C636.3,345.2,772.2,209.3,908.7,72.8c19.8,20.9,37.2,39.3,52.8,55.8C808.3,281.8,653.9,436.3,499,591.1z"/>
	</g>
</g>
</svg>
