<?xml version="1.0" encoding="utf-8"?>
<!-- Generator: Adobe Illustrator 24.0.2, SVG Export Plug-In . SVG Version: 6.00 Build 0)  -->
<svg version="1.1" id="Capa_1" xmlns="http://www.w3.org/2000/svg" xmlns:xlink="http://www.w3.org/1999/xlink" x="0px" y="0px"
	 viewBox="0 0 350 350" style="enable-background:new 0 0 350 350;" xml:space="preserve">
<g id="BkF49P.tif">
	<g>
		<path d="M347.7,350c-1.5-0.1-2.9-0.3-4.4-0.3c-30.9,0-61.7,0-92.6,0c-1.7,0-3.3,0-5.2,0c0-57.7,0-115,0-172.8c34,0,68.1,0,102.2,0
			C347.7,234.6,347.7,292.3,347.7,350z"/>
		<path d="M1.5,212.1c32.7,0,65.4,0.1,98,0.1c1.3,0,2.6,0,4.1,0c0,46,0,91.6,0,137.6c-1.6,0-3.1,0-4.5,0c-31.4,0-62.9,0-94.3,0
			c-1.1,0-2.2,0.2-3.3,0.3C1.5,304,1.5,258,1.5,212.1z"/>
		<path d="M123.5,125.7c34.1,0,67.9,0,102.1,0c0,74.5,0,149,0,223.7c-34,0-68,0-102.1,0C123.5,274.8,123.5,200.4,123.5,125.7z"/>
		<path d="M204.2,111.1c-9.3-4.9-17.9-9.4-26.4-13.9c-1.9-1-3.3-1.1-5.2,0c-7.6,4.2-15.3,8.1-23,12.1c-1,0.5-2,1-3.4,1.6
			c1.7-10,3.2-19.7,5-29.3c0.4-2.3-0.2-3.5-1.7-5c-6.7-7-13.2-14.1-19.7-20.9c4.7-0.7,10.4-1.6,16.2-2.4c2.8-0.4,5.6-1.2,8.3-1.1
			c5.1,0.2,7.4-2.6,9.3-6.9c3.4-7.7,7.4-15.2,11.3-23.2c0.7,1.1,1.2,1.9,1.6,2.7c3.8,7.7,7.8,15.2,11.3,23c1.3,2.8,3,3.7,5.8,4.1
			c8.4,1.1,16.7,2.4,25.1,3.6c0.9,0.1,1.7,0.4,3,0.7c-0.8,0.9-1.4,1.7-2.1,2.3c-6.1,6-12.2,12-18.4,17.9c-1.9,1.8-2.5,3.5-2,6.2
			C201,91.6,202.5,101,204.2,111.1z"/>
		<path d="M268.3,162c1.4-8.3,2.2-16,4.1-23.3c1.6-6.4,0.7-10.9-4.7-15.1c-5.3-4.2-9.8-9.3-14.6-14c-0.8-0.8-1.5-1.6-2.6-2.8
			c10.2-1.5,19.8-2.9,29.5-4.2c2-0.3,3.2-1,4.1-2.9c3.8-7.9,7.7-15.7,11.6-23.6c0.5-1,1-1.9,1.7-3.2c4.5,9,8.8,17.7,13,26.4
			c1.1,2.2,2.4,3.1,4.8,3.4c9.4,1.2,18.9,2.7,28.8,4.2c-0.9,1.1-1.5,1.8-2.2,2.5c-6.1,6-12.2,12-18.4,17.9c-2,1.8-2.5,3.6-2,6.2
			c1.6,8.4,3,16.8,4.4,25.3c0.1,0.9,0.2,1.8,0.4,3.2c-1.3-0.6-2.3-1-3.2-1.5c-7.6-4-15.2-7.8-22.7-12c-2.3-1.3-4-1.1-6.2,0.1
			C285.9,152.9,277.5,157.2,268.3,162z"/>
		<path d="M51,107.2c4.4,9,8.7,17.3,12.6,25.8c1.3,2.7,2.9,3.8,5.8,4.1c9.3,1.2,18.5,2.6,28.4,4.1c-1.1,1.1-1.8,1.9-2.5,2.6
			c-6.3,6.1-12.5,12.3-18.9,18.4c-1.5,1.4-1.9,2.7-1.5,4.7c1.8,9.6,3.3,19.2,5,29.5c-2.4-1.2-4.3-2.2-6.1-3.2
			c-6.9-3.6-13.7-7.3-20.7-10.7c-1.2-0.6-3.3-0.6-4.5,0c-7.6,3.8-15.2,7.9-22.7,11.9c-1.1,0.6-2.2,1.1-3.9,1.9
			c0.9-5.7,1.7-10.8,2.6-16c0.7-4.4,1.5-8.9,2.4-13.3c0.4-2.1-0.2-3.5-1.7-5c-6.7-7-13.2-14.2-19.5-21c4.7-0.7,10.8-1.6,16.8-2.5
			c3.7-0.5,7.4-0.8,11-1.6c1.5-0.3,3.2-1.6,3.9-2.9c4-7.7,7.7-15.5,11.6-23.3C49.6,109.6,50.2,108.7,51,107.2z"/>
	</g>
</g>
</svg>
