<?xml version="1.0" encoding="utf-8"?>
<!-- Generator: Adobe Illustrator 24.0.2, SVG Export Plug-In . SVG Version: 6.00 Build 0)  -->
<svg version="1.1" id="Layer_1" xmlns="http://www.w3.org/2000/svg" xmlns:xlink="http://www.w3.org/1999/xlink" x="0px" y="0px"
	 viewBox="0 0 512 512" style="enable-background:new 0 0 512 512;" xml:space="preserve">
<g id="DDdWN5.tif">
	<g>
		<path d="M0,260c0-2.7,0-5.3,0-8c3.9-5.4,7.5-11,11.7-16c7.3-8.9,14.7-17.7,22.5-26.1c35.6-38.4,75.4-71.5,122.8-94.5
			c30-14.5,61.5-23.6,95-24.3c36.8-0.7,71.1,8.7,103.9,24.7c41.2,20.1,76.7,48,108.8,80.4c17.2,17.4,33.9,35.2,47.3,55.8
			c0,2.7,0,5.3,0,8c-1.3,2.1-2.4,4.3-3.9,6.2c-38.9,50.1-84.2,93.1-140.2,123.8c-33.6,18.4-69.2,30.1-107.9,30.9
			c-41.2,0.8-79.1-11.1-115-30.4c-42.6-22.9-79-53.6-111.4-89.2C21.7,288.2,11.2,273.8,0,260z M256.2,151
			c-57.8-0.1-105.1,46.9-105.2,104.6c-0.1,57.8,46.8,105.1,104.5,105.3c58,0.2,105.4-46.9,105.5-104.9
			C361,198.3,314,151.1,256.2,151z"/>
		<path d="M80,0c0.7,0.4,1.3,0.9,2,1.3c6.8,3.5,10.2,10.2,8.7,16.8C89,25.3,83.2,29.9,75.5,30c-13.1,0.1-26.3,0-39.4,0
			c-1.8,0-3.6,0-6.1,0c0,5.2,0,10.1,0,15c0,9.5,0,19,0,28.4c0,9.4-4.1,15.4-11.9,17.2C11,92.3,4.9,88.7,0.7,80.6
			C0.6,80.3,0.2,80.2,0,80c0-23,0-46,0-69C2.4,6.1,6,2.4,11,0C34,0,57,0,80,0z"/>
		<path d="M512,80c-0.4,0.5-0.8,1-1.1,1.5c-3.6,7.2-10.2,10.7-17,9.2C486.6,89,482.1,83.1,482,75c-0.1-13.5,0-26.9,0-40.4
			c0-1.3,0-2.6,0-4.6c-2.9,0-5.5,0-8.1,0c-11.8,0-23.6,0-35.4,0c-9.4,0-15.4-4.2-17.2-11.9c-1.6-7.1,1.9-13.2,10.1-17.3
			c0.3-0.1,0.4-0.5,0.6-0.7c23,0,46,0,69,0c5,2.4,8.6,6.1,11,11C512,34,512,57,512,80z"/>
		<path d="M0,432c0.4-0.5,0.8-1,1.1-1.5c3.6-7.2,10.2-10.7,17-9.1c7.3,1.7,11.9,7.6,11.9,15.7c0.1,13.5,0,26.9,0,40.4
			c0,1.3,0,2.6,0,4.6c5.2,0,10.1,0,15.1,0c9.8,0,19.6,0,29.4,0c8.6,0,14.4,4.4,16.2,11.9c1.6,6.9-2,13.3-9.6,17.1
			c-0.4,0.2-0.7,0.6-1,0.9c-23,0-46,0-69,0c-4.9-2.4-8.6-6.1-11-11C0,478,0,455,0,432z"/>
		<path d="M432,512c-0.9-0.6-1.9-1.2-2.8-1.8c-6.1-3.4-9.3-10-7.8-16.3c1.6-7,7.4-11.8,14.7-11.9c13.3-0.1,26.6,0,39.9,0
			c1.8,0,3.6,0,6.1,0c0-5.2,0-10.1,0-15.1c0-9.5,0-19,0-28.4c0-9.4,4.2-15.4,11.9-17.2c7.1-1.6,13.2,1.9,17.3,10.1
			c0.1,0.3,0.5,0.4,0.7,0.6c0,23,0,46,0,69c-2.4,4.9-6.1,8.6-11,11C478,512,455,512,432,512z"/>
		<path d="M255.9,181c41.3,0,75.1,33.6,75.1,74.9c0,41.3-33.6,75-74.9,75.1c-41.3,0-75.1-33.6-75.1-74.9
			C181,214.7,214.6,181,255.9,181z M256.2,211c-24.7-0.1-45,19.9-45.2,44.5c-0.2,24.9,20,45.4,44.8,45.5c24.7,0.1,45-19.9,45.2-44.5
			C301.2,231.6,281,211.1,256.2,211z"/>
		<path d="M255.8,241c8.1-0.1,15,6.5,15.2,14.6c0.2,8.3-6.7,15.4-15,15.4c-8.1,0-14.9-6.8-15-14.9C240.9,248,247.7,241.1,255.8,241z
			"/>
	</g>
</g>
</svg>
