<?xml version="1.0" encoding="utf-8"?>
<!-- Generator: Adobe Illustrator 24.0.2, SVG Export Plug-In . SVG Version: 6.00 Build 0)  -->
<svg version="1.1"
	 id="Layer_1" inkscape:version="1.0 (4035a4f, 2020-05-01)" sodipodi:docname="icon-source.svg" xmlns:cc="http://creativecommons.org/ns#" xmlns:dc="http://purl.org/dc/elements/1.1/" xmlns:inkscape="http://www.inkscape.org/namespaces/inkscape" xmlns:rdf="http://www.w3.org/1999/02/22-rdf-syntax-ns#" xmlns:sodipodi="http://sodipodi.sourceforge.net/DTD/sodipodi-0.dtd" xmlns:svg="http://www.w3.org/2000/svg"
	 xmlns="http://www.w3.org/2000/svg" xmlns:xlink="http://www.w3.org/1999/xlink" x="0px" y="0px" viewBox="0 0 1024 1024"
	 style="enable-background:new 0 0 1024 1024;" xml:space="preserve">
<style type="text/css">
	.st0{fill:#323433;}
	.st1{fill:#FFCC00;}
</style>
<sodipodi:namedview  bordercolor="#666666" borderopacity="1" gridtolerance="10" guidetolerance="10" id="namedview850" inkscape:current-layer="Layer_1" inkscape:cx="512" inkscape:cy="512" inkscape:pageopacity="0" inkscape:pageshadow="2" inkscape:window-height="968" inkscape:window-maximized="0" inkscape:window-width="1630" inkscape:window-x="0" inkscape:window-y="23" inkscape:zoom="0.6953125" objecttolerance="10" pagecolor="#ffffff" showgrid="false">
	</sodipodi:namedview>
<g id="Layer_1_1_">
	<g id="Layer_2_1_">
	</g>
	<path id="path836" class="st0" d="M820.5,1024h-617C91.1,1024,0,932.9,0,820.5v-617C0,91.1,91.1,0,203.5,0h617
		C932.9,0,1024,91.1,1024,203.5v617C1024,932.9,932.9,1024,820.5,1024z"/>
</g>
<g id="Layer_2_2_">
</g>
<g id="g18" inkscape:groupmode="layer" inkscape:label="Image">
	<g id="text24" transform="matrix(0.92407939,0,0,1.0821581,-16,10)">
		<path id="path33" d="M475.2,751.6c-34.9,0-67.2-5.2-96.9-15.5c-29.5-10.3-54.8-25.7-76.1-46.1c-21.3-20.4-37.8-45.9-49.6-76.4
			c-11.6-30.5-17.4-65.8-17.4-105.8c0-37.3,5.6-71,16.7-101.3c11.2-30.3,27.4-56.3,48.6-78c20.4-20.8,45.7-36.9,75.8-48.3
			c30.3-11.4,63.3-17,99.1-17c19.8,0,37.6,1.2,53.4,3.5c16,2.1,30.7,4.9,44.2,8.5c14.1,4,26.8,8.5,38.2,13.6
			c11.6,4.8,21.7,9.4,30.3,13.6v114h-13.9c-5.9-5.1-13.4-11-22.4-18c-8.8-6.9-18.9-13.8-30.3-20.5c-11.6-6.7-24.1-12.4-37.6-17
			c-13.5-4.6-27.9-6.9-43.3-6.9c-17,0-33.3,2.7-48.6,8.2c-15.4,5.3-29.6,14.1-42.6,26.5c-12.4,12-22.5,27.9-30.3,47.7
			c-7.6,19.8-11.4,43.8-11.4,72c0,29.5,4.1,54.1,12.3,73.9c8.4,19.8,18.9,35.4,31.6,46.7c12.8,11.6,27.1,19.9,42.9,24.9
			c15.8,4.8,31.4,7.3,46.7,7.3c14.7,0,29.3-2.2,43.6-6.6c14.5-4.4,27.9-10.4,40.1-18c10.3-6.1,19.9-12.6,28.7-19.6
			c8.8-6.9,16.1-12.9,21.8-18h12.6v112.4c-11.8,5.3-23,10.2-33.8,14.8c-10.7,4.6-22,8.6-33.8,12c-15.4,4.4-29.8,7.8-43.3,10.1
			C517.3,750.5,498.8,751.6,475.2,751.6L475.2,751.6z"/>
	</g>
	<g id="text28" transform="translate(-16,10)">
		<path id="path30" d="M832.2,457H642.4v-39.9c14.5-10.5,29-21.6,43.5-33.4c14.6-11.8,26.3-22,35.1-30.5
			c13.1-12.7,22.4-23.7,27.9-33.1c5.5-9.4,8.3-18.7,8.3-27.9c0-11-3.6-19.5-10.7-25.5c-7-6.1-17.2-9.1-30.5-9.1
			c-10,0-20.5,2.1-31.5,6.2c-10.9,4.1-21.1,9.4-30.5,15.7h-5.2v-53.7c7.7-3.4,19-6.7,33.9-10.1c15-3.4,30.1-5,45.1-5
			c30.3,0,53.4,6.4,69.3,19.2c15.9,12.7,23.9,30.6,23.9,53.9c0,15.3-3.8,29.8-11.5,43.5c-7.6,13.7-19.2,27.9-34.9,42.5
			c-9.8,9.1-19.8,17.5-29.7,25.2c-10,7.6-17,12.9-21.3,15.9h108.6L832.2,457z"/>
	</g>
	<g id="g50" transform="matrix(0.92407939,0,0,1.0821581,-28,-6)">
		<path id="path48" class="st1" d="M472,748c-34.9,0-67.2-5.2-96.9-15.5c-29.5-10.3-54.8-25.7-76.1-46.1
			c-21.3-20.4-37.8-45.9-49.6-76.4c-11.6-30.5-17.4-65.8-17.4-105.8c0-37.3,5.6-71,16.7-101.3c11.2-30.3,27.4-56.3,48.6-78
			c20.4-20.8,45.7-36.9,75.8-48.3c30.3-11.4,63.3-17,99.1-17c19.8,0,37.6,1.2,53.4,3.5c16,2.1,30.7,4.9,44.2,8.5
			c14.1,4,26.8,8.5,38.2,13.6c11.6,4.8,21.7,9.4,30.3,13.6v114h-13.9c-5.9-5.1-13.4-11-22.4-18c-8.8-6.9-18.9-13.8-30.3-20.5
			c-11.6-6.7-24.1-12.4-37.6-17c-13.5-4.6-27.9-6.9-43.3-6.9c-17,0-33.3,2.7-48.6,8.2c-15.4,5.3-29.6,14.1-42.6,26.5
			c-12.4,12-22.5,27.9-30.3,47.7c-7.6,19.8-11.4,43.8-11.4,72c0,29.5,4.1,54.1,12.3,73.9c8.4,19.8,18.9,35.4,31.6,46.7
			c12.8,11.6,27.1,19.9,42.9,24.9c15.8,4.8,31.4,7.3,46.7,7.3c14.7,0,29.3-2.2,43.6-6.6c14.5-4.4,27.9-10.4,40.1-18
			c10.3-6.1,19.9-12.6,28.7-19.6c8.8-6.9,16.1-12.9,21.8-18h12.6v112.4c-11.8,5.3-23,10.2-33.8,14.8c-10.7,4.6-22,8.6-33.8,12
			c-15.4,4.4-29.8,7.8-43.3,10.1C514.1,746.8,495.6,748,472,748L472,748z"/>
	</g>
	<g id="g54" transform="translate(-28,-6)">
		<path id="path52" class="st1" d="M829.2,453.1H639.5v-39.9c14.5-10.5,29-21.6,43.5-33.4c14.6-11.8,26.3-22,35.1-30.5
			c13.1-12.7,22.4-23.7,27.9-33.1c5.5-9.4,8.3-18.7,8.3-27.9c0-11-3.6-19.5-10.7-25.5c-7-6.1-17.2-9.1-30.5-9.1
			c-10,0-20.5,2.1-31.5,6.2c-10.9,4.1-21.1,9.4-30.5,15.7h-5.2v-53.7c7.7-3.4,19-6.7,33.9-10.1c15-3.4,30.1-5,45.1-5
			c30.3,0,53.4,6.4,69.3,19.2c15.9,12.7,23.9,30.6,23.9,53.9c0,15.3-3.8,29.8-11.5,43.5c-7.6,13.7-19.2,27.9-34.9,42.5
			c-9.8,9.1-19.8,17.5-29.7,25.2c-10,7.6-17,12.9-21.3,15.9h108.6L829.2,453.1z"/>
	</g>
</g>
</svg>
